<svg width="408.93" height="417.33" version="1.1" viewBox="0 0 408.93 417.33" xmlns="http://www.w3.org/2000/svg">
<g transform="translate(-827.65 -73.977)">
<path d="m870.22 488.98c1.6697-4.324 7.1905-39.542 8.622-55 1.8208-19.663 1.839-68.307 0.0316-85.053-5.8207-53.934-21.285-99.331-46.147-135.47-8.4027-12.215-8.1039-12.105 14.183 5.2334 56.887 44.255 100.58 100.47 116.04 149.29 2.3224 7.3333 4.6719 14.515 5.2212 15.96 0.5493 1.4448 1.3872-10.255 1.862-26 1.6304-54.062 8.6005-106.02 20.476-152.63 14.798-58.08 38.437-102.44 66.143-124.12 5.0723-3.9688 9.6346-7.216 10.138-7.216s0.6711 14.902 0.372 33.116c-0.7578 46.142 2.442 84.783 9.2184 111.32 2.925 11.456 8.9859 27.568 10.363 27.548 0.472-7e-3 2.2674-4.6569 3.9898-10.333 11.741-38.695 41.544-80.431 73.912-103.5 8.9065-6.349 30.29-18.524 30.29-17.246 0 0.36027-4.468 10.654-9.9289 22.875-43.604 97.584-65.481 184.65-57.993 230.79 2.2206 13.686 3.0374 13.674 7.84-0.11467 12.378-35.54 36.139-69.917 61.571-89.08 10.289-7.7527 28.494-17.485 36.439-19.479 3.3286-0.83542 3.7255-0.63332 3.0856 1.571-0.4039 1.3914-2.9235 10.02-5.599 19.174-17.339 59.327-23.119 116.12-15.982 157.04 3.4836 19.976 8.7866 33.376 19.781 49.982l2.4275 3.6667h-183.63c-174.34 0-183.58-0.118-182.73-2.3333z" stroke-width="1.3333"/>
</g>
</svg>
