<svg width="184.49" height="151.09" version="1.1" viewBox="0 0 184.49 151.09" xmlns="http://www.w3.org/2000/svg">
<g transform="translate(-348.05 -53.488)">
<path d="m361.17 204.37c-6.0796-1.0594-11.062-5.6717-12.63-11.692-0.32534-1.2491-0.48998-3.3639-0.48998-6.2939v-4.4128h174.8l-0.15644 5.04c-0.12615 4.064-0.28876 5.4068-0.83964 6.9342-1.6716 4.6345-4.8707 7.8387-9.8004 9.8158l-1.92 0.77003-73.76 0.0447c-40.568 0.0246-74.408-0.0682-75.2-0.2062zm-13.12-51.864v-23.705l0.88 0.18882c0.484 0.10385 6.784 1.259 14 2.5671 40.356 7.3153 62.802 11.4 63.44 11.544 0.69951 0.15828 0.72 0.2766 0.72 4.1568v3.9939h19.52v-4c0-2.3586 0.12681-4 0.30902-4 0.16996 0 4.382-0.71947 9.36-1.5988 4.978-0.87935 11.518-2.0333 14.534-2.5644l5.4832-0.96561 1.5568 0.66821c8.3773 3.5956 19.672 4.1525 29.022 1.431 4.7447-1.381 10.207-4.0984 13.982-6.9551 0.88313-0.66842 1.6748-1.2153 1.7592-1.2153 0.0844 0 0.15351 9.936 0.15351 22.08v22.08h-174.72zm98.492-17.783-0.0925-2.7687-8.8-0.0326c-4.84-0.0179-9.196 0.0203-9.68 0.085-0.87681 0.1172-0.88 0.1269-0.88 2.676 0 2.491-0.019 2.5538-0.72 2.3855-0.396-0.0951-1.224-0.25457-1.84-0.35446-0.616-0.0999-5.8-1.0371-11.52-2.0827-5.72-1.0456-11.624-2.1159-13.12-2.3785-5.6893-0.9986-50.434-9.1572-51.12-9.3211l-0.72-0.17195v-9.3667c0-10.126 0.16359-11.471 1.7842-14.669 1.7873-3.5271 5.7773-6.7674 9.6465-7.8341 2.0704-0.57074 4.1968-0.598 46.649-0.598h44.48l-0.16 1.6c-0.40011 4.0011-0.0976 11.512 0.59565 14.788 1.2229 5.779 3.6293 11.327 7.14 16.463 1.9444 2.8442 6.2049 7.3664 8.7377 9.2744 0.7848 0.59121 1.4311 1.1469 1.4363 1.2349 9e-3 0.15335-20.539 3.8565-21.337 3.8454-0.26587-4e-3 -0.41657-0.87464-0.48-2.7741zm46.439-1.7206c-12.02-1.0931-23.232-8.7789-28.695-19.671-1.289-2.5698-2.7663-6.8524-3.3116-9.6-0.68801-3.4666-0.5377-10.839 0.29553-14.495 2.4043-10.55 9.6348-19.722 19.3-24.483 13.498-6.6495 29.677-4.241 40.576 6.0405 9.7914 9.2367 13.616 22.789 10.119 35.857-4.4884 16.772-20.726 27.948-38.284 26.351zm5.7887-13.105c0-1.8273 0.0398-1.9227 0.88-2.1087 5.9327-1.3135 8.7658-4.2264 9.7137-9.987 0.4703-2.8583 0.0246-6.6315-1.055-8.9316-1.028-2.1901-2.7469-3.7003-7.9223-6.9602-2.4985-1.5737-4.8717-3.2524-5.2739-3.7303-1.3903-1.6523-1.3052-5.2762 0.14211-6.0508 0.85252-0.45625 1.1942-0.39872 1.9154 0.32246 0.53333 0.53333 0.64 1.0667 0.64 3.2v2.56h10.56v-2.1819c0-3.3677-0.71396-5.2938-2.6976-7.2775-1.3614-1.3614-2.0998-1.813-3.8473-2.3527-1.1894-0.36736-2.3633-0.66793-2.6088-0.66793-0.32805 0-0.44629-0.47-0.44629-1.774v-1.774l-4.64 0.18804-0.191 3.2-2.2934 0.55649c-5.7558 1.3967-8.5821 5.3016-8.1253 11.226 0.37869 4.9107 2.1224 7.4375 7.679 11.128 4.3344 2.8785 5.8857 4.185 6.3174 5.3203 0.16024 0.42143 0.32774 2.0664 0.37224 3.6555 0.0756 2.6993 0.0312 2.9296-0.67453 3.5016-1.0252 0.83087-2.1697 0.78431-2.6483-0.10773-0.21244-0.396-0.4695-2.376-0.57126-4.4l-0.18501-3.68-4.7859-0.0889c-2.6323-0.0489-4.9376-0.0307-5.1228 0.0403-0.22518 0.0864-0.26902 1.3136-0.13221 3.7007 0.26129 4.5588 1.2573 6.8576 3.8167 8.8089 1.6534 1.2605 4.307 2.3889 5.6643 2.4086 0.67175 0.01 0.72 0.14984 0.72 2.0904v2.08h4.8zm-89.473-36.617c-0.0951-0.24776-0.12656-5.3238-0.07-11.28 0.10049-10.575 0.12061-10.869 0.85568-12.494 0.95139-2.1038 3.5535-4.591 5.6482-5.3988 1.5117-0.58297 2.5957-0.61666 19.839-0.61666 17.956 0 18.263 0.01066 19.719 0.68395 2.037 0.94186 4.0098 2.8059 5.0121 4.7357 0.73483 1.4148 0.85752 2.0914 0.96752 5.3351l0.12597 3.7148-2.2718 3.0052c-1.9858 2.6268-5.0223 8.0578-6.4214 11.485-0.4246 1.0402-0.47178 0.64103-0.66195-5.6-0.16552-5.4321-0.31393-6.9653-0.77436-8-0.95251-2.1405-2.3294-3.5872-4.3981-4.6209l-1.9594-0.9791h-9.3319c-10.389 0-11.241 0.13022-13.499 2.0626-0.68613 0.5873-1.6749 1.8395-2.1973 2.7826l-0.94981 1.7148-0.10237 6.96-0.10238 6.96h-4.6277c-3.6835 0-4.6629-0.09191-4.8005-0.45047z" stroke-width=".32"/>
</g>
</svg>
