<svg width="252.64" height="224.14" version="1.1" viewBox="0 0 252.64 224.14" xmlns="http://www.w3.org/2000/svg">
<g transform="translate(-431.26 -.482)">
<path d="m538.45 222.29c0.38627-1.2833 2.9011-11.183 5.5886-22l4.8863-19.667h7.1679c4.5742 0 7.1679 0.56313 7.1679 1.5562 0 0.85592-1.8423 8.5059-4.0939 17-2.2516 8.4941-4.6748 17.694-5.3847 20.444l-1.2908 5h-7.3718c-6.3994 0-7.2792-0.30778-6.6695-2.3333zm34.116 0.73635c-0.0156-0.95499 2.2148-10.886 4.9564-22.07l4.9848-20.333h14.884l-11.005 43.333-6.8959 0.40301c-4.9713 0.29054-6.9038-0.0816-6.9243-1.3333zm33.414-0.66667c0.0289-1.3216 2.3366-11.103 5.1284-21.736l5.0758-19.333 14.832-0.79244-11.089 43.459-7 0.40301c-6.0194 0.34656-6.9926 0.0664-6.9475-2zm-74.813-56.893c-13.149-3.5452-23.676-12.221-30.147-24.844-3.3582-6.5514-3.7591-8.7077-3.7591-20.222v-12.889l-4.6667-1.4068c-6.9997-2.1102-14.625-9.1316-18.159-16.721-9.0687-19.476 1.52-41.87 22.464-47.51 17.536-4.7218 38.679 9.494 40.693 27.36 0.64877 5.7558 0.89 6.0556 4.8726 6.0556 3.4258 0 4.6512-0.85629 6.7184-4.6948 6.315-11.726 22.169-22.045 38.212-24.871 19.982-3.5198 42.258 6.4519 53.979 24.164 2.381 3.5978 4.8967 5.4809 8.9341 6.687 13.502 4.0336 23.816 12.753 30.014 25.373 3.0717 6.2544 3.6018 9.0215 3.5772 18.676-0.0239 9.343-0.63287 12.632-3.4682 18.728-6.528 14.035-16.996 22.679-31.64 26.125-10.286 2.421-108.64 2.4134-117.62-9e-3zm116.85-14.805c23.146-6.9054 30.119-34.66 13.043-51.913-9.5309-9.6295-25.358-11.674-38.029-4.9121l-7.2702 3.8796-3.6474-6.0386c-2.0061-3.3212-3.469-6.1628-3.2509-6.3147 3.8037-2.6486 11.194-6.4884 15.073-7.8313l4.9633-1.7183-6.7296-6.0505c-12.443-11.187-29.476-13.415-44.895-5.8719-6.355 3.1092-15.353 11.188-15.347 13.779 1e-3 0.52448 2.6864 2.6493 5.9668 4.7217 7.4798 4.7254 12.283 10.358 16.115 18.899 5.4469 12.138 5.4489 12.121-1.632 14.533-3.4674 1.1815-6.6886 1.6948-7.1581 1.1407-0.46953-0.55408-1.8895-3.8235-3.1556-7.2654-6.7266-18.287-28.78-26.261-45.511-16.456-10.485 6.1448-15.302 14.931-15.282 27.877 0.0213 13.935 8.4828 25.434 21.774 29.591 8.5551 2.6756 105.98 2.6345 114.97-0.0485zm-138.44-61.433c2.5256-2.6005 6.9362-6.208 9.8014-8.0167 6.1492-3.8818 6.5616-6.7198 2.2094-15.207-6.7037-13.073-22.325-14.365-32.175-2.6601-6.2722 7.4541-4.4389 20.537 3.7293 26.612 7.0832 5.2686 10.769 5.1053 16.434-0.72815zm-56.728 37.665c-2.3439-2.4182-4.2616-4.9856-4.2616-5.7052 0-1.7355 16.352-17.898 18.108-17.898 0.75308 0 3.4126 2.1083 5.9102 4.685l4.5409 4.685-9.2436 9.315c-5.084 5.1232-9.592 9.315-10.018 9.315-0.42582 0-2.6919-1.9786-5.0358-4.3968zm-21.595-52.316v-7.38l27.333 0.75995 0.40301 7 0.40302 7h-28.139zm26.306-36.312c-4.9348-4.9729-8.9723-9.6588-8.9723-10.413 0-0.75441 2.1138-3.4204 4.6973-5.9244l4.6973-4.5528 19.241 19.241-10.691 10.691zm80.1 4.0412-4.8335-5.0158 18.498-19.891 10.611 10.611-19.442 19.312zm-39.739-27.752v-14.07l14 0.80603 0.75996 27.333h-14.76z" stroke-width="1.3333"/>
</g>
</svg>
