<svg width="50" height="51" viewBox="0 0 50 51" fill="none" xmlns="http://www.w3.org/2000/svg">
<g clip-path="url(#clip0_41:391)">
<path d="M24.0966 50.1169C23.4294 49.9596 22.6161 49.4729 22.089 48.9155C21.6122 48.4114 21.0932 47.4879 21.0932 47.1438C21.0932 47.033 20.9571 47.0001 20.4998 47.0001C19.9741 47.0001 19.8738 46.9675 19.6209 46.7146L19.3354 46.4292V43.8009L18.735 43.7574C17.8246 43.6916 17.7729 43.5924 17.7729 41.9111V40.5548H16.1049L16.1332 39.7491L16.1616 38.9435L17.7729 38.8867V37.3321H16.1128V35.672H17.7729L17.7717 34.9151L17.7705 34.1583L16.6731 33.5942C13.4358 31.9303 10.712 29.1201 9.07921 25.7602C7.02417 21.5305 6.7135 16.7866 8.19923 12.3234C9.80871 7.48836 13.5641 3.49352 18.3292 1.54763C20.9714 0.468697 23.9472 0.0381163 26.7706 0.326199C29.3279 0.587121 31.916 1.43788 34.0329 2.71343C42.0024 7.51583 44.9667 17.436 40.9181 25.76C39.2815 29.1252 36.5631 31.93 33.325 33.594L32.2276 34.1581L32.2264 34.9149L32.2252 35.6718H33.8853V37.3319H32.2252V38.8865L33.8365 38.9432L33.8649 39.7489L33.8932 40.5546H32.2252V41.9109C32.2252 43.5922 32.1735 43.6914 31.2631 43.7572L30.6627 43.8007V46.4289L30.3772 46.7144C30.1244 46.9673 30.024 46.9998 29.4983 46.9998C29.041 46.9998 28.9049 47.0328 28.9049 47.1435C28.9049 47.4957 28.3791 48.4208 27.884 48.9399C26.882 49.9903 25.4487 50.4355 24.0957 50.1166L24.0966 50.1169ZM25.6587 48.5078C26.0679 48.4244 26.6283 48.0182 26.9534 47.5695C27.1141 47.3477 27.2456 47.1288 27.2456 47.0831C27.2456 47.0375 26.2348 47.0001 24.9995 47.0001C23.7641 47.0001 22.7534 47.0375 22.7534 47.0831C22.7534 47.2675 23.3613 47.9885 23.7132 48.2213C23.9196 48.3579 24.2825 48.5067 24.5196 48.5519C24.9359 48.6312 25.0815 48.6256 25.6587 48.5079L25.6587 48.5078ZM29.0034 44.6076V43.7775H20.9955V45.4376H29.0034V44.6076ZM30.6635 41.3361V40.5549H19.3352V42.1174H30.6635V41.3361ZM30.6635 38.1135V37.3323H19.3352V38.8948H30.6635V38.1135ZM20.9958 27.1006V18.5296L22.6497 14.3987C23.5593 12.1267 24.3534 10.2078 24.4142 10.1345C24.5965 9.9149 25.0546 9.86389 25.3717 10.0279C25.6331 10.1631 25.8185 10.5723 27.3321 14.3554L29.0037 18.5335L29.0034 35.6724H30.6636V34.543C30.6636 33.9217 30.7092 33.3283 30.7649 33.2242C30.8206 33.1201 31.364 32.7928 31.9725 32.497C36.6193 30.2374 39.8223 26.0967 40.825 21.0535C41.0916 19.7124 41.1787 17.5106 41.0194 16.1399C40.5822 12.3789 38.8617 8.9492 36.0802 6.29376C32.7722 3.13547 28.4532 1.58756 23.8192 1.89996C21.0288 2.08811 18.4023 3.00072 15.9551 4.63241C14.6421 5.50787 12.7356 7.37909 11.7905 8.71991C10.5769 10.4416 9.63787 12.6377 9.1808 14.8234C8.90996 16.1184 8.81663 18.4308 8.97892 19.825C9.62008 25.3329 12.9735 30.0264 18.0392 32.5068C18.6427 32.8022 19.181 33.1272 19.2355 33.229C19.29 33.3308 19.3345 33.9224 19.3345 34.5436V35.673H20.9947L20.9958 27.1006ZM10.515 17.9229C10.4915 17.8826 10.5095 17.3821 10.555 16.8106C11.0216 10.9589 14.8927 6.0491 20.5073 4.18751C22.079 3.66642 23.1379 3.50532 24.9995 3.50409C28.0024 3.5021 30.4571 4.22161 32.8937 5.81793C36.7227 8.32666 39.0836 12.2888 39.4441 16.8105C39.4897 17.382 39.5077 17.8825 39.4841 17.9228C39.4605 17.9631 39.0987 17.996 38.6801 17.996H37.919L37.8634 17.0927C37.5884 12.6207 34.8256 8.46381 30.7771 6.4306C29.8212 5.95056 28.2768 5.44253 27.197 5.2529C26.0541 5.05221 23.9453 5.05221 22.8025 5.2529C17.9587 6.10353 13.8966 9.7539 12.589 14.4313C12.3332 15.3465 12.11 16.7443 12.1095 17.4343L12.1091 17.9958H11.3336C10.9071 17.9958 10.5389 17.9628 10.5153 17.9225L10.515 17.9229ZM13.7409 17.9229C13.6573 17.7682 13.8696 15.9588 14.0569 15.2295C14.3371 14.1388 14.8539 12.9246 15.4506 11.9556C16.1522 10.8163 17.8238 9.14626 18.9684 8.4413C21.5836 6.83061 24.5124 6.3152 27.4249 6.95301C29.629 7.4357 31.3254 8.38778 33.007 10.086C34.5112 11.6051 35.4198 13.1976 35.9417 15.2295C36.129 15.9588 36.3413 17.7682 36.2577 17.9229C36.2359 17.9632 35.8756 17.9961 35.4569 17.9961H34.6959L34.6336 17.1852C34.4604 14.9319 33.4711 12.7966 31.8381 11.1517C30.6457 9.95051 29.1827 9.09327 27.4876 8.60262C26.8055 8.40516 26.4947 8.37698 24.9991 8.37698C23.0618 8.37698 22.4139 8.50833 20.9366 9.20065C17.7711 10.684 15.6105 13.7803 15.3611 17.1905L15.3022 17.9962H14.5412C14.1227 17.9962 13.7624 17.9632 13.7407 17.9229L13.7409 17.9229ZM27.4405 27.6154V19.5586H22.5577V35.6715H27.4405V27.6154ZM26.9218 17.679C26.85 17.5044 26.4018 16.3839 25.9258 15.1888C25.4498 13.9937 25.0328 13.0159 24.9991 13.0159C24.9654 13.0159 24.5484 13.9937 24.0723 15.1888C23.5963 16.3839 23.1481 17.5044 23.0763 17.679L22.9457 17.9964H27.0524L26.9218 17.679Z" fill="#31600F" fill-opacity="0.8"/>
</g>
<defs>
<clipPath id="clip0_41:391">
<rect width="50" height="50" fill="white" transform="translate(0 0.223022)"/>
</clipPath>
</defs>
</svg>
