<svg width="153" height="98" viewBox="0 0 153 98" fill="none" xmlns="http://www.w3.org/2000/svg">
<circle cx="4.5" cy="5.1123" r="2.5" fill="#588302" fill-opacity="0.75"/>
<circle cx="10.5" cy="5.1123" r="2.5" fill="#588302" fill-opacity="0.75"/>
<circle cx="16.5" cy="5.1123" r="2.5" fill="#588302" fill-opacity="0.75"/>
<circle cx="22.5" cy="5.1123" r="2.5" fill="#588302" fill-opacity="0.75"/>
<circle cx="28.5" cy="5.1123" r="2.5" fill="#588302" fill-opacity="0.75"/>
<circle cx="34.5" cy="5.1123" r="2.5" fill="#588302" fill-opacity="0.75"/>
<circle cx="40.5" cy="5.1123" r="2.5" fill="#588302" fill-opacity="0.75"/>
<circle cx="46.5" cy="5.1123" r="2.5" fill="#588302" fill-opacity="0.75"/>
<circle cx="52.5" cy="5.1123" r="2.5" fill="#588302" fill-opacity="0.75"/>
<circle cx="58.5" cy="5.1123" r="2.5" fill="#588302" fill-opacity="0.75"/>
<circle cx="64.5" cy="5.1123" r="2.5" fill="#588302" fill-opacity="0.75"/>
<circle cx="70.5" cy="5.1123" r="2.5" fill="#588302" fill-opacity="0.75"/>
<circle cx="76.5" cy="5.1123" r="2.5" fill="#588302" fill-opacity="0.75"/>
<circle cx="82.5" cy="5.1123" r="2.5" fill="#588302" fill-opacity="0.75"/>
<circle cx="88.5" cy="5.1123" r="2.5" fill="#588302" fill-opacity="0.75"/>
<circle cx="94.5" cy="5.1123" r="2.5" fill="#588302" fill-opacity="0.75"/>
<circle cx="100.5" cy="5.1123" r="2.5" fill="#588302" fill-opacity="0.75"/>
<circle cx="106.5" cy="5.1123" r="2.5" fill="#588302" fill-opacity="0.75"/>
<circle cx="112.5" cy="5.1123" r="2.5" fill="#588302" fill-opacity="0.75"/>
<circle cx="118.5" cy="5.1123" r="2.5" fill="#588302" fill-opacity="0.75"/>
<circle cx="124.5" cy="5.1123" r="2.5" fill="#588302" fill-opacity="0.75"/>
<circle cx="130.5" cy="5.1123" r="2.5" fill="#588302" fill-opacity="0.75"/>
<circle cx="136.5" cy="5.1123" r="2.5" fill="#588302" fill-opacity="0.75"/>
<circle cx="142.5" cy="5.1123" r="2.5" fill="#588302" fill-opacity="0.75"/>
<circle cx="148.5" cy="5.1123" r="2.5" fill="#588302" fill-opacity="0.75"/>
<circle cx="4.5" cy="13.1123" r="2.5" fill="#588302" fill-opacity="0.75"/>
<circle cx="10.5" cy="13.1123" r="2.5" fill="#588302" fill-opacity="0.75"/>
<circle cx="16.5" cy="13.1123" r="2.5" fill="#588302" fill-opacity="0.75"/>
<circle cx="22.5" cy="13.1123" r="2.5" fill="#588302" fill-opacity="0.75"/>
<circle cx="28.5" cy="13.1123" r="2.5" fill="#588302" fill-opacity="0.75"/>
<circle cx="34.5" cy="13.1123" r="2.5" fill="#588302" fill-opacity="0.75"/>
<circle cx="40.5" cy="13.1123" r="2.5" fill="#588302" fill-opacity="0.75"/>
<circle cx="46.5" cy="13.1123" r="2.5" fill="#588302" fill-opacity="0.75"/>
<circle cx="52.5" cy="13.1123" r="2.5" fill="#588302" fill-opacity="0.75"/>
<circle cx="58.5" cy="13.1123" r="2.5" fill="#588302" fill-opacity="0.75"/>
<circle cx="64.5" cy="13.1123" r="2.5" fill="#588302" fill-opacity="0.75"/>
<circle cx="70.5" cy="13.1123" r="2.5" fill="#588302" fill-opacity="0.75"/>
<circle cx="76.5" cy="13.1123" r="2.5" fill="#588302" fill-opacity="0.75"/>
<circle cx="82.5" cy="13.1123" r="2.5" fill="#588302" fill-opacity="0.75"/>
<circle cx="88.5" cy="13.1123" r="2.5" fill="#588302" fill-opacity="0.75"/>
<circle cx="94.5" cy="13.1123" r="2.5" fill="#588302" fill-opacity="0.75"/>
<circle cx="100.5" cy="13.1123" r="2.5" fill="#588302" fill-opacity="0.75"/>
<circle cx="106.5" cy="13.1123" r="2.5" fill="#588302" fill-opacity="0.75"/>
<circle cx="112.5" cy="13.1123" r="2.5" fill="#588302" fill-opacity="0.75"/>
<circle cx="118.5" cy="13.1123" r="2.5" fill="#588302" fill-opacity="0.75"/>
<circle cx="124.5" cy="13.1123" r="2.5" fill="#588302" fill-opacity="0.75"/>
<circle cx="130.5" cy="13.1123" r="2.5" fill="#588302" fill-opacity="0.75"/>
<circle cx="136.5" cy="13.1123" r="2.5" fill="#588302" fill-opacity="0.75"/>
<circle cx="142.5" cy="13.1123" r="2.5" fill="#588302" fill-opacity="0.75"/>
<circle cx="148.5" cy="13.1123" r="2.5" fill="#588302" fill-opacity="0.75"/>
<circle cx="4.5" cy="21.1123" r="2.5" fill="#588302" fill-opacity="0.75"/>
<circle cx="10.5" cy="21.1123" r="2.5" fill="#588302" fill-opacity="0.75"/>
<circle cx="16.5" cy="21.1123" r="2.5" fill="#588302" fill-opacity="0.75"/>
<circle cx="22.5" cy="21.1123" r="2.5" fill="#588302" fill-opacity="0.75"/>
<circle cx="28.5" cy="21.1123" r="2.5" fill="#588302" fill-opacity="0.75"/>
<circle cx="34.5" cy="21.1123" r="2.5" fill="#588302" fill-opacity="0.75"/>
<circle cx="40.5" cy="21.1123" r="2.5" fill="#588302" fill-opacity="0.75"/>
<circle cx="46.5" cy="21.1123" r="2.5" fill="#588302" fill-opacity="0.75"/>
<circle cx="52.5" cy="21.1123" r="2.5" fill="#588302" fill-opacity="0.75"/>
<circle cx="58.5" cy="21.1123" r="2.5" fill="#588302" fill-opacity="0.75"/>
<circle cx="64.5" cy="21.1123" r="2.5" fill="#588302" fill-opacity="0.75"/>
<circle cx="70.5" cy="21.1123" r="2.5" fill="#588302" fill-opacity="0.75"/>
<circle cx="76.5" cy="21.1123" r="2.5" fill="#588302" fill-opacity="0.75"/>
<circle cx="82.5" cy="21.1123" r="2.5" fill="#588302" fill-opacity="0.75"/>
<circle cx="88.5" cy="21.1123" r="2.5" fill="#588302" fill-opacity="0.75"/>
<circle cx="94.5" cy="21.1123" r="2.5" fill="#588302" fill-opacity="0.75"/>
<circle cx="100.5" cy="21.1123" r="2.5" fill="#588302" fill-opacity="0.75"/>
<circle cx="106.5" cy="21.1123" r="2.5" fill="#588302" fill-opacity="0.75"/>
<circle cx="112.5" cy="21.1123" r="2.5" fill="#588302" fill-opacity="0.75"/>
<circle cx="118.5" cy="21.1123" r="2.5" fill="#588302" fill-opacity="0.75"/>
<circle cx="124.5" cy="21.1123" r="2.5" fill="#588302" fill-opacity="0.75"/>
<circle cx="130.5" cy="21.1123" r="2.5" fill="#588302" fill-opacity="0.75"/>
<circle cx="136.5" cy="21.1123" r="2.5" fill="#588302" fill-opacity="0.75"/>
<circle cx="142.5" cy="21.1123" r="2.5" fill="#588302" fill-opacity="0.75"/>
<circle cx="148.5" cy="21.1123" r="2.5" fill="#588302" fill-opacity="0.75"/>
<circle cx="4.5" cy="29.1123" r="2.5" fill="#588302" fill-opacity="0.75"/>
<circle cx="10.5" cy="29.1123" r="2.5" fill="#588302" fill-opacity="0.75"/>
<circle cx="16.5" cy="29.1123" r="2.5" fill="#588302" fill-opacity="0.75"/>
<circle cx="22.5" cy="29.1123" r="2.5" fill="#588302" fill-opacity="0.75"/>
<circle cx="28.5" cy="29.1123" r="2.5" fill="#588302" fill-opacity="0.75"/>
<circle cx="34.5" cy="29.1123" r="2.5" fill="#588302" fill-opacity="0.75"/>
<circle cx="40.5" cy="29.1123" r="2.5" fill="#588302" fill-opacity="0.75"/>
<circle cx="46.5" cy="29.1123" r="2.5" fill="#588302" fill-opacity="0.75"/>
<circle cx="52.5" cy="29.1123" r="2.5" fill="#588302" fill-opacity="0.75"/>
<circle cx="58.5" cy="29.1123" r="2.5" fill="#588302" fill-opacity="0.75"/>
<circle cx="64.5" cy="29.1123" r="2.5" fill="#588302" fill-opacity="0.75"/>
<circle cx="70.5" cy="29.1123" r="2.5" fill="#588302" fill-opacity="0.75"/>
<circle cx="76.5" cy="29.1123" r="2.5" fill="#588302" fill-opacity="0.75"/>
<circle cx="82.5" cy="29.1123" r="2.5" fill="#588302" fill-opacity="0.75"/>
<circle cx="88.5" cy="29.1123" r="2.5" fill="#588302" fill-opacity="0.75"/>
<circle cx="94.5" cy="29.1123" r="2.5" fill="#588302" fill-opacity="0.75"/>
<circle cx="100.5" cy="29.1123" r="2.5" fill="#588302" fill-opacity="0.75"/>
<circle cx="106.5" cy="29.1123" r="2.5" fill="#588302" fill-opacity="0.75"/>
<circle cx="112.5" cy="29.1123" r="2.5" fill="#588302" fill-opacity="0.75"/>
<circle cx="118.5" cy="29.1123" r="2.5" fill="#588302" fill-opacity="0.75"/>
<circle cx="124.5" cy="29.1123" r="2.5" fill="#588302" fill-opacity="0.75"/>
<circle cx="130.5" cy="29.1123" r="2.5" fill="#588302" fill-opacity="0.75"/>
<circle cx="136.5" cy="29.1123" r="2.5" fill="#588302" fill-opacity="0.75"/>
<circle cx="142.5" cy="29.1123" r="2.5" fill="#588302" fill-opacity="0.75"/>
<circle cx="148.5" cy="29.1123" r="2.5" fill="#588302" fill-opacity="0.75"/>
<circle cx="4.5" cy="37.1123" r="2.5" fill="#588302" fill-opacity="0.75"/>
<circle cx="10.5" cy="37.1123" r="2.5" fill="#588302" fill-opacity="0.75"/>
<circle cx="16.5" cy="37.1123" r="2.5" fill="#588302" fill-opacity="0.75"/>
<circle cx="22.5" cy="37.1123" r="2.5" fill="#588302" fill-opacity="0.75"/>
<circle cx="28.5" cy="37.1123" r="2.5" fill="#588302" fill-opacity="0.75"/>
<circle cx="34.5" cy="37.1123" r="2.5" fill="#588302" fill-opacity="0.75"/>
<circle cx="40.5" cy="37.1123" r="2.5" fill="#588302" fill-opacity="0.75"/>
<circle cx="46.5" cy="37.1123" r="2.5" fill="#588302" fill-opacity="0.75"/>
<circle cx="52.5" cy="37.1123" r="2.5" fill="#588302" fill-opacity="0.75"/>
<circle cx="58.5" cy="37.1123" r="2.5" fill="#588302" fill-opacity="0.75"/>
<circle cx="64.5" cy="37.1123" r="2.5" fill="#588302" fill-opacity="0.75"/>
<circle cx="70.5" cy="37.1123" r="2.5" fill="#588302" fill-opacity="0.75"/>
<circle cx="76.5" cy="37.1123" r="2.5" fill="#588302" fill-opacity="0.75"/>
<circle cx="82.5" cy="37.1123" r="2.5" fill="#588302" fill-opacity="0.75"/>
<circle cx="88.5" cy="37.1123" r="2.5" fill="#588302" fill-opacity="0.75"/>
<circle cx="94.5" cy="37.1123" r="2.5" fill="#588302" fill-opacity="0.75"/>
<circle cx="100.5" cy="37.1123" r="2.5" fill="#588302" fill-opacity="0.75"/>
<circle cx="106.5" cy="37.1123" r="2.5" fill="#588302" fill-opacity="0.75"/>
<circle cx="112.5" cy="37.1123" r="2.5" fill="#588302" fill-opacity="0.75"/>
<circle cx="118.5" cy="37.1123" r="2.5" fill="#588302" fill-opacity="0.75"/>
<circle cx="124.5" cy="37.1123" r="2.5" fill="#588302" fill-opacity="0.75"/>
<circle cx="130.5" cy="37.1123" r="2.5" fill="#588302" fill-opacity="0.75"/>
<circle cx="136.5" cy="37.1123" r="2.5" fill="#588302" fill-opacity="0.75"/>
<circle cx="142.5" cy="37.1123" r="2.5" fill="#588302" fill-opacity="0.75"/>
<circle cx="148.5" cy="37.1123" r="2.5" fill="#588302" fill-opacity="0.75"/>
<circle cx="4.5" cy="45.1123" r="2.5" fill="#588302" fill-opacity="0.75"/>
<circle cx="10.5" cy="45.1123" r="2.5" fill="#588302" fill-opacity="0.75"/>
<circle cx="16.5" cy="45.1123" r="2.5" fill="#588302" fill-opacity="0.75"/>
<circle cx="22.5" cy="45.1123" r="2.5" fill="#588302" fill-opacity="0.75"/>
<circle cx="28.5" cy="45.1123" r="2.5" fill="#588302" fill-opacity="0.75"/>
<circle cx="34.5" cy="45.1123" r="2.5" fill="#588302" fill-opacity="0.75"/>
<circle cx="40.5" cy="45.1123" r="2.5" fill="#588302" fill-opacity="0.75"/>
<circle cx="46.5" cy="45.1123" r="2.5" fill="#588302" fill-opacity="0.75"/>
<circle cx="52.5" cy="45.1123" r="2.5" fill="#588302" fill-opacity="0.75"/>
<circle cx="58.5" cy="45.1123" r="2.5" fill="#588302" fill-opacity="0.75"/>
<circle cx="64.5" cy="45.1123" r="2.5" fill="#588302" fill-opacity="0.75"/>
<circle cx="70.5" cy="45.1123" r="2.5" fill="#588302" fill-opacity="0.75"/>
<circle cx="76.5" cy="45.1123" r="2.5" fill="#588302" fill-opacity="0.75"/>
<circle cx="82.5" cy="45.1123" r="2.5" fill="#588302" fill-opacity="0.75"/>
<circle cx="88.5" cy="45.1123" r="2.5" fill="#588302" fill-opacity="0.75"/>
<circle cx="94.5" cy="45.1123" r="2.5" fill="#588302" fill-opacity="0.75"/>
<circle cx="100.5" cy="45.1123" r="2.5" fill="#588302" fill-opacity="0.75"/>
<circle cx="106.5" cy="45.1123" r="2.5" fill="#588302" fill-opacity="0.75"/>
<circle cx="112.5" cy="45.1123" r="2.5" fill="#588302" fill-opacity="0.75"/>
<circle cx="118.5" cy="45.1123" r="2.5" fill="#588302" fill-opacity="0.75"/>
<circle cx="124.5" cy="45.1123" r="2.5" fill="#588302" fill-opacity="0.75"/>
<circle cx="130.5" cy="45.1123" r="2.5" fill="#588302" fill-opacity="0.75"/>
<circle cx="136.5" cy="45.1123" r="2.5" fill="#588302" fill-opacity="0.75"/>
<circle cx="142.5" cy="45.1123" r="2.5" fill="#588302" fill-opacity="0.75"/>
<circle cx="148.5" cy="45.1123" r="2.5" fill="#588302" fill-opacity="0.75"/>
<circle cx="4.5" cy="53.1123" r="2.5" fill="#588302" fill-opacity="0.75"/>
<circle cx="10.5" cy="53.1123" r="2.5" fill="#588302" fill-opacity="0.75"/>
<circle cx="16.5" cy="53.1123" r="2.5" fill="#588302" fill-opacity="0.75"/>
<circle cx="22.5" cy="53.1123" r="2.5" fill="#588302" fill-opacity="0.75"/>
<circle cx="28.5" cy="53.1123" r="2.5" fill="#588302" fill-opacity="0.75"/>
<circle cx="34.5" cy="53.1123" r="2.5" fill="#588302" fill-opacity="0.75"/>
<circle cx="40.5" cy="53.1123" r="2.5" fill="#588302" fill-opacity="0.75"/>
<circle cx="46.5" cy="53.1123" r="2.5" fill="#588302" fill-opacity="0.75"/>
<circle cx="52.5" cy="53.1123" r="2.5" fill="#588302" fill-opacity="0.75"/>
<circle cx="58.5" cy="53.1123" r="2.5" fill="#588302" fill-opacity="0.75"/>
<circle cx="64.5" cy="53.1123" r="2.5" fill="#588302" fill-opacity="0.75"/>
<circle cx="70.5" cy="53.1123" r="2.5" fill="#588302" fill-opacity="0.75"/>
<circle cx="76.5" cy="53.1123" r="2.5" fill="#588302" fill-opacity="0.75"/>
<circle cx="82.5" cy="53.1123" r="2.5" fill="#588302" fill-opacity="0.75"/>
<circle cx="88.5" cy="53.1123" r="2.5" fill="#588302" fill-opacity="0.75"/>
<circle cx="94.5" cy="53.1123" r="2.5" fill="#588302" fill-opacity="0.75"/>
<circle cx="100.5" cy="53.1123" r="2.5" fill="#588302" fill-opacity="0.75"/>
<circle cx="106.5" cy="53.1123" r="2.5" fill="#588302" fill-opacity="0.75"/>
<circle cx="112.5" cy="53.1123" r="2.5" fill="#588302" fill-opacity="0.75"/>
<circle cx="118.5" cy="53.1123" r="2.5" fill="#588302" fill-opacity="0.75"/>
<circle cx="124.5" cy="53.1123" r="2.5" fill="#588302" fill-opacity="0.75"/>
<circle cx="130.5" cy="53.1123" r="2.5" fill="#588302" fill-opacity="0.75"/>
<circle cx="136.5" cy="53.1123" r="2.5" fill="#588302" fill-opacity="0.75"/>
<circle cx="142.5" cy="53.1123" r="2.5" fill="#588302" fill-opacity="0.75"/>
<circle cx="148.5" cy="53.1123" r="2.5" fill="#588302" fill-opacity="0.75"/>
<circle cx="4.5" cy="61.1123" r="2.5" fill="#588302" fill-opacity="0.75"/>
<circle cx="10.5" cy="61.1123" r="2.5" fill="#588302" fill-opacity="0.75"/>
<circle cx="16.5" cy="61.1123" r="2.5" fill="#588302" fill-opacity="0.75"/>
<circle cx="22.5" cy="61.1123" r="2.5" fill="#588302" fill-opacity="0.75"/>
<circle cx="28.5" cy="61.1123" r="2.5" fill="#588302" fill-opacity="0.75"/>
<circle cx="34.5" cy="61.1123" r="2.5" fill="#588302" fill-opacity="0.75"/>
<circle cx="40.5" cy="61.1123" r="2.5" fill="#588302" fill-opacity="0.75"/>
<circle cx="46.5" cy="61.1123" r="2.5" fill="#588302" fill-opacity="0.75"/>
<circle cx="52.5" cy="61.1123" r="2.5" fill="#588302" fill-opacity="0.75"/>
<circle cx="58.5" cy="61.1123" r="2.5" fill="#588302" fill-opacity="0.75"/>
<circle cx="64.5" cy="61.1123" r="2.5" fill="#588302" fill-opacity="0.75"/>
<circle cx="70.5" cy="61.1123" r="2.5" fill="#588302" fill-opacity="0.75"/>
<circle cx="76.5" cy="61.1123" r="2.5" fill="#588302" fill-opacity="0.75"/>
<circle cx="82.5" cy="61.1123" r="2.5" fill="#588302" fill-opacity="0.75"/>
<circle cx="88.5" cy="61.1123" r="2.5" fill="#588302" fill-opacity="0.75"/>
<circle cx="94.5" cy="61.1123" r="2.5" fill="#588302" fill-opacity="0.75"/>
<circle cx="100.5" cy="61.1123" r="2.5" fill="#588302" fill-opacity="0.75"/>
<circle cx="106.5" cy="61.1123" r="2.5" fill="#588302" fill-opacity="0.75"/>
<circle cx="112.5" cy="61.1123" r="2.5" fill="#588302" fill-opacity="0.75"/>
<circle cx="118.5" cy="61.1123" r="2.5" fill="#588302" fill-opacity="0.75"/>
<circle cx="124.5" cy="61.1123" r="2.5" fill="#588302" fill-opacity="0.75"/>
<circle cx="130.5" cy="61.1123" r="2.5" fill="#588302" fill-opacity="0.75"/>
<circle cx="136.5" cy="61.1123" r="2.5" fill="#588302" fill-opacity="0.75"/>
<circle cx="142.5" cy="61.1123" r="2.5" fill="#588302" fill-opacity="0.75"/>
<circle cx="148.5" cy="61.1123" r="2.5" fill="#588302" fill-opacity="0.75"/>
<circle cx="4.5" cy="69.1123" r="2.5" fill="#588302" fill-opacity="0.75"/>
<circle cx="10.5" cy="69.1123" r="2.5" fill="#588302" fill-opacity="0.75"/>
<circle cx="16.5" cy="69.1123" r="2.5" fill="#588302" fill-opacity="0.75"/>
<circle cx="22.5" cy="69.1123" r="2.5" fill="#588302" fill-opacity="0.75"/>
<circle cx="28.5" cy="69.1123" r="2.5" fill="#588302" fill-opacity="0.75"/>
<circle cx="34.5" cy="69.1123" r="2.5" fill="#588302" fill-opacity="0.75"/>
<circle cx="40.5" cy="69.1123" r="2.5" fill="#588302" fill-opacity="0.75"/>
<circle cx="46.5" cy="69.1123" r="2.5" fill="#588302" fill-opacity="0.75"/>
<circle cx="52.5" cy="69.1123" r="2.5" fill="#588302" fill-opacity="0.75"/>
<circle cx="58.5" cy="69.1123" r="2.5" fill="#588302" fill-opacity="0.75"/>
<circle cx="64.5" cy="69.1123" r="2.5" fill="#588302" fill-opacity="0.75"/>
<circle cx="70.5" cy="69.1123" r="2.5" fill="#588302" fill-opacity="0.75"/>
<circle cx="76.5" cy="69.1123" r="2.5" fill="#588302" fill-opacity="0.75"/>
<circle cx="82.5" cy="69.1123" r="2.5" fill="#588302" fill-opacity="0.75"/>
<circle cx="88.5" cy="69.1123" r="2.5" fill="#588302" fill-opacity="0.75"/>
<circle cx="94.5" cy="69.1123" r="2.5" fill="#588302" fill-opacity="0.75"/>
<circle cx="100.5" cy="69.1123" r="2.5" fill="#588302" fill-opacity="0.75"/>
<circle cx="106.5" cy="69.1123" r="2.5" fill="#588302" fill-opacity="0.75"/>
<circle cx="112.5" cy="69.1123" r="2.5" fill="#588302" fill-opacity="0.75"/>
<circle cx="118.5" cy="69.1123" r="2.5" fill="#588302" fill-opacity="0.75"/>
<circle cx="124.5" cy="69.1123" r="2.5" fill="#588302" fill-opacity="0.75"/>
<circle cx="130.5" cy="69.1123" r="2.5" fill="#588302" fill-opacity="0.75"/>
<circle cx="136.5" cy="69.1123" r="2.5" fill="#588302" fill-opacity="0.75"/>
<circle cx="142.5" cy="69.1123" r="2.5" fill="#588302" fill-opacity="0.75"/>
<circle cx="148.5" cy="69.1123" r="2.5" fill="#588302" fill-opacity="0.75"/>
<circle cx="4.5" cy="77.1123" r="2.5" fill="#588302" fill-opacity="0.75"/>
<circle cx="10.5" cy="77.1123" r="2.5" fill="#588302" fill-opacity="0.75"/>
<circle cx="16.5" cy="77.1123" r="2.5" fill="#588302" fill-opacity="0.75"/>
<circle cx="22.5" cy="77.1123" r="2.5" fill="#588302" fill-opacity="0.75"/>
<circle cx="28.5" cy="77.1123" r="2.5" fill="#588302" fill-opacity="0.75"/>
<circle cx="34.5" cy="77.1123" r="2.5" fill="#588302" fill-opacity="0.75"/>
<circle cx="40.5" cy="77.1123" r="2.5" fill="#588302" fill-opacity="0.75"/>
<circle cx="46.5" cy="77.1123" r="2.5" fill="#588302" fill-opacity="0.75"/>
<circle cx="52.5" cy="77.1123" r="2.5" fill="#588302" fill-opacity="0.75"/>
<circle cx="58.5" cy="77.1123" r="2.5" fill="#588302" fill-opacity="0.75"/>
<circle cx="64.5" cy="77.1123" r="2.5" fill="#588302" fill-opacity="0.75"/>
<circle cx="70.5" cy="77.1123" r="2.5" fill="#588302" fill-opacity="0.75"/>
<circle cx="76.5" cy="77.1123" r="2.5" fill="#588302" fill-opacity="0.75"/>
<circle cx="82.5" cy="77.1123" r="2.5" fill="#588302" fill-opacity="0.75"/>
<circle cx="88.5" cy="77.1123" r="2.5" fill="#588302" fill-opacity="0.75"/>
<circle cx="94.5" cy="77.1123" r="2.5" fill="#588302" fill-opacity="0.75"/>
<circle cx="100.5" cy="77.1123" r="2.5" fill="#588302" fill-opacity="0.75"/>
<circle cx="106.5" cy="77.1123" r="2.5" fill="#588302" fill-opacity="0.75"/>
<circle cx="112.5" cy="77.1123" r="2.5" fill="#588302" fill-opacity="0.75"/>
<circle cx="118.5" cy="77.1123" r="2.5" fill="#588302" fill-opacity="0.75"/>
<circle cx="124.5" cy="77.1123" r="2.5" fill="#588302" fill-opacity="0.75"/>
<circle cx="130.5" cy="77.1123" r="2.5" fill="#588302" fill-opacity="0.75"/>
<circle cx="136.5" cy="77.1123" r="2.5" fill="#588302" fill-opacity="0.75"/>
<circle cx="142.5" cy="77.1123" r="2.5" fill="#588302" fill-opacity="0.75"/>
<circle cx="148.5" cy="77.1123" r="2.5" fill="#588302" fill-opacity="0.75"/>
<circle cx="4.5" cy="85.1123" r="2.5" fill="#588302" fill-opacity="0.75"/>
<circle cx="10.5" cy="85.1123" r="2.5" fill="#588302" fill-opacity="0.75"/>
<circle cx="16.5" cy="85.1123" r="2.5" fill="#588302" fill-opacity="0.75"/>
<circle cx="22.5" cy="85.1123" r="2.5" fill="#588302" fill-opacity="0.75"/>
<circle cx="28.5" cy="85.1123" r="2.5" fill="#588302" fill-opacity="0.75"/>
<circle cx="34.5" cy="85.1123" r="2.5" fill="#588302" fill-opacity="0.75"/>
<circle cx="40.5" cy="85.1123" r="2.5" fill="#588302" fill-opacity="0.75"/>
<circle cx="46.5" cy="85.1123" r="2.5" fill="#588302" fill-opacity="0.75"/>
<circle cx="52.5" cy="85.1123" r="2.5" fill="#588302" fill-opacity="0.75"/>
<circle cx="58.5" cy="85.1123" r="2.5" fill="#588302" fill-opacity="0.75"/>
<circle cx="64.5" cy="85.1123" r="2.5" fill="#588302" fill-opacity="0.75"/>
<circle cx="70.5" cy="85.1123" r="2.5" fill="#588302" fill-opacity="0.75"/>
<circle cx="76.5" cy="85.1123" r="2.5" fill="#588302" fill-opacity="0.75"/>
<circle cx="82.5" cy="85.1123" r="2.5" fill="#588302" fill-opacity="0.75"/>
<circle cx="88.5" cy="85.1123" r="2.5" fill="#588302" fill-opacity="0.75"/>
<circle cx="94.5" cy="85.1123" r="2.5" fill="#588302" fill-opacity="0.75"/>
<circle cx="100.5" cy="85.1123" r="2.5" fill="#588302" fill-opacity="0.75"/>
<circle cx="106.5" cy="85.1123" r="2.5" fill="#588302" fill-opacity="0.75"/>
<circle cx="112.5" cy="85.1123" r="2.5" fill="#588302" fill-opacity="0.75"/>
<circle cx="118.5" cy="85.1123" r="2.5" fill="#588302" fill-opacity="0.75"/>
<circle cx="124.5" cy="85.1123" r="2.5" fill="#588302" fill-opacity="0.75"/>
<circle cx="130.5" cy="85.1123" r="2.5" fill="#588302" fill-opacity="0.75"/>
<circle cx="136.5" cy="85.1123" r="2.5" fill="#588302" fill-opacity="0.75"/>
<circle cx="142.5" cy="85.1123" r="2.5" fill="#588302" fill-opacity="0.75"/>
<circle cx="148.5" cy="85.1123" r="2.5" fill="#588302" fill-opacity="0.75"/>
<circle cx="4.5" cy="93.1123" r="2.5" fill="#588302" fill-opacity="0.75"/>
<circle cx="10.5" cy="93.1123" r="2.5" fill="#588302" fill-opacity="0.75"/>
<circle cx="16.5" cy="93.1123" r="2.5" fill="#588302" fill-opacity="0.75"/>
<circle cx="22.5" cy="93.1123" r="2.5" fill="#588302" fill-opacity="0.75"/>
<circle cx="28.5" cy="93.1123" r="2.5" fill="#588302" fill-opacity="0.75"/>
<circle cx="34.5" cy="93.1123" r="2.5" fill="#588302" fill-opacity="0.75"/>
<circle cx="40.5" cy="93.1123" r="2.5" fill="#588302" fill-opacity="0.75"/>
<circle cx="46.5" cy="93.1123" r="2.5" fill="#588302" fill-opacity="0.75"/>
<circle cx="52.5" cy="93.1123" r="2.5" fill="#588302" fill-opacity="0.75"/>
<circle cx="58.5" cy="93.1123" r="2.5" fill="#588302" fill-opacity="0.75"/>
<circle cx="64.5" cy="93.1123" r="2.5" fill="#588302" fill-opacity="0.75"/>
<circle cx="70.5" cy="93.1123" r="2.5" fill="#588302" fill-opacity="0.75"/>
<circle cx="76.5" cy="93.1123" r="2.5" fill="#588302" fill-opacity="0.75"/>
<circle cx="82.5" cy="93.1123" r="2.5" fill="#588302" fill-opacity="0.75"/>
<circle cx="88.5" cy="93.1123" r="2.5" fill="#588302" fill-opacity="0.75"/>
<circle cx="94.5" cy="93.1123" r="2.5" fill="#588302" fill-opacity="0.75"/>
<circle cx="100.5" cy="93.1123" r="2.5" fill="#588302" fill-opacity="0.75"/>
<circle cx="106.5" cy="93.1123" r="2.5" fill="#588302" fill-opacity="0.75"/>
<circle cx="112.5" cy="93.1123" r="2.5" fill="#588302" fill-opacity="0.75"/>
<circle cx="118.5" cy="93.1123" r="2.5" fill="#588302" fill-opacity="0.75"/>
<circle cx="124.5" cy="93.1123" r="2.5" fill="#588302" fill-opacity="0.75"/>
<circle cx="130.5" cy="93.1123" r="2.5" fill="#588302" fill-opacity="0.75"/>
<circle cx="136.5" cy="93.1123" r="2.5" fill="#588302" fill-opacity="0.75"/>
<circle cx="142.5" cy="93.1123" r="2.5" fill="#588302" fill-opacity="0.75"/>
<circle cx="148.5" cy="93.1123" r="2.5" fill="#588302" fill-opacity="0.75"/>
</svg>
