<svg width="210.85" height="210.28" version="1.1" viewBox="0 0 210.85 210.28" xmlns="http://www.w3.org/2000/svg">
<g transform="translate(-336.93 -7.7239)">
<path d="m513.98 216.8c-0.82808-0.82808-1.2-5.9114-1.2-16.401v-15.201l-7-4.1301v-11.633c0-13.167 1.1498-16.873 6.5774-21.204 3.1323-2.4994 3.2133-2.7347 1.8492-5.3726-2.8736-5.5569-1.129-12.587 4.1548-16.744 10.861-8.5429 26.199 3.0344 21.127 15.947-1.5316 3.899-1.5241 3.9337 1.2898 5.9374 5.2383 3.73 7.0021 9.234 7.0021 21.851v11.218l-7 4.1301v15.201c0 10.49-0.37192 15.573-1.2 16.401-0.7954 0.7954-5.1111 1.2-12.8 1.2s-12.005-0.4046-12.8-1.2zm19.8-20.834v-15.034l7-4.1301v-9.5012c0-9.472-0.0105-9.5117-3.4-12.901-3.237-3.237-3.7451-3.4-10.6-3.4s-7.363 0.16296-10.6 3.4l-3.4 3.4v10.033c0 9.1444 0.17654 10.089 1.9941 10.666 4.6268 1.4685 5.0059 2.8373 5.0059 18.073v14.429h14zm-2.039-54.155c2.646-2.8402 2.5925-6.5933-0.13535-9.497-4.3291-4.6082-11.826-1.6379-11.826 4.6856 0 6.2518 7.7243 9.359 11.961 4.8114zm-130.29 68.522c-0.36667-0.36666-0.66667-3.3053-0.66667-6.5304v-5.8637l-14.5-6.6426-4.7467 4.3887c-3.761 3.4774-5.1108 4.1899-6.5 3.4314-0.96433-0.5265-7.5268-6.8056-14.583-13.954-14.098-14.28-13.892-13.761-7.7562-19.6 1.6973-1.6154 3.086-3.486 3.086-4.1568s-1.3212-4.1644-2.936-7.7635l-2.936-6.5438-12.628-0.59876-0.28455-18c-0.1565-9.9-0.0354-19.012 0.26906-20.25 0.50228-2.0414 1.1471-2.25 6.957-2.25h6.4034l1.2129-3.75c0.66708-2.0625 2.028-5.3725 3.0242-7.3556l1.8113-3.6056-3.5287-3.3944c-6.6594-6.406-6.957-5.6205 7.7568-20.48 8.6373-8.7228 14.016-13.415 15.378-13.415 1.1521 0 3.8074 1.7539 5.9006 3.8976l3.8059 3.8976 5.6471-2.4578c8.974-3.9058 8.6193-3.5129 8.9537-9.9168 0.16865-3.2299 0.84365-6.2139 1.5-6.6312 1.4135-0.89868 35.816-1.0633 38.112-0.18233 1.2113 0.46483 1.5818 2.0861 1.5818 6.9224v6.3155l3.75 1.2129c2.0625 0.66708 5.3706 2.027 7.3513 3.022l3.6013 1.8091 3.8517-3.9445c4.485-4.593 5.6571-4.7858 9.4898-1.5609l2.8327 2.3836-2.2829 2.1447c-1.2556 1.1796-2.9295 1.8966-3.7198 1.5933-0.8368-0.32111-2.863 0.91998-4.8516 2.9717-3.7629 3.8823-5.8815 4.3167-9.4974 1.9475-1.3225-0.86657-5.4692-2.6446-9.2148-3.9511l-6.8102-2.3756-0.29772-6.0489-0.29771-6.0489h-28.809l-0.59544 12.233-5.5 1.7153c-3.025 0.94342-7.3946 2.6909-9.7102 3.8833-5.6752 2.9224-7.1043 2.7551-11.278-1.3204l-3.5725-3.4884-19.873 19.948 3.717 3.8065c2.0443 2.0936 3.717 4.365 3.717 5.0476 0 0.6826-1.0628 3.3636-2.3617 5.9578s-3.1351 7.0793-4.0804 9.9668l-1.7186 5.25h-11.839v29h11.839l1.7186 5.25c0.94526 2.8875 2.7814 7.3725 4.0804 9.9668 1.299 2.5942 2.3617 5.2752 2.3617 5.9578 0 0.6826-1.6754 2.9569-3.7232 5.054l-3.7232 3.8129 20.405 20.405 3.8129-3.7232c2.0971-2.0478 4.3714-3.7232 5.054-3.7232 0.68259 0 3.3636 1.0628 5.9578 2.3617 2.5942 1.299 7.0792 3.1351 9.9668 4.0804l5.25 1.7186v11.839h29v-11.839l5.25-1.7186c2.8875-0.94526 7.3725-2.7814 9.9668-4.0804 2.5942-1.299 5.2752-2.3617 5.9578-2.3617 0.6826 0 2.954 1.6726 5.0476 3.717l3.8065 3.717 19.948-19.873-3.6191-3.7063c-4.1361-4.2358-4.1298-4.4378 0.49762-15.854 1.672-4.125 3.2744-8.2875 3.5609-9.25 0.42144-1.4156 1.6733-1.75 6.5524-1.75h6.0314v-29h-4.5c-4.3333 0-4.5-0.11111-4.5-3v-3h7.393c5.819 0 7.5222 0.33678 8 1.5818 0.79125 2.062 0.79125 35.774 0 37.836-0.46483 1.2113-2.0861 1.5818-6.9224 1.5818h-6.3155l-1.2129 3.75c-0.66709 2.0625-2.027 5.3706-3.022 7.3513l-1.8091 3.6013 3.9444 3.8517c2.1694 2.1184 3.9445 4.7943 3.9445 5.9464 0 1.3621-4.6918 6.7406-13.415 15.378-14.859 14.714-14.074 14.416-20.48 7.7568l-3.3944-3.5287-3.6056 1.8113c-1.9831 0.99622-5.2931 2.3571-7.3556 3.0242l-3.75 1.2129v6.3155c0 4.8364-0.37045 6.4576-1.5818 6.9224-2.1592 0.82858-37.918 0.77351-38.752-0.0597zm6.6078-32.872c-23.108-6.224-39.275-27.201-39.275-50.961 0-23.986 16.925-45.499 40.093-50.96 3.5238-0.83062 7.6444-1.5169 9.1569-1.525 2.479-0.01332 2.75 0.33012 2.75 3.4852 0 3.3159-0.17939 3.5-3.4109 3.5-4.5269 0-14.473 3.1558-19.817 6.2879-6.4624 3.7872-14.468 12.849-18.07 20.454-3.0486 6.4358-3.2014 7.3314-3.2014 18.759 0 11.438 0.15069 12.318 3.2151 18.788 4.5001 9.5006 12.693 17.816 22.17 22.501 7.3506 3.6342 7.7454 3.711 19.061 3.711 9.8182 0 12.433-0.35419 17.398-2.3569 10.85-4.376 21.379-15.002 25.905-26.143 1.8877-4.6466 2.2357-7.3937 2.2429-17.704 8e-3 -12 0.0482-12.214 2.3765-12.799 1.3024-0.32684 2.5792-0.38301 2.8374-0.12481 0.98272 0.98272 2.2478 8.3337 2.2707 13.194 0.11491 24.401-16.256 45.825-39.62 51.849-7.4729 1.9267-19.021 1.9467-26.081 0.0452zm-11.275-24.461v-5h7v10h-7zm14-3.5v-8.5h7v17h-7zm14-3.5v-12h7v24h-7zm14-5.5v-17.5h7v35h-7zm-30.45-23.701c-4.1995-5.1179-7.5496-10.154-7.5496-11.348 0-1.6503 4.1809-5.0768 18.057-14.799l18.057-12.652h27.915l3.3277-3.25c1.8302-1.7875 12.651-12.758 24.045-24.38l20.717-21.13-5.0052-3.8703c-5.7496-4.4459-6.7562-6.1571-4.7827-8.1305 0.77287-0.77287 10.54-3.4142 21.704-5.8695 16.807-3.6964 20.526-4.2374 21.618-3.1451 1.9686 1.9686 0.22982 41.32-1.9208 43.471-1.8566 1.8566-4.3719 0.71029-8.0604-3.6732-1.3988-1.6624-2.9098-3.0204-3.3579-3.0179-0.44801 0.0026-12.738 13.503-27.311 30l-26.497 29.995h-32.273l-13.804 10.5c-7.5921 5.775-14.597 10.5-15.567 10.5-1.0094 0-4.9905-3.9332-9.3127-9.2006zm22.874-8.2994 12.396-9.5h31.94l27.796-31.5c15.288-17.325 28.48-31.5 29.316-31.5s2.7146 1.1451 4.1755 2.5447l2.6561 2.5447 0.70322-12.657c0.38678-6.9612 0.51396-12.846 0.28263-13.077-0.39095-0.39095-22.598 4.0927-25.488 5.1461-0.84928 0.30956-0.0702 1.5525 2.25 3.5896 1.952 1.7139 3.5491 4.0159 3.5491 5.1156 0 1.2761-9.4706 11.55-26.177 28.396l-26.177 26.397h-28.255l-14.445 10.097c-7.9448 5.5534-14.996 10.62-15.668 11.259-0.95335 0.90556-0.21827 2.4289 3.331 6.903 2.5049 3.1575 4.749 5.741 4.9869 5.741s6.0108-4.275 12.829-9.5z"/>
</g>
</svg>
