<svg width="50" height="51" viewBox="0 0 50 51" fill="none" xmlns="http://www.w3.org/2000/svg">
<g clip-path="url(#clip0_40:359)">
<path d="M41.5785 49.8092C41.3882 49.6123 41.3027 48.4036 41.3027 45.9094V42.2949L39.6939 41.3129V38.5468C39.6939 35.416 39.9582 34.5347 41.2056 33.5049C41.9255 32.9106 41.9441 32.8547 41.6306 32.2274C40.9702 30.9061 41.3711 29.2345 42.5855 28.2461C45.0817 26.2148 48.6068 28.9676 47.4411 32.0379C47.0891 32.965 47.0908 32.9733 47.7375 33.4497C48.9414 34.3366 49.3468 35.6454 49.3468 38.6454V41.3128L47.738 42.2949V45.9093C47.738 48.4036 47.6525 49.6122 47.4622 49.8091C47.2794 49.9982 46.2875 50.0945 44.5204 50.0945C42.7533 50.0945 41.7613 49.9982 41.5786 49.8091L41.5785 49.8092ZM46.1291 44.8553V41.2805L47.7379 40.2985V38.0393C47.7379 35.7871 47.7355 35.7776 46.9565 34.9717C46.2126 34.202 46.0958 34.1633 44.5203 34.1633C42.9449 34.1633 42.8281 34.202 42.0841 34.9717L41.3027 35.7802V38.1658C41.3027 40.3401 41.3433 40.5648 41.761 40.702C42.8244 41.0511 42.9115 41.3766 42.9115 44.9993V48.4302H46.1291V44.8553ZM45.6605 31.9784C46.2686 31.3031 46.2563 30.4107 45.6294 29.7202C44.6344 28.6245 42.9114 29.3308 42.9114 30.8344C42.9114 32.3209 44.6867 33.0597 45.6604 31.9784H45.6605ZM15.7161 48.2715C15.6319 48.1843 15.5629 47.4855 15.5629 46.7187V45.3244L12.2304 43.7449L11.1395 44.7885C10.2751 45.6153 9.96487 45.7847 9.64559 45.6044C9.42396 45.4792 7.91571 43.9862 6.294 42.2864C3.05387 38.891 3.10122 39.0144 4.5114 37.626C4.90149 37.2419 5.22065 36.7971 5.22065 36.6376C5.22065 36.4781 4.917 35.6474 4.54587 34.7916L3.8711 33.2356L0.968823 33.0933L0.903426 28.8132C0.867458 26.4592 0.895294 24.2926 0.965267 23.9982C1.08071 23.5128 1.2289 23.4632 2.56418 23.4632H4.03587L4.31463 22.5716C4.46794 22.0811 4.78072 21.2941 5.00968 20.8226L5.42596 19.9652L4.61497 19.1581C3.08445 17.6349 3.01605 17.8217 6.3977 14.2884C8.3828 12.2143 9.61898 11.0986 9.932 11.0986C10.1968 11.0986 10.8071 11.5157 11.2881 12.0254L12.1628 12.9522L13.4607 12.3677C15.5232 11.439 15.4417 11.5324 15.5185 10.0097C15.5573 9.24174 15.7124 8.53221 15.8633 8.43299C16.1881 8.2193 24.0948 8.18016 24.6225 8.38963C24.9009 8.50016 24.986 8.88566 24.986 10.0356V11.5373L25.8479 11.8257C26.3219 11.9843 27.0822 12.3077 27.5374 12.5443L28.3651 12.9744L29.2503 12.0365C30.2811 10.9444 30.5505 10.8986 31.4314 11.6654L32.0824 12.2322L31.5577 12.7421C31.2692 13.0226 30.8844 13.1931 30.7028 13.121C30.5105 13.0446 30.0448 13.3397 29.5878 13.8276C28.7229 14.7507 28.236 14.854 27.405 14.2906C27.101 14.0846 26.148 13.6618 25.2872 13.3512L23.722 12.7863L23.6536 11.348L23.5851 9.9097H16.964L16.8272 12.8184L15.5631 13.2263C14.8679 13.4506 13.8636 13.8661 13.3314 14.1497C12.0271 14.8445 11.6987 14.8048 10.7394 13.8357L9.91836 13.0062L5.35098 17.7494L6.20525 18.6545C6.67509 19.1524 7.05952 19.6924 7.05952 19.8547C7.05952 20.0171 6.81526 20.6545 6.51673 21.2714C6.21821 21.8882 5.7962 22.9547 5.57895 23.6413L5.18396 24.8896H2.46302V31.7852H5.18396L5.57895 33.0335C5.79619 33.7201 6.21819 34.7865 6.51673 35.4034C6.81528 36.0202 7.05952 36.6577 7.05952 36.82C7.05952 36.9823 6.67446 37.5231 6.20382 38.0218L5.34813 38.9284L10.0378 43.7803L10.9141 42.895C11.3961 42.408 11.9188 42.0097 12.0756 42.0097C12.2325 42.0097 12.8487 42.2624 13.4449 42.5712C14.0411 42.8801 15.0719 43.3167 15.7356 43.5415L16.9422 43.9501V46.7652H23.6072V43.9501L24.8138 43.5415C25.4774 43.3167 26.5082 42.8801 27.1045 42.5712C27.7007 42.2623 28.3169 42.0097 28.4737 42.0097C28.6306 42.0097 29.1526 42.4074 29.6338 42.8935L30.5087 43.7773L35.0933 39.0519L34.2615 38.1707C33.3109 37.1635 33.3124 37.1155 34.3759 34.4009C34.7601 33.4201 35.1284 32.4303 35.1943 32.2015C35.2911 31.8649 35.5788 31.7854 36.7002 31.7854H38.0864V24.8898H37.0522C36.0562 24.8898 36.0179 24.8634 36.0179 24.1765V23.4631H37.7171C39.0544 23.4631 39.4459 23.5432 39.5557 23.8392C39.7375 24.3295 39.7375 32.3455 39.5557 32.8358C39.4489 33.1238 39.0762 33.2119 37.9647 33.2119H36.5132L36.2345 34.1036C36.0812 34.594 35.7686 35.3806 35.5399 35.8516L35.1241 36.7079L36.0307 37.6237C36.5293 38.1275 36.9372 38.7637 36.9372 39.0377C36.9372 39.3615 35.8589 40.6404 33.8541 42.6942C30.4391 46.1929 30.6195 46.122 29.1472 44.5386L28.3671 43.6996L27.5384 44.1303C27.0826 44.3671 26.3219 44.6907 25.8479 44.8494L24.986 45.1378V46.6394C24.986 47.7894 24.9009 48.1749 24.6225 48.2854C24.1262 48.4825 15.9078 48.4694 15.7162 48.2712L15.7161 48.2715ZM17.2348 40.4552C11.9239 38.9753 8.20828 33.9874 8.20828 28.3378C8.20828 22.6344 12.0981 17.5191 17.4228 16.2206C18.2327 16.0231 19.1797 15.8599 19.5273 15.858C20.0971 15.8548 20.1593 15.9365 20.1593 16.6867C20.1593 17.4752 20.1181 17.5189 19.3754 17.5189C18.335 17.5189 16.0491 18.2693 14.8209 19.0141C13.3357 19.9146 11.4958 22.0693 10.6679 23.8776C9.96725 25.4079 9.93213 25.6208 9.93213 28.3381C9.93213 31.0578 9.96677 31.267 10.6711 32.8054C11.7053 35.0645 13.5883 37.0417 15.7664 38.1557C17.4557 39.0198 17.5465 39.0381 20.1471 39.0381C22.4036 39.0381 23.0046 38.9539 24.1457 38.4777C26.6393 37.4371 29.0592 34.9105 30.0994 32.2614C30.5332 31.1566 30.6132 30.5034 30.6149 28.0518C30.6167 25.1985 30.6259 25.1476 31.1611 25.0085C31.4604 24.9308 31.7538 24.9174 31.8132 24.9788C32.039 25.2125 32.3298 26.9604 32.335 28.116C32.3615 33.9181 28.5989 39.0122 23.2292 40.4446C21.5117 40.9027 18.8577 40.9075 17.2351 40.4553L17.2348 40.4552ZM14.6435 34.6389V33.45H16.2523V35.8278H14.6435V34.6389ZM17.8611 33.8067V31.7856H19.4699V35.8278H17.8611V33.8067ZM21.0787 32.9745V30.1211H22.6875V35.8278H21.0787V32.9745ZM24.2963 31.6667V27.5056H25.9051V35.8278H24.2963V31.6667ZM17.298 26.0311C16.3328 24.8142 15.5629 23.6167 15.5629 23.3328C15.5629 22.9404 16.5238 22.1257 19.7129 19.8139L23.8629 16.8056H30.2786L31.0434 16.0328C31.464 15.6077 33.951 12.9992 36.5696 10.2357L41.331 5.21149L40.1806 4.29121C38.8592 3.23407 38.6279 2.82719 39.0814 2.35796C39.2591 2.17419 41.5038 1.54613 44.0696 0.962317C47.9324 0.0833941 48.7871 -0.0452441 49.0381 0.214481C49.4905 0.682571 49.0909 10.0395 48.5966 10.5509C48.1699 10.9924 47.5918 10.7198 46.7441 9.67753C46.4226 9.28225 46.0753 8.95935 45.9724 8.95994C45.8694 8.96056 43.0448 12.1707 39.6955 16.0933L33.6057 23.2254H26.1885L23.0159 25.7221C21.271 27.0953 19.6611 28.2188 19.4382 28.2188C19.2062 28.2188 18.2912 27.2836 17.2979 26.0311L17.298 26.0311ZM22.5551 24.0577L25.4041 21.7988H32.7448L39.1331 14.3088C42.6467 10.1893 45.6786 6.81877 45.8708 6.81877C46.0629 6.81877 46.4946 7.09105 46.8304 7.42385L47.4409 8.02892L47.6025 5.01936C47.6914 3.36414 47.7206 1.96486 47.6674 1.90993C47.5776 1.81698 42.4738 2.88309 41.8096 3.13357C41.6144 3.20717 41.7934 3.50272 42.3267 3.98709C42.7753 4.39462 43.1424 4.94199 43.1424 5.20347C43.1424 5.5069 40.9657 7.94981 37.1261 11.9554L31.1099 18.2321H24.6161L21.2962 20.6329C19.4703 21.9534 17.8497 23.1581 17.6953 23.31C17.4762 23.5254 17.6451 23.8876 18.4608 24.9514C19.0365 25.7022 19.5523 26.3165 19.607 26.3165C19.6616 26.3165 20.9884 25.3 22.5554 24.0576L22.5551 24.0577Z" fill="#31600F" fill-opacity="0.8"/>
</g>
<defs>
<clipPath id="clip0_40:359">
<rect width="48.4594" height="50" fill="white" transform="translate(0.887695 0.0953979)"/>
</clipPath>
</defs>
</svg>
