<svg width="72" height="93" viewBox="0 0 72 93" fill="none" xmlns="http://www.w3.org/2000/svg">
<path d="M0 46.0764V0.076416H46.529L72 25.6044V92.0764H0V46.0764ZM68 58.0764V28.0764H44V4.07642H4V88.0764H68V58.0764ZM16 66.0764C16 64.1431 16.6667 64.0764 36 64.0764C55.3333 64.0764 56 64.1431 56 66.0764C56 68.0097 55.3333 68.0764 36 68.0764C16.6667 68.0764 16 68.0097 16 66.0764ZM16 54.0764C16 52.1597 16.6667 52.0764 32 52.0764C47.3333 52.0764 48 52.1597 48 54.0764C48 55.9931 47.3333 56.0764 32 56.0764C16.6667 56.0764 16 55.9931 16 54.0764ZM16 42.0764C16 40.1431 16.6667 40.0764 36 40.0764C55.3333 40.0764 56 40.1431 56 42.0764C56 44.0097 55.3333 44.0764 36 44.0764C16.6667 44.0764 16 44.0097 16 42.0764ZM65 23.8044C65 23.6548 61.175 19.7272 56.5 15.0765L48 6.62072V24.0767H56.5C61.175 24.0767 65 23.9543 65 23.8046V23.8044Z" fill="#588302" fill-opacity="0.75"/>
</svg>
