<svg width="72" height="92" version="1.1" viewBox="0 0 72 92" xmlns="http://www.w3.org/2000/svg">
<g transform="translate(-126.86 -4.4301)">
<path d="m126.86 50.43v-46h46.529l25.471 25.528v66.472h-72zm68 12v-30h-24v-24h-40v84h64zm-52 8c0-1.9333 0.66667-2 20-2s20 0.06667 20 2c0 1.9333-0.66667 2-20 2s-20-0.06667-20-2zm0-12c0-1.9167 0.66667-2 16-2s16 0.08333 16 2c0 1.9167-0.66667 2-16 2s-16-0.08333-16-2zm0-12c0-1.9333 0.66667-2 20-2s20 0.06667 20 2c0 1.9333-0.66667 2-20 2s-20-0.06667-20-2zm49-18.272c0-0.14964-3.825-4.0772-8.5-8.7279l-8.5-8.4558v17.456h8.5c4.675 0 8.5-0.12244 8.5-0.27208z"/>
</g>
</svg>
