<svg width="51" height="48" viewBox="0 0 51 48" fill="none" xmlns="http://www.w3.org/2000/svg">
<g clip-path="url(#clip0_41:388)">
<path d="M11.7266 50.9347C11.4802 50.6882 11.3931 48.1143 11.3931 41.0789C11.3931 35.0308 11.2917 31.4941 11.1152 31.3848C10.9354 31.2736 10.8373 32.483 10.8373 34.8106C10.8373 38.7458 10.649 39.2547 9.3167 38.9202C8.37081 38.6826 8.26705 38.0734 8.37929 33.4161C8.49514 28.6084 8.82481 27.8346 11.2662 26.6393C13.9937 25.304 17.7686 25.9977 19.3985 28.1338C20.1307 29.0934 20.149 29.2147 20.2355 33.6746C20.2982 36.9085 20.2277 38.3505 19.993 38.6333C19.5856 39.1246 18.4535 39.1561 18.1486 38.6847C18.025 38.4935 17.8541 36.7102 17.769 34.7219C17.6684 32.3742 17.5954 34.4796 17.5606 40.7272C17.5108 49.6549 17.4704 50.381 16.9987 50.8079C16.4017 51.3486 15.532 51.4054 15.0614 50.9344C14.8235 50.6963 14.7279 48.9482 14.7279 44.8328C14.7279 41.2875 14.6208 38.9987 14.45 38.893C14.2682 38.7805 14.1721 40.677 14.1721 44.3764C14.1721 49.045 14.0966 50.1396 13.7395 50.6499C13.2688 51.3223 12.2571 51.4653 11.7266 50.9343L11.7266 50.9347ZM22.7041 51.0927C22.597 50.9854 22.5093 50.0425 22.5093 48.9974V47.0971H21.6458C20.9958 47.0971 20.8216 46.9949 20.941 46.6835C21.5357 45.1328 22.5539 41.4873 22.4277 41.3609C22.3432 41.2764 22.0605 41.9693 21.7993 42.9007C21.4351 44.1995 21.2034 44.5942 20.8052 44.5942C20.1359 44.5942 20.1493 44.3414 20.9681 41.521C21.7434 38.8503 22.3201 38.1981 23.9069 38.1981C25.3398 38.1981 25.7963 38.4111 26.2514 39.2918C26.7506 40.2579 27.7723 44.2407 27.5722 44.4409C27.1031 44.9103 26.6405 44.4173 26.2157 42.9952C25.953 42.1157 25.6962 41.584 25.6451 41.8135C25.594 42.043 25.868 43.1599 26.254 44.2954C27.1266 46.8627 27.1272 47.0969 26.261 47.0969C25.5945 47.0969 25.5661 47.1676 25.562 48.835C25.5573 50.765 25.2886 51.4346 24.6216 51.1784C24.277 51.0461 24.1654 50.5512 24.1266 48.9826L24.0766 46.9577L23.9182 49.0408C23.7985 50.6154 23.6548 51.1438 23.3294 51.2055C23.0927 51.2505 22.8113 51.1995 22.7042 51.0923L22.7041 51.0927ZM32.2915 50.9347C32.0668 50.7099 31.958 49.4392 31.958 47.0414V43.4818H30.4295C29.5888 43.4818 28.901 43.3817 28.901 43.2594C28.901 43.1372 29.5263 41.0472 30.2906 38.6153C31.0548 36.1832 31.6728 33.7492 31.6639 33.2063C31.6515 32.4485 31.4297 32.9182 30.7091 35.2281C29.5227 39.0315 28.982 39.7181 28.0542 38.5996C27.7588 38.2434 27.7839 37.7875 28.1959 36.0273C29.1306 32.0334 30.3558 28.6432 31.1549 27.8393C31.8795 27.1105 32.0412 27.0746 34.595 27.0746C36.0689 27.0746 37.5283 27.2103 37.838 27.3762C38.6326 27.8018 39.5927 30.1375 40.7005 34.3395C41.6595 37.9771 41.6954 38.584 40.9685 38.8633C40.1185 39.1897 39.722 38.6192 38.8921 35.8756C38.4226 34.3235 37.9933 32.9285 37.9382 32.7756C37.8831 32.6227 37.8281 32.9544 37.8161 33.5128C37.7992 34.2931 39.6302 40.8575 40.4998 43.1344C40.5963 43.387 40.2065 43.4821 39.0744 43.4821H37.5161V46.9383C37.5161 50.5673 37.2969 51.2685 36.1624 51.2685C35.1769 51.2685 35.015 50.6939 35.015 47.1971C35.015 45.2277 34.8979 43.7205 34.7371 43.6212C34.5577 43.5102 34.4592 44.6441 34.4592 46.821C34.4592 48.6755 34.3297 50.4349 34.1715 50.7306C33.85 51.3319 32.8021 51.4457 32.2915 50.9348L32.2915 50.9347ZM22.9691 37.4116C22.7161 37.1319 22.5091 36.6507 22.5091 36.3424C22.5091 35.6818 23.3296 34.8612 23.99 34.8612C24.5676 34.8612 25.5661 35.8302 25.5661 36.3907C25.5661 36.9718 24.559 37.9201 23.9417 37.9201C23.6597 37.9201 23.222 37.6913 22.9691 37.4116V37.4116ZM33.285 25.8069C30.8779 24.4998 31.896 20.6688 34.6462 20.6847C37.2476 20.6998 38.4017 23.4632 36.5712 25.2949C35.5231 26.3437 34.5521 26.495 33.2851 25.8069L33.285 25.8069ZM12.4832 24.3151C10.765 22.5958 11.9146 19.5662 14.2852 19.5662C14.9844 19.5662 15.5393 19.8027 16.1761 20.3721C16.922 21.0389 17.0774 21.3795 17.0774 22.3472C17.0774 23.3148 16.922 23.6554 16.1761 24.3223C14.9424 25.4253 13.59 25.4227 12.4832 24.3152L12.4832 24.3151ZM0.680929 21.3864C-0.119146 20.5858 -0.201456 19.4876 0.487193 18.8014C1.49836 17.7939 24.3919 3.99331 25.0401 4.00061C25.4055 4.0047 28.4558 5.69652 31.8184 7.76026L37.9323 11.5124L38.0126 9.14327L38.0929 6.77415H43.0735V14.7041L46.029 16.4775C49.4602 18.5363 50.0212 19.0308 50.0212 19.996C50.0212 21.0132 48.7916 22.1566 47.8511 22.0141C47.4398 21.9518 42.1397 18.8643 36.0732 15.153C27.0985 9.66269 24.9493 8.45633 24.5402 8.67971C24.2636 8.83072 19.2225 11.9048 13.338 15.5109C7.4534 19.1171 2.35149 22.0679 2.0007 22.0683C1.64985 22.0687 1.05583 21.7618 0.680655 21.3863L0.680929 21.3864Z" fill="#31600F" fill-opacity="0.8"/>
</g>
<defs>
<clipPath id="clip0_41:388">
<rect width="50" height="47.2678" fill="white" transform="translate(0.0214844 0.589111)"/>
</clipPath>
</defs>
</svg>
