<svg width="209.42" height="209.31" version="1.1" viewBox="0 0 209.42 209.31" xmlns="http://www.w3.org/2000/svg">
<g transform="translate(-320.17 -25.428)">
<path d="m417.85 234.52c-10.335-0.71898-21.642-3.2462-31.04-6.9375-32.955-12.944-57.195-41.493-64.465-75.925-2.6552-12.576-2.8936-28-0.62313-40.33 2.8793-15.637 9.5013-31.033 18.68-43.431 15.089-20.382 37.096-34.774 61.48-40.208 8.5654-1.9088 12.12-2.2576 23.008-2.2576 10.895 0 14.43 0.34736 23.04 2.2638 29.2 6.4995 54.823 25.872 69.065 52.217 6.5006 12.025 10.331 24.134 12.064 38.136 0.70458 5.6943 0.71982 17.76 0.0298 23.55-2.627 22.041-11.231 41.269-25.976 58.05-13.354 15.198-32.121 26.672-51.823 31.685-10.943 2.784-22.883 3.9222-33.44 3.1877zm21.29-4.7398c13.865-2.1371 25.828-6.3666 37.357-13.208 12.676-7.5217 24.283-18.642 32.707-31.338 3.2395-4.882 4.172-7.2486 4.597-11.667 0.25254-2.6254 0.53931-3.9156 1.1284-5.0766 0.43443-0.85613 0.89023-2.2863 1.0129-3.1782 0.12361-0.89871 0.73028-2.5444 1.3609-3.6918 1.0071-1.8321 1.1313-2.3099 1.0805-4.155-0.0316-1.1466 0.11644-2.5656 0.32896-3.1534 0.66042-1.8264-0.10489-5.8247-1.714-8.9546l-1.3416-2.6095 0.40759-2.7396c0.3972-2.6698 0.26878-5.3684-0.2992-6.2874-0.22812-0.3691-0.52769-0.38974-1.5801-0.10884-1.2731 0.33981-1.3116 0.32549-1.9635-0.72925-0.38721-0.62652-0.92576-1.0759-1.2895-1.0759-1.3694 0-3.657 1.5439-5.1652 3.486-1.4403 1.8547-1.5875 1.954-2.8956 1.954-0.99115 0-1.6877 0.23472-2.4803 0.83583-0.60619 0.4597-1.7271 1.1202-2.491 1.4677l-1.3888 0.63188-1.9712-1.2098c-4.3048-2.6421-5.3313-3.3611-5.333-3.7354-6e-3 -1.2464-0.71927-2.6799-1.5749-3.1638-0.51891-0.29352-1.226-1.0873-1.5712-1.764-0.43692-0.85645-0.97293-1.3552-1.7636-1.6412-0.89189-0.32251-1.314-0.77463-1.9645-2.1043l-0.82855-1.6935 0.66764-2.9973c0.8104-3.6382 0.75682-4.9061-0.21313-5.0444-0.56514-0.0805-0.78259-0.48593-1.2015-2.24-0.28132-1.1779-0.52628-2.5737-0.54437-3.1017-0.079-2.3066 0.48229-7.7545 0.88031-8.5441 0.23957-0.47527 0.43557-1.2673 0.43557-1.76-2e-5 -0.63145 0.33413-1.1793 1.132-1.8559 1.5306-1.298 1.7871-2.8509 0.78344-4.7427-0.87171-1.6432-0.72476-3.0581 0.48839-4.7025 0.5402-0.73219 0.79611-1.4965 0.79592-2.377-2.4e-4 -1.0847-0.20212-1.4936-1.2294-2.4901-1.1189-1.0854-1.2838-1.1509-1.8397-0.73018-1.048 0.79314-1.6814 0.59034-1.9067-0.6105-0.15-0.79958-0.4116-1.1448-0.9745-1.2861-0.66173-0.16608-0.76946-0.38367-0.76946-1.5541 0-1.0219-0.22693-1.6383-0.91088-2.4739-1.0753-1.3138-1.6491-2.3412-1.6491-2.9526 0-0.63126 2.044-1.5203 3.4954-1.5203 0.75424 0 1.5273-0.24347 1.9892-0.62648l0.75545-0.62648-0.8243-1.514c-0.45337-0.83268-1.1014-1.661-1.44-1.8407-0.33864-0.1797-1.0059-0.58449-1.4827-0.89955-0.47688-0.31505-1.3592-0.57282-1.9608-0.57282s-1.262-0.20267-1.4676-0.45037c-0.30413-0.36645-0.16237-0.52014 0.76082-0.82482 1.1957-0.39462 1.457-0.8612 0.65459-1.1691-0.76237-0.29255-0.55736-0.75572 0.3345-0.75572 0.7593 0 0.8001-0.07677 0.60199-1.1328-0.15931-0.84918-0.0718-1.2883 0.34966-1.754 0.40051-0.44255 0.46744-0.73796 0.23274-1.0272-0.4325-0.53302-0.23707-3.0298 0.28653-3.6607 0.34126-0.41119 0.30778-0.56957-0.19866-0.93989-0.59117-0.43228-0.58925-0.44537 0.0654-0.44537 0.37097 0 0.73348-0.17695 0.80557-0.39323 0.0954-0.28631 0.37192-0.23542 1.0168 0.18716 0.8734 0.57227 0.88312 0.57106 0.69559-0.08677-0.1046-0.36693-0.27188-0.95515-0.37174-1.3072-0.20842-0.73467 0.44408-0.87463 1.1189-0.24 0.35037 0.32952 0.3853 0.23116 0.19827-0.55821-0.29196-1.2322-0.61723-1.6058-2.5684-2.9503-0.88393-0.60908-1.2832-1.0131-0.88716-0.89789 0.40995 0.1193 0.72 0.07025 0.72-0.11389 0-0.50176-1.3397-1.3197-2.1615-1.3197-0.86861 0-1.4372-1.1454-0.99116-1.9967 0.37323-0.71236-0.38569-1.9231-1.5332-2.4459-1.147-0.52261-1.2661-0.26351-0.47066 1.0236 0.81658 1.3213 0.84293 1.6867 0.14103 1.9561-0.689 0.26439-3.9483-1.6926-5.8645-3.5212-1.3399-1.2787-3.2-2.1652-3.2-1.5252 0 0.15396 0.78496 0.74943 1.7444 1.3233 1.0952 0.65504 2.0015 1.5009 2.4354 2.2728 0.51295 0.91267 1.1794 1.4629 2.5865 2.1354 1.0425 0.49828 2.2338 1.3452 2.6472 1.8819 0.41342 0.53679 1.3409 1.408 2.061 1.936 0.72012 0.528 1.2598 1.104 1.1992 1.28-0.0605 0.176 0.10945 0.572 0.37776 0.88 0.43797 0.50276 0.43638 0.56-0.0156 0.56-0.27689 0-0.73284 0.08803-1.0132 0.19563-0.35562 0.13647-0.45612 0.05576-0.33232-0.26688 0.2179-0.56782-1.6814-1.9422-3.6344-2.63l-1.3842-0.48746 0.2096 0.95434c0.27289 1.2425-0.18887 1.2423-2.5525-9.6e-4 -3.198-1.6822-3.7552-2.2837-4.6618-5.0317-0.74273-2.2514-0.94094-2.5516-2.0456-3.0988-0.71578-0.35457-1.5712-1.1672-2.0622-1.9591-0.46152-0.74425-1.3071-1.6609-1.8791-2.0371-1.0578-0.69558-1.3639-1.72-0.64649-2.1634 0.56759-0.35079 5.6847-0.15109 6.7391 0.263 0.63581 0.24969 0.86599 0.5406 0.8 1.0111-0.0708 0.5049 0.15367 0.73198 0.95282 0.9638 2.1441 0.62195 1.6916-0.81628-0.6076-1.9314-6.6146-3.2081-18.094-6.3762-27.571-7.6092-15.329-1.9945-33.674 0.06501-47.326 5.313-2.1703 0.8343-2.5543 1.1087-3.2772 2.3423-0.45036 0.76849-1.3317 1.7142-1.9585 2.1016-1.4564 0.90013-1.2619 1.0909 0.48432 0.47476 1.763-0.62204 1.9297-0.61003 1.9297 0.13912 0 0.36387 0.36564 0.79724 0.88 1.043 1.0903 0.52095 1.4076 1.8545 0.44114 1.8545-0.99971 0-1.1861 0.67635-0.36874 1.3382 0.53676 0.43464 1.019 0.54113 1.793 0.39593 0.72929-0.13682 1.8643 0.06963 3.6473 0.66345 2.9458 0.98103 3.3051 0.88993 5.031-1.2755 0.937-1.1756 4.1572-3.5678 4.4323-3.2927 0.35671 0.35671-0.27046 1.1371-1.3136 1.6346-0.66624 0.3177-1.3221 0.97508-1.6419 1.6456-0.49704 1.0423-0.49681 1.1559 4e-3 1.7087 0.59978 0.66275 0.69254 1.7312 0.22598 2.603-0.55599 1.0389-3.4608 2.6217-5.9552 3.2451-3.4004 0.84975-5.4842 2.053-6.6046 3.8137-1.4246 2.2388-1.1842 3.3745 1.0298 4.8644 0.968 0.65141 2.588 1.497 3.6 1.879 1.012 0.38205 1.836 0.78507 1.8311 0.89562-5e-3 0.11054-0.4369 0.76663-0.96 1.458-1.0793 1.4264-1.1616 2.0478-0.45263 3.4187 0.35953 0.69524 0.69105 0.93611 1.1893 0.86411 0.76015-0.10985 1.2708-0.9538 1.8988-3.138 0.3453-1.2011 0.74101-1.6759 2.4-2.88 1.0926-0.793 1.9926-1.629 2-1.8577 7e-3 -0.22874-0.20269-0.83385-0.46685-1.3447-0.47254-0.91378-0.45961-0.94542 0.8-1.9577 1.141-0.91691 1.2803-1.1808 1.2803-2.4254 0-1.7387 0.41041-1.9304 2.5859-1.2078 2.0747 0.68912 3.2571 1.8097 3.9582 3.7514 0.30186 0.836 0.71694 1.5169 0.92238 1.5132 0.20544-0.0037 0.77887-0.57976 1.2743-1.28 0.49542-0.70024 1.0938-1.2732 1.3298-1.2732 0.41597 0 2.3602 2.6382 2.4577 3.3349 0.0266 0.18983 0.0626 0.98654 0.08 1.7705l0.0318 1.4253 2.3565 1.3426c3.5537 2.0246 3.5328 1.9905 2.6784 4.3731-0.39322 1.0965-0.71491 2.149-0.71488 2.3387 4e-5 0.18977 0.74527 0.51705 1.6561 0.72729 0.91079 0.21024 1.8468 0.5406 2.08 0.73414 0.55809 0.46318 0.54236 2.2293-0.0268 3.0077-0.44276 0.60551-0.47348 0.60375-1.7236-0.09884-0.8979-0.50447-1.8031-0.71546-3.0697-0.71546-1.645 0-1.7964-0.06016-1.7964-0.71381 0-0.3926 0.31377-1.4708 0.69726-2.3961 0.38349-0.92524 0.60758-1.7719 0.49798-1.8815-0.10961-0.10961-1.0443 0.46463-2.0772 1.2761-1.3211 1.0379-2.1742 1.4754-2.8771 1.4754-2.2125 0-3.2809 1.157-3.2809 3.5527 0 0.7642 0.1779 0.94662 1.2 1.2305 1.7494 0.48583 2.4693 0.41588 3.12-0.30317 1.0806-1.1941 2.1788-0.58812 1.1768 0.64933-0.58678 0.72464-7.282 3.3117-7.7778 3.0053-0.46234-0.28575 0.0683-1.0086 1.1798-1.6072 0.60567-0.32618 1.1012-0.72314 1.1012-0.88215 0-0.48035-1.996-0.0022-4.2412 1.0157-1.6658 0.7553-2.3607 1.2986-3.2571 2.5463-0.95696 1.332-1.4601 1.7014-3.1406 2.3056-2.2372 0.80438-2.9886 1.3928-4.633 3.6282-0.80275 1.0913-1.2333 1.4416-1.4749 1.2-0.6066-0.6066-0.81019-0.36995-1.0142 1.1788-0.44417 3.3724-0.28711 3.1591-3.4641 4.7041-1.6704 0.8123-3.7277 2.1343-4.7749 3.0681-2.076 1.8513-2.1729 2.2476-1.3664 5.5878 0.55095 2.2818 0.6138 4.444 0.15414 5.3029-0.30588 0.57153-0.40431 0.58359-1.2393 0.15178-1.0563-0.54621-1.298-1.248-1.304-3.785-3e-3 -1.0176-0.21302-2.3496-0.46804-2.96-0.40129-0.9604-0.61132-1.1097-1.561-1.1097-0.75767 0-1.2346-0.20676-1.5409-0.66804-0.34763-0.52356-1.0309-0.75349-3.159-1.0631-1.7044-0.24797-2.898-0.28466-3.2057-0.09853-0.32505 0.1966-0.9044 0.1235-1.7191-0.21689-1.7575-0.73431-2.9629-0.63961-5.1741 0.4065-2.7766 1.3135-3.6774 2.5664-4.9305 6.8569-1.7752 6.0783-1.7755 6.0804-1.1397 7.8061 0.86771 2.355 1.9336 3.8281 2.9516 4.079 0.49615 0.1223 1.3782 0.68041 1.9602 1.2402l1.0581 1.0179 0.61264-0.8c0.33696-0.44 1.0569-1.6272 1.5998-2.6383 1.0707-1.9938 1.6846-2.4817 3.1226-2.4817 1.0471 0 2.9488 0.58964 2.9488 0.91433 0 0.11644-0.288 0.39158-0.64 0.61141-0.352 0.21982-0.64 0.65822-0.64 0.9742s-0.51611 1.0708-1.1469 1.6773c-1.0036 0.96499-1.1277 1.2505-0.99283 2.2851 0.11812 0.90636-0.025 1.425-0.61309 2.2222-0.93643 1.2692-0.97102 1.6633-0.12233 1.394 0.39704-0.12602 1.0564 0.0497 1.7158 0.45721 0.89148 0.55096 1.2341 0.60498 2.0448 0.32236 0.82571-0.28785 1.222-0.21379 2.6042 0.48662 0.89667 0.45437 1.6303 0.96619 1.6303 1.1374 0 0.17119-0.39586 1.2848-0.87968 2.4746-1.3028 3.204-1.2112 4.8682 0.40043 7.2692 1.4873 2.2158 2.4137 2.6302 3.7746 1.6884 1.1823-0.81829 2.7464-0.52918 4.2422 0.78415 0.61815 0.54274 1.1775 0.93164 1.2429 0.86422 0.0655-0.0674 0.7607-0.99594 1.545-2.0634 1.3614-1.8529 1.5654-1.9941 4.5068-3.12 1.6945-0.64857 3.2624-1.1791 3.4843-1.179 0.71467 3.2e-4 4.2055 1.8059 5.4874 2.8381l1.244 1.0016h4.0687c3.6916 0 4.167 0.0667 5.1299 0.72 0.61095 0.41449 1.2187 1.1952 1.4324 1.84 0.30195 0.91129 0.63042 1.2094 1.7627 1.6 1.0763 0.37125 1.8317 1.0149 3.3344 2.8411l1.9428 2.3611 2.6646-0.20481c2.6588-0.20438 2.6699-0.20202 5.1699 1.0986 2.7704 1.4413 2.797 1.4801 3.814 5.5508 0.53221 2.1303 0.84582 2.7454 1.9986 3.92 1.4405 1.4678 2.1769 1.705 2.8341 0.9132 0.2191-0.264 0.60604-0.48 0.85986-0.48 1.0794 0 3.6541 1.4241 4.4418 2.4568 0.77665 1.0182 0.94432 1.0914 2.0666 0.90179 0.87671-0.14811 1.4507-0.0561 2.0339 0.32602 0.66212 0.43384 1.2473 0.49161 3.1621 0.31218l2.3496-0.22018 1.903 1.6288c1.6945 1.4503 2.0662 1.6292 3.3917 1.6317 1.3811 3e-3 1.5141 0.0757 1.84 1.0106 0.19322 0.55427 0.35131 1.861 0.35131 2.9038 0 1.8544-0.0378 1.9359-1.7204 3.7122-0.94625 0.99893-2.0958 2.617-2.5546 3.5956-0.60066 1.2814-1.126 1.9176-1.8772 2.2734l-1.0431 0.49399-2e-3 2.6866c-2e-3 2.6037-0.0573 2.8003-1.7823 6.3671-0.97898 2.0243-2.2639 4.2316-2.8553 4.9052-0.95423 1.0868-1.1948 1.2024-2.1355 1.0259-0.86425-0.16213-1.7557 0.13055-4.8247 1.5841-2.0705 0.98062-3.9446 2.0223-4.1646 2.3148-0.22 0.29253-0.4 1.0817-0.4 1.7537 0 1.0595-0.16698 1.3384-1.2565 2.0988-0.69109 0.48233-1.3396 1.192-1.4411 1.5771-0.10152 0.38509-0.72408 1.0053-1.3835 1.3784-0.65939 0.37301-1.7029 1.3804-2.3189 2.2385-0.96081 1.3386-1.4074 1.655-3.1423 2.2268l-2.0223 0.66643-1.4937-0.66074c-0.82155-0.36341-1.7835-0.92791-2.1377-1.2544-0.71622-0.66029-3.0578-1.7079-3.2926-1.473-0.43801 0.43801 0.41988 1.1041 2.4459 1.8989 2.073 0.81334 2.2944 0.98956 2.5929 2.0642 0.17948 0.6462 0.32713 1.4874 0.32811 1.8694 2e-3 0.71735-0.44618 0.81773-5.1182 1.1466-1.0534 0.0742-1.126 0.15245-1.2216 1.3172-0.0984 1.1992-0.13381 1.233-1.12 1.0672-0.56012-0.0941-1.2917-0.27897-1.6257-0.41076-0.53595-0.21146-0.5827-0.13006-0.39783 0.69278 0.66857 2.9758 0.69018 2.862-0.64205 3.379l-1.2328 0.47843 1.36 0.70398c0.748 0.38719 1.36 0.77661 1.36 0.86539 0 0.0888-0.35724 0.29725-0.79388 0.46326-0.48864 0.18578-0.72776 0.47416-0.6219 0.75002 0.10713 0.2792-0.10157 0.51972-0.55349 0.63791l-0.72547 0.18971 0.75065 0.79903c0.41285 0.43946 1.6672 1.1277 2.7874 1.5295 1.1202 0.40174 2.0367 0.85971 2.0367 1.0177 0 0.16024-1.255 0.2157-2.8383 0.12542-3.0128-0.17178-4.8221-0.80266-8.277-2.8862-1.8402-1.1098-2.0095-1.4719-4.0689-8.707-0.98749-3.4692-0.99485-3.8051-0.14467-6.6042l0.67104-2.2097-0.68768-2.264c-0.45096-1.4847-0.78934-3.8254-0.98304-6.8-0.69096-10.611-0.6006-10.037-1.7124-10.88-0.5496-0.41695-2.1125-1.3675-3.473-2.1124-3.1993-1.7516-5.5952-3.9159-6.3853-5.7682-0.34135-0.80032-1.031-1.8871-1.5326-2.4151-0.50155-0.528-1.9536-2.76-3.2268-4.96s-2.8916-4.852-3.5964-5.8933l-1.2815-1.8933 0.57264-1.6847c0.47302-1.3916 0.51157-1.9251 0.2216-3.0667-0.30956-1.2187-0.26167-1.5773 0.40539-3.0349 0.41603-0.90909 1.13-1.8976 1.5865-2.1968 0.50793-0.3328 0.83012-0.83898 0.83012-1.3042 0-0.51358 0.35802-0.99482 1.1034-1.4832 1.3172-0.863 1.4465-1.2616 1.4522-4.4752 3e-3 -1.913-0.14015-2.7093-0.63443-3.52-0.35135-0.57625-0.63935-1.3397-0.64-1.6965-2e-3 -1.0285-0.93164-2.1207-1.7106-2.0094-0.3782 0.054-1.0384 0.6412-1.467 1.3048l-0.77937 1.2066-0.98209-0.9507c-0.62859-0.6085-1.4716-1.0287-2.3421-1.1675-1.2136-0.1935-1.36-0.31058-1.36-1.0874 0-0.70851-0.2423-0.97976-1.3021-1.4576-1.4375-0.6482-1.6896-1.0355-3.1626-4.8582-0.96488-2.504-1.0988-2.68-2.834-3.7246-1.0017-0.60303-2.2691-1.1913-2.8163-1.3074-0.7112-0.15076-1.4593-0.79028-2.6226-2.2419-1.6213-2.0232-1.6352-2.0319-3.645-2.2548-1.9379-0.21501-2.0891-0.29829-3.8358-2.1134-1.0001-1.0392-1.9103-2.1792-2.0227-2.5331s-0.62606-0.86171-1.1416-1.1283c-0.54788-0.28319-0.93756-0.74273-0.93756-1.1054 0-0.34136-0.432-1.1127-0.96-1.714-1.0771-1.2268-1.1583-1.8063-0.51039-3.6428 0.7961-2.2564 0.94021-5.1892 0.33443-6.8061-0.86665-2.3133-1.4723-9.0864-1.0087-11.28 0.15951-0.75468 0.13508-1.2-0.0658-1.2-0.65338 0-1.0325 2.5554-1.1869 8-0.0873 3.08-0.22539 5.924-0.30682 6.32-0.1922 0.93469-0.69409 0.93469-0.65454 0 0.0168-0.396-0.17004-2.1887-0.4151-3.9838-0.40791-2.9879-0.39849-3.387 0.11141-4.7222 0.30633-0.80213 0.51275-1.9974 0.4587-2.6562-0.0541-0.6588 0.32303-2.8886 0.83796-4.9551 0.83394-3.3467 0.89126-3.8817 0.52458-4.8957-0.36093-0.99814-0.32593-1.4207 0.28406-3.4289 1.5293-5.0349 3.8552-8.7741 8.4543-13.592 3.3309-3.4891 3.4542-3.6704 4.2403-6.24 0.67943-2.2207 1.0191-2.8267 2.111-3.7665 2.3798-2.0482 3.9029-3.6979 4.7114-5.1028 0.49264-0.85602 1.4495-1.8089 2.4905-2.4802 1.3528-0.87237 1.8799-1.4811 2.6389-3.048 0.52163-1.0768 0.90884-1.9975 0.86047-2.0458-0.0484-0.04837-1.4239 0.816-3.0567 1.9208-8.7021 5.8883-17.696 14.434-23.95 22.756-13.222 17.595-20.247 38.567-20.26 60.48-0.019 32.664 15.226 62.58 41.739 81.904 14.225 10.368 31.375 16.879 49.298 18.715 4.9612 0.50824 19.219 0.17165 24.01-0.56682zm-37.212-105.23c-0.84441-0.34043 0.0279-0.7474 1.602-0.7474 1.5127 0 1.5933 0.0371 1.0211 0.46982-0.61286 0.46355-1.8398 0.59339-2.6232 0.27758zm-11.358-0.81985c-1.9218-0.40052-1.9657-0.88755-0.08-0.88755 1.5645 0 1.7159-0.24142 0.91665-1.4612-0.28784-0.43931-0.46784-0.84916-0.4-0.9108 0.31857-0.28942 5.2028 1.4706 6.2074 2.2368 1.346 1.0266 1.2663 1.2552-0.28816 0.82596-0.83417-0.23032-1.6009-0.19432-2.83 0.13288-0.92723 0.24683-1.7579 0.43347-1.8459 0.41475-0.088-0.0187-0.844-0.17658-1.68-0.35082zm-4.64-3.6734c-0.396-0.0763-0.72-0.33496-0.72-0.57486s-0.27251-0.52267-0.60559-0.62839c-0.33307-0.10571-0.77995-0.61316-0.99306-1.1277-0.26584-0.64179-0.75381-1.0541-1.5544-1.3133-0.64182-0.20783-2.0106-0.80009-3.0418-1.3161-1.501-0.75114-2.1185-0.8971-3.0964-0.7319-1.1372 0.19213-1.2089 0.1585-1.04-0.48735 0.16396-0.62696 0.32331-0.67328 1.6564-0.48136 2.8215 0.4062 6.5374 1.8242 7.7396 2.9534 0.62957 0.59136 2.1909 1.6258 3.4697 2.2986 1.692 0.89037 2.1791 1.2794 1.7892 1.4291-0.57104 0.21913-2.4146 0.2088-3.6035-0.0202zm86.016-56.374c-0.25594-0.6179-0.64368-0.9997-1.0153-0.9997-0.37652 0-0.60118-0.22637-0.60118-0.60576 0-0.33317-0.23222-0.69487-0.51604-0.80379-0.43436-0.16668-0.44894-0.27888-0.0921-0.70887 0.35881-0.43234 0.33036-0.57928-0.18512-0.95621-0.33498-0.24496-0.82669-0.44537-1.0927-0.44537s-0.92246-0.42444-1.4588-0.94321c-0.53639-0.51876-1.5512-1.1308-2.2552-1.36-1.1593-0.37748-1.2894-0.52998-1.3793-1.6168-0.11488-1.3881 0.27396-1.5291 1.1489-0.41682 0.44788 0.56939 0.71209 0.68713 0.9679 0.43132 0.25581-0.25581 0.46082-0.11272 0.75102 0.52421 0.29769 0.65335 1.1499 1.2269 3.3522 2.256 1.6242 0.75899 3.1354 1.672 3.3583 2.0288 0.36448 0.58363 0.44285 0.59736 0.77978 0.13659 0.32113-0.43917 0.42994-0.34448 0.76269 0.66379 0.21348 0.64683 0.55439 1.176 0.7576 1.176s-0.20396 0.38697-0.90482 0.85994c-0.70085 0.47297-1.4294 1.0668-1.619 1.3197-0.28112 0.37491-0.42115 0.27527-0.75883-0.53994zm-5.8705 0.24682c-0.36974-0.21515-0.50629-0.54741-0.38371-0.93363 0.14112-0.44463-0.062-0.7301-0.78598-1.1045-1.1417-0.59039-1.2397-1.0017-0.30916-1.297 0.51591-0.16374 0.62332-0.38622 0.4739-0.98156-0.21774-0.86756-0.0573-0.91652 1.3712-0.41852 0.72715 0.25348 1.0078 0.55153 1.0078 1.0704 0 0.3955 0.288 0.97973 0.64 1.2983 0.90831 0.82201 0.79356 1.6642-0.30411 2.2318-1.1008 0.56922-0.97963 0.55968-1.7099 0.13474zm-37.346-6.8456c-2.3765-0.87492-3.9841-2.4501-5.2876-5.1811-1.0745-2.2512-1.0169-2.9927 0.3276-4.2162 0.616-0.56055 1.12-1.1486 1.12-1.3067 0-0.15812-0.79392-0.96576-1.7643-1.7948-0.97034-0.82899-1.7274-1.6681-1.6824-1.8647 0.045-0.19662-0.30848-0.86909-0.78559-1.4944-0.65042-0.85244-1.2702-1.2401-2.4769-1.5494-0.88518-0.22686-1.7002-0.55936-1.8111-0.73887-0.27732-0.44871 0.49641-0.88404 1.5818-0.88994 0.61178-0.0033 1.241-0.36483 1.9578-1.1249 0.95298-1.0104 1.2248-1.12 2.7785-1.1199 0.96414 3.5e-5 2.5827-0.30852 3.6772-0.701 1.7799-0.63828 2.1156-0.66512 3.7487-0.29964 1.8559 0.41533 2.6456 1.0782 3.7909 3.182 0.31933 0.58658 1.1797 1.309 2.1363 1.7937 0.89493 0.45349 1.6966 1.1105 1.8167 1.489 0.11824 0.37255 0.79501 1.2402 1.5039 1.9282l1.2889 1.2509-1.5483-0.08163c-1.2444-0.06561-1.5705 0.02582-1.6613 0.46578-0.0988 0.47851 0.091 0.52325 1.508 0.35543 2.4862-0.29446 2.1406 0.67292-0.68713 1.9232-1.3685 0.60507-1.8801 1.0152-2.0347 1.6311-0.11359 0.45256-0.40184 0.82284-0.64057 0.82284s-0.58487 0.2818-0.7692 0.62623c-0.18682 0.34908-0.82911 0.7189-1.4513 0.83561-0.61386 0.11516-1.1161 0.25598-1.1161 0.31294 0 0.05696 0.13503 0.45872 0.30008 0.89282 0.2325 0.61154 0.1738 0.90355-0.26071 1.2968-0.45081 0.40798-0.5335 0.88486-0.42162 2.4316 0.165 2.2811 0.0828 2.3106-3.1378 1.125zm-18.938-2.251c-2.6148-1.3616-3.1334-2.7613-1.5248-4.1148 0.75599-0.63612 0.98799-1.1051 1.0267-2.0753 0.0607-1.5227-0.44677-2.1989-1.8477-2.4617-1.3876-0.26031-2.2021 0.02227-2.6895 0.93305-0.53566 1.0009-1.9968 1.8194-2.8498 1.5963-0.97841-0.25586-0.88153-0.56849 0.63107-2.0364 1.2096-1.1739 1.2948-1.3598 0.96-2.0947-0.5408-1.1869-0.51257-1.2356 1.2813-2.212 1.338-0.7282 1.7594-0.82828 2.2357-0.53085 0.32279 0.20158 1.1063 0.36652 1.7412 0.36652 0.87177 0 1.1939 0.15137 1.316 0.61844 0.0889 0.34014 0.70561 0.97837 1.3704 1.4183 0.8472 0.56065 1.2737 1.1173 1.4263 1.8616 0.15851 0.7733 0.69088 1.4353 1.9597 2.4369 1.9184 1.5143 2.1733 2.3257 0.91135 2.9006-0.70165 0.31969-0.99598 0.27634-1.8947-0.27908-1.3566-0.8384-1.6383-0.39702-0.62401 0.97772 1.1891 1.6117 1.056 1.9912-0.65063 1.8555-0.792-0.06299-1.44-0.07243-1.44-0.02096 0 0.05146 0.23256 0.4485 0.5168 0.8823 0.6772 1.0335 0.15906 1.0276-1.8553-0.02138zm34.906-4.4026c-1.5748-1.0612-1.4434-1.6943 0.32369-1.56 0.77607 0.05902 2.0391-0.06855 2.8068-0.28348 1.2323-0.34503 1.4699-0.32368 2.029 0.18229 0.82252 0.74437 0.80047 1.2805-0.078 1.8957-1.1039 0.77321-3.7685 0.65019-5.0815-0.2346zm-51.458-6.3471c-0.6274-0.50846-1.0429-0.58344-2.2392-0.40404-1.2932 0.19392-1.4204 0.16194-1.0641-0.26738 0.22259-0.26821 0.33102-0.6859 0.24095-0.92821-0.0972-0.26164 0.29039-0.73417 0.95448-1.1635 1.2868-0.83188 1.5632-1.8614 0.40075-1.4925-0.63147 0.20042-0.66634 0.16609-0.29085-0.28635 0.41493-0.49996 2.8166-1.5095 4.6214-1.9427l0.89307-0.21433-0.49307 0.95348c-0.70736 1.3679-0.63882 1.5202 0.78694 1.7482 0.704 0.11257 1.28 0.3159 1.28 0.45183 0 0.24244-2.8959 3.1202-3.84 3.816-0.36781 0.27107-0.66005 0.20783-1.2503-0.27056zm15.786-5.3728c0.30489-0.33691 0.50721-0.94732 0.44959-1.3565-0.0848-0.60226 0.10849-0.8173 1.0152-1.1294 0.616-0.21201 1.5245-0.39359 2.0189-0.40353 0.51422-0.01034 0.81425-0.155 0.70111-0.33806-0.1279-0.20695 1.1372-0.31108 3.5811-0.29474 2.0784 0.01389 3.6349 0.07814 3.4589 0.14276-0.176 0.06462-0.92163 0.27201-1.657 0.46086-0.73532 0.18885-2.0933 0.85233-3.0177 1.4744-1.5809 1.0639-4.5985 2.0413-6.335 2.052-0.73788 0.0045-0.74675-0.02051-0.21523-0.60783zm33.625-3.6741c-2.4355-0.91303-3.36-1.4123-3.36-1.8146 0-1.2075 3.8487-0.1805 5.4274 1.4483 1.3361 1.3785 0.85845 1.4632-2.0674 0.3663zm45.994 50.257c0.1297-0.20385 0.23857-0.58663 0.24193-0.85063 0.0106-0.83104 1.2496-2.5597 1.839-2.5658 0.31058-0.0032 1.2048-0.4395 1.9871-0.96956 0.78232-0.53006 1.7614-1.0488 2.1757-1.1528 0.50518-0.12679 0.81404-0.49258 0.93761-1.1104 0.10135-0.50675 0.34884-0.92136 0.54999-0.92136 0.76109 0 2.7529 1.6486 2.9104 2.4089 0.0901 0.4351 0.2386 1.1511 0.32996 1.5911 0.0914 0.44 0.34735 0.8 0.56888 0.8s0.64512 0.28302 0.9413 0.62894c0.49703 0.58048 0.62332 0.5935 1.6394 0.16897 1.0193-0.42588 1.1645-0.40987 1.9604 0.21612 0.77253 0.60767 3.3649 1.0455 3.3642 0.56814-1.3e-4 -0.09781-0.36024-0.66578-0.80024-1.2622-0.89578-1.2142-1.0237-2.4517-0.3489-3.3746 0.42928-0.58708 0.48079-0.59004 1.0652-0.06116 0.65552 0.59324 1.886 0.72191 2.5968 0.27154 0.34066-0.21586 0.35394-0.4222 0.0623-0.96719-0.20392-0.38103-0.2834-0.96806-0.17661-1.3045 0.26284-0.82814-3.0791-5.8421-3.9862-5.9805-0.40994-0.06256-0.65255 0.07813-0.65255 0.3784 0 0.91596-0.7652 0.46313-3.009-1.7806-1.2422-1.2422-2.3094-2.1062-2.3715-1.92-0.0621 0.18624-0.31687 0.33862-0.56621 0.33862-0.83403 0-0.46745 0.57628 1.4595 2.2944 1.3369 1.192 1.9752 2.0187 2.12 2.7456 0.25889 1.2998-0.49489 1.4434-1.2807 0.24412-0.28681-0.43773-1.079-1.0803-1.7603-1.4279-0.68136-0.3476-1.7122-1.2495-2.2908-2.0041-1.4589-1.9029-1.8546-2.1721-3.1926-2.1721-0.78183 0-1.371-0.22291-1.7781-0.67276-0.64259-0.71005-1.7168-1.3338-2.9565-1.7166-0.64995-0.2007-0.73248-0.13372-0.64 0.51946 0.11921 0.84195 2.2243 2.1386 4.9062 3.022 2.3238 0.76543 4 1.766 4 2.3876 0 0.29804 0.216 0.72116 0.48 0.94026 0.28573 0.23714 0.48 0.93648 0.48 1.728 0 0.73129 0.23069 1.659 0.51264 2.0615 0.64505 0.92094 0.41828 1.1611-0.73264 0.77602-0.7901-0.26438-0.9014-0.46284-0.91151-1.6253-0.0181-2.0875-0.86471-2.9072-4.368-4.2295-1.6751-0.63227-3.4629-1.479-3.973-1.8816l-0.92748-0.732-0.16 1.0714c-0.13915 0.93179-0.30195 1.0923-1.2491 1.2314-1.3858 0.20359-1.7838 1.1301-0.94645 2.2032 0.72919 0.93441 0.76889 1.9104 0.0883 2.1716-0.63533 0.2438-0.38489 1.8766 0.57703 3.7621 0.5375 1.0536 0.59406 1.4517 0.31228 2.1982-0.18925 0.50139-0.26493 1.1179-0.16818 1.37 0.11842 0.30861-0.22765 0.62647-1.059 0.97264-1.6265 0.67728-1.8671 1.1128-1.0086 1.8258 0.52912 0.43941 0.9829 0.53094 1.8374 0.37063 0.62412-0.11709 1.2409-0.37967 1.3706-0.58351zm11.038-21.942c0-1.1299-0.22864-1.4785-2.3564-3.592-1.5398-1.5296-2.3564-2.1494-2.3564-1.7886 0 0.30359-0.216 0.55199-0.48 0.55199-0.65843 0-0.60363 0.3619 0.24563 1.6221 0.52384 0.77732 4.4982 4.38 4.9107 4.4516 0.02 0.0035 0.0364-0.55681 0.0364-1.245z" stroke-width=".32"/>
</g>
</svg>
