<svg width="210" height="210" viewBox="0 0 210 210" fill="none" xmlns="http://www.w3.org/2000/svg">
<path d="M97.68 209.092C87.345 208.373 76.038 205.846 66.64 202.155C33.685 189.211 9.44501 160.662 2.17501 126.23C-0.480188 113.654 -0.718596 98.2295 1.55187 85.8995C4.43117 70.2625 11.0532 54.8665 20.2319 42.4685C35.3209 22.0865 57.3279 7.69453 81.7119 2.26053C90.2773 0.351729 93.8319 0.00292969 104.72 0.00292969C115.615 0.00292969 119.15 0.350289 127.76 2.26673C156.96 8.76623 182.583 28.1387 196.825 54.4837C203.325 66.5087 207.156 78.6177 208.889 92.6197C209.593 98.314 209.609 110.38 208.919 116.17C206.292 138.211 197.688 157.439 182.943 174.22C169.589 189.418 150.822 200.892 131.12 205.905C120.177 208.689 108.237 209.827 97.6797 209.092L97.68 209.092ZM118.97 204.352C132.835 202.215 144.798 197.986 156.327 191.144C169.003 183.623 180.61 172.502 189.034 159.806C192.274 154.924 193.206 152.558 193.631 148.139C193.884 145.514 194.17 144.224 194.759 143.063C195.194 142.206 195.65 140.776 195.772 139.884C195.896 138.986 196.503 137.34 197.133 136.193C198.14 134.361 198.265 133.883 198.214 132.038C198.182 130.891 198.33 129.472 198.543 128.884C199.203 127.058 198.438 123.06 196.829 119.93L195.487 117.32L195.895 114.581C196.292 111.911 196.163 109.212 195.595 108.293C195.367 107.924 195.068 107.903 194.015 108.184C192.742 108.524 192.704 108.51 192.052 107.455C191.665 106.829 191.126 106.379 190.762 106.379C189.393 106.379 187.105 107.923 185.597 109.865C184.157 111.72 184.01 111.819 182.702 111.819C181.71 111.819 181.014 112.054 180.221 112.655C179.615 113.115 178.494 113.775 177.73 114.123L176.341 114.755L174.37 113.545C170.065 110.903 169.039 110.184 169.037 109.809C169.031 108.563 168.318 107.129 167.462 106.646C166.943 106.352 166.236 105.558 165.891 104.882C165.454 104.025 164.918 103.526 164.128 103.24C163.236 102.918 162.814 102.466 162.163 101.136L161.335 99.4426L162.002 96.4453C162.813 92.8071 162.759 91.5391 161.789 91.4008C161.224 91.3203 161.006 90.9149 160.588 89.1609C160.306 87.983 160.061 86.5872 160.043 86.0592C159.964 83.7526 160.525 78.3047 160.923 77.5151C161.163 77.0398 161.359 76.2478 161.359 75.7551C161.359 75.1236 161.693 74.5757 162.491 73.8991C164.022 72.6011 164.278 71.0482 163.274 69.1564C162.403 67.5132 162.55 66.0983 163.763 64.4539C164.303 63.7218 164.559 62.9575 164.559 62.077C164.559 60.9923 164.357 60.5833 163.329 59.5868C162.21 58.5014 162.046 58.4359 161.49 58.8567C160.442 59.6498 159.808 59.447 159.583 58.2462C159.433 57.4466 159.171 57.1014 158.608 56.9601C157.947 56.794 157.839 56.5764 157.839 55.406C157.839 54.3841 157.612 53.7677 156.928 52.9321C155.853 51.6183 155.279 50.5909 155.279 49.9795C155.279 49.3482 157.323 48.4592 158.774 48.4592C159.529 48.4592 160.302 48.2157 160.764 47.8327L161.519 47.2062L160.695 45.6922C160.241 44.8595 159.593 44.0312 159.255 43.8515C158.916 43.6718 158.249 43.267 157.772 42.952C157.295 42.6369 156.413 42.3791 155.811 42.3791C155.21 42.3791 154.549 42.1765 154.344 41.9288C154.04 41.5623 154.181 41.4086 155.105 41.104C156.3 40.7093 156.562 40.2428 155.759 39.9349C154.997 39.6423 155.202 39.1791 156.094 39.1791C156.853 39.1791 156.894 39.1024 156.696 38.0463C156.536 37.1971 156.624 36.758 157.045 36.2923C157.446 35.8498 157.513 35.5544 157.278 35.2651C156.845 34.7321 157.041 32.2353 157.565 31.6044C157.906 31.1932 157.872 31.0349 157.366 30.6645C156.775 30.2323 156.777 30.2192 157.431 30.2192C157.802 30.2192 158.165 30.0422 158.237 29.8259C158.332 29.5396 158.609 29.5905 159.254 30.0131C160.127 30.5854 160.137 30.5842 159.949 29.9263C159.845 29.5594 159.677 28.9712 159.577 28.6191C159.369 27.8845 160.022 27.7445 160.696 28.3791C161.047 28.7086 161.082 28.6103 160.895 27.8209C160.603 26.5887 160.277 26.2151 158.326 24.8706C157.442 24.2615 157.043 23.8575 157.439 23.9727C157.849 24.092 158.159 24.043 158.159 23.8588C158.159 23.3571 156.819 22.5391 155.998 22.5391C155.129 22.5391 154.56 21.3937 155.006 20.5424C155.38 19.8301 154.621 18.6193 153.473 18.0965C152.326 17.5739 152.207 17.833 153.003 19.1201C153.819 20.4414 153.846 20.8068 153.144 21.0762C152.455 21.3406 149.195 19.3836 147.279 17.555C145.939 16.2763 144.079 15.3898 144.079 16.0298C144.079 16.1838 144.864 16.7793 145.824 17.3531C146.919 18.0082 147.825 18.854 148.259 19.6259C148.772 20.5386 149.438 21.0888 150.845 21.7613C151.888 22.2596 153.079 23.1065 153.493 23.6432C153.906 24.18 154.834 25.0512 155.554 25.5792C156.274 26.1072 156.813 26.6832 156.753 26.8592C156.692 27.0352 156.862 27.4312 157.131 27.7392C157.569 28.242 157.567 28.2992 157.115 28.2992C156.838 28.2992 156.382 28.3873 156.102 28.4949C155.746 28.6313 155.646 28.5506 155.769 28.228C155.987 27.6602 154.088 26.2858 152.135 25.598L150.751 25.1105L150.96 26.0649C151.233 27.3074 150.772 27.3072 148.408 26.0639C145.21 24.3817 144.653 23.7802 143.746 21.0322C143.003 18.7808 142.805 18.4806 141.701 17.9334C140.985 17.5788 140.129 16.7662 139.638 15.9743C139.177 15.2301 138.331 14.3134 137.759 13.9372C136.701 13.2416 136.395 12.2172 137.113 11.7738C137.68 11.423 142.797 11.6227 143.852 12.0368C144.488 12.2865 144.718 12.5774 144.652 13.0479C144.581 13.5528 144.806 13.7799 145.605 14.0117C147.749 14.6337 147.296 13.1954 144.997 12.0803C138.382 8.87221 126.903 5.70411 117.426 4.47111C102.097 2.47661 83.7521 4.53612 70.1001 9.78411C67.9298 10.6184 67.5458 10.8928 66.8229 12.1264C66.3725 12.8949 65.4912 13.8406 64.8644 14.228C63.408 15.1281 63.6025 15.3189 65.3487 14.7028C67.1117 14.0807 67.2784 14.0927 67.2784 14.8419C67.2784 15.2058 67.644 15.6391 68.1584 15.8849C69.2487 16.4058 69.566 17.7394 68.5995 17.7394C67.5998 17.7394 67.4134 18.4157 68.2308 19.0776C68.7676 19.5122 69.2498 19.6187 70.0238 19.4735C70.7531 19.3367 71.8881 19.5432 73.6711 20.137C76.6169 21.118 76.9762 21.0269 78.7021 18.8615C79.6391 17.6859 82.8593 15.2937 83.1344 15.5688C83.4911 15.9255 82.8639 16.7059 81.8208 17.2034C81.1546 17.5211 80.4987 18.1784 80.1789 18.849C79.6818 19.8913 79.6821 20.0049 80.1829 20.5577C80.7827 21.2204 80.8754 22.2889 80.4089 23.1607C79.8529 24.1996 76.9481 25.7824 74.4537 26.4058C71.0533 27.2555 68.9695 28.4588 67.8491 30.2195C66.4245 32.4583 66.6649 33.594 68.8789 35.0839C69.8469 35.7353 71.4669 36.5809 72.4789 36.9629C73.4909 37.3449 74.3149 37.7479 74.31 37.8585C74.305 37.969 73.8731 38.6251 73.35 39.3165C72.2707 40.7429 72.1884 41.3643 72.8973 42.7352C73.2569 43.4304 73.5884 43.6713 74.0866 43.5993C74.8468 43.4894 75.3574 42.6455 75.9854 40.4613C76.3307 39.2602 76.7264 38.7854 78.3854 37.5813C79.478 36.7883 80.378 35.9523 80.3854 35.7236C80.3924 35.4949 80.1828 34.8897 79.9186 34.3789C79.4461 33.4651 79.459 33.4335 80.7186 32.4212C81.8596 31.5043 81.9989 31.2404 81.9989 29.9958C81.9989 28.2571 82.4093 28.0654 84.5848 28.788C86.6595 29.4771 87.8419 30.5977 88.543 32.5394C88.8449 33.3754 89.2599 34.0563 89.4654 34.0526C89.6708 34.0489 90.2442 33.4728 90.7397 32.7726C91.2351 32.0724 91.8335 31.4994 92.0695 31.4994C92.4855 31.4994 94.4297 34.1376 94.5272 34.8343C94.5538 35.0241 94.5898 35.8208 94.6072 36.6048L94.639 38.0301L96.9955 39.3727C100.549 41.3973 100.528 41.3632 99.6739 43.7458C99.2807 44.8423 98.9589 45.8948 98.959 46.0845C98.959 46.2743 99.7043 46.6016 100.615 46.8118C101.526 47.022 102.462 47.3524 102.695 47.5459C103.253 48.0091 103.237 49.7752 102.668 50.5536C102.226 51.1591 102.195 51.1574 100.945 50.4548C100.047 49.9503 99.1416 49.7393 97.875 49.7393C96.23 49.7393 96.0786 49.6792 96.0786 49.0255C96.0786 48.6329 96.3924 47.5547 96.7758 46.6294C97.1593 45.7042 97.3834 44.8575 97.2738 44.7479C97.1642 44.6383 96.2295 45.2125 95.1966 46.024C93.8755 47.0619 93.0224 47.4994 92.3195 47.4994C90.107 47.4994 89.0386 48.6564 89.0386 51.0521C89.0386 51.8163 89.2165 51.9987 90.2386 52.2826C91.988 52.7684 92.7079 52.6985 93.3586 51.9794C94.4392 50.7853 95.5374 51.3913 94.5354 52.6288C93.9486 53.3534 87.2534 55.9405 86.7576 55.6341C86.2953 55.3483 86.8259 54.6255 87.9374 54.0269C88.5431 53.7007 89.0386 53.3037 89.0386 53.1447C89.0386 52.6644 87.0426 53.1425 84.7974 54.1604C83.1316 54.9157 82.4367 55.459 81.5403 56.7067C80.5834 58.0387 80.0802 58.4081 78.3997 59.0123C76.1625 59.8167 75.4111 60.4051 73.7667 62.6405C72.964 63.7318 72.5334 64.0821 72.2918 63.8405C71.6852 63.2339 71.4817 63.4706 71.2776 65.0193C70.8335 68.3917 70.9905 68.1784 67.8135 69.7234C66.1431 70.5357 64.0858 71.8577 63.0386 72.7915C60.9626 74.6428 60.8657 75.0391 61.6722 78.3793C62.2232 80.6611 62.286 82.8233 61.8264 83.6822C61.5205 84.2538 61.422 84.2658 60.5871 83.834C59.5308 83.2878 59.2891 82.586 59.2831 80.049C59.2801 79.0314 59.07 77.6994 58.815 77.089C58.4137 76.1286 58.2037 75.9793 57.254 75.9793C56.4964 75.9793 56.0194 75.7726 55.7131 75.3113C55.3655 74.7877 54.6822 74.5578 52.5541 74.2482C50.8497 74.0002 49.6561 73.9635 49.3484 74.1496C49.0234 74.3462 48.444 74.2731 47.6293 73.9327C45.8718 73.1984 44.6664 73.2931 42.4552 74.3392C39.6786 75.6527 38.7778 76.9057 37.5247 81.1962C35.7495 87.2745 35.7492 87.2766 36.385 89.0023C37.2527 91.3573 38.3186 92.8303 39.3366 93.0812C39.8328 93.2035 40.7148 93.7617 41.2968 94.3214L42.3549 95.3393L42.9676 94.5394C43.3045 94.0994 44.0245 92.9121 44.5674 91.901C45.6381 89.9072 46.252 89.4193 47.69 89.4193C48.7371 89.4193 50.6388 90.009 50.6388 90.3337C50.6388 90.4501 50.3508 90.7253 49.9988 90.9451C49.6468 91.1649 49.3588 91.6033 49.3588 91.9193C49.3588 92.2353 48.8427 92.9901 48.2119 93.5966C47.2083 94.5616 47.0842 94.8471 47.219 95.8817C47.3372 96.7881 47.194 97.3067 46.6059 98.1039C45.6695 99.3731 45.6349 99.7672 46.4836 99.4979C46.8806 99.3719 47.54 99.5476 48.1994 99.9551C49.0909 100.506 49.4335 100.56 50.2442 100.277C51.0699 99.9896 51.4662 100.064 52.8484 100.764C53.7451 101.218 54.4787 101.73 54.4787 101.901C54.4787 102.073 54.0829 103.186 53.5991 104.376C52.2963 107.58 52.3878 109.244 53.9995 111.645C55.4868 113.861 56.4132 114.275 57.7741 113.334C58.9564 112.515 60.5205 112.805 62.0163 114.118C62.6344 114.661 63.1938 115.049 63.2592 114.982C63.3247 114.915 64.0199 113.986 64.8042 112.919C66.1656 111.066 66.3696 110.925 69.311 109.799C71.0055 109.15 72.5734 108.62 72.7953 108.62C73.51 108.62 77.0008 110.426 78.2827 111.458L79.5267 112.459H83.5954C87.287 112.459 87.7624 112.526 88.7253 113.179C89.3362 113.594 89.944 114.375 90.1577 115.019C90.4596 115.931 90.7881 116.229 91.9204 116.619C92.9967 116.991 93.7521 117.634 95.2548 119.46L97.1976 121.822L99.8622 121.617C102.521 121.412 102.532 121.415 105.032 122.715C107.802 124.157 107.829 124.195 108.846 128.266C109.378 130.396 109.692 131.012 110.845 132.186C112.285 133.654 113.022 133.891 113.679 133.099C113.898 132.835 114.285 132.619 114.539 132.619C115.618 132.619 118.193 134.043 118.98 135.076C119.757 136.094 119.925 136.168 121.047 135.978C121.924 135.83 122.498 135.922 123.081 136.304C123.743 136.738 124.328 136.796 126.243 136.616L128.593 136.396L130.496 138.025C132.19 139.475 132.562 139.654 133.887 139.656C135.268 139.659 135.401 139.732 135.727 140.667C135.921 141.221 136.079 142.528 136.079 143.571C136.079 145.425 136.041 145.507 134.358 147.283C133.412 148.282 132.262 149.9 131.804 150.879C131.203 152.16 130.678 152.796 129.926 153.152L128.883 153.646L128.881 156.333C128.879 158.936 128.824 159.133 127.099 162.7C126.12 164.724 124.835 166.931 124.244 167.605C123.29 168.692 123.049 168.807 122.108 168.631C121.244 168.469 120.353 168.761 117.284 170.215C115.213 171.196 113.339 172.237 113.119 172.53C112.899 172.822 112.719 173.611 112.719 174.283C112.719 175.343 112.552 175.622 111.462 176.382C110.771 176.865 110.123 177.574 110.021 177.959C109.92 178.344 109.297 178.965 108.638 179.338C107.978 179.711 106.935 180.718 106.319 181.576C105.358 182.915 104.912 183.231 103.177 183.803L101.154 184.469L99.6606 183.809C98.8391 183.445 97.8771 182.881 97.5229 182.554C96.8067 181.894 94.4651 180.846 94.2303 181.081C93.7923 181.519 94.6502 182.185 96.6762 182.98C98.7492 183.794 98.9706 183.97 99.2691 185.044C99.4486 185.691 99.5963 186.532 99.5973 186.914C99.5993 187.631 99.1511 187.732 94.4791 188.06C93.4257 188.135 93.353 188.213 93.2574 189.378C93.159 190.577 93.1236 190.611 92.1374 190.445C91.5773 190.351 90.8457 190.166 90.5117 190.034C89.9758 189.823 89.929 189.904 90.1139 190.727C90.7825 193.703 90.8041 193.589 89.4719 194.106L88.2391 194.584L89.5991 195.288C90.3471 195.675 90.9591 196.065 90.9591 196.154C90.9591 196.242 90.6018 196.451 90.1652 196.617C89.6765 196.803 89.4374 197.091 89.5433 197.367C89.6504 197.646 89.4417 197.887 88.9898 198.005L88.2643 198.195L89.015 198.994C89.4278 199.433 90.6822 200.121 91.8024 200.523C92.9226 200.925 93.8391 201.383 93.8391 201.541C93.8391 201.701 92.5841 201.756 91.0008 201.666C87.988 201.494 86.1787 200.864 82.7238 198.78C80.8836 197.67 80.7143 197.308 78.6549 190.073C77.6674 186.604 77.66 186.268 78.5102 183.469L79.1812 181.259L78.4936 178.995C78.0426 177.51 77.7042 175.17 77.5105 172.195C76.8196 161.584 76.9099 162.158 75.7981 161.315C75.2485 160.898 73.6856 159.948 72.3251 159.203C69.1258 157.451 66.7299 155.287 65.9398 153.435C65.5985 152.634 64.9088 151.547 64.4072 151.019C63.9057 150.491 62.4536 148.259 61.1804 146.059C59.9072 143.859 58.2888 141.207 57.584 140.166L56.3025 138.273L56.8752 136.588C57.3482 135.197 57.3867 134.663 57.0968 133.521C56.7872 132.303 56.8351 131.944 57.5022 130.487C57.9182 129.577 58.6321 128.589 59.0886 128.29C59.5966 127.957 59.9188 127.451 59.9188 126.985C59.9188 126.472 60.2768 125.991 61.0222 125.502C62.3394 124.639 62.4687 124.241 62.4744 121.027C62.4774 119.114 62.3342 118.318 61.84 117.507C61.4886 116.931 61.2006 116.167 61.1999 115.811C61.1979 114.782 60.2683 113.69 59.4893 113.801C59.1111 113.855 58.451 114.442 58.0224 115.106L57.243 116.313L56.2609 115.362C55.6323 114.753 54.7893 114.333 53.9188 114.194C52.7052 114.001 52.5588 113.884 52.5588 113.107C52.5588 112.398 52.3165 112.127 51.2567 111.649C49.8192 111.001 49.5671 110.614 48.0941 106.791C47.1292 104.287 46.9953 104.111 45.2601 103.067C44.2584 102.464 42.991 101.875 42.4438 101.759C41.7326 101.608 40.9845 100.969 39.8212 99.5173C38.1999 97.4941 38.186 97.4854 36.1762 97.2625C34.2383 97.0475 34.0871 96.9642 32.3404 95.1491C31.3403 94.1099 30.4301 92.9699 30.3177 92.616C30.2053 92.2621 29.6916 91.7543 29.1761 91.4877C28.6282 91.2045 28.2385 90.745 28.2385 90.3823C28.2385 90.0409 27.8065 89.2696 27.2785 88.6683C26.2014 87.4415 26.1202 86.862 26.7682 85.0255C27.5643 82.7691 27.7083 79.8363 27.1026 78.2194C26.2359 75.9061 25.6303 69.133 26.0939 66.9394C26.2534 66.1847 26.229 65.7394 26.0281 65.7394C25.3747 65.7394 24.9956 68.2948 24.8412 73.7394C24.7539 76.8194 24.6158 79.6634 24.5344 80.0594C24.3422 80.9941 23.8403 80.9941 23.8798 80.0594C23.8966 79.6634 23.7098 77.8707 23.4647 76.0756C23.0568 73.0877 23.0662 72.6886 23.5761 71.3534C23.8825 70.5513 24.0889 69.356 24.0348 68.6972C23.9807 68.0384 24.3578 65.8086 24.8728 63.7421C25.7067 60.3954 25.764 59.8604 25.3974 58.8464C25.0364 57.8483 25.0714 57.4257 25.6814 55.4175C27.2107 50.3826 29.5366 46.6434 34.1357 41.8255C37.4666 38.3364 37.5899 38.1551 38.376 35.5855C39.0555 33.3648 39.3951 32.7588 40.487 31.819C42.8668 29.7708 44.3899 28.1211 45.1984 26.7162C45.6911 25.8602 46.6479 24.9073 47.6889 24.236C49.0417 23.3636 49.5688 22.7549 50.3278 21.188C50.8494 20.1112 51.2367 19.1905 51.1883 19.1422C51.1399 19.0938 49.7644 19.9582 48.1316 21.063C39.4295 26.9513 30.4356 35.497 24.1816 43.819C10.9596 61.414 3.93459 82.386 3.92159 104.299C3.90259 136.963 19.1476 166.879 45.6606 186.203C59.8856 196.571 77.0356 203.082 94.9586 204.918C99.9198 205.426 114.178 205.09 118.969 204.351L118.97 204.352ZM81.758 99.1222C80.9136 98.7818 81.7859 98.3748 83.36 98.3748C84.8727 98.3748 84.9533 98.4119 84.3811 98.8447C83.7682 99.3082 82.5413 99.438 81.7579 99.1222H81.758ZM70.4 98.3024C68.4782 97.9019 68.4343 97.4148 70.32 97.4148C71.8845 97.4148 72.0359 97.1734 71.2367 95.9536C70.9488 95.5143 70.7688 95.1045 70.8367 95.0428C71.1552 94.7534 76.0395 96.5134 77.0441 97.2796C78.3901 98.3062 78.3104 98.5348 76.7559 98.1056C75.9217 97.8753 75.155 97.9113 73.9259 98.2385C72.9987 98.4853 72.168 98.6719 72.08 98.6532C71.992 98.6345 71.236 98.4766 70.4 98.3024L70.4 98.3024ZM65.76 94.629C65.364 94.5527 65.04 94.294 65.04 94.0541C65.04 93.8142 64.7675 93.5314 64.4344 93.4257C64.1013 93.32 63.6545 92.8126 63.4414 92.298C63.1755 91.6562 62.6875 91.2439 61.887 90.9847C61.2451 90.7769 59.8763 90.1846 58.8451 89.6686C57.3441 88.9175 56.7267 88.7715 55.7488 88.9367C54.6116 89.1289 54.5399 89.0952 54.7088 88.4494C54.8727 87.8224 55.0321 87.7761 56.3652 87.968C59.1867 88.3742 62.9026 89.7922 64.1048 90.9214C64.7343 91.5128 66.2957 92.5472 67.5745 93.22C69.2665 94.1104 69.7536 94.4994 69.3637 94.6491C68.7926 94.8682 66.9491 94.8579 65.7602 94.6289L65.76 94.629ZM151.776 38.255C151.52 37.6371 151.132 37.2553 150.761 37.2553C150.384 37.2553 150.16 37.0289 150.16 36.6495C150.16 36.3164 149.927 35.9546 149.643 35.8457C149.209 35.679 149.195 35.5668 149.551 35.1369C149.91 34.7045 149.882 34.5576 149.366 34.1806C149.031 33.9357 148.54 33.7353 148.274 33.7353C148.008 33.7353 147.351 33.3108 146.815 32.7921C146.278 32.2733 145.264 31.6613 144.56 31.4321C143.4 31.0546 143.27 30.9021 143.18 29.8153C143.065 28.4272 143.454 28.2862 144.329 29.3984C144.777 29.9678 145.041 30.0856 145.297 29.8298C145.553 29.574 145.758 29.7171 146.048 30.354C146.346 31.0073 147.198 31.5809 149.4 32.61C151.024 33.369 152.536 34.282 152.759 34.6388C153.123 35.2224 153.201 35.2361 153.538 34.7754C153.86 34.3362 153.968 34.4309 154.301 35.4392C154.515 36.086 154.855 36.6152 155.059 36.6152C155.262 36.6152 154.855 37.0021 154.154 37.4751C153.453 37.9481 152.724 38.5419 152.535 38.7948C152.254 39.1697 152.114 39.0701 151.776 38.2549V38.255ZM145.906 38.5018C145.536 38.2867 145.399 37.9544 145.522 37.5682C145.663 37.1235 145.46 36.8381 144.736 36.4637C143.594 35.8733 143.496 35.462 144.427 35.1667C144.943 35.0029 145.05 34.7804 144.901 34.1851C144.683 33.3175 144.843 33.2686 146.272 33.7666C146.999 34.0201 147.28 34.3181 147.28 34.837C147.28 35.2325 147.568 35.8167 147.92 36.1353C148.828 36.9573 148.713 37.7995 147.615 38.3671C146.515 38.9363 146.636 38.9268 145.906 38.5018L145.906 38.5018ZM108.56 31.6562C106.183 30.7813 104.575 29.2061 103.272 26.4751C102.197 24.2239 102.255 23.4824 103.6 22.2589C104.216 21.6983 104.72 21.1103 104.72 20.9522C104.72 20.7941 103.926 19.9864 102.955 19.1574C101.985 18.3284 101.228 17.4893 101.273 17.2927C101.318 17.0961 100.964 16.4236 100.487 15.7983C99.8368 14.9459 99.217 14.5582 98.0103 14.2489C97.1251 14.022 96.3101 13.6895 96.1992 13.51C95.9219 13.0613 96.6956 12.626 97.781 12.6201C98.3928 12.6168 99.022 12.2553 99.7388 11.4952C100.692 10.4848 100.964 10.3752 102.517 10.3753C103.481 10.3753 105.1 10.0668 106.195 9.67429C107.974 9.03601 108.31 9.00917 109.943 9.37465C111.799 9.78998 112.589 10.4528 113.734 12.5566C114.053 13.1432 114.914 13.8656 115.87 14.3503C116.765 14.8038 117.567 15.4608 117.687 15.8393C117.805 16.2119 118.482 17.0795 119.191 17.7675L120.48 19.0184L118.932 18.9368C117.687 18.8712 117.361 18.9626 117.27 19.4026C117.172 19.8811 117.361 19.9258 118.778 19.758C121.265 19.4636 120.919 20.4309 118.091 21.6812C116.723 22.2863 116.211 22.6964 116.056 23.3123C115.943 23.7649 115.655 24.1352 115.416 24.1352C115.177 24.1352 114.831 24.417 114.647 24.7614C114.46 25.1105 113.818 25.4803 113.195 25.597C112.582 25.7122 112.079 25.853 112.079 25.91C112.079 25.9669 112.214 26.3687 112.379 26.8028C112.612 27.4143 112.553 27.7063 112.119 28.0996C111.668 28.5075 111.585 28.9844 111.697 30.5312C111.862 32.8123 111.78 32.8418 108.559 31.6562L108.56 31.6562ZM89.6215 29.4052C87.0067 28.0436 86.4881 26.6439 88.0967 25.2904C88.8527 24.6543 89.0847 24.1853 89.1234 23.2151C89.1841 21.6924 88.6766 21.0162 87.2757 20.7534C85.8881 20.4931 85.0736 20.7757 84.5862 21.6865C84.0505 22.6874 82.5894 23.5058 81.7364 23.2827C80.758 23.0269 80.8549 22.7143 82.3675 21.2463C83.5771 20.0724 83.6623 19.8865 83.3275 19.1516C82.7867 17.9647 82.8149 17.916 84.6088 16.9396C85.9468 16.2114 86.3682 16.1114 86.8445 16.4088C87.1673 16.6104 87.9508 16.7753 88.5857 16.7753C89.4575 16.7753 89.7796 16.9267 89.9017 17.3938C89.9906 17.7339 90.6073 18.3721 91.2721 18.8121C92.1193 19.3727 92.5458 19.9294 92.6984 20.6737C92.8569 21.447 93.3893 22.109 94.6581 23.1106C96.5765 24.6249 96.8314 25.4363 95.5694 26.0112C94.8678 26.3308 94.5735 26.2875 93.6747 25.7321C92.3181 24.8937 92.0364 25.3351 93.0507 26.7098C94.2398 28.3215 94.1067 28.701 92.4001 28.5653C91.6081 28.5023 90.9601 28.4929 90.9601 28.5443C90.9601 28.5958 91.1927 28.9928 91.4769 29.4266C92.1541 30.4601 91.6359 30.4542 89.6216 29.4053L89.6215 29.4052ZM124.528 25.0026C122.953 23.9414 123.084 23.3083 124.851 23.4426C125.627 23.5016 126.89 23.374 127.658 23.1591C128.89 22.8141 129.128 22.8354 129.687 23.3414C130.51 24.0858 130.487 24.6219 129.609 25.2371C128.505 26.0103 125.84 25.8873 124.527 25.0025L124.528 25.0026ZM73.0695 18.6555C72.4421 18.147 72.0266 18.0721 70.8303 18.2515C69.5371 18.4454 69.4099 18.4134 69.7662 17.9841C69.9888 17.7159 70.0972 17.2982 70.0072 17.0559C69.91 16.7942 70.2975 16.3217 70.9616 15.8924C72.2484 15.0605 72.5248 14.031 71.3624 14.3999C70.7309 14.6003 70.696 14.566 71.0715 14.1135C71.4865 13.6136 73.8881 12.604 75.6929 12.1708L76.586 11.9565L76.0929 12.91C75.3856 14.2779 75.4541 14.4302 76.8799 14.6582C77.5839 14.7707 78.1599 14.9741 78.1599 15.11C78.1599 15.3524 75.264 18.2302 74.3199 18.926C73.9521 19.1971 73.6598 19.1338 73.0696 18.6554L73.0695 18.6555ZM88.8555 13.2827C89.1604 12.9458 89.3627 12.3354 89.3051 11.9262C89.2203 11.3239 89.4136 11.1089 90.3203 10.7968C90.9363 10.5848 91.8448 10.4032 92.3392 10.3933C92.8534 10.3829 93.1534 10.2383 93.0403 10.0552C92.9124 9.84826 94.1775 9.74413 96.6214 9.76047C98.6998 9.77436 100.256 9.83861 100.08 9.90323C99.9043 9.96785 99.1587 10.1752 98.4233 10.3641C97.688 10.5529 96.33 11.2164 95.4056 11.8385C93.8247 12.9024 90.8071 13.8798 89.0706 13.8905C88.3327 13.895 88.3238 13.87 88.8554 13.2827L88.8555 13.2827ZM122.481 9.6086C120.045 8.69557 119.121 8.1963 119.121 7.794C119.121 6.5865 122.969 7.6135 124.548 9.2423C125.884 10.6208 125.406 10.7055 122.481 9.6086V9.6086ZM168.475 59.8656C168.604 59.6618 168.713 59.279 168.716 59.015C168.727 58.1839 169.966 56.4553 170.555 56.4492C170.866 56.446 171.76 56.0097 172.543 55.4796C173.325 54.9495 174.304 54.4308 174.718 54.3268C175.223 54.2 175.532 53.8342 175.656 53.2164C175.757 52.7097 176.005 52.2951 176.206 52.2951C176.967 52.2951 178.959 53.9436 179.116 54.7039C179.206 55.139 179.355 55.8551 179.446 56.2951C179.538 56.7351 179.794 57.095 180.015 57.095C180.237 57.095 180.66 57.3781 180.956 57.724C181.453 58.3045 181.58 58.3175 182.596 57.893C183.615 57.4671 183.76 57.4831 184.556 58.1091C185.329 58.7167 187.921 59.1546 187.92 58.6772C187.92 58.5794 187.56 58.0114 187.12 57.415C186.224 56.2008 186.096 54.9633 186.771 54.0404C187.201 53.4533 187.252 53.4504 187.836 53.9793C188.492 54.5725 189.722 54.7012 190.433 54.2508C190.774 54.0349 190.787 53.8286 190.496 53.2836C190.292 52.9026 190.212 52.3156 190.319 51.9791C190.582 51.151 187.24 46.137 186.333 45.9986C185.923 45.9361 185.68 46.0767 185.68 46.377C185.68 47.293 184.915 46.8401 182.671 44.5964C181.429 43.3542 180.362 42.4902 180.3 42.6764C180.238 42.8626 179.983 43.015 179.733 43.015C178.899 43.015 179.266 43.5913 181.193 45.3094C182.53 46.5014 183.168 47.3281 183.313 48.055C183.572 49.3548 182.818 49.4984 182.032 48.2991C181.745 47.8614 180.953 47.2188 180.272 46.8712C179.591 46.5236 178.56 45.6217 177.981 44.8671C176.522 42.9642 176.127 42.695 174.789 42.695C174.007 42.695 173.418 42.4721 173.01 42.0223C172.368 41.3122 171.294 40.6885 170.054 40.3057C169.404 40.105 169.321 40.172 169.414 40.8251C169.533 41.6671 171.638 42.9638 174.32 43.8472C176.644 44.6126 178.32 45.6131 178.32 46.2347C178.32 46.5328 178.536 46.9559 178.8 47.175C179.086 47.4122 179.28 48.1115 179.28 48.903C179.28 49.6343 179.511 50.562 179.793 50.9645C180.438 51.8854 180.211 52.1256 179.06 51.7405C178.27 51.4762 178.159 51.2777 178.149 50.1152C178.131 48.0277 177.284 47.208 173.781 45.8857C172.106 45.2535 170.318 44.4067 169.808 44.0041L168.88 43.2721L168.72 44.3435C168.581 45.2753 168.418 45.4358 167.471 45.5749C166.085 45.7785 165.687 46.705 166.525 47.7781C167.254 48.7125 167.294 49.6885 166.613 49.9497C165.978 50.1935 166.228 51.8263 167.19 53.7118C167.727 54.7654 167.784 55.1635 167.502 55.91C167.313 56.4114 167.237 57.0279 167.334 57.28C167.452 57.5886 167.106 57.9065 166.275 58.2527C164.649 58.93 164.408 59.3655 165.266 60.0785C165.796 60.5179 166.249 60.6094 167.104 60.4491C167.728 60.332 168.345 60.0694 168.474 59.8656L168.475 59.8656ZM179.513 37.9236C179.513 36.7937 179.284 36.4451 177.156 34.3316C175.616 32.802 174.8 32.1822 174.8 32.543C174.8 32.8466 174.584 33.095 174.32 33.095C173.661 33.095 173.716 33.4569 174.565 34.7171C175.089 35.4944 179.064 39.0971 179.476 39.1687C179.496 39.1722 179.512 38.6119 179.512 37.9237L179.513 37.9236Z" fill="#31600F" fill-opacity="0.8"/>
</svg>
