<svg width="477" height="494" viewBox="0 0 477 494" fill="none" xmlns="http://www.w3.org/2000/svg">
<path d="M222.511 493.007C199.02 491.372 173.32 485.625 151.959 477.23C77.0539 447.794 21.9577 382.87 5.43344 304.566C-0.601683 275.967 -1.14357 240.89 4.01708 212.85C10.5616 177.29 25.613 142.277 46.4757 114.082C80.7721 67.7307 130.793 35.0013 186.216 22.6436C205.685 18.3027 213.764 17.5095 238.512 17.5095C263.276 17.5095 271.311 18.2995 290.881 22.6577C357.251 37.4385 415.49 81.4942 447.862 141.406C462.637 168.753 471.344 196.29 475.283 228.133C476.884 241.083 476.919 268.522 475.35 281.689C469.379 331.813 449.823 375.54 416.308 413.703C385.955 448.265 343.299 474.359 298.517 485.759C273.645 492.09 246.506 494.678 222.51 493.008L222.511 493.007ZM270.902 482.228C302.416 477.368 329.608 467.75 355.812 452.191C384.624 435.086 411.006 409.797 430.154 380.924C437.517 369.822 439.636 364.44 440.602 354.392C441.176 348.422 441.828 345.487 443.167 342.847C444.154 340.9 445.191 337.648 445.469 335.619C445.75 333.576 447.129 329.833 448.563 327.224C450.852 323.057 451.134 321.971 451.019 317.775C450.947 315.167 451.283 311.94 451.766 310.603C453.267 306.45 451.528 297.357 447.87 290.24L444.821 284.305L445.747 278.075C446.65 272.003 446.358 265.866 445.067 263.776C444.549 262.937 443.868 262.89 441.476 263.529C438.582 264.302 438.495 264.269 437.013 261.871C436.133 260.446 434.909 259.424 434.082 259.424C430.969 259.424 425.77 262.935 422.342 267.351C419.068 271.569 418.733 271.795 415.76 271.795C413.507 271.795 411.924 272.329 410.123 273.696C408.745 274.741 406.197 276.243 404.461 277.034L401.304 278.471L396.824 275.719C387.039 269.711 384.706 268.076 384.702 267.225C384.688 264.39 383.067 261.13 381.122 260.03C379.943 259.362 378.336 257.557 377.551 256.018C376.558 254.07 375.34 252.936 373.543 252.286C371.515 251.552 370.556 250.524 369.077 247.5L367.194 243.649L368.712 236.833C370.554 228.559 370.432 225.676 368.227 225.361C366.943 225.178 366.448 224.256 365.496 220.267C364.857 217.588 364.3 214.414 364.259 213.213C364.079 207.968 365.355 195.579 366.26 193.783C366.804 192.702 367.25 190.901 367.25 189.78C367.25 188.344 368.009 187.098 369.823 185.56C373.302 182.608 373.885 179.076 371.604 174.774C369.622 171.037 369.956 167.82 372.714 164.08C373.941 162.415 374.523 160.677 374.523 158.674C374.522 156.208 374.063 155.278 371.728 153.012C369.185 150.543 368.81 150.394 367.547 151.351C365.165 153.155 363.725 152.694 363.213 149.963C362.872 148.144 362.277 147.359 360.998 147.038C359.494 146.66 359.249 146.165 359.249 143.504C359.249 141.18 358.733 139.778 357.179 137.878C354.735 134.89 353.43 132.554 353.43 131.163C353.43 129.728 358.076 127.706 361.375 127.706C363.09 127.706 364.847 127.152 365.897 126.281L367.614 124.856L365.74 121.413C364.71 119.52 363.237 117.636 362.467 117.227C361.697 116.819 360.181 115.898 359.097 115.182C358.013 114.465 356.008 113.879 354.64 113.879C353.273 113.879 351.772 113.418 351.304 112.855C350.613 112.021 350.935 111.672 353.034 110.979C355.751 110.082 356.345 109.02 354.521 108.32C352.789 107.655 353.255 106.602 355.282 106.602C357.008 106.602 357.1 106.427 356.65 104.025C356.288 102.094 356.487 101.096 357.445 100.037C358.355 99.0302 358.507 98.3584 357.974 97.7007C356.991 96.4885 357.435 90.8105 358.625 89.3757C359.401 88.4406 359.325 88.0804 358.174 87.2383C356.83 86.2552 356.834 86.2254 358.322 86.2254C359.165 86.2254 359.989 85.823 360.153 85.3312C360.37 84.6801 360.999 84.7958 362.464 85.7568C364.45 87.0582 364.472 87.0555 364.045 85.5595C363.808 84.725 363.427 83.3873 363.2 82.5867C362.727 80.916 364.21 80.5977 365.744 82.0409C366.54 82.7903 366.619 82.5666 366.194 80.7715C365.531 77.9693 364.791 77.1197 360.357 74.0621C358.347 72.677 357.44 71.7582 358.34 72.0202C359.272 72.2915 359.977 72.1799 359.977 71.7612C359.977 70.6201 356.931 68.76 355.064 68.76C353.089 68.76 351.797 66.1552 352.811 64.2192C353.659 62.5992 351.934 59.8458 349.326 58.6569C346.719 57.4684 346.448 58.0576 348.256 60.9847C350.112 63.9895 350.172 64.8205 348.577 65.4332C347.011 66.0344 339.602 61.5839 335.247 57.4255C332.201 54.5175 327.974 52.5015 327.974 53.9569C327.974 54.3071 329.758 55.6612 331.938 56.9663C334.428 58.456 336.488 60.3796 337.474 62.135C338.64 64.2105 340.155 65.4618 343.353 66.9912C345.722 68.1243 348.43 70.0503 349.37 71.2709C350.31 72.4916 352.418 74.4729 354.054 75.6736C355.691 76.8743 356.918 78.1842 356.78 78.5845C356.643 78.9847 357.029 79.8853 357.639 80.5857C358.634 81.7291 358.631 81.8593 357.603 81.8593C356.974 81.8593 355.938 82.0595 355.3 82.3042C354.492 82.6145 354.264 82.431 354.545 81.6972C355.04 80.4059 350.723 77.2804 346.284 75.7162L343.138 74.6077L343.614 76.778C344.235 79.6036 343.185 79.6032 337.813 76.7758C330.544 72.9502 329.277 71.5824 327.217 65.333C325.529 60.213 325.078 59.5303 322.567 58.2859C320.94 57.4796 318.996 55.6315 317.88 53.8307C316.831 52.1381 314.909 50.0535 313.609 49.198C311.205 47.6162 310.509 45.2865 312.139 44.2781C313.43 43.4804 325.06 43.9345 327.457 44.8762C328.902 45.4441 329.425 46.1056 329.275 47.1756C329.114 48.3238 329.625 48.8402 331.441 49.3674C336.314 50.7818 335.286 47.5111 330.06 44.9752C315.025 37.6795 288.933 30.4748 267.393 27.6708C232.551 23.135 190.854 27.8186 159.823 39.7533C154.89 41.6506 154.018 42.2746 152.374 45.08C151.351 46.8276 149.348 48.9783 147.923 49.8593C144.613 51.9063 145.055 52.3402 149.024 50.939C153.031 49.5244 153.41 49.5517 153.41 51.2554C153.41 52.0829 154.241 53.0684 155.41 53.6273C157.888 54.812 158.609 57.8447 156.413 57.8447C154.14 57.8447 153.717 59.3828 155.575 60.888C156.795 61.8764 157.891 62.1185 159.65 61.7883C161.308 61.4772 163.887 61.9467 167.94 63.2971C174.636 65.5281 175.452 65.3209 179.375 60.3965C181.505 57.723 188.824 52.2828 189.45 52.9084C190.26 53.7196 188.835 55.4943 186.464 56.6257C184.95 57.3482 183.459 58.8432 182.732 60.368C181.602 62.7384 181.603 62.9967 182.741 64.2539C184.104 65.761 184.315 68.1908 183.255 70.1734C181.991 72.536 175.388 76.1355 169.719 77.5532C161.99 79.4857 157.254 82.2221 154.707 86.2261C151.469 91.3175 152.015 93.9002 157.048 97.2885C159.248 98.7699 162.93 100.693 165.23 101.562C167.53 102.43 169.403 103.347 169.392 103.598C169.381 103.85 168.399 105.342 167.21 106.914C164.757 110.158 164.57 111.571 166.181 114.689C166.999 116.27 167.752 116.817 168.885 116.654C170.612 116.404 171.773 114.485 173.2 109.517C173.985 106.786 174.885 105.706 178.655 102.968C181.139 101.165 183.185 99.2634 183.201 98.7433C183.217 98.2231 182.741 96.847 182.14 95.6852C181.066 93.6072 181.096 93.5352 183.959 91.2332C186.552 89.148 186.869 88.5479 186.869 85.7175C186.869 81.7634 187.802 81.3275 192.746 82.9708C197.462 84.5379 200.149 87.0863 201.743 91.502C202.429 93.4032 203.373 94.9516 203.84 94.9432C204.306 94.9348 205.61 93.6247 206.736 92.0323C207.862 90.4399 209.222 89.1369 209.759 89.1369C210.704 89.1369 215.123 95.1365 215.345 96.7209C215.405 97.1526 215.487 98.9644 215.527 100.747L215.599 103.989L220.955 107.042C229.032 111.646 228.985 111.569 227.043 116.987C226.149 119.48 225.418 121.874 225.418 122.305C225.418 122.737 227.112 123.481 229.182 123.959C231.252 124.437 233.38 125.189 233.91 125.629C235.178 126.682 235.143 130.699 233.849 132.469C232.843 133.846 232.773 133.842 229.931 132.244C227.891 131.097 225.833 130.617 222.954 130.617C219.215 130.617 218.871 130.48 218.871 128.994C218.871 128.101 219.584 125.649 220.456 123.545C221.327 121.441 221.837 119.515 221.588 119.266C221.339 119.017 219.214 120.322 216.866 122.168C213.864 124.528 211.925 125.523 210.327 125.523C205.298 125.523 202.87 128.154 202.87 133.602C202.87 135.34 203.274 135.755 205.597 136.401C209.573 137.506 211.21 137.347 212.689 135.711C215.145 132.996 217.641 134.374 215.363 137.188C214.03 138.836 198.812 144.719 197.685 144.022C196.634 143.373 197.84 141.729 200.367 140.367C201.743 139.626 202.87 138.723 202.87 138.361C202.87 137.269 198.333 138.356 193.23 140.671C189.443 142.389 187.864 143.624 185.826 146.462C183.651 149.491 182.508 150.331 178.688 151.705C173.603 153.534 171.895 154.873 168.157 159.956C166.333 162.438 165.354 163.235 164.805 162.685C163.426 161.306 162.964 161.844 162.5 165.366C161.49 173.035 161.847 172.55 154.626 176.064C150.829 177.911 146.153 180.917 143.773 183.041C139.054 187.251 138.834 188.152 140.667 195.748C141.92 200.937 142.062 205.855 141.018 207.808C140.322 209.108 140.099 209.135 138.201 208.153C135.8 206.911 135.251 205.315 135.237 199.545C135.23 197.231 134.753 194.202 134.173 192.814C133.261 190.63 132.784 190.29 130.625 190.29C128.903 190.29 127.819 189.82 127.123 188.771C126.332 187.581 124.779 187.058 119.942 186.354C116.068 185.79 113.355 185.706 112.656 186.129C111.917 186.577 110.6 186.41 108.749 185.636C104.754 183.966 102.014 184.182 96.9881 186.561C90.6771 189.548 88.6296 192.397 85.7814 202.154C81.7465 215.977 81.7458 215.982 83.1909 219.906C85.1632 225.262 87.5859 228.612 89.8997 229.183C91.0275 229.461 93.0323 230.73 94.3552 232.003L96.7602 234.318L98.1527 232.498C98.9186 231.498 100.555 228.798 101.789 226.499C104.223 221.964 105.618 220.855 108.886 220.855C111.266 220.855 115.589 222.196 115.589 222.934C115.589 223.199 114.934 223.825 114.134 224.325C113.334 224.825 112.679 225.822 112.679 226.54C112.679 227.259 111.506 228.975 110.073 230.355C107.792 232.549 107.509 233.198 107.816 235.551C108.084 237.612 107.759 238.792 106.422 240.605C104.294 243.491 104.215 244.387 106.144 243.775C107.047 243.488 108.546 243.888 110.044 244.815C112.071 246.068 112.849 246.19 114.692 245.548C116.569 244.893 117.47 245.062 120.611 246.654C122.649 247.688 124.317 248.852 124.317 249.241C124.317 249.63 123.417 252.163 122.317 254.869C119.356 262.155 119.564 265.94 123.228 271.4C126.608 276.439 128.714 277.381 131.807 275.239C134.494 273.378 138.049 274.036 141.449 277.023C142.854 278.257 144.126 279.141 144.274 278.988C144.423 278.835 146.003 276.723 147.786 274.296C150.88 270.082 151.344 269.761 158.03 267.2C161.881 265.725 165.445 264.519 165.949 264.519C167.574 264.52 175.508 268.626 178.422 270.973L181.249 273.251H190.497C198.888 273.251 199.969 273.403 202.157 274.888C203.546 275.831 204.927 277.606 205.413 279.073C206.099 281.145 206.846 281.823 209.42 282.711C211.866 283.556 213.583 285.019 216.999 289.172L221.414 294.542L227.471 294.076C233.514 293.611 233.539 293.617 239.222 296.575C245.519 299.852 245.579 299.941 247.891 309.198C249.1 314.042 249.813 315.441 252.433 318.112C255.708 321.45 257.381 321.99 258.875 320.189C259.373 319.589 260.253 319.098 260.83 319.098C263.283 319.098 269.135 322.336 270.926 324.685C272.691 327 273.072 327.167 275.623 326.736C277.616 326.399 278.92 326.608 280.246 327.477C281.751 328.464 283.081 328.595 287.433 328.187L292.774 327.686L297.099 331.39C300.951 334.689 301.795 335.095 304.808 335.101C307.947 335.108 308.25 335.273 308.99 337.399C309.43 338.66 309.789 341.631 309.789 344.003C309.789 348.22 309.703 348.405 305.879 352.445C303.728 354.717 301.115 358.396 300.072 360.622C298.707 363.536 297.513 364.983 295.805 365.792L293.434 366.915L293.43 373.025C293.425 378.946 293.3 379.393 289.379 387.505C287.154 392.108 284.233 397.128 282.889 398.66C280.72 401.131 280.173 401.394 278.035 400.993C276.071 400.624 274.044 401.29 267.069 404.595C262.363 406.825 258.103 409.194 257.603 409.859C257.103 410.525 256.694 412.319 256.694 413.848C256.694 416.257 256.314 416.891 253.838 418.621C252.267 419.717 250.793 421.331 250.562 422.207C250.331 423.083 248.916 424.493 247.418 425.342C245.919 426.19 243.547 428.481 242.147 430.432C239.963 433.477 238.948 434.196 235.004 435.497L230.408 437.012L227.013 435.509C225.145 434.683 222.959 433.399 222.154 432.657C220.526 431.155 215.204 428.773 214.67 429.307C213.674 430.303 215.624 431.818 220.229 433.625C224.941 435.475 225.444 435.876 226.123 438.32C226.531 439.789 226.867 441.702 226.869 442.571C226.873 444.202 225.855 444.43 215.235 445.178C212.841 445.347 212.676 445.525 212.459 448.174C212.235 450.901 212.155 450.978 209.913 450.601C208.64 450.387 206.977 449.966 206.218 449.667C205 449.186 204.893 449.371 205.314 451.242C206.833 458.01 206.882 457.751 203.854 458.926L201.052 460.015L204.143 461.616C205.844 462.496 207.235 463.382 207.235 463.584C207.235 463.785 206.423 464.259 205.43 464.637C204.32 465.06 203.776 465.715 204.017 466.343C204.26 466.978 203.786 467.525 202.759 467.793L201.11 468.225L202.816 470.042C203.754 471.041 206.605 472.606 209.151 473.52C211.698 474.434 213.781 475.475 213.781 475.835C213.781 476.199 210.928 476.325 207.329 476.12C200.482 475.729 196.369 474.294 188.516 469.556C184.334 467.032 183.949 466.209 179.268 449.755C177.023 441.866 177.007 441.102 178.939 434.736L180.464 429.711L178.901 424.563C177.876 421.186 177.107 415.863 176.667 409.098C175.096 384.968 175.302 386.273 172.775 384.356C171.525 383.408 167.973 381.246 164.881 379.552C157.609 375.569 152.163 370.647 150.367 366.434C149.591 364.614 148.024 362.143 146.884 360.942C145.744 359.741 142.443 354.665 139.549 349.662C136.656 344.659 132.977 338.628 131.375 336.26L128.462 331.954L129.764 328.123C130.839 324.958 130.927 323.745 130.268 321.149C129.564 318.378 129.673 317.562 131.189 314.247C132.135 312.18 133.757 309.932 134.795 309.251C135.949 308.495 136.682 307.344 136.682 306.286C136.682 305.118 137.496 304.023 139.19 302.913C142.184 300.95 142.478 300.043 142.491 292.735C142.497 288.385 142.172 286.574 141.049 284.73C140.25 283.42 139.595 281.684 139.594 280.872C139.589 278.533 137.476 276.049 135.706 276.303C134.846 276.425 133.346 277.761 132.371 279.27L130.6 282.014L128.368 279.852C126.939 278.468 125.023 277.512 123.044 277.197C120.286 276.757 119.953 276.49 119.953 274.724C119.953 273.113 119.402 272.496 116.993 271.409C113.726 269.935 113.153 269.054 109.805 260.361C107.612 254.666 107.307 254.266 103.363 251.891C101.087 250.519 98.2059 249.181 96.9621 248.917C95.3456 248.575 93.6452 247.12 91.0011 243.819C87.316 239.218 87.2844 239.198 82.7162 238.691C78.3115 238.202 77.9678 238.013 73.9977 233.885C71.7245 231.522 69.6556 228.929 69.4002 228.124C69.1447 227.32 67.9772 226.165 66.8054 225.559C65.5601 224.915 64.6743 223.87 64.6743 223.045C64.6743 222.268 63.6924 220.514 62.4923 219.147C60.0441 216.357 59.8596 215.039 61.3323 210.863C63.1418 205.731 63.4693 199.062 62.0924 195.385C60.1225 190.124 58.7459 174.721 59.7997 169.732C60.1622 168.016 60.1067 167.003 59.6501 167.003C58.165 167.003 57.3033 172.815 56.9524 185.197C56.7539 192.201 56.4401 198.669 56.255 199.569C55.8181 201.695 54.6774 201.695 54.7672 199.569C54.8054 198.669 54.3808 194.592 53.8237 190.509C52.8966 183.714 52.918 182.807 54.077 179.77C54.7733 177.946 55.2424 175.228 55.1195 173.73C54.9966 172.232 55.8538 167.161 57.0242 162.461C58.9197 154.85 59.05 153.634 58.2165 151.328C57.3962 149.058 57.4757 148.097 58.8622 143.53C62.3382 132.08 67.6249 123.576 78.0784 112.62C85.6493 104.685 85.9296 104.273 87.7163 98.4292C89.2606 93.379 90.0327 92.0009 92.5145 89.8637C97.9237 85.2058 101.386 81.4541 103.223 78.2592C104.343 76.3125 106.518 74.1455 108.884 72.6189C111.959 70.635 113.157 69.2507 114.882 65.6873C116.068 63.2385 116.948 61.1447 116.838 61.0349C116.728 60.9249 113.601 62.8906 109.89 65.403C90.1108 78.7939 69.6682 98.228 55.4532 117.153C25.4003 157.167 9.43287 204.86 9.40332 254.693C9.36014 328.976 44.0111 397.009 104.274 440.954C136.606 464.533 175.587 479.34 216.325 483.515C227.602 484.671 260.009 483.905 270.899 482.226L270.902 482.228ZM186.321 242.921C184.402 242.146 186.385 241.221 189.962 241.221C193.401 241.221 193.584 241.305 192.283 242.289C190.89 243.344 188.102 243.639 186.321 242.921H186.321ZM160.505 241.056C156.137 240.145 156.037 239.038 160.323 239.038C163.879 239.038 164.223 238.489 162.407 235.715C161.752 234.716 161.343 233.784 161.498 233.643C162.222 232.985 173.323 236.988 175.607 238.73C178.666 241.065 178.485 241.585 174.952 240.609C173.056 240.085 171.313 240.167 168.519 240.911C166.412 241.472 164.524 241.897 164.324 241.854C164.124 241.811 162.405 241.452 160.505 241.056L160.505 241.056ZM149.959 232.702C149.058 232.529 148.322 231.941 148.322 231.395C148.322 230.849 147.703 230.206 146.946 229.966C146.189 229.726 145.173 228.572 144.688 227.401C144.084 225.942 142.975 225.004 141.155 224.415C139.697 223.942 136.585 222.595 134.241 221.422C130.83 219.714 129.426 219.382 127.204 219.757C124.619 220.194 124.456 220.118 124.84 218.649C125.212 217.223 125.575 217.118 128.605 217.554C135.018 218.478 143.464 221.703 146.196 224.271C147.627 225.616 151.176 227.968 154.083 229.498C157.929 231.523 159.036 232.408 158.15 232.748C156.852 233.246 152.661 233.223 149.959 232.702L149.959 232.702ZM345.468 104.5C344.886 103.095 344.005 102.227 343.16 102.227C342.305 102.227 341.794 101.712 341.794 100.849C341.794 100.091 341.266 99.2687 340.621 99.021C339.634 98.642 339.601 98.3868 340.412 97.409C341.227 96.4258 341.163 96.0916 339.991 95.2344C339.23 94.6773 338.112 94.2216 337.507 94.2216C336.903 94.2216 335.411 93.2563 334.192 92.0766C332.972 90.8968 330.666 89.505 329.066 88.9837C326.431 88.1253 326.135 87.7785 325.931 85.3069C325.669 82.1502 326.553 81.8295 328.542 84.359C329.56 85.6539 330.16 85.9216 330.742 85.3399C331.323 84.7581 331.789 85.0836 332.449 86.532C333.126 88.0178 335.063 89.3222 340.068 91.6625C343.76 93.3885 347.195 95.4648 347.702 96.2763C348.53 97.6035 348.708 97.6347 349.474 96.5869C350.204 95.5881 350.451 95.8035 351.207 98.0964C351.693 99.5674 352.468 100.771 352.929 100.771C353.391 100.771 352.466 101.651 350.873 102.726C349.28 103.802 347.624 105.152 347.193 105.728C346.554 106.58 346.236 106.354 345.468 104.5V104.5ZM332.125 105.061C331.284 104.572 330.974 103.816 331.253 102.938C331.573 101.927 331.112 101.278 329.466 100.426C326.871 99.0837 326.648 98.1483 328.764 97.4767C329.936 97.1044 330.18 96.5984 329.841 95.2445C329.346 93.2716 329.71 93.1603 332.957 94.2928C334.61 94.8692 335.248 95.547 335.248 96.727C335.248 97.6264 335.903 98.9551 336.703 99.6795C338.767 101.549 338.506 103.464 336.011 104.755C333.509 106.049 333.785 106.028 332.125 105.061L332.125 105.061ZM247.239 89.4935C241.838 87.5038 238.184 83.9216 235.221 77.7109C232.779 72.5914 232.91 70.9051 235.966 68.1227C237.366 66.8479 238.511 65.5106 238.511 65.1511C238.511 64.7915 236.707 62.9548 234.501 61.0694C232.296 59.1842 230.575 57.276 230.677 56.8289C230.78 56.3817 229.976 54.8524 228.892 53.4304C227.413 51.4918 226.004 50.6102 223.262 49.9068C221.25 49.3909 219.397 48.6348 219.145 48.2265C218.515 47.2061 220.274 46.2161 222.741 46.2027C224.131 46.1952 225.561 45.373 227.191 43.6445C229.357 41.3467 229.974 41.0975 233.506 41.0977C235.697 41.0978 239.376 40.3961 241.864 39.5035C245.91 38.052 246.673 37.991 250.385 38.8221C254.603 39.7666 256.398 41.2741 259.001 46.0584C259.727 47.3924 261.682 49.0353 263.857 50.1375C265.891 51.1688 267.713 52.663 267.986 53.5237C268.255 54.371 269.793 56.3441 271.404 57.9087L274.334 60.7535L270.815 60.5678C267.986 60.4186 267.245 60.6265 267.039 61.6271C266.814 62.7153 267.245 62.817 270.466 62.4354C276.117 61.7657 275.332 63.9657 268.904 66.809C265.794 68.185 264.631 69.1177 264.28 70.5183C264.021 71.5475 263.366 72.3896 262.824 72.3896C262.281 72.3896 261.494 73.0304 261.075 73.8137C260.651 74.6076 259.191 75.4486 257.777 75.714C256.381 75.9759 255.24 76.2962 255.24 76.4257C255.24 76.5552 255.547 77.4689 255.922 78.4561C256.45 79.8468 256.317 80.5109 255.329 81.4052C254.305 82.333 254.117 83.4175 254.371 86.935C254.746 92.1225 254.559 92.1896 247.239 89.4934L247.239 89.4935ZM204.194 84.3744C198.251 81.2779 197.072 78.0948 200.729 75.0167C202.447 73.5701 202.974 72.5036 203.062 70.2972C203.2 66.8344 202.047 65.2966 198.863 64.699C195.709 64.107 193.857 64.7496 192.749 66.8209C191.532 69.097 188.211 70.9584 186.272 70.4511C184.048 69.8692 184.268 69.1582 187.706 65.82C190.456 63.1504 190.649 62.7276 189.888 61.0564C188.659 58.3572 188.723 58.2464 192.801 56.026C195.842 54.3699 196.8 54.1423 197.882 54.8187C198.616 55.2772 200.397 55.6523 201.84 55.6523C203.822 55.6523 204.554 55.9965 204.831 57.0587C205.033 57.8322 206.435 59.2836 207.946 60.2841C209.872 61.5591 210.841 62.825 211.188 64.5176C211.548 66.2762 212.758 67.7817 215.642 70.0595C220.003 73.5032 220.582 75.3484 217.714 76.6558C216.119 77.3829 215.45 77.2843 213.407 76.0212C210.324 74.1145 209.683 75.1183 211.989 78.2447C214.692 81.9099 214.389 82.7729 210.51 82.4643C208.71 82.3211 207.237 82.2996 207.237 82.4166C207.237 82.5337 207.766 83.4366 208.412 84.4231C209.951 86.7734 208.773 86.76 204.195 84.3745L204.194 84.3744ZM283.534 74.3622C279.954 71.9489 280.253 70.5092 284.27 70.8146C286.034 70.9488 288.904 70.6587 290.649 70.1699C293.45 69.3853 293.99 69.4338 295.261 70.5845C297.131 72.2773 297.081 73.4965 295.084 74.8956C292.575 76.6539 286.518 76.3742 283.534 74.362L283.534 74.3622ZM166.573 59.9281C165.147 58.7717 164.202 58.6012 161.483 59.0092C158.544 59.4502 158.255 59.3775 159.064 58.4011C159.57 57.7912 159.817 56.8413 159.612 56.2903C159.391 55.6953 160.272 54.6207 161.782 53.6443C164.706 51.7525 165.335 49.4112 162.692 50.2502C161.257 50.7059 161.178 50.6279 162.031 49.599C162.974 48.462 168.433 46.1661 172.536 45.181L174.566 44.6936L173.445 46.8619C171.837 49.9727 171.993 50.3191 175.233 50.8376C176.834 51.0936 178.143 51.556 178.143 51.8651C178.143 52.4164 171.561 58.9609 169.415 60.5432C168.579 61.1597 167.914 61.0158 166.573 59.9279L166.573 59.9281ZM202.453 47.7096C203.146 46.9434 203.606 45.5552 203.475 44.6247C203.283 43.2551 203.722 42.766 205.783 42.0563C207.183 41.5741 209.248 41.1612 210.372 41.1386C211.54 41.1151 212.222 40.7861 211.965 40.3698C211.674 39.8992 214.55 39.6624 220.105 39.6995C224.829 39.7311 228.367 39.8772 227.967 40.0242C227.567 40.1711 225.872 40.6428 224.2 41.0722C222.529 41.5017 219.442 43.0106 217.341 44.4252C213.748 46.8447 206.889 49.0674 202.942 49.0918C201.265 49.102 201.245 49.0451 202.453 47.7095L202.453 47.7096ZM278.881 39.3542C273.345 37.2778 271.244 36.1424 271.244 35.2275C271.244 32.4815 279.992 34.817 283.58 38.5211C286.617 41.656 285.531 41.8487 278.881 39.3542ZM383.423 153.646C383.718 153.182 383.965 152.311 383.973 151.711C383.997 149.821 386.813 145.89 388.153 145.876C388.859 145.869 390.891 144.877 392.669 143.671C394.448 142.466 396.673 141.286 397.615 141.05C398.763 140.761 399.465 139.929 399.746 138.524C399.976 137.372 400.539 136.429 400.996 136.429C402.726 136.429 407.253 140.178 407.611 141.907C407.816 142.897 408.153 144.525 408.361 145.526C408.569 146.526 409.15 147.345 409.654 147.345C410.158 147.345 411.12 147.989 411.794 148.775C412.923 150.095 413.21 150.125 415.52 149.159C417.837 148.191 418.167 148.227 419.976 149.651C421.732 151.033 427.624 152.029 427.622 150.943C427.622 150.721 426.803 149.429 425.803 148.073C423.767 145.311 423.477 142.497 425.01 140.398C425.986 139.063 426.103 139.056 427.432 140.259C428.922 141.608 431.718 141.901 433.334 140.877C434.108 140.386 434.138 139.917 433.475 138.677C433.012 137.811 432.831 136.476 433.074 135.711C433.672 133.827 426.075 122.425 424.014 122.11C423.082 121.968 422.53 122.288 422.53 122.971C422.53 125.054 420.791 124.024 415.691 118.921C412.868 116.096 410.442 114.131 410.301 114.555C410.16 114.978 409.581 115.325 409.014 115.325C407.118 115.325 407.951 116.636 412.331 120.543C415.37 123.254 416.821 125.134 417.15 126.787C417.738 129.743 416.025 130.069 414.239 127.342C413.587 126.346 411.786 124.885 410.238 124.095C408.689 123.304 406.346 121.253 405.031 119.537C401.715 115.21 400.816 114.597 397.774 114.597C395.997 114.597 394.658 114.09 393.733 113.067C392.272 111.453 389.831 110.034 387.013 109.164C385.536 108.707 385.348 108.859 385.558 110.345C385.829 112.26 390.614 115.208 396.71 117.217C401.992 118.958 405.802 121.233 405.802 122.647C405.802 123.325 406.293 124.287 406.893 124.785C407.542 125.325 407.984 126.915 407.984 128.715C407.984 130.378 408.508 132.488 409.149 133.403C410.615 135.498 410.1 136.044 407.484 135.168C405.688 134.567 405.435 134.115 405.412 131.472C405.371 126.725 403.446 124.86 395.484 121.853C391.676 120.416 387.613 118.49 386.453 117.574L384.345 115.91L383.981 118.346C383.665 120.465 383.295 120.83 381.142 121.147C377.992 121.61 377.088 123.717 378.991 126.157C380.648 128.282 380.739 130.501 379.192 131.095C377.748 131.65 378.317 135.363 380.503 139.651C381.725 142.047 381.854 142.952 381.213 144.65C380.783 145.79 380.611 147.192 380.831 147.766C381.1 148.467 380.313 149.19 378.424 149.978C374.727 151.518 374.18 152.508 376.131 154.13C377.334 155.129 378.365 155.337 380.308 154.973C381.726 154.706 383.128 154.109 383.423 153.646L383.423 153.646ZM408.512 103.746C408.512 101.177 407.992 100.384 403.156 95.5777C399.656 92.0992 397.8 90.6897 397.8 91.5102C397.8 92.2006 397.309 92.7655 396.709 92.7655C395.212 92.7655 395.337 93.5885 397.267 96.4543C398.458 98.2221 407.491 106.415 408.429 106.578C408.474 106.586 408.512 105.312 408.512 103.747L408.512 103.746Z" fill="#31600F" fill-opacity="0.8"/>
<path d="M115.162 49.2467C106.736 46.2218 98.2716 42.4209 93.1409 39.3583C88.2036 36.4114 85.8425 34.1411 84.3939 30.9478C79.5747 20.3242 86.3879 8.23728 97.9505 6.89762C103.951 6.20248 109.751 8.69489 113.438 13.5523C114.588 15.0673 115.094 16.1683 115.789 18.6663C116.851 22.4825 117.384 27.0259 117.622 34.2771C117.792 39.4826 117.556 49.688 117.26 49.8854C117.199 49.9264 116.254 49.6388 115.161 49.2464L115.162 49.2467ZM106.203 29.0694C108.044 26.7852 108.561 23.5881 107.534 20.834C107.056 19.5539 105.897 18.0248 104.788 17.2117C102.615 15.618 99.6311 15.1508 97.1547 16.0159C96.0877 16.3888 94.4591 17.4626 93.7645 18.2512C90.1777 22.3233 91.1947 28.3289 95.9249 31.011C97.7633 32.0533 100.532 32.3061 102.465 31.6082C102.812 31.4833 103.22 31.335 103.374 31.2787C103.886 31.0908 105.743 29.6417 106.204 29.0696L106.203 29.0694Z" fill="#588302" fill-opacity="0.75"/>
</svg>
