<svg width="16" height="16" viewBox="0 0 16 16" fill="none" xmlns="http://www.w3.org/2000/svg">
<path d="M0.303125 5.9625C0.181251 5.86563 0 5.95625 0 6.10938V12.5C0 13.3281 0.671875 14 1.5 14H14.5C15.3281 14 16 13.3281 16 12.5V6.1125C16 5.95625 15.8219 5.86875 15.6969 5.96562C14.9969 6.50937 14.0687 7.2 10.8812 9.51562C10.2219 9.99687 9.10938 11.0094 8 11.0031C6.88437 11.0125 5.75 9.97813 5.11563 9.51562C1.92813 7.2 1.00313 6.50625 0.303125 5.9625ZM8 10C7.275 10.0125 6.23125 9.0875 5.70625 8.70625C1.55938 5.69688 1.24375 5.43437 0.2875 4.68437C0.106251 4.54375 0 4.325 0 4.09375V3.5C0 2.67188 0.671875 2 1.5 2H14.5C15.3281 2 16 2.67188 16 3.5V4.09375C16 4.325 15.8938 4.54062 15.7125 4.68437C14.7563 5.43125 14.4406 5.69688 10.2937 8.70625C9.76875 9.0875 8.725 10.0125 8 10Z" fill="#31600F" fill-opacity="0.8"/>
</svg>
