<svg width="333.51" height="460" version="1.1" viewBox="0 0 333.51 460" xmlns="http://www.w3.org/2000/svg">
<g transform="translate(-745.12 -25.779)">
<path d="m874.19 484.43c-21.978-2.9922-46.006-10.85-61.744-20.193-33.098-19.648-51.927-49.311-56.703-89.329-1.7173-14.39-0.12066-24.807 8.0045-52.226 4.2486-14.337 5.6034-25.045 4.1577-32.862-1.8437-9.9691-7.1402-19.522-15.65-28.228-4.083-4.1768-7.2913-7.5942-7.1295-7.5942 0.1618 0 3.4546 1.3033 7.3174 2.8961 19.981 8.2394 34.595 23.167 40.812 41.688 3.2749 9.7558 4.1892 24.578 2.2 35.666-0.76469 4.2625-1.136 7.75-0.82513 7.75 1.1549-6e-5 6.4365-7.428 9.6078-13.512 12.566-24.107 6.5989-54.796-16.593-85.343-13.195-17.38-16.253-25.184-16.318-41.645-0.0677-17.087 4.9563-31.772 15.808-46.209 4.0265-5.3564 11.279-12.291 12.854-12.291 0.27872 0-0.59817 3.2625-1.9486 7.25-1.3505 3.9875-2.9528 11.75-3.5606 17.25-0.92669 8.3847-0.84635 11.257 0.49736 17.785 3.3869 16.453 8.4371 23.156 29.217 38.782 26.438 19.881 35.887 29.715 39.187 40.784l1.6844 5.649 1.3537-5.5c0.90385-3.6722 1.2099-9.3218 0.921-17-0.89425-23.765-7.776-43.827-28.127-82-5.9369-11.136-7.6052-17.97-7.6899-31.5-0.18657-29.817 13.846-55.252 39.825-72.186 7.6451-4.9833 22.616-12.314 25.149-12.314 0.55136 0-0.29901 3.0976-1.8897 6.8836-4.3295 10.304-6.1217 20.03-6.103 33.116 0.0303 21.162 6.177 40.467 19.275 60.536 8.0437 12.325 15.659 21.112 34.912 40.282 20.476 20.388 27.85 29.938 36.048 46.682 11.887 24.279 14.501 46.416 8.3832 71-1.371 5.5094 3.9591-6.3502 6.9662-15.5 5.7028-17.352 7.0513-26.207 7.0052-46-0.033-14.14-0.4628-19.468-2.2393-27.749-4.37-20.372-12.609-40.489-23.27-56.821-2.749-4.2111-4.8362-7.8185-4.6382-8.0165 0.19803-0.19802 5.5137 4.062 11.813 9.4667 31.208 26.777 53.881 61.491 62.818 96.175 9.237 35.851 5.6636 71.068-10.995 108.37-2.683 6.0069-4.6774 11.122-4.4321 11.368 1.0484 1.0485 13.005-11.781 18.621-19.981 7.5022-10.954 18.188-32.96 24.43-50.308 2.5722-7.15 4.9194-13.225 5.2159-13.5 0.7353-0.682-0.5701 24.397-1.8478 35.5-0.5697 4.95-2.1633 14.393-3.5415 20.983-11.95 57.147-43.192 98.538-89.583 118.68-8.5702 3.7216-32.048 10.846-35.671 10.824-0.86875-5e-3 2.0444-1.7781 6.4736-3.9398 10.96-5.3491 17.643-12.059 22.648-22.738 5.5502-11.844 7.7992-21.594 7.7992-33.812 0-21.893-7.5232-38.862-25.422-57.339-10.692-11.038-12.426-11.827-7.4901-3.4115 10.42 17.767 12.925 42.42 6.0779 59.83l-1.6659 4.236-0.0609-10.657c-0.0488-8.5515-0.49992-11.773-2.2829-16.303-3.5951-9.1347-9.6216-17.462-20.71-28.618-5.7244-5.7592-12.018-12.897-13.985-15.861-9.8964-14.909-12.657-30.065-7.9219-43.486 0.81521-2.3106 1.2244-4.4588 0.90942-4.7738-1.3806-1.3806-13.738 6.4298-18.766 11.861-6.2636 6.7654-9.1066 12.335-10.655 20.871-1.5662 8.6372-0.16738 14.937 5.95 26.795 7.2959 14.143 10.025 23.452 10.013 34.159l-9e-3 8.6984-2.9538-5.1501c-2.0634-3.5976-5.449-7.0642-11.231-11.5-12.57-9.643-17.275-14.724-18.634-20.122-1.5613-6.2006-1.4627-11.419 0.32735-17.319 0.81904-2.6999 1.494-5.1128 1.5-5.3619 6e-3 -0.24912-1.7527 1.2691-3.9082 3.3739-4.9198 4.804-9.1325 14.056-9.812 21.549-0.68699 7.5763 1.4209 13.776 7.5354 22.163 7.6219 10.455 10.587 17.95 10.63 26.867 0.0406 8.4276-1.8065 13.282-7.9254 20.828-3.0956 3.8176-3.5082 4.9964-3.4999 10 0.0101 6.0974 3.3495 13.426 8.1342 17.852 7.147 6.6105 20.705 12.387 33.356 14.211 5.3768 0.7754 4.7536 0.86725-6 0.88435-6.6 0.0105-16.502-0.59381-22.004-1.3429zm69.317-2.1154c0.72187-0.28887 1.5844-0.25335 1.9167 0.0789 0.33229 0.33229-0.25834 0.56864-1.3125 0.52522-1.165-0.048-1.4019-0.28494-0.60417-0.60416zm41.576-328.07c-4.8565-6.1805-6.3306-8.9319-7.7925-14.544-1.6025-6.1526-1.1363-9.7149 2.7268-20.834 2.7151-7.815 5.1416-21.312 4.1266-22.954-0.3119-0.50467-0.101-0.91758 0.46867-0.91758 1.7612 0 9.2236 10.162 12.483 17 2.8504 5.9788 3.0928 7.3019 3.0238 16.5-0.052 6.8648-0.6118 11.411-1.7873 14.5-2.2924 6.0242-7.7865 15-9.1816 15-0.61674 0-2.4474-1.6875-4.068-3.75zm-47.726-23c-6.8406-11.293-11.134-23.199-14.102-39.11-4.4579-23.896 0.83382-43.127 16.342-59.389l6.6477-6.9712-0.0245 16.361c-0.0237 15.796 0.086 16.688 3.1781 25.861 8.1655 24.222 8.9926 38.049 3.2018 53.526-2.0183 5.3943-9.0893 15.474-10.855 15.474-0.49739 0-2.4717-2.5875-4.3874-5.75z"/>
</g>
</svg>
