<svg width="160" height="45" viewBox="0 0 160 45" fill="none" xmlns="http://www.w3.org/2000/svg">
<path d="M142.027 33.4228C139.486 33.1397 136.878 32.1907 134.775 30.7843L133.91 30.2063L136.056 30.1653L137.084 30.6765C139.384 31.8205 141.682 32.3145 144.27 32.2213C146.543 32.1395 148.693 31.5691 150.629 30.5344L151.312 30.1692H152.383C152.972 30.1692 153.436 30.1981 153.414 30.2335C153.314 30.3967 151.769 31.3564 150.94 31.7703C149.383 32.5479 148.071 32.9793 146.336 33.2839C145.316 33.4631 143.044 33.5363 142.027 33.4229L142.027 33.4228Z" fill="#31600F" fill-opacity="0.3"/>
<path d="M155.63 27.2472L154.907 27.1694L155.322 26.6509C156.911 24.6655 157.94 22.35 158.419 19.6891C158.607 18.6385 158.644 16.6208 158.496 15.4521C158.136 12.6205 156.968 9.83317 155.299 7.82386C155.089 7.57106 154.917 7.34996 154.917 7.33256C154.917 7.31516 155.257 7.28672 155.672 7.26938C156.293 7.24344 156.444 7.25833 156.521 7.35334C156.573 7.41686 156.861 7.83543 157.161 8.28352C157.837 9.2917 158.645 10.9551 159.037 12.1468C160.384 16.2375 160.032 20.8205 158.076 24.6643C157.729 25.3452 156.53 27.24 156.409 27.2986C156.378 27.3132 156.028 27.2901 155.63 27.2472L155.63 27.2472Z" fill="#31600F" fill-opacity="0.3"/>
<path d="M130.689 26.8904C129.523 25.3333 128.538 23.2171 128.028 21.1734C127.431 18.7783 127.407 15.9881 127.964 13.5778C128.441 11.5093 129.709 8.79329 130.844 7.40507L131.017 7.19434L131.64 7.36254C131.983 7.45504 132.276 7.5396 132.291 7.55045C132.305 7.56129 132.184 7.7304 132.022 7.92626C130.952 9.21727 129.906 11.2443 129.395 13.0149C128.067 17.6246 128.981 22.5855 131.852 26.3508C132.098 26.6727 132.286 26.9492 132.27 26.9652C132.231 27.0037 131.185 27.2764 131.07 27.2781C131.02 27.2788 130.849 27.1044 130.689 26.8905L130.689 26.8904Z" fill="#31600F" fill-opacity="0.3"/>
<path d="M134.034 4.24627C134.14 4.07456 135.72 3.09396 136.539 2.69267C138.141 1.90683 139.656 1.43295 141.437 1.16104C142.597 0.984003 144.851 0.984097 145.991 1.16123C148.425 1.53922 150.681 2.41137 152.679 3.74687L153.482 4.28356L151.325 4.32445L150.525 3.92098C149.024 3.16391 147.765 2.74114 146.18 2.461C145.045 2.26045 142.801 2.22225 141.672 2.38426C140.085 2.61231 138.609 3.07833 137.044 3.84582L136.076 4.32058H135.032C134.352 4.32058 134.004 4.29466 134.034 4.24621L134.034 4.24627Z" fill="#31600F" fill-opacity="0.3"/>
<g clip-path="url(#clip0_87:587)">
<path d="M142.579 33.4713C140.986 33.3604 139.243 32.9706 137.795 32.4014C132.715 30.4051 128.979 26.0023 127.858 20.6921C127.449 18.7526 127.412 16.3739 127.762 14.4724C128.206 12.0608 129.227 9.68646 130.641 7.77443C132.967 4.6311 136.359 2.41155 140.118 1.57351C141.438 1.27913 141.986 1.22534 143.664 1.22534C145.344 1.22534 145.889 1.27891 147.216 1.57447C151.717 2.57683 155.666 5.56447 157.861 9.62742C158.863 11.4819 159.454 13.3494 159.721 15.5088C159.83 16.387 159.832 18.2478 159.726 19.1407C159.321 22.5399 157.994 25.5052 155.722 28.0932C153.663 30.4371 150.771 32.2066 147.734 32.9797C146.047 33.4091 144.206 33.5846 142.579 33.4713L142.579 33.4713ZM145.861 32.7403C147.998 32.4107 149.842 31.7584 151.619 30.7033C153.573 29.5433 155.362 27.8284 156.661 25.8704C157.16 25.1175 157.304 24.7525 157.369 24.0711C157.408 23.6662 157.452 23.4672 157.543 23.2881C157.61 23.1561 157.68 22.9356 157.699 22.798C157.718 22.6594 157.812 22.4056 157.909 22.2286C158.064 21.9461 158.083 21.8724 158.076 21.5879C158.071 21.411 158.093 21.1922 158.126 21.1015C158.228 20.8199 158.11 20.2033 157.862 19.7206L157.655 19.3181L157.718 18.8956C157.779 18.4839 157.759 18.0677 157.672 17.926C157.637 17.869 157.591 17.8659 157.428 17.9092C157.232 17.9616 157.226 17.9594 157.126 17.7967C157.066 17.7001 156.983 17.6308 156.927 17.6308C156.716 17.6308 156.363 17.8689 156.131 18.1684C155.909 18.4544 155.886 18.4697 155.684 18.4697C155.532 18.4697 155.424 18.5059 155.302 18.5986C155.209 18.6695 155.036 18.7714 154.918 18.825L154.704 18.9224L154.4 18.7359C153.737 18.3284 153.579 18.2175 153.578 18.1598C153.577 17.9676 153.467 17.7465 153.336 17.6719C153.256 17.6266 153.147 17.5042 153.093 17.3998C153.026 17.2677 152.943 17.1908 152.821 17.1467C152.684 17.097 152.619 17.0273 152.519 16.8222L152.391 16.561L152.494 16.0988C152.619 15.5377 152.611 15.3421 152.461 15.3208C152.374 15.3084 152.34 15.2459 152.276 14.9754C152.232 14.7937 152.195 14.5784 152.192 14.497C152.18 14.1413 152.266 13.3011 152.328 13.1793C152.365 13.106 152.395 12.9839 152.395 12.9079C152.395 12.8105 152.446 12.726 152.569 12.6217C152.805 12.4215 152.845 12.182 152.69 11.8903C152.556 11.6368 152.578 11.4186 152.765 11.165C152.849 11.0521 152.888 10.9342 152.888 10.7985C152.888 10.6312 152.857 10.5681 152.698 10.4144C152.526 10.247 152.501 10.2369 152.415 10.3018C152.253 10.4241 152.156 10.3929 152.121 10.2077C152.098 10.0844 152.058 10.0311 151.971 10.0093C151.869 9.98371 151.852 9.95016 151.852 9.76965C151.852 9.61205 151.817 9.51699 151.712 9.38812C151.546 9.18551 151.458 9.02706 151.458 8.93277C151.458 8.83542 151.773 8.69831 151.996 8.69831C152.113 8.69831 152.232 8.66076 152.303 8.60169L152.419 8.50508L152.292 8.27159C152.222 8.14317 152.123 8.01543 152.07 7.98771C152.018 7.96 151.915 7.89757 151.842 7.84898C151.768 7.8004 151.632 7.76064 151.54 7.76064C151.447 7.76064 151.345 7.72939 151.313 7.69119C151.267 7.63467 151.288 7.61097 151.431 7.56398C151.615 7.50312 151.655 7.43117 151.532 7.38368C151.414 7.33856 151.446 7.26713 151.583 7.26713C151.7 7.26713 151.706 7.25529 151.676 7.09243C151.651 6.96147 151.665 6.89375 151.73 6.82193C151.792 6.75368 151.802 6.70812 151.766 6.66351C151.699 6.58131 151.729 6.19625 151.81 6.09896C151.862 6.03554 151.857 6.01112 151.779 5.954C151.688 5.88734 151.688 5.88532 151.789 5.88532C151.846 5.88532 151.902 5.85803 151.913 5.82468C151.928 5.78052 151.971 5.78837 152.07 5.85354C152.205 5.9418 152.206 5.94161 152.177 5.84016C152.161 5.78357 152.136 5.69285 152.12 5.63856C152.088 5.52526 152.189 5.50367 152.293 5.60155C152.347 5.65237 152.352 5.6372 152.323 5.51546C152.278 5.32543 152.228 5.26781 151.927 5.06046C151.791 4.96653 151.729 4.90422 151.791 4.92199C151.854 4.94039 151.901 4.93282 151.901 4.90442C151.901 4.82704 151.695 4.7009 151.568 4.7009C151.434 4.7009 151.347 4.52425 151.416 4.39296C151.473 4.2831 151.356 4.09638 151.179 4.01576C151.002 3.93516 150.984 3.97512 151.107 4.17362C151.233 4.37739 151.237 4.43374 151.128 4.47529C151.022 4.51606 150.52 4.21425 150.224 3.93225C150.018 3.73504 149.731 3.59833 149.731 3.69703C149.731 3.72077 149.852 3.8126 150 3.90111C150.169 4.00213 150.309 4.13258 150.375 4.25162C150.455 4.39237 150.557 4.47723 150.774 4.58094C150.935 4.65779 151.118 4.7884 151.182 4.87117C151.246 4.95396 151.389 5.08832 151.5 5.16974C151.611 5.25117 151.694 5.34 151.685 5.36715C151.675 5.39429 151.702 5.45536 151.743 5.50286C151.81 5.5804 151.81 5.58923 151.741 5.58923C151.698 5.58923 151.628 5.6028 151.584 5.6194C151.53 5.64044 151.514 5.628 151.533 5.57824C151.567 5.49067 151.274 5.27871 150.973 5.17264L150.76 5.09746L150.792 5.24464C150.834 5.43626 150.763 5.43623 150.398 5.24449C149.906 4.98506 149.82 4.8923 149.68 4.4685C149.565 4.12128 149.535 4.07499 149.365 3.9906C149.254 3.93592 149.122 3.81059 149.047 3.68846C148.976 3.57368 148.845 3.43232 148.757 3.3743C148.594 3.26703 148.547 3.10904 148.657 3.04066C148.745 2.98656 149.534 3.01736 149.696 3.08122C149.794 3.11973 149.83 3.16459 149.819 3.23715C149.809 3.31502 149.843 3.35004 149.966 3.38579C150.297 3.48171 150.227 3.2599 149.873 3.08793C148.853 2.59317 147.084 2.10458 145.623 1.91443C143.26 1.60684 140.432 1.92445 138.328 2.7338C137.994 2.86247 137.934 2.90479 137.823 3.09504C137.754 3.21355 137.618 3.3594 137.521 3.41915C137.297 3.55797 137.327 3.58739 137.596 3.49237C137.867 3.39643 137.893 3.39829 137.893 3.51382C137.893 3.56994 137.95 3.63677 138.029 3.67467C138.197 3.75501 138.246 3.96068 138.097 3.96068C137.943 3.96068 137.914 4.06498 138.04 4.16705C138.123 4.23409 138.197 4.25051 138.316 4.22811C138.429 4.20701 138.604 4.23885 138.879 4.33043C139.333 4.48173 139.388 4.46768 139.654 4.13372C139.798 3.95242 140.295 3.58349 140.337 3.62592C140.392 3.68093 140.296 3.80129 140.135 3.87801C140.032 3.92701 139.931 4.02839 139.882 4.1318C139.805 4.29254 139.805 4.31006 139.882 4.39531C139.975 4.49752 139.989 4.6623 139.917 4.79675C139.831 4.95697 139.384 5.20107 138.999 5.29721C138.475 5.42826 138.154 5.61383 137.981 5.88537C137.762 6.23064 137.799 6.40578 138.14 6.63556C138.289 6.73602 138.539 6.86643 138.695 6.92534C138.851 6.98426 138.978 7.04641 138.977 7.06346C138.976 7.08051 138.91 7.18169 138.829 7.28832C138.663 7.5083 138.65 7.60413 138.759 7.81555C138.815 7.92277 138.866 7.95992 138.943 7.94882C139.06 7.93187 139.138 7.80172 139.235 7.46487C139.288 7.27964 139.349 7.20641 139.605 7.02071C139.774 6.89842 139.912 6.76949 139.913 6.73422C139.915 6.69894 139.882 6.60562 139.842 6.52684C139.769 6.38591 139.771 6.38103 139.965 6.22492C140.141 6.08351 140.162 6.04281 140.162 5.85087C140.162 5.58273 140.225 5.55316 140.561 5.6646C140.881 5.77088 141.063 5.9437 141.171 6.24315C141.217 6.37208 141.281 6.47709 141.313 6.47652C141.345 6.47594 141.433 6.3871 141.509 6.27911C141.586 6.17112 141.678 6.08276 141.714 6.08276C141.779 6.08276 142.078 6.48962 142.093 6.59707C142.097 6.62635 142.103 6.74921 142.106 6.87012L142.111 7.08993L142.474 7.29699C143.022 7.60922 143.018 7.60396 142.887 7.97141C142.826 8.14051 142.776 8.30283 142.776 8.33209C142.776 8.36135 142.891 8.41183 143.032 8.44425C143.172 8.47667 143.316 8.52762 143.352 8.55747C143.438 8.6289 143.436 8.90127 143.348 9.02132C143.28 9.1147 143.275 9.11443 143.082 9.00608C142.944 8.92828 142.805 8.89574 142.609 8.89574C142.356 8.89574 142.332 8.88646 142.332 8.78565C142.332 8.72511 142.381 8.55882 142.44 8.41612C142.499 8.27343 142.534 8.14286 142.517 8.12596C142.5 8.10905 142.356 8.19761 142.196 8.32276C141.993 8.48282 141.861 8.5503 141.753 8.5503C141.412 8.5503 141.247 8.72873 141.247 9.0982C141.247 9.21605 141.275 9.24419 141.432 9.28797C141.702 9.36289 141.813 9.3521 141.913 9.24121C142.08 9.05706 142.249 9.15051 142.095 9.34135C142.004 9.45311 140.972 9.85208 140.896 9.80483C140.824 9.76076 140.906 9.64928 141.078 9.55697C141.171 9.50666 141.247 9.44544 141.247 9.42092C141.247 9.34684 140.94 9.42058 140.594 9.57756C140.337 9.69405 140.23 9.77783 140.091 9.97026C139.944 10.1757 139.866 10.2326 139.607 10.3258C139.263 10.4499 139.147 10.5406 138.893 10.8854C138.77 11.0537 138.703 11.1077 138.666 11.0704C138.572 10.9769 138.541 11.0134 138.51 11.2522C138.441 11.7723 138.465 11.7394 137.976 11.9777C137.718 12.103 137.401 12.3069 137.24 12.4509C136.92 12.7364 136.905 12.7975 137.029 13.3126C137.114 13.6645 137.124 13.998 137.053 14.1304C137.006 14.2186 136.99 14.2204 136.862 14.1539C136.699 14.0696 136.662 13.9614 136.661 13.5701C136.66 13.4132 136.628 13.2078 136.589 13.1136C136.527 12.9655 136.494 12.9425 136.348 12.9425C136.231 12.9425 136.158 12.9106 136.11 12.8395C136.057 12.7587 135.952 12.7233 135.624 12.6755C135.361 12.6373 135.177 12.6316 135.129 12.6603C135.079 12.6906 134.99 12.6794 134.864 12.6269C134.594 12.5136 134.408 12.5282 134.067 12.6896C133.639 12.8921 133.5 13.0854 133.307 13.747C133.033 14.6844 133.033 14.6848 133.131 14.9509C133.265 15.3141 133.429 15.5413 133.586 15.58C133.663 15.5988 133.799 15.6849 133.888 15.7712L134.051 15.9282L134.146 15.8048C134.198 15.737 134.309 15.5539 134.392 15.398C134.558 15.0905 134.652 15.0152 134.874 15.0152C135.035 15.0152 135.328 15.1062 135.328 15.1562C135.328 15.1742 135.284 15.2166 135.23 15.2505C135.175 15.2844 135.131 15.352 135.131 15.4008C135.131 15.4495 135.051 15.5659 134.954 15.6594C134.8 15.8083 134.78 15.8523 134.801 16.0119C134.819 16.1516 134.797 16.2316 134.707 16.3546C134.562 16.5503 134.557 16.6111 134.688 16.5696C134.749 16.5501 134.851 16.5772 134.952 16.6401C135.09 16.725 135.143 16.7334 135.267 16.6898C135.395 16.6454 135.456 16.6568 135.669 16.7648C135.807 16.8349 135.92 16.9138 135.92 16.9402C135.92 16.9666 135.859 17.1384 135.785 17.3219C135.584 17.816 135.598 18.0726 135.846 18.4429C136.076 18.7847 136.218 18.8486 136.428 18.7033C136.61 18.5771 136.851 18.6217 137.082 18.8243C137.177 18.908 137.264 18.9679 137.274 18.9575C137.284 18.9471 137.391 18.8039 137.512 18.6393C137.722 18.3536 137.753 18.3318 138.206 18.1581C138.468 18.0581 138.709 17.9763 138.744 17.9763C138.854 17.9764 139.392 18.2548 139.589 18.414L139.781 18.5685H140.408C140.977 18.5685 141.051 18.5788 141.199 18.6795C141.293 18.7434 141.387 18.8638 141.42 18.9633C141.466 19.1038 141.517 19.1498 141.691 19.21C141.857 19.2673 141.974 19.3666 142.205 19.6482L142.505 20.0123L142.916 19.9807C143.325 19.9492 143.327 19.9496 143.712 20.1502C144.14 20.3724 144.144 20.3784 144.3 21.0062C144.382 21.3348 144.431 21.4296 144.608 21.6108C144.83 21.8371 144.944 21.8737 145.045 21.7516C145.079 21.7109 145.139 21.6776 145.178 21.6776C145.344 21.6776 145.741 21.8972 145.863 22.0565C145.982 22.2135 146.008 22.2248 146.181 22.1955C146.316 22.1727 146.405 22.1869 146.495 22.2458C146.597 22.3127 146.687 22.3216 146.982 22.294L147.344 22.26L147.637 22.5112C147.899 22.7349 147.956 22.7625 148.16 22.7628C148.373 22.7633 148.394 22.7745 148.444 22.9187C148.474 23.0042 148.498 23.2057 148.498 23.3665C148.498 23.6525 148.492 23.6651 148.233 23.939C148.087 24.0931 147.91 24.3426 147.839 24.4935C147.746 24.6912 147.666 24.7893 147.55 24.8441L147.389 24.9203L147.389 25.3347C147.388 25.7362 147.38 25.7665 147.114 26.3166C146.963 26.6288 146.765 26.9692 146.674 27.0731C146.527 27.2407 146.49 27.2585 146.345 27.2313C146.211 27.2063 146.074 27.2514 145.601 27.4756C145.282 27.6268 144.993 27.7875 144.959 27.8326C144.925 27.8777 144.897 27.9994 144.897 28.1031C144.897 28.2664 144.872 28.3095 144.704 28.4267C144.597 28.5011 144.497 28.6106 144.482 28.67C144.466 28.7293 144.37 28.825 144.268 28.8825C144.167 28.9401 144.006 29.0954 143.911 29.2278C143.763 29.4342 143.694 29.483 143.427 29.5712L143.115 29.674L142.885 29.572C142.758 29.516 142.61 29.4289 142.555 29.3786C142.445 29.2768 142.084 29.1152 142.048 29.1514C141.98 29.219 142.112 29.3217 142.425 29.4443C142.744 29.5697 142.778 29.5969 142.824 29.7626C142.852 29.8623 142.875 29.992 142.875 30.0509C142.875 30.1616 142.806 30.177 142.086 30.2278C141.923 30.2392 141.912 30.2513 141.898 30.4309C141.882 30.6158 141.877 30.621 141.725 30.5955C141.639 30.581 141.526 30.5525 141.474 30.5321C141.392 30.4995 141.385 30.5121 141.413 30.639C141.516 31.0979 141.519 31.0803 141.314 31.1601L141.124 31.2339L141.334 31.3424C141.449 31.4021 141.543 31.4622 141.543 31.4759C141.543 31.4896 141.488 31.5217 141.421 31.5473C141.346 31.576 141.309 31.6205 141.325 31.663C141.342 31.7061 141.309 31.7432 141.24 31.7614L141.128 31.7906L141.244 31.9139C141.307 31.9816 141.501 32.0878 141.673 32.1498C141.846 32.2117 141.987 32.2823 141.987 32.3067C141.987 32.3314 141.794 32.34 141.55 32.326C141.085 32.2996 140.806 32.2023 140.274 31.8809C139.99 31.7098 139.964 31.6539 139.647 30.5381C139.495 30.0031 139.493 29.9513 139.624 29.5196L139.728 29.1788L139.622 28.8297C139.552 28.6007 139.5 28.2397 139.47 27.781C139.364 26.1445 139.378 26.2331 139.206 26.1031C139.122 26.0388 138.881 25.8922 138.671 25.7773C138.178 25.5072 137.809 25.1734 137.687 24.8877C137.634 24.7643 137.528 24.5967 137.451 24.5152C137.373 24.4338 137.149 24.0896 136.953 23.7503C136.757 23.411 136.507 23.002 136.399 22.8414L136.201 22.5495L136.29 22.2896C136.363 22.075 136.368 21.9927 136.324 21.8167C136.276 21.6287 136.283 21.5734 136.386 21.3486C136.45 21.2084 136.56 21.056 136.631 21.0099C136.709 20.9585 136.759 20.8805 136.759 20.8087C136.759 20.7295 136.814 20.6553 136.929 20.58C137.132 20.4469 137.152 20.3854 137.153 19.8898C137.153 19.5948 137.131 19.472 137.055 19.3469C137.001 19.2581 136.956 19.1403 136.956 19.0853C136.956 18.9267 136.813 18.7583 136.693 18.7754C136.634 18.7837 136.532 18.8743 136.466 18.9766L136.346 19.1627L136.195 19.0161C136.098 18.9223 135.968 18.8575 135.834 18.8361C135.647 18.8062 135.624 18.7882 135.624 18.6684C135.624 18.5591 135.587 18.5173 135.424 18.4436C135.202 18.3436 135.163 18.2839 134.936 17.6943C134.787 17.3082 134.767 17.281 134.499 17.1199C134.345 17.0269 134.149 16.9362 134.065 16.9183C133.956 16.895 133.84 16.7964 133.661 16.5725C133.411 16.2605 133.409 16.2592 133.099 16.2248C132.8 16.1916 132.777 16.1788 132.508 15.8989C132.354 15.7386 132.213 15.5628 132.196 15.5082C132.179 15.4536 132.1 15.3753 132.02 15.3342C131.936 15.2905 131.876 15.2197 131.876 15.1637C131.876 15.1111 131.809 14.9921 131.728 14.8994C131.562 14.7102 131.549 14.6208 131.649 14.3376C131.772 13.9896 131.794 13.5373 131.7 13.288C131.567 12.9312 131.474 11.8866 131.545 11.5483C131.57 11.432 131.566 11.3633 131.535 11.3633C131.434 11.3633 131.376 11.7574 131.352 12.5971C131.338 13.0721 131.317 13.5107 131.305 13.5717C131.275 13.7159 131.198 13.7159 131.204 13.5717C131.206 13.5107 131.177 13.2342 131.14 12.9573C131.077 12.4965 131.078 12.435 131.157 12.2291C131.204 12.1054 131.236 11.921 131.228 11.8194C131.219 11.7178 131.277 11.374 131.357 11.0553C131.485 10.5391 131.494 10.4566 131.438 10.3002C131.382 10.1463 131.387 10.0811 131.481 9.77143C131.717 8.99494 132.076 8.41828 132.785 7.67526C133.298 7.13717 133.317 7.10921 133.438 6.71292C133.543 6.37044 133.595 6.27698 133.764 6.13205C134.13 5.81617 134.365 5.56175 134.49 5.34509C134.566 5.21307 134.713 5.06612 134.874 4.96259C135.082 4.82805 135.163 4.73417 135.28 4.49252C135.361 4.32646 135.42 4.18447 135.413 4.17702C135.406 4.16956 135.194 4.30286 134.942 4.47325C133.601 5.38135 132.214 6.69927 131.25 7.9827C129.212 10.6962 128.129 13.9305 128.127 17.31C128.124 22.3475 130.474 26.9611 134.561 29.9413C136.754 31.5403 139.397 32.5444 142.16 32.8275C142.924 32.9059 145.122 32.854 145.861 32.7401L145.861 32.7403ZM140.125 16.5116C139.995 16.4591 140.129 16.3964 140.372 16.3964C140.605 16.3964 140.618 16.4021 140.529 16.4688C140.435 16.5403 140.246 16.5603 140.125 16.5116H140.125ZM138.374 16.3852C138.078 16.3234 138.071 16.2483 138.362 16.2483C138.603 16.2483 138.626 16.2111 138.503 16.023C138.459 15.9552 138.431 15.892 138.442 15.8825C138.491 15.8379 139.244 16.1093 139.398 16.2274C139.606 16.3858 139.594 16.421 139.354 16.3548C139.225 16.3193 139.107 16.3249 138.918 16.3753C138.775 16.4134 138.647 16.4422 138.633 16.4393C138.62 16.4364 138.503 16.4121 138.374 16.3852L138.374 16.3852ZM137.659 15.8187C137.598 15.8069 137.548 15.767 137.548 15.73C137.548 15.693 137.506 15.6494 137.455 15.6331C137.403 15.6168 137.335 15.5385 137.302 15.4592C137.261 15.3602 137.186 15.2966 137.062 15.2566C136.963 15.2246 136.752 15.1333 136.593 15.0537C136.362 14.9378 136.267 14.9153 136.116 14.9408C135.941 14.9704 135.93 14.9652 135.956 14.8656C135.981 14.7689 136.005 14.7618 136.211 14.7914C136.646 14.854 137.219 15.0727 137.404 15.2469C137.501 15.3381 137.742 15.4976 137.939 15.6014C138.2 15.7387 138.275 15.7987 138.215 15.8218C138.127 15.8556 137.842 15.854 137.659 15.8187L137.659 15.8187ZM150.918 7.12461C150.878 7.02932 150.818 6.97044 150.761 6.97044C150.703 6.97044 150.668 6.93552 150.668 6.87701C150.668 6.82563 150.633 6.76985 150.589 6.75305C150.522 6.72735 150.52 6.71004 150.575 6.64373C150.63 6.57705 150.626 6.55439 150.546 6.49626C150.495 6.45848 150.419 6.42758 150.378 6.42758C150.337 6.42758 150.236 6.36212 150.153 6.28211C150.07 6.20211 149.914 6.10772 149.805 6.07237C149.627 6.01416 149.607 5.99064 149.593 5.82303C149.575 5.60896 149.635 5.58721 149.77 5.75875C149.839 5.84656 149.88 5.86472 149.919 5.82527C149.958 5.78581 149.99 5.80788 150.035 5.90611C150.081 6.00687 150.212 6.09532 150.551 6.25403C150.802 6.37108 151.035 6.51189 151.069 6.56692C151.125 6.65692 151.137 6.65904 151.189 6.58798C151.239 6.52025 151.256 6.53486 151.307 6.69035C151.34 6.79011 151.392 6.87172 151.424 6.87172C151.455 6.87172 151.392 6.93139 151.284 7.00434C151.176 7.07728 151.064 7.16886 151.035 7.20786C150.991 7.26568 150.97 7.25031 150.918 7.12459V7.12461ZM150.013 7.16267C149.956 7.12949 149.935 7.07825 149.954 7.01869C149.975 6.95012 149.944 6.90609 149.832 6.84835C149.656 6.7573 149.641 6.69387 149.785 6.64833C149.864 6.62308 149.881 6.58876 149.858 6.49695C149.824 6.36315 149.849 6.3556 150.069 6.43241C150.181 6.4715 150.225 6.51746 150.225 6.59748C150.225 6.65848 150.269 6.74858 150.323 6.79771C150.463 6.92448 150.445 7.05436 150.276 7.1419C150.107 7.22969 150.125 7.22821 150.013 7.16268L150.013 7.16267ZM144.256 6.10694C143.89 5.97201 143.642 5.72908 143.441 5.30791C143.276 4.96072 143.284 4.84637 143.492 4.65768C143.587 4.57123 143.664 4.48054 143.664 4.45616C143.664 4.43177 143.542 4.30722 143.392 4.17936C143.243 4.05151 143.126 3.92211 143.133 3.89179C143.14 3.86146 143.085 3.75775 143.012 3.66132C142.912 3.52985 142.816 3.47007 142.63 3.42237C142.494 3.38738 142.368 3.3361 142.351 3.30842C142.308 3.23922 142.428 3.17208 142.595 3.17117C142.689 3.17066 142.786 3.11491 142.897 2.99769C143.043 2.84186 143.085 2.82496 143.325 2.82498C143.473 2.82498 143.723 2.7774 143.892 2.71687C144.166 2.61843 144.218 2.61429 144.47 2.67066C144.756 2.73471 144.877 2.83694 145.054 3.16139C145.103 3.25185 145.236 3.36326 145.383 3.43801C145.521 3.50795 145.645 3.60928 145.663 3.66765C145.681 3.7251 145.786 3.85891 145.895 3.96502L146.094 4.15793L145.855 4.14534C145.663 4.13523 145.613 4.14933 145.599 4.21718C145.584 4.29097 145.613 4.29787 145.831 4.27199C146.215 4.22658 146.161 4.37577 145.725 4.56859C145.514 4.6619 145.436 4.72516 145.412 4.82014C145.394 4.88993 145.35 4.94704 145.313 4.94704C145.276 4.94704 145.223 4.9905 145.195 5.04362C145.166 5.09745 145.067 5.15449 144.971 5.17249C144.876 5.19025 144.799 5.21196 144.799 5.22075C144.799 5.22953 144.82 5.29149 144.845 5.35844C144.881 5.45275 144.872 5.49779 144.805 5.55843C144.735 5.62135 144.723 5.6949 144.74 5.93344C144.765 6.28523 144.753 6.28978 144.256 6.10694L144.256 6.10694ZM141.337 5.75979C140.934 5.5498 140.854 5.33394 141.102 5.1252C141.219 5.0271 141.254 4.95477 141.26 4.80515C141.27 4.57031 141.191 4.46603 140.976 4.4255C140.762 4.38535 140.636 4.42893 140.561 4.5694C140.478 4.72376 140.253 4.84998 140.122 4.81558C139.971 4.77612 139.986 4.72791 140.219 4.50152C140.405 4.32048 140.419 4.29181 140.367 4.17848C140.284 3.99543 140.288 3.98792 140.564 3.83734C140.771 3.72504 140.836 3.7096 140.909 3.75547C140.959 3.78656 141.08 3.812 141.177 3.812C141.312 3.812 141.361 3.83534 141.38 3.90737C141.394 3.95983 141.489 4.05826 141.592 4.1261C141.722 4.21257 141.788 4.29842 141.811 4.4132C141.836 4.53246 141.918 4.63455 142.113 4.78902C142.409 5.02256 142.448 5.14769 142.254 5.23636C142.146 5.28566 142.1 5.27897 141.962 5.19332C141.753 5.06402 141.709 5.13209 141.866 5.3441C142.049 5.59266 142.028 5.65119 141.765 5.63026C141.643 5.62054 141.543 5.61909 141.543 5.62703C141.543 5.63496 141.579 5.69619 141.623 5.76309C141.727 5.92248 141.648 5.92157 141.337 5.7598L141.337 5.75979ZM146.718 5.08081C146.475 4.91716 146.495 4.81952 146.767 4.84023C146.887 4.84933 147.082 4.82966 147.2 4.79651C147.39 4.7433 147.427 4.74659 147.513 4.82462C147.64 4.93942 147.636 5.0221 147.501 5.11698C147.331 5.23623 146.92 5.21725 146.718 5.0808L146.718 5.08081ZM138.786 4.10196C138.689 4.02354 138.625 4.01198 138.441 4.03965C138.241 4.06955 138.222 4.06462 138.277 3.99841C138.311 3.95705 138.328 3.89263 138.314 3.85526C138.299 3.81491 138.359 3.74204 138.461 3.67583C138.659 3.54753 138.702 3.38876 138.523 3.44565C138.425 3.47656 138.42 3.47127 138.478 3.40149C138.542 3.32439 138.912 3.16869 139.19 3.10189L139.328 3.06883L139.252 3.21588C139.143 3.42684 139.153 3.45032 139.373 3.48549C139.482 3.50285 139.57 3.53421 139.57 3.55517C139.57 3.59256 139.124 4.03637 138.979 4.14368C138.922 4.18548 138.877 4.17573 138.786 4.10195L138.786 4.10196ZM141.219 3.27336C141.266 3.2214 141.297 3.12726 141.288 3.06416C141.275 2.97128 141.305 2.93812 141.445 2.88998C141.54 2.85729 141.68 2.82928 141.756 2.82775C141.835 2.82616 141.882 2.80385 141.864 2.77561C141.844 2.7437 142.039 2.72764 142.416 2.73016C142.736 2.7323 142.976 2.74221 142.949 2.75218C142.922 2.76214 142.807 2.79413 142.694 2.82325C142.58 2.85237 142.371 2.9547 142.229 3.05063C141.985 3.21471 141.52 3.36544 141.252 3.36709C141.138 3.36779 141.137 3.36393 141.219 3.27335L141.219 3.27336ZM146.402 2.70674C146.027 2.56593 145.884 2.48893 145.884 2.42689C145.884 2.24067 146.477 2.39905 146.721 2.65025C146.927 2.86284 146.853 2.8759 146.402 2.70674V2.70674ZM153.492 10.4574C153.512 10.426 153.528 10.3669 153.529 10.3262C153.53 10.1981 153.721 9.93148 153.812 9.93053C153.86 9.93004 153.998 9.86276 154.119 9.78101C154.239 9.69926 154.39 9.61926 154.454 9.60322C154.532 9.58367 154.579 9.52726 154.598 9.43198C154.614 9.35382 154.652 9.28988 154.683 9.28988C154.801 9.28988 155.108 9.54413 155.132 9.66139C155.146 9.72849 155.169 9.83891 155.183 9.90677C155.197 9.97462 155.236 10.0301 155.27 10.0301C155.305 10.0301 155.37 10.0738 155.415 10.1271C155.492 10.2167 155.512 10.2187 155.668 10.1532C155.825 10.0875 155.848 10.09 155.97 10.1865C156.089 10.2802 156.489 10.3478 156.489 10.2741C156.489 10.2591 156.433 10.1715 156.366 10.0795C156.227 9.89223 156.208 9.70139 156.312 9.55906C156.378 9.46852 156.386 9.46806 156.476 9.54962C156.577 9.64111 156.767 9.66096 156.876 9.5915C156.929 9.55821 156.931 9.52639 156.886 9.44234C156.854 9.38358 156.842 9.29304 156.859 9.24116C156.899 9.11344 156.384 8.34018 156.244 8.31884C156.181 8.30919 156.144 8.33089 156.144 8.3772C156.144 8.51846 156.026 8.44862 155.68 8.10259C155.488 7.91102 155.324 7.77777 155.314 7.80649C155.305 7.83521 155.265 7.85871 155.227 7.85871C155.098 7.85871 155.155 7.94758 155.452 8.21255C155.658 8.39638 155.756 8.52388 155.779 8.63598C155.819 8.83644 155.702 8.85859 155.581 8.67363C155.537 8.60612 155.415 8.50703 155.31 8.45342C155.205 8.39981 155.046 8.26072 154.957 8.14435C154.732 7.85088 154.671 7.80936 154.465 7.80936C154.344 7.80936 154.253 7.77498 154.191 7.70561C154.092 7.5961 153.926 7.49991 153.735 7.44087C153.635 7.40992 153.622 7.42025 153.636 7.52098C153.655 7.65083 153.979 7.8508 154.393 7.98704C154.751 8.10509 155.009 8.25939 155.009 8.35526C155.009 8.40122 155.042 8.46648 155.083 8.50027C155.127 8.53684 155.157 8.64469 155.157 8.76676C155.157 8.87954 155.193 9.02261 155.236 9.08469C155.336 9.22671 155.301 9.26375 155.123 9.20436C155.001 9.16359 154.984 9.13298 154.983 8.95371C154.98 8.63177 154.849 8.50536 154.309 8.30143C154.051 8.20392 153.776 8.07334 153.697 8.01125L153.554 7.89836L153.529 8.06359C153.508 8.20729 153.483 8.23205 153.337 8.2535C153.123 8.2849 153.062 8.42778 153.191 8.59328C153.303 8.73739 153.309 8.8879 153.205 8.92819C153.107 8.96578 153.145 9.2176 153.294 9.50838C153.376 9.67087 153.385 9.73226 153.342 9.84739C153.312 9.92471 153.301 10.0198 153.316 10.0587C153.334 10.1063 153.281 10.1553 153.152 10.2087C152.902 10.3131 152.865 10.3803 152.997 10.4902C153.079 10.558 153.149 10.5721 153.28 10.5474C153.376 10.5294 153.472 10.4889 153.492 10.4574L153.492 10.4574ZM155.193 7.0735C155.193 6.89925 155.158 6.84549 154.83 6.51954C154.592 6.28365 154.466 6.18806 154.466 6.2437C154.466 6.29052 154.433 6.32883 154.392 6.32883C154.291 6.32883 154.299 6.38464 154.43 6.57899C154.511 6.69887 155.124 7.25448 155.187 7.26552C155.19 7.26606 155.193 7.17965 155.193 7.07352L155.193 7.0735Z" fill="#31600F" fill-opacity="0.8"/>
</g>
<g clip-path="url(#clip1_87:587)">
<path d="M66.4422 37.3928H64.9222V44.3885H65.876V39.4415L66.6907 44.3885H67.7239L68.479 39.3716V44.3885H69.5124V37.3928H67.9922L67.247 42.3598L66.4422 37.3928V37.3928Z" fill="#ECEBF1" fill-opacity="0.9"/>
<path d="M81.3388 41.1812L81.7859 39.4622V44.3892H82.7694V37.3936H81.5672L80.673 40.2817L80.2756 41.8208V37.3936H79.302V44.3892H80.4246L81.3388 41.1812V41.1812Z" fill="#ECEBF1" fill-opacity="0.9"/>
<path d="M93.4492 37.3928H91.8396V44.3885H92.9326V41.7602H93.4492C94.5419 41.7602 95.0786 41.1505 95.0786 40.0312V39.1216C95.0786 38.0024 94.5419 37.3928 93.4492 37.3928ZM93.4492 38.3922C93.7969 38.3922 93.9856 38.5521 93.9856 39.0517V40.101C93.9856 40.6008 93.7969 40.7608 93.4492 40.7608H92.9326V38.3922H93.4492V38.3922Z" fill="#ECEBF1" fill-opacity="0.9"/>
<path d="M14.914 29.418V27.9868H15.3442C15.7302 27.9868 16.0914 27.9591 16.4278 27.9036C16.7642 27.8482 17.0592 27.7345 17.3129 27.5625C17.5665 27.3905 17.765 27.1437 17.9084 26.822C18.0518 26.5002 18.1235 26.0731 18.1235 25.5406V12.0446L6.77454 24.8583V25.5406C6.77454 26.0731 6.84898 26.5002 6.99788 26.822C7.14677 27.1437 7.3453 27.3905 7.59346 27.5625C7.84161 27.7345 8.13663 27.8482 8.47854 27.9036C8.82044 27.9591 9.17888 27.9868 9.55387 27.9868H10.0005V29.418H0.140495V27.9868H0.570638C0.956661 27.9868 1.31786 27.9591 1.65424 27.9036C1.99063 27.8482 2.28567 27.7345 2.53934 27.5625C2.793 27.3905 2.99153 27.1437 3.13491 26.822C3.27828 26.5002 3.34997 26.0731 3.34997 25.5406V8.83288C3.34997 8.33365 3.27552 7.9315 3.12663 7.62641C2.97774 7.32133 2.77645 7.08556 2.52279 6.91915C2.26912 6.75274 1.9741 6.64457 1.63771 6.59465C1.30132 6.54473 0.945626 6.51977 0.570638 6.51977H0.140495V5.08862H10.0005V6.51977H9.55387C9.17888 6.51977 8.82044 6.5475 8.47854 6.60297C8.13663 6.65844 7.84161 6.77215 7.59346 6.94411C7.3453 7.11607 7.14677 7.36293 6.99788 7.68465C6.84898 8.00638 6.77454 8.4335 6.77454 8.96603V22.4621L18.1235 9.64831V8.96603C18.1235 8.4335 18.0518 8.00638 17.9084 7.68465C17.765 7.36293 17.5665 7.11607 17.3129 6.94411C17.0592 6.77215 16.7642 6.65844 16.4278 6.60297C16.0914 6.5475 15.7302 6.51977 15.3442 6.51977H14.914V5.08862H24.7739V6.51977H24.3274C23.9524 6.51977 23.5939 6.5475 23.2521 6.60297C22.91 6.65844 22.615 6.77215 22.3669 6.94411C22.1188 7.11607 21.9202 7.36293 21.7712 7.68465C21.6224 8.00638 21.548 8.4335 21.548 8.96603V25.707C21.548 26.2063 21.6224 26.6084 21.7712 26.9135C21.9202 27.2186 22.1216 27.4488 22.3752 27.6041C22.6288 27.7594 22.9238 27.8621 23.2601 27.912C23.5967 27.9619 23.9524 27.9869 24.3274 27.9869H24.7739V29.418H14.914V29.418Z" fill="#ECEBF1" fill-opacity="0.9"/>
<path d="M35.314 27.9202C36.1081 27.9202 36.836 27.8259 37.4979 27.6373C38.1596 27.4487 38.7248 27.1381 39.1936 26.7054C39.6623 26.2728 40.0263 25.707 40.2854 25.008C40.5447 24.3091 40.6742 23.4493 40.6742 22.4287C40.6742 21.7185 40.5502 21.0695 40.302 20.4815C40.0539 19.8935 39.6844 19.3943 39.1936 18.9839C38.7027 18.5734 38.0962 18.2545 37.3738 18.027C36.6514 17.7996 35.8159 17.6859 34.8675 17.6859H31.9888V15.9552H34.8675C35.6175 15.9552 36.315 15.8332 36.9602 15.5891C37.6053 15.345 38.1679 14.9928 38.6477 14.5324C39.1274 14.072 39.5051 13.5172 39.781 12.8682C40.0566 12.2192 40.1944 11.4898 40.1944 10.68C40.1944 10.0143 40.1118 9.42077 39.9463 8.89935C39.781 8.37792 39.5189 7.93416 39.1605 7.56806C38.802 7.20195 38.336 6.9246 37.7626 6.73599C37.189 6.54739 36.4997 6.45309 35.6945 6.45309C34.7461 6.45309 33.9713 6.59177 33.3703 6.86912C32.7691 7.14648 32.2976 7.51813 31.9557 7.98408C31.6138 8.45005 31.3822 8.9881 31.2609 9.59827C31.1397 10.2085 31.079 10.8519 31.079 11.5286C30.6709 11.5286 30.2904 11.4953 29.9375 11.4288C29.5845 11.3622 29.2756 11.243 29.0109 11.071C28.7463 10.899 28.5394 10.6716 28.3906 10.3887C28.2416 10.1058 28.1672 9.74801 28.1672 9.31534C28.1672 8.66079 28.3272 8.05338 28.647 7.49313C28.9668 6.93287 29.4439 6.45028 30.078 6.04535C30.7123 5.64042 31.4981 5.32145 32.4355 5.08847C33.3731 4.8555 34.4594 4.73901 35.6945 4.73901C36.8747 4.73901 37.9582 4.84995 38.9455 5.07183C39.9325 5.29371 40.7818 5.63763 41.4931 6.10359C42.2045 6.56954 42.7588 7.16031 43.1559 7.87588C43.5529 8.59146 43.7513 9.44292 43.7513 10.4303C43.7513 11.3178 43.6079 12.0999 43.3212 12.7766C43.0345 13.4534 42.6457 14.0414 42.1548 14.5406C41.6642 15.0399 41.0878 15.4531 40.4261 15.7804C39.7644 16.1077 39.0531 16.3601 38.292 16.5376V16.704C38.9206 16.7816 39.5934 16.9203 40.3102 17.12C41.0271 17.3197 41.6918 17.6331 42.3038 18.0602C42.9159 18.4874 43.4233 19.0559 43.8258 19.7659C44.2284 20.4759 44.4296 21.3745 44.4296 22.4619C44.4296 23.7821 44.1843 24.9054 43.6934 25.8317C43.2026 26.7581 42.5409 27.5152 41.7081 28.1032C40.8756 28.6912 39.9104 29.1211 38.8131 29.3929C37.7157 29.6647 36.5604 29.8006 35.3471 29.8006C33.9134 29.8006 32.7029 29.6702 31.7159 29.4095C30.7288 29.1488 29.9292 28.816 29.317 28.4111C28.7049 28.0061 28.2637 27.5541 27.9936 27.0548C27.7234 26.5556 27.5882 26.0619 27.5882 25.5738C27.5882 24.7306 27.8418 24.0983 28.3492 23.6767C28.8566 23.2551 29.5514 23.0444 30.4337 23.0444C30.4337 23.6434 30.5302 24.2342 30.7233 24.8166C30.9162 25.3991 31.2112 25.9205 31.6083 26.3809C32.0053 26.8413 32.51 27.2129 33.122 27.4958C33.7342 27.7787 34.4649 27.9202 35.314 27.9202V27.9202Z" fill="#ECEBF1" fill-opacity="0.9"/>
<path d="M67.9706 29.418V27.9868H68.0863C68.4502 27.9868 68.7783 27.9619 69.0707 27.912C69.3629 27.862 69.611 27.7622 69.8152 27.6124C70.0191 27.4627 70.1819 27.2463 70.3031 26.9634C70.4245 26.6805 70.4962 26.3061 70.5182 25.8402V7.63473L62.7592 29.4178H60.9229L53.0646 7.7013V25.5406C53.0646 26.0731 53.1198 26.5002 53.2302 26.822C53.3403 27.1437 53.5031 27.3905 53.7181 27.5625C53.9332 27.7345 54.1924 27.8482 54.4956 27.9036C54.7991 27.9591 55.1382 27.9868 55.5132 27.9868H55.6123V29.418H47.7872V27.9868H48.2174C48.5924 27.9868 48.948 27.9619 49.2844 27.912C49.6208 27.862 49.916 27.7594 50.1696 27.6041C50.4232 27.4488 50.6245 27.2186 50.7733 26.9135C50.9223 26.6084 50.9968 26.2063 50.9968 25.707V8.83288C50.9968 8.33365 50.9223 7.9315 50.7733 7.62641C50.6245 7.32131 50.4232 7.08556 50.1696 6.91915C49.916 6.75274 49.6208 6.64457 49.2844 6.59465C48.948 6.54473 48.5924 6.51977 48.2174 6.51977H47.7872V5.08862H55.5132L62.5276 24.5752L69.476 5.08862H76.9868V6.51977H76.5567C76.1707 6.51977 75.8095 6.5475 75.4731 6.60297C75.1367 6.65844 74.8416 6.77215 74.588 6.94411C74.3343 7.11607 74.1357 7.36293 73.9925 7.68465C73.849 8.00638 73.7773 8.4335 73.7773 8.96603V25.5406C73.7773 26.0731 73.849 26.5003 73.9925 26.822C74.1357 27.1437 74.3343 27.3906 74.588 27.5625C74.8416 27.7345 75.1367 27.8482 75.4731 27.9037C75.8095 27.9591 76.1707 27.9869 76.5567 27.9869H76.9868V29.418H67.9706V29.418Z" fill="#ECEBF1" fill-opacity="0.9"/>
<path d="M86.2014 27.7206H92.7362C93.2765 27.7206 93.737 27.6457 94.1175 27.4959C94.498 27.3462 94.815 27.1437 95.0687 26.8886C95.3224 26.6334 95.5209 26.3366 95.6643 25.9983C95.8076 25.6599 95.9069 25.3021 95.9621 24.9249L96.1936 23.4605H97.9639L97.7322 29.418H79.5674V27.9869H79.9974C80.3724 27.9869 80.7283 27.9619 81.0646 27.912C81.401 27.8621 81.696 27.7594 81.9496 27.6041C82.2034 27.4488 82.4046 27.2186 82.5535 26.9135C82.7023 26.6084 82.7768 26.2063 82.7768 25.707V8.96603C82.7768 8.43352 82.7051 8.00638 82.5618 7.68465C82.4184 7.36293 82.2199 7.11609 81.9661 6.94413C81.7125 6.77215 81.4175 6.65844 81.0812 6.60297C80.7448 6.5475 80.3834 6.51977 79.9974 6.51977H79.5674V5.08862H96.6403L96.8059 11.0461H95.0521L94.8868 9.58167C94.8426 9.20446 94.7571 8.84668 94.6304 8.50831C94.5035 8.16992 94.3214 7.87316 94.0844 7.618C93.8473 7.36284 93.5494 7.16037 93.191 7.0106C92.8325 6.86083 92.3998 6.78595 91.8924 6.78595H86.2014V15.8555H94.3739V17.5196H86.2014V27.7207V27.7206Z" fill="#ECEBF1" fill-opacity="0.9"/>
<path d="M115.104 29.418V27.9868H115.551C115.937 27.9868 116.298 27.9591 116.635 27.9036C116.971 27.8482 117.263 27.7345 117.512 27.5625C117.76 27.3905 117.958 27.1437 118.107 26.822C118.256 26.5002 118.33 26.0731 118.33 25.5406V17.5528H107.312V25.5406C107.312 26.0731 107.387 26.5002 107.536 26.822C107.685 27.1437 107.883 27.3905 108.131 27.5625C108.379 27.7345 108.675 27.8482 109.016 27.9036C109.358 27.9591 109.717 27.9868 110.092 27.9868H110.538V29.418H100.678V27.9868H101.109C101.495 27.9868 101.856 27.9591 102.192 27.9036C102.529 27.8482 102.824 27.7345 103.077 27.5625C103.331 27.3905 103.529 27.1437 103.673 26.822C103.816 26.5002 103.888 26.0731 103.888 25.5406V8.83288C103.888 8.33365 103.813 7.9315 103.665 7.62641C103.516 7.32133 103.314 7.08556 103.061 6.91915C102.807 6.75274 102.512 6.64457 102.176 6.59465C101.839 6.54473 101.484 6.51977 101.109 6.51977H100.678V5.08862H110.538V6.51977H110.092C109.717 6.51977 109.358 6.5475 109.016 6.60297C108.675 6.65844 108.379 6.77215 108.131 6.94411C107.883 7.11607 107.685 7.36293 107.536 7.68465C107.387 8.00638 107.312 8.4335 107.312 8.96603V15.8554H118.33V8.96603C118.33 8.4335 118.256 8.00638 118.107 7.68465C117.958 7.36293 117.76 7.11607 117.512 6.94411C117.263 6.77215 116.971 6.65844 116.635 6.60297C116.298 6.5475 115.937 6.51977 115.551 6.51977H115.104V5.08862H124.964V6.51977H124.534C124.148 6.51977 123.787 6.5475 123.451 6.60297C123.114 6.65844 122.819 6.77215 122.566 6.94411C122.312 7.11607 122.113 7.36293 121.97 7.68465C121.827 8.00638 121.755 8.4335 121.755 8.96603V25.707C121.755 26.2063 121.829 26.6084 121.978 26.9135C122.127 27.2186 122.328 27.4488 122.582 27.6041C122.836 27.7594 123.131 27.8621 123.467 27.912C123.804 27.9619 124.159 27.9869 124.534 27.9869H124.964V29.418H115.104V29.418Z" fill="#ECEBF1" fill-opacity="0.9"/>
<path d="M146.157 29.418V27.9869H146.587C146.973 27.9869 147.335 27.9591 147.671 27.9037C148.007 27.8482 148.303 27.7345 148.556 27.5625C148.81 27.3906 149.008 27.1437 149.152 26.822C149.295 26.5003 149.367 26.0732 149.367 25.5406V12.0446L138.018 24.8584V25.5406C138.018 26.0732 138.092 26.5003 138.241 26.822C138.39 27.1437 138.589 27.3906 138.837 27.5625C139.085 27.7345 139.38 27.8482 139.722 27.9037C140.064 27.9591 140.422 27.9869 140.797 27.9869H141.244V29.418H131.384V27.9869H131.814C132.2 27.9869 132.561 27.9591 132.897 27.9037C133.234 27.8482 133.529 27.7345 133.783 27.5625C134.036 27.3906 134.235 27.1437 134.378 26.822C134.522 26.5003 134.593 26.0732 134.593 25.5406V8.83291C134.593 8.33368 134.519 7.93152 134.37 7.62642C134.221 7.32134 134.02 7.08559 133.766 6.91918C133.512 6.75277 133.217 6.6446 132.881 6.59468C132.545 6.54476 132.189 6.51979 131.814 6.51979H131.384V5.08865H141.244V6.51979H140.797C140.422 6.51979 140.064 6.54753 139.722 6.603C139.38 6.65847 139.085 6.77218 138.837 6.94414C138.589 7.1161 138.39 7.36296 138.241 7.68468C138.092 8.00641 138.018 8.43353 138.018 8.96606V22.4621L149.367 9.64834V8.96606C149.367 8.43353 149.295 8.00641 149.152 7.68468C149.008 7.36296 148.81 7.1161 148.556 6.94414C148.303 6.77218 148.007 6.65847 147.671 6.603C147.335 6.54753 146.973 6.51979 146.587 6.51979H146.157V5.08865H156.017V6.51979H155.571C155.196 6.51979 154.837 6.54753 154.495 6.603C154.153 6.65847 153.858 6.77218 153.61 6.94414C153.362 7.1161 153.164 7.36296 153.015 7.68468C152.866 8.00641 152.791 8.43353 152.791 8.96606V25.7071C152.791 26.2063 152.866 26.6085 153.015 26.9135C153.164 27.2186 153.365 27.4488 153.619 27.6041C153.872 27.7595 154.167 27.8621 154.504 27.912C154.84 27.9619 155.196 27.9869 155.571 27.9869H156.017V29.418H146.157V29.418ZM137.411 2.27839C139.413 1.42678 141.51 1.00098 143.701 1.00098C145.892 1.00098 147.988 1.42678 149.99 2.27839C151.263 2.82026 152.441 3.50903 153.522 4.34484H151.309C150.733 4.00131 150.132 3.69632 149.505 3.42986C147.659 2.64409 145.724 2.2512 143.701 2.2512C141.677 2.2512 139.743 2.64409 137.896 3.42986C137.269 3.69632 136.668 4.00131 136.092 4.34484H133.879C134.96 3.50911 136.138 2.82034 137.411 2.27839V2.27839ZM158.587 10.9267C159.433 12.9401 159.857 15.0489 159.857 17.2529C159.857 19.4569 159.433 21.5657 158.587 23.5792C158.014 24.9406 157.277 26.193 156.374 27.3362L156.365 27.331L156.333 27.3146L156.3 27.2998L156.266 27.2867L156.231 27.2752L156.196 27.2654L156.161 27.2574L156.125 27.2512L156.089 27.2467L156.053 27.2441L156.017 27.2432H155.574L155.503 27.243L155.269 27.2371L155.047 27.2243L154.859 27.207C155.943 25.9822 156.803 24.6106 157.442 23.0922C158.223 21.2343 158.614 19.2881 158.614 17.2529C158.614 15.2179 158.223 13.2714 157.442 11.4137C156.806 9.90233 155.951 8.53633 154.874 7.31599L156.057 7.26158L156.093 7.25869L156.129 7.25405L156.165 7.24765L156.2 7.23952L156.235 7.22964L156.269 7.21809L156.303 7.20485L156.335 7.18998L156.368 7.17351L156.374 7.16968C157.277 8.31293 158.014 9.56524 158.587 10.9268V10.9267ZM149.989 32.2272C147.987 33.0788 145.891 33.5047 143.7 33.5047C141.509 33.5047 139.413 33.0788 137.411 32.2272C136.137 31.6854 134.96 30.9965 133.878 30.1609H136.092C136.668 30.5043 137.269 30.8094 137.895 31.0758C139.742 31.8616 141.677 32.2545 143.7 32.2545C145.723 32.2545 147.658 31.8616 149.505 31.0758C150.131 30.8094 150.733 30.5043 151.309 30.1609H153.522C152.44 30.9965 151.263 31.6854 149.989 32.2272ZM128.814 23.579C127.967 21.5655 127.544 19.4567 127.544 17.2527C127.544 15.0487 127.967 12.9399 128.814 10.9265C129.386 9.56508 130.124 8.31279 131.026 7.16955L131.047 7.18103L131.077 7.19525L131.106 7.20818L131.137 7.21975L131.168 7.23001L131.199 7.23887L132.319 7.55664C131.339 8.71517 130.553 10.0008 129.959 11.4137C129.177 13.2715 128.787 15.2178 128.787 17.2528C128.787 19.2878 129.177 21.2342 129.959 23.0921C130.557 24.5151 131.351 25.8092 132.34 26.9743L131.193 27.2683L131.162 27.2775L131.131 27.2879L131.101 27.2995L131.072 27.3126L131.043 27.3269L131.026 27.3361C130.124 26.1929 129.386 24.9406 128.814 23.5791V23.579Z" fill="#31600F" fill-opacity="0.8"/>
<path d="M131.419 28.7357V28.0432L132.141 27.9957C133.169 27.9279 133.572 27.7899 134.002 27.3567C134.631 26.7244 134.592 27.4397 134.57 17.0554L134.55 7.913L134.389 7.60974C134.195 7.2459 133.798 6.88092 133.425 6.72428C133.191 6.62602 132.108 6.47673 131.585 6.47071C131.426 6.46888 131.419 6.44354 131.419 5.80224V5.13567H141.217V6.45549L140.572 6.50159C139.509 6.5776 139.032 6.73306 138.635 7.13202C137.981 7.78903 138.018 7.38275 137.993 14.2823C137.98 17.6225 137.98 20.8375 137.991 21.427L138.012 22.4987L149.412 9.6278L149.373 8.88142C149.328 7.99242 149.183 7.54108 148.823 7.16861C148.426 6.75803 148.044 6.62087 147.036 6.52766L146.152 6.44599V5.1355H156.023V6.4548L155.305 6.50409C154.079 6.58824 153.554 6.81431 153.138 7.43822C153.028 7.60272 152.902 7.91012 152.859 8.12132C152.804 8.386 152.786 11.3014 152.799 17.5039L152.819 26.5024L153.029 26.932C153.378 27.6464 153.943 27.9152 155.267 27.9967L156.023 28.0432V29.4289L146.189 29.3908L146.147 28.0435L146.917 27.9961C148.212 27.9165 148.904 27.5317 149.217 26.7166C149.35 26.3715 149.357 26.0135 149.377 19.1746C149.388 15.2258 149.379 12.0132 149.357 12.0354C149.334 12.0577 146.765 14.9553 143.647 18.4744L137.978 24.8728L137.977 25.2801C137.976 25.8604 138.106 26.5857 138.268 26.905C138.474 27.3119 138.941 27.699 139.386 27.8318C139.6 27.8955 140.099 27.9691 140.495 27.9952L141.217 28.0427V29.4276H131.419L131.419 28.7357Z" fill="black" fill-opacity="0.03"/>
<path d="M131.434 28.7431L131.455 28.058L132.203 28.0042C133.146 27.9364 133.642 27.7563 134.058 27.3302C134.613 26.7608 134.584 27.3353 134.585 17.0557L134.586 7.90499L134.375 7.57573C134.105 7.1546 133.807 6.87547 133.48 6.73835C133.201 6.62113 132.245 6.4688 131.789 6.4688C131.446 6.4688 131.418 6.4109 131.418 5.68509V5.13568H141.216V6.44652L140.495 6.49403C139.54 6.55691 139.106 6.69491 138.683 7.06942C138.25 7.4518 138.158 7.63239 138.056 8.29749C137.957 8.94135 137.94 22.4921 138.038 22.4538C138.073 22.4402 140.641 19.5629 143.745 16.0598L149.388 9.69034L149.39 9.08298C149.395 7.85883 149.09 7.19312 148.351 6.81482C148.015 6.6425 147.771 6.58576 147.062 6.51541L146.188 6.42861L146.167 5.78206L146.145 5.1355H156.022V6.46861L155.636 6.47007C154.478 6.47446 153.599 6.77336 153.227 7.28895C152.76 7.93814 152.781 7.45347 152.781 17.4087V26.4703L152.974 26.8566C153.224 27.3594 153.339 27.4835 153.739 27.6863C154.162 27.9007 154.418 27.9547 155.283 28.0115L155.985 28.0577L156.007 28.7337L156.028 29.4098L151.145 29.3723C148.459 29.3517 146.257 29.3307 146.251 29.3258C146.246 29.3208 146.229 29.0335 146.215 28.6872L146.188 28.0577L146.593 28.0383C147.704 27.9851 148.48 27.7462 148.855 27.342C148.944 27.2458 149.093 27.0009 149.186 26.7977L149.356 26.4283L149.376 19.2072L149.396 11.9862L149.217 12.1713C149.119 12.2732 146.544 15.1721 143.497 18.6132L137.955 24.8701L137.995 25.6121C138.018 26.0202 138.077 26.4708 138.127 26.6134C138.339 27.2162 138.869 27.7159 139.471 27.8788C139.627 27.921 140.075 27.9784 140.466 28.0065L141.179 28.0576L141.221 29.4277H131.412L131.434 28.7431Z" fill="black" fill-opacity="0.03"/>
<path d="M131.419 29.261C131.42 29.1693 131.441 28.8707 131.467 28.5974L131.513 28.1004L131.853 28.06C133.371 27.8794 133.612 27.7972 134.093 27.2978C134.608 26.762 134.585 27.2558 134.586 17.0393L134.587 7.87274L134.412 7.59648C133.967 6.89135 133.538 6.64774 132.546 6.53562C131.536 6.42153 131.516 6.41574 131.466 6.22861C131.441 6.13651 131.421 5.85286 131.42 5.59827L131.419 5.13537H141.216V5.76349C141.216 6.4854 141.283 6.43041 140.332 6.49877C139.447 6.56248 139.028 6.72177 138.591 7.16154C138.374 7.38009 138.17 7.66865 138.114 7.83864C138.036 8.07535 138.011 9.57655 137.993 15.3073C137.979 20.0047 137.996 22.4709 138.044 22.4542C138.118 22.4283 138.428 22.0809 145.399 14.2214L149.393 9.71704V9.03193C149.393 7.28513 148.81 6.67834 146.94 6.47957C146.583 6.44165 146.281 6.39862 146.269 6.38396C146.256 6.36929 146.226 6.08233 146.201 5.74627L146.157 5.13525H156.023V6.46836H155.504C154.873 6.46836 154.1 6.63675 153.706 6.85983C153.31 7.08412 152.96 7.56719 152.862 8.02413C152.807 8.28513 152.782 11.1966 152.782 17.4797V26.5581L153.009 26.9566C153.415 27.6712 153.887 27.9076 155.12 28.0152C155.543 28.0521 155.898 28.0933 155.911 28.1069C155.923 28.1204 155.957 28.4095 155.986 28.7493L156.04 29.3671L151.204 29.3418C147.004 29.3198 146.358 29.3018 146.298 29.2054C146.215 29.0742 146.2 28.0947 146.281 28.0938C146.583 28.0905 147.742 27.9202 148.032 27.8364C148.52 27.6957 148.971 27.2972 149.205 26.8002L149.394 26.3986L149.375 19.1934L149.356 11.9883L144.791 17.1344C142.281 19.9648 139.715 22.8572 139.091 23.5623L137.955 24.844L137.992 25.636C138.015 26.1066 138.077 26.5407 138.146 26.7057C138.486 27.52 139.113 27.8965 140.322 28.0123C140.742 28.0525 141.095 28.0958 141.106 28.1084C141.118 28.121 141.152 28.423 141.181 28.7794L141.234 29.4275H131.419L131.42 29.2608L131.419 29.261Z" fill="black" fill-opacity="0.03"/>
<path d="M131.445 29.1507C131.47 28.998 131.491 28.7013 131.491 28.4914L131.492 28.1099L131.952 28.0608C133.238 27.9236 133.622 27.7868 134.092 27.2986C134.608 26.7628 134.584 27.2594 134.585 17.0139L134.586 7.82109L134.285 7.41281C133.861 6.83713 133.493 6.65589 132.451 6.50985C131.986 6.44465 131.578 6.3633 131.544 6.32908C131.51 6.29485 131.463 6.01246 131.44 5.70155L131.397 5.13623H141.216L141.215 5.67318C141.214 5.96851 141.184 6.25612 141.149 6.31233C141.108 6.37762 140.857 6.4354 140.454 6.47233C139.352 6.5733 139.015 6.69924 138.549 7.18518C137.973 7.78479 138.014 7.19909 137.991 15.2712C137.978 19.7619 137.996 22.471 138.039 22.4553C138.139 22.4185 140.01 20.3264 147.322 12.0743L149.41 9.71757L149.375 8.85261C149.335 7.90862 149.245 7.6062 148.878 7.18507C148.521 6.77707 148.02 6.60764 146.649 6.43127C146.254 6.38056 146.25 6.37223 146.205 5.59913L146.179 5.13623H156.022V6.44993L155.267 6.487C154.045 6.54703 153.352 6.8973 152.989 7.63908L152.818 7.98761L152.798 17.264C152.779 26.4525 152.78 26.5432 152.928 26.8345C153.324 27.616 153.806 27.8825 155.073 28.0215C155.494 28.0677 155.859 28.1282 155.884 28.156C155.909 28.1837 155.95 28.4647 155.975 28.7804L156.02 29.3544H153.124C149.681 29.3544 146.491 29.2803 146.358 29.1972C146.294 29.1578 146.262 28.968 146.262 28.6357V28.1337L147.075 28.0144C147.522 27.9488 148.003 27.8567 148.145 27.8098C148.518 27.6858 148.925 27.32 149.174 26.884L149.391 26.503L149.392 19.2635C149.392 15.2817 149.368 12.0261 149.337 12.0289C149.307 12.0316 148.884 12.4854 148.398 13.0374C147.912 13.5894 145.359 16.4712 142.725 19.4416L137.936 24.8423L137.988 25.6632C138.03 26.3313 138.076 26.5583 138.234 26.8831C138.567 27.5686 139.143 27.8868 140.295 28.0214C140.7 28.0688 141.052 28.1298 141.077 28.1571C141.102 28.1843 141.143 28.4816 141.167 28.8176L141.211 29.4286H131.399L131.445 29.1509L131.445 29.1507Z" fill="black" fill-opacity="0.03"/>
<path d="M131.477 28.8173C131.495 28.4812 131.531 28.1866 131.557 28.1624C131.583 28.1383 131.902 28.0801 132.267 28.033C133.15 27.919 133.406 27.8401 133.827 27.5527C134.066 27.3897 134.243 27.1907 134.367 26.9437L134.551 26.5769L134.59 7.78183L134.389 7.5138C133.87 6.82119 133.605 6.67957 132.484 6.49585C132.057 6.42598 131.663 6.33284 131.608 6.28886C131.549 6.24257 131.485 5.98283 131.456 5.67196L131.405 5.13501H141.239L141.196 5.70162C141.17 6.04719 141.116 6.29156 141.057 6.32806C141.004 6.36096 140.778 6.40834 140.555 6.43332C139.838 6.51362 139.375 6.60955 139.122 6.73057C138.762 6.90228 138.215 7.47287 138.109 7.7881C138.039 7.99617 138.012 9.76154 137.994 15.263C137.982 19.2245 137.997 22.4655 138.029 22.4655C138.061 22.4654 138.487 22.0238 138.975 21.4841C139.618 20.775 147.469 11.9389 149.324 9.83803C149.441 9.7052 149.448 9.60086 149.394 8.82722C149.325 7.83444 149.188 7.44097 148.786 7.08682C148.435 6.77652 147.884 6.57947 147.049 6.46539C146.255 6.35689 146.227 6.3258 146.227 5.57465V5.13511H156.024V5.76323C156.024 6.48843 156.091 6.43527 155.103 6.49493C154.008 6.56109 153.332 6.92919 152.964 7.65906L152.783 8.0186V26.5456L152.938 26.8574C153.329 27.6422 153.815 27.8987 155.214 28.0592C155.927 28.141 155.894 28.0999 155.976 29.0142L156.009 29.3779L151.652 29.3195C149.255 29.2873 147.079 29.2403 146.816 29.2149L146.337 29.1689L146.315 28.6712C146.29 28.0979 146.176 28.1732 147.368 27.9773C147.774 27.9108 148.221 27.7963 148.363 27.7229C148.66 27.5694 149.006 27.2135 149.235 26.8271L149.394 26.5592V19.2913C149.394 15.294 149.368 12.0235 149.335 12.0235C149.282 12.0235 138.341 24.3156 138.033 24.7209C137.841 24.9735 137.97 26.3367 138.237 26.8859C138.583 27.5959 139.054 27.8588 140.315 28.0447C140.69 28.0999 141.019 28.167 141.046 28.1938C141.103 28.2514 141.2 29.3467 141.152 29.3949C141.134 29.4131 138.942 29.428 136.282 29.428H131.444L131.477 28.8173Z" fill="black" fill-opacity="0.03"/>
<path d="M131.508 28.8357C131.526 28.5098 131.559 28.2255 131.581 28.2039C131.602 28.1823 131.981 28.1026 132.422 28.0267C132.863 27.9508 133.306 27.8552 133.408 27.8142C133.797 27.6566 134.219 27.2736 134.401 26.9133L134.586 26.5448V7.74049L134.298 7.37326C133.831 6.78004 133.643 6.69719 132.059 6.39061C131.576 6.29695 131.544 6.2527 131.466 5.56087L131.418 5.13501H141.234L141.181 5.62932C141.1 6.39281 141.18 6.32484 140.185 6.46827C139.881 6.51206 139.513 6.57993 139.367 6.61908C138.985 6.72157 138.454 7.1569 138.217 7.56237L138.012 7.91234L137.99 15.1889C137.978 19.4996 137.996 22.4654 138.036 22.4654C138.125 22.4654 139.163 21.3144 144.747 15.0245L149.478 9.69441L149.43 8.98855C149.366 8.04669 149.225 7.56418 148.909 7.21287C148.563 6.82793 148.169 6.65586 147.219 6.47467C146.779 6.3909 146.388 6.2909 146.35 6.25244C146.312 6.21399 146.263 5.94684 146.243 5.65878L146.206 5.13506H156.023L156.022 5.67201C156.021 5.96733 155.993 6.25265 155.959 6.30605C155.921 6.36662 155.624 6.42918 155.17 6.47239C153.952 6.58824 153.454 6.8401 152.99 7.57508L152.782 7.90435L152.782 17.2773L152.782 26.6502L152.937 26.9094C153.371 27.6377 153.848 27.8947 155.065 28.0579C155.774 28.1529 155.794 28.1624 155.873 28.4517C155.915 28.6014 155.949 28.8656 155.949 29.0387L155.949 29.3535L155.158 29.3522C153.364 29.3494 146.722 29.2032 146.563 29.163C146.422 29.1274 146.382 29.0553 146.344 28.7645C146.281 28.2926 146.336 28.1812 146.656 28.1264C148.356 27.8355 148.565 27.7413 149.117 27.0138L149.393 26.6502L149.393 19.3364C149.393 15.314 149.366 12.0227 149.334 12.0227C149.267 12.0227 148.453 12.9274 143.602 18.3922C137.485 25.2834 137.901 24.7899 137.903 25.1504C137.906 25.6917 138.044 26.4621 138.206 26.8419C138.502 27.5344 139.037 27.8555 140.222 28.0539C140.627 28.1217 140.983 28.2009 141.012 28.2299C141.041 28.259 141.087 28.5182 141.114 28.8059L141.162 29.3292L139.44 29.3781C138.493 29.405 136.313 29.4272 134.596 29.4273L131.474 29.4274L131.508 28.8357Z" fill="black" fill-opacity="0.03"/>
<path d="M131.526 28.8615C131.555 28.5414 131.601 28.2583 131.627 28.2325C131.654 28.2066 131.974 28.1314 132.339 28.0652C132.704 27.9991 133.122 27.9116 133.268 27.8708C133.656 27.7627 134.12 27.3972 134.368 27.0028L134.586 26.6581V7.68183L134.219 7.26852C133.794 6.78871 133.537 6.66762 132.491 6.4545C132.083 6.37142 131.71 6.27092 131.661 6.23118C131.613 6.19143 131.553 6.00333 131.528 5.81318C131.504 5.62303 131.468 5.39246 131.45 5.3008L131.415 5.13416H141.234L141.188 5.3656C141.163 5.4929 141.142 5.70316 141.142 5.83284C141.142 6.23441 141.026 6.31077 140.221 6.43802C139.104 6.61464 138.616 6.88672 138.183 7.57273L137.974 7.90345V15.1841C137.974 19.1884 138 22.4647 138.032 22.4647C138.157 22.4647 138.659 21.909 145.82 13.8448C149.372 9.84489 149.43 9.77445 149.452 9.43996C149.487 8.93713 149.33 7.89045 149.175 7.58431C148.86 6.96395 148.463 6.73081 147.264 6.46163C146.85 6.36881 146.466 6.2571 146.411 6.21337C146.354 6.1687 146.287 5.91481 146.258 5.63395L146.208 5.13403H156.022L156.022 5.44879C156.02 5.96682 155.939 6.31212 155.81 6.35132C155.745 6.37131 155.399 6.42338 155.042 6.46704C153.941 6.60173 153.481 6.84076 153.017 7.51967L152.781 7.86397V26.6886L152.963 26.9785C153.362 27.6143 153.855 27.8807 154.954 28.0561C155.413 28.1292 155.723 28.2161 155.776 28.2863C155.866 28.4049 155.991 29.2603 155.927 29.324C155.883 29.3688 148.089 29.2243 147.127 29.1608C146.364 29.1105 146.337 29.0866 146.386 28.494L146.409 28.2056L147.255 28.0334C148.406 27.799 148.587 27.7034 149.117 27.0484L149.393 26.7075V19.3644C149.393 15.2104 149.365 12.0212 149.328 12.0212C149.253 12.0212 148.548 12.8008 144.304 17.5758C137.272 25.4895 137.901 24.7381 137.901 25.2187C137.901 25.7942 138.048 26.5349 138.235 26.9077C138.57 27.5723 139.042 27.8536 140.171 28.0612C140.918 28.1985 141.069 28.2904 141.069 28.6072C141.069 28.7214 141.089 28.9156 141.113 29.0387C141.153 29.2403 141.137 29.2666 140.947 29.3029C140.832 29.325 138.653 29.3654 136.105 29.3925L131.473 29.4419L131.526 28.8615Z" fill="black" fill-opacity="0.03"/>
<path d="M131.518 29.1443C131.542 28.9944 131.563 28.7718 131.564 28.6496C131.565 28.5274 131.594 28.3832 131.628 28.3292C131.662 28.2752 132.055 28.1533 132.5 28.0584C133.631 27.8177 133.95 27.6312 134.425 26.9348L134.584 26.7011V7.60097L134.16 7.19429C133.701 6.75421 133.489 6.66155 132.319 6.39067C131.57 6.21726 131.629 6.28049 131.502 5.5232L131.437 5.13437H136.333C140.768 5.13437 141.226 5.14542 141.185 5.25152C141.161 5.31595 141.141 5.51593 141.141 5.69589C141.141 6.16772 140.997 6.27626 140.174 6.42704C139.076 6.62821 138.665 6.86102 138.187 7.55475L137.973 7.86434V15.1646C137.973 19.2041 138.001 22.4648 138.036 22.4648C138.169 22.4648 139.52 20.97 147.139 12.3924L149.474 9.76308L149.438 8.98543C149.361 7.2959 148.985 6.85963 147.231 6.42272C146.346 6.20231 146.357 6.21235 146.268 5.5231L146.218 5.13428H156.021L156.018 5.37498C156.014 5.65298 155.91 6.23303 155.854 6.28942C155.833 6.31051 155.522 6.37262 155.163 6.42743C154.276 6.563 154.125 6.60449 153.712 6.82575C153.48 6.94979 153.254 7.15919 153.067 7.42088L152.78 7.82463V26.7343L153.028 27.0862C153.441 27.6702 153.857 27.8774 155.063 28.1003C155.705 28.2189 155.786 28.2707 155.839 28.5943C155.863 28.7466 155.9 28.9628 155.921 29.0748L155.959 29.2785L153.872 29.2768C151.419 29.2749 146.908 29.1573 146.634 29.0881C146.408 29.031 146.323 28.7793 146.418 28.4456C146.482 28.2221 146.507 28.2101 147.256 28.0505C148.42 27.8025 148.594 27.7114 149.115 27.0795L149.391 26.7443V19.3832C149.391 15.0695 149.364 12.0222 149.325 12.0222C149.221 12.0222 148.751 12.5445 140.318 22.0362C139.605 22.8391 138.769 23.7984 138.46 24.1681L137.899 24.84L137.901 25.3004C137.902 25.8288 138.06 26.6497 138.219 26.9594C138.498 27.5012 138.983 27.8007 139.943 28.0241C141.041 28.2793 141.04 28.2787 141.08 28.9084L141.101 29.2417L140.292 29.289C139.847 29.315 137.681 29.3543 135.478 29.3763L131.473 29.4164L131.518 29.1439L131.518 29.1443Z" fill="black" fill-opacity="0.03"/>
<path d="M131.531 29.1112C131.642 28.2729 131.611 28.329 132.028 28.2116C132.239 28.1523 132.684 28.0317 133.018 27.9436C133.671 27.7709 134.127 27.4524 134.433 26.9546C134.584 26.7081 134.585 26.6764 134.585 17.1464V7.58562L134.209 7.23086C133.721 6.76931 133.486 6.65238 132.617 6.43819C132.22 6.34056 131.84 6.23811 131.772 6.21052C131.655 6.16309 131.491 5.62119 131.491 5.28011C131.491 5.13852 131.575 5.13564 135.708 5.13607C138.028 5.13631 140.199 5.15792 140.533 5.18408L141.141 5.23164V5.5121C141.141 6.12271 141.019 6.22469 140.036 6.43438C139.053 6.64411 138.644 6.87932 138.22 7.47918L137.973 7.82795V15.147C137.973 19.6519 138 22.4661 138.042 22.4661C138.189 22.4661 139.109 21.4541 145.751 13.9838L149.507 9.76016L149.453 8.95878C149.34 7.29956 149.04 6.9284 147.439 6.46541C146.994 6.33646 146.573 6.20107 146.505 6.16456C146.428 6.12348 146.362 5.96403 146.333 5.74655C146.307 5.55317 146.269 5.33663 146.25 5.26535C146.216 5.14285 146.483 5.13574 151.123 5.13574H156.032L155.98 5.5616C155.89 6.29797 155.909 6.28011 155.052 6.42091C154.031 6.58859 153.467 6.86433 153.073 7.38836L152.78 7.77841V26.7713L152.995 27.0849C153.371 27.6341 153.822 27.8605 155.076 28.1288C155.387 28.1953 155.676 28.2912 155.717 28.342C155.759 28.3929 155.824 28.6291 155.861 28.867L155.929 29.2995L152.605 29.2453C148.34 29.1757 146.61 29.1046 146.501 28.9945C146.4 28.8926 146.401 28.4052 146.503 28.3029C146.542 28.2632 146.954 28.1397 147.418 28.0284C148.379 27.7976 148.672 27.6414 149.093 27.1358L149.392 26.7775V11.9209L149.162 12.1385C148.646 12.6259 139.548 22.8468 138.248 24.399C137.906 24.8074 137.9 24.8228 137.902 25.3248C137.906 25.9975 138.055 26.6729 138.29 27.0759C138.601 27.6095 138.887 27.7554 140.5 28.2036C140.964 28.3326 141.068 28.4677 141.068 28.942C141.068 29.1503 141.037 29.1943 140.865 29.2307C140.754 29.2544 139.071 29.292 137.126 29.3143C135.182 29.3366 133.118 29.3701 132.54 29.3889L131.49 29.4229L131.531 29.1112Z" fill="#ECEBF1" fill-opacity="0.9"/>
</g>
<defs>
<clipPath id="clip0_87:587">
<rect width="32.28" height="32.28" fill="white" transform="translate(127.523 1.22461)"/>
</clipPath>
<clipPath id="clip1_87:587">
<rect width="160" height="43.6364" fill="white" transform="translate(0 0.876953)"/>
</clipPath>
</defs>
</svg>
