<svg width="239.89" height="226.63" version="1.1" viewBox="0 0 239.89 226.63" xmlns="http://www.w3.org/2000/svg">
<g transform="translate(-394.02 -30.392)">
<path d="m450.18 255.42c-1.1821-1.1822-1.6-13.523-1.6-47.255 0-28.998-0.48645-45.955-1.3333-46.479-0.86264-0.53315-1.3333 5.2651-1.3333 16.425 0 18.868-0.90337 21.308-7.2957 19.704-4.5382-1.139-5.036-4.0599-4.4975-26.39 0.55582-23.051 2.1375-26.761 13.851-32.492 13.086-6.4022 31.197-3.076 39.017 7.1657 3.5127 4.6006 3.6007 5.1826 4.0156 26.566 0.30084 15.505-0.0374 22.419-1.1633 23.775-1.9547 2.3553-7.3861 2.5063-8.8489 0.24611-0.59328-0.91667-1.413-9.4667-1.8215-19-0.4824-11.256-0.833-1.1615-1 28.793-0.23866 42.805-0.43275 46.286-2.6955 48.333-2.8644 2.5923-7.0371 2.8646-9.295 0.60665-1.1416-1.1416-1.6-9.5232-1.6-29.255 0-16.998-0.51379-27.972-1.3333-28.479-0.87219-0.53904-1.3333 8.5539-1.3333 26.291 0 22.384-0.36221 27.632-2.0756 30.079-2.2581 3.2239-7.112 3.9091-9.6577 1.3634zm52.668 0.7572c-0.51424-0.51424-0.93498-5.035-0.93498-10.046v-9.1111h-4.1426c-3.1187 0-3.9546-0.49012-3.3817-1.9829 2.8531-7.435 7.7386-24.914 7.1329-25.52-0.4052-0.4052-1.7619 2.9171-3.015 7.3829-1.7472 6.2269-2.8589 8.1197-4.7692 8.1197-3.2112 0-3.1469-1.2124 0.78139-14.735 3.7199-12.805 6.4865-15.932 14.1-15.932 6.8743 0 9.0648 1.0212 11.248 5.2438 2.3954 4.6321 7.297 23.728 6.337 24.688-2.2505 2.2505-4.4698-0.1132-6.5081-6.9315-1.2606-4.2167-2.4925-6.7663-2.7376-5.666-0.24514 1.1004 1.0695 6.4555 2.9213 11.9 4.1867 12.309 4.1895 13.432 0.0337 13.432-3.1978 0-3.3342 0.33877-3.3538 8.3333-0.0227 9.2538-1.3117 12.464-4.5117 11.236-1.6535-0.63448-2.1887-3.0073-2.3748-10.528l-0.24021-9.7085-0.75979 9.9874c-0.57433 7.5495-1.2639 10.083-2.8248 10.379-1.1358 0.21559-2.4858-0.0288-3-0.543zm45.998-0.7572c-1.0778-1.0778-1.6-7.1704-1.6-18.667v-17.067h-7.3333c-4.0333 0-7.3333-0.47971-7.3333-1.066s3-10.607 6.6667-22.267c3.6667-11.661 6.6317-23.331 6.5891-25.934-0.0596-3.6332-1.1238-1.3811-4.5808 9.6938-5.6921 18.236-8.2865 21.528-12.738 16.165-1.4173-1.7077-1.2968-3.8935 0.67972-12.333 4.4845-19.149 10.363-35.404 14.197-39.258 3.4764-3.4943 4.2524-3.6667 16.505-3.6667 7.0713 0 14.073 0.65081 15.559 1.4462 3.8123 2.0403 8.419 13.239 13.734 33.386 4.6008 17.441 4.7733 20.351 1.2858 21.69-4.0781 1.5649-5.9804-1.1704-9.9625-14.325-2.2526-7.4414-4.312-14.13-4.5764-14.863-0.26443-0.73334-0.52814 0.85713-0.58603 3.5344-0.0809 3.7414 8.7039 35.215 12.876 46.132 0.46278 1.2109-1.4074 1.6667-6.839 1.6667h-7.476v16.571c0 17.4-1.0519 20.762-6.4952 20.762-4.7279 0-5.5048-2.755-5.5048-19.521 0-9.4426-0.56193-16.669-1.3333-17.145-0.86088-0.53205-1.3333 4.9043-1.3333 15.342 0 8.8915-0.6211 17.327-1.3802 18.745-1.5428 2.8828-6.5703 3.4285-9.0198 0.97901zm-44.727-64.838c-1.2137-1.3411-2.2066-3.6481-2.2066-5.1267 0-3.1673 3.9362-7.1017 7.105-7.1017 2.771 0 7.5617 4.646 7.5617 7.3333 0 2.7865-4.8321 7.3333-7.7934 7.3333-1.353 0-3.453-1.0972-4.6667-2.4383zm49.494-55.64c-11.549-6.2672-6.6641-24.635 6.5306-24.559 12.481 0.0725 18.018 13.322 9.2359 22.104-5.0287 5.0287-9.6872 5.7541-15.766 2.4549zm-99.803-7.1524c-8.2436-8.2436-2.7282-22.769 8.6456-22.769 3.3548 0 6.0171 1.1338 9.0723 3.8636 3.5784 3.1973 4.3241 4.8304 4.3241 9.4698s-0.74571 6.2725-4.3241 9.4698c-5.9191 5.2887-12.408 5.2763-17.718-0.0339zm-56.625-14.042c-3.8386-3.8386-4.2335-9.1039-0.9295-12.394 4.8514-4.8309 114.69-70.999 117.8-70.964 1.7533 0.01959 16.388 8.1312 32.521 18.026l29.333 17.99 0.38524-11.359 0.38525-11.359h23.896v38.021l14.18 8.5026c16.462 9.8713 19.154 12.242 19.154 16.87 0 4.8769-5.8994 10.359-10.412 9.6758-1.9731-0.29867-27.402-15.102-56.508-32.896-43.059-26.324-53.37-32.108-55.333-31.037-1.3272 0.72401-25.513 15.463-53.746 32.753-28.233 17.29-52.711 31.438-54.394 31.44-1.6833 2e-3 -4.5333-1.4698-6.3333-3.2698z" stroke-width="1.3333"/>
</g>
</svg>
