<svg width="51" height="44" viewBox="0 0 51 44" fill="none" xmlns="http://www.w3.org/2000/svg">
<g clip-path="url(#clip0_46:880)">
<path d="M12.6203 43.4056C12.7215 42.7201 13.2501 41.7693 13.7983 41.2867C14.535 40.6381 14.9306 40.5537 17.2337 40.5537H19.2435L19.3103 40.1082C19.5241 38.6821 20.7443 37.4616 22.1702 37.2477L22.6156 37.1809V11.7432L21.946 11.8058C20.9457 11.8992 19.7792 12.2268 17.9517 12.9277C16.1256 13.6279 14.3202 14.1431 13.3291 14.2467C12.9695 14.2843 12.6753 14.345 12.6753 14.3815C12.6753 14.418 14.1515 17.2958 15.9558 20.7768L19.2364 27.1057L19.8639 27.158C20.209 27.1868 20.5741 27.2791 20.6753 27.3632C20.9536 27.5945 20.8457 28.4201 20.4258 29.273C18.8555 32.4617 13.881 34.3754 8.90856 33.7034C5.35619 33.2233 2.48091 31.5342 1.36749 29.273C0.947511 28.4201 0.839642 27.5945 1.11796 27.3632C1.21912 27.2791 1.58376 27.1868 1.92826 27.158L2.55462 27.1057L5.83201 20.774C7.63456 17.2916 9.11128 14.4107 9.11358 14.3721C9.11588 14.3335 8.96474 14.2713 8.7777 14.2339C8.59066 14.1966 8.13158 14.0685 7.7575 13.9494C5.99858 13.3894 5.35089 12.7589 5.35089 11.6064C5.35089 10.9838 5.55313 10.5327 6.01371 10.1284C6.77934 9.45599 7.31108 9.44225 9.01318 10.0508C10.0471 10.4205 11.1691 10.5008 11.9851 10.2635C12.3191 10.1664 13.245 9.78488 14.0426 9.41563C17.3119 7.9022 19.7944 7.32775 24.0072 7.10996L25.451 7.0353L24.928 6.85823C22.5716 6.06037 21.8618 3.1038 23.6073 1.35782C24.2694 0.695581 24.9179 0.433125 25.9118 0.42514C26.6053 0.419567 26.8491 0.465429 27.3335 0.692588C28.0765 1.0411 28.6377 1.60233 28.9861 2.34552C29.3633 3.15012 29.3669 4.35555 28.9944 5.12791C28.5583 6.03214 27.6536 6.76849 26.7489 6.95562C26.5719 6.99222 27.3024 7.07636 28.423 7.14846C32.4959 7.4105 34.731 7.94045 37.7967 9.37104C38.636 9.76267 39.5989 10.1634 39.9365 10.2616C40.8117 10.516 41.7863 10.4196 43.1908 9.93966C44.5626 9.47082 45.1132 9.47512 45.7113 9.95934C46.35 10.4764 46.5112 10.7685 46.5543 11.4869C46.5865 12.0227 46.5487 12.2243 46.3437 12.6108C46.1341 13.006 45.9706 13.1439 45.3273 13.4681C44.9056 13.6806 44.1669 13.9586 43.6855 14.0858C43.2041 14.2129 42.8123 14.3452 42.8147 14.3796C42.8172 14.4141 44.2932 17.2916 46.0949 20.774L49.3706 27.1057L49.9984 27.158C50.3437 27.1868 50.709 27.2791 50.8101 27.3632C51.0884 27.5945 50.9806 28.4201 50.5606 29.273C48.9903 32.4617 44.0159 34.3754 39.0434 33.7034C35.491 33.2233 32.6157 31.5342 31.5023 29.273C31.0823 28.4201 30.9745 27.5945 31.2528 27.3632C31.354 27.2791 31.7191 27.1868 32.0642 27.158L32.6917 27.1057L35.9723 20.7768C37.7765 17.296 39.2528 14.418 39.2528 14.3815C39.2528 14.345 38.9586 14.2844 38.599 14.2468C37.6122 14.1436 35.8337 13.6355 33.9855 12.9286C32.0865 12.2024 31.0243 11.9026 30.0187 11.8091L29.3124 11.7435V37.1811L29.7578 37.2479C31.1891 37.4626 32.4025 38.6727 32.6162 40.0989L32.6816 40.5349L34.6854 40.5709C36.5925 40.6051 36.7175 40.6201 37.2772 40.8823C38.3897 41.4034 39.1447 42.3577 39.3152 43.4581L39.3841 43.9029H12.5472L12.6203 43.4056ZM15.581 26.5036C15.3846 26.1439 14.2644 24.0482 13.0918 21.8464C11.9191 19.6447 10.9312 17.8433 10.8965 17.8433C10.8619 17.8433 9.87397 19.6447 8.70127 21.8464C7.52857 24.0482 6.40839 26.1438 6.21199 26.5036L5.85487 27.1577H15.9383L15.581 26.5036ZM45.716 26.5036C45.5196 26.1439 44.3994 24.0482 43.2267 21.8464C42.0541 19.6447 41.0661 17.8433 41.0315 17.8433C40.9968 17.8433 40.0089 19.6447 38.8363 21.8464C37.6635 24.0482 36.5434 26.1438 36.347 26.5036L35.9899 27.1577H46.0733L45.716 26.5036Z" fill="#31600F" fill-opacity="0.8"/>
</g>
<defs>
<clipPath id="clip0_46:880">
<rect width="50" height="43.4783" fill="white" transform="translate(0.963867 0.423889)"/>
</clipPath>
</defs>
</svg>
