<svg width="51" height="42" viewBox="0 0 51 42" fill="none" xmlns="http://www.w3.org/2000/svg">
<g clip-path="url(#clip0_46:883)">
<path d="M4.52024 41.618C2.87257 41.331 1.52225 40.0812 1.09729 38.45C1.00912 38.1115 0.964496 37.5385 0.964496 36.7446V35.5489H48.3383L48.2959 36.9145C48.2618 38.0157 48.2177 38.3795 48.0684 38.7934C47.6154 40.0492 46.7483 40.9174 45.4123 41.4531L44.892 41.6618L24.9017 41.6739C13.9071 41.6805 4.73585 41.6554 4.5212 41.618L4.52024 41.618ZM0.964488 27.5649V21.1417L1.20298 21.1929C1.33416 21.2211 3.04157 21.5341 4.99723 21.8885C15.9344 23.8707 22.0177 24.9775 22.1906 25.0165C22.3802 25.0594 22.3857 25.0914 22.3857 26.1428V27.225H27.676V26.1412C27.676 25.5021 27.7103 25.0573 27.7597 25.0573C27.8058 25.0573 28.9473 24.8624 30.2964 24.6241C31.6456 24.3858 33.418 24.0732 34.2354 23.9292L35.7215 23.6676L36.1434 23.8487C38.4138 24.8229 41.4748 24.9738 44.0088 24.2364C45.2947 23.8622 46.7751 23.1259 47.7982 22.3518C48.0375 22.1707 48.2521 22.0225 48.275 22.0225C48.2978 22.0225 48.3166 24.7148 48.3166 28.0054V33.9882H0.964422L0.964488 27.5649ZM27.6575 22.7464L27.6325 21.9962L25.2475 21.9873C23.9358 21.9825 22.7552 21.9928 22.6241 22.0104C22.3864 22.0421 22.3856 22.0448 22.3856 22.7355C22.3856 23.4104 22.3804 23.4274 22.1904 23.3818C22.0831 23.3561 21.8587 23.3129 21.6918 23.2858C21.5248 23.2587 20.1199 23.0048 18.5696 22.7215C17.0194 22.4382 15.4193 22.1481 15.0139 22.077C13.472 21.8064 1.34541 19.5957 1.15949 19.5513L0.964355 19.5047V16.9667C0.964355 14.223 1.00869 13.8585 1.44791 12.992C1.9323 12.0363 3.01365 11.1583 4.06227 10.8692C4.62339 10.7146 5.19968 10.7072 16.705 10.7072H28.7598L28.7165 11.1407C28.608 12.2249 28.69 14.2601 28.8779 15.1477C29.2093 16.7136 29.8615 18.2169 30.813 19.6086C31.3399 20.3792 32.4946 21.6046 33.181 22.1216C33.3937 22.2818 33.5689 22.4323 33.5703 22.4562C33.5727 22.4977 28.0039 23.5011 27.7876 23.4981C27.7155 23.4971 27.6747 23.2611 27.6575 22.7465L27.6575 22.7464ZM40.2433 22.2802C36.9857 21.984 33.947 19.9014 32.4665 16.9501C32.1171 16.2538 31.7168 15.0933 31.569 14.3488C31.3825 13.4095 31.4232 11.4119 31.6491 10.4213C32.3007 7.56261 34.2603 5.07735 36.8797 3.78731C40.5379 1.98555 44.9227 2.63816 47.8765 5.42405C50.5301 7.92684 51.5667 11.599 50.6189 15.1399C49.4025 19.6845 45.0018 22.7128 40.2433 22.28L40.2433 22.2802ZM41.8122 18.7292C41.8122 18.2341 41.8229 18.2082 42.0506 18.1578C43.6585 17.8019 44.4263 17.0126 44.6832 15.4517C44.8107 14.6773 44.6899 13.6549 44.3973 13.0316C44.1187 12.4382 43.6529 12.029 42.2502 11.1457C41.5731 10.7193 40.9299 10.2644 40.8209 10.1349C40.4441 9.6872 40.4672 8.70526 40.8594 8.49537C41.0905 8.37175 41.1831 8.38734 41.3785 8.58275C41.5231 8.72726 41.552 8.87178 41.552 9.44982V10.1435H44.4139V9.55227C44.4139 8.63976 44.2204 8.11786 43.6828 7.58035C43.3139 7.21146 43.1137 7.0891 42.6401 6.94286C42.3178 6.84332 41.9996 6.76188 41.9331 6.76188C41.8442 6.76188 41.8122 6.63452 41.8122 6.28119V5.8005L40.5546 5.85146L40.5029 6.71853L39.8813 6.86932C38.3214 7.24777 37.5554 8.30585 37.6792 9.91114C37.7819 11.2417 38.2544 11.9264 39.7604 12.9264C40.9351 13.7064 41.3555 14.0604 41.4725 14.368C41.5159 14.4822 41.5613 14.9279 41.5734 15.3585C41.5939 16.0899 41.5818 16.1523 41.3906 16.3073C41.1127 16.5324 40.8025 16.5198 40.6728 16.2781C40.6153 16.1708 40.5456 15.6343 40.518 15.0859L40.4679 14.0887L39.1708 14.0646C38.4574 14.0514 37.8326 14.0563 37.7824 14.0756C37.7214 14.099 37.7095 14.4315 37.7466 15.0783C37.8174 16.3136 38.0874 16.9365 38.781 17.4652C39.2291 17.8067 39.9483 18.1125 40.3161 18.1178C40.4982 18.1205 40.5113 18.1584 40.5113 18.6842V19.2478H41.8121L41.8122 18.7292ZM17.5634 8.80741C17.5376 8.74028 17.5291 7.36487 17.5444 5.75096C17.5717 2.88554 17.5771 2.80588 17.7763 2.36557C18.0342 1.79552 18.7394 1.12159 19.3071 0.902702C19.7168 0.74474 20.0106 0.735611 24.6838 0.735611C29.5502 0.735611 29.6334 0.738499 30.028 0.920935C30.5801 1.17614 31.1147 1.68123 31.3864 2.20413C31.5855 2.58749 31.6188 2.77082 31.6486 3.64974L31.6827 4.6563L31.067 5.4706C30.5289 6.18236 29.7059 7.65395 29.3267 8.58259C29.2116 8.86445 29.1989 8.75629 29.1473 7.06521C29.1025 5.59332 29.0622 5.17788 28.9375 4.89751C28.6793 4.31752 28.3061 3.92552 27.7455 3.64543L27.2145 3.38013H24.6854C21.8698 3.38013 21.6389 3.41541 21.0269 3.93902C20.8409 4.09815 20.573 4.43745 20.4314 4.69299L20.174 5.15764L20.1462 7.04353L20.1185 8.92942H18.8643C17.866 8.92942 17.6006 8.90452 17.5633 8.80736L17.5634 8.80741Z" fill="#31600F" fill-opacity="0.8"/>
</g>
<defs>
<clipPath id="clip0_46:883">
<rect width="50" height="40.9396" fill="white" transform="translate(0.964355 0.734619)"/>
</clipPath>
</defs>
</svg>
