<svg width="50" height="22" viewBox="0 0 50 22" fill="none" xmlns="http://www.w3.org/2000/svg">
<path d="M3.39157 21.4744C3.34926 21.3586 3.31463 19.1431 3.31463 16.551C3.31463 13.9589 3.27185 11.8386 3.21956 11.8393C3.16727 11.8399 2.83583 12.5735 2.48302 13.4693C1.86953 15.0271 1.82429 15.0999 1.44568 15.1392C1.15676 15.1691 1.014 15.11 0.917323 14.9204C0.810247 14.7104 0.97178 14.195 1.75994 12.2321C2.97515 9.20556 2.88892 9.28278 4.99167 9.33761C6.38905 9.37405 6.49674 9.39641 6.7803 9.70904C6.94625 9.892 7.49841 11.0827 8.00732 12.355C9.00578 14.8512 9.0273 15.0611 8.29276 15.1386C7.91391 15.1786 7.90085 15.1583 7.24107 13.506C6.87363 12.5859 6.54777 11.8595 6.51694 11.8918C6.4861 11.9242 6.46841 14.0203 6.47761 16.5499C6.48904 19.6939 6.44987 21.2363 6.3538 21.4247C6.24821 21.6318 6.11294 21.6902 5.80973 21.6593L5.40617 21.6183L5.34279 18.957L5.27941 16.2957L4.86744 16.254L4.45547 16.2123V18.6912C4.45547 20.1455 4.40124 21.2765 4.32426 21.4275C4.16163 21.7464 3.50314 21.7796 3.39157 21.4744ZM12.4667 21.5252C12.354 21.4069 12.3146 20.1235 12.3146 16.5752C12.3146 13.6113 12.2695 11.833 12.1964 11.9113C12.1314 11.9808 11.8019 12.7263 11.4642 13.5679L10.8502 15.0982H10.4099C10.0332 15.0982 9.96413 15.0495 9.93214 14.7617C9.91068 14.5687 10.292 13.434 10.8265 12.1004C11.9752 9.23419 11.9227 9.27909 14.055 9.33743C15.3823 9.37375 15.4994 9.39886 15.7869 9.70904C15.9565 9.892 16.5098 11.0808 17.0164 12.3508C18.0111 14.8441 18.0329 15.0604 17.2976 15.1382C16.9249 15.1777 16.9078 15.1511 16.2329 13.4749L15.547 11.7715L15.4836 16.5619C15.4487 19.1965 15.3741 21.427 15.3177 21.5185C15.1825 21.7378 14.6642 21.7315 14.4879 21.5085C14.4003 21.3977 14.3357 20.3966 14.314 18.814L14.2794 16.2957H13.8674H13.4554V18.7329C13.4554 20.1584 13.401 21.2769 13.3242 21.4275C13.1775 21.7152 12.6996 21.7696 12.4667 21.5252ZM34.7765 21.5252C34.6638 21.4069 34.6244 20.1235 34.6244 16.5752C34.6244 13.9405 34.5762 11.8417 34.5173 11.9113C34.4584 11.9808 34.1622 12.6664 33.8592 13.4348C33.5561 14.2033 33.2551 14.9069 33.1902 14.9984C32.9377 15.3544 32.216 15.1048 32.216 14.6614C32.216 14.5603 32.6467 13.41 33.1732 12.1052C34.3155 9.27426 34.2768 9.30985 36.2089 9.30985C37.8308 9.30985 38.167 9.47521 38.5931 10.4825C39.3395 12.2468 40.2018 14.4852 40.2018 14.6584C40.2018 15.1044 39.4812 15.3559 39.2276 14.9984C39.1627 14.9069 38.8616 14.2033 38.5586 13.4348C38.2556 12.6664 37.9594 11.9808 37.9005 11.9113C37.8416 11.8417 37.7934 13.9405 37.7934 16.5752C37.7934 21.6261 37.7867 21.6848 37.2132 21.6848C36.7107 21.6848 36.6598 21.4369 36.6237 18.814L36.5892 16.2957L36.2723 16.3132C36.098 16.3228 35.9126 16.3377 35.8603 16.3464C35.808 16.3551 35.7652 17.488 35.7652 18.8639C35.7652 21.489 35.7257 21.6848 35.1948 21.6848C35.0484 21.6848 34.8602 21.613 34.7765 21.5252ZM43.917 21.5185C43.8607 21.427 43.786 19.1965 43.7511 16.5619L43.6877 11.7715L43.0067 13.4753C42.3336 15.1592 42.3211 15.1786 41.942 15.1386C41.2075 15.0611 41.229 14.8512 42.2275 12.355C42.7364 11.0827 43.2885 9.892 43.4545 9.70904C43.738 9.39641 43.8457 9.37405 45.2431 9.33761C47.3458 9.28278 47.2596 9.20556 48.4748 12.2321C49.263 14.195 49.4245 14.7104 49.3174 14.9204C49.2207 15.11 49.078 15.1691 48.7891 15.1392C48.4105 15.0999 48.3652 15.0271 47.7517 13.4693C47.3989 12.5735 47.0675 11.84 47.0152 11.8393C46.9629 11.8386 46.9201 13.9589 46.9201 16.551C46.9201 19.1431 46.8855 21.3586 46.8432 21.4744C46.7316 21.7796 46.0731 21.7464 45.9105 21.4275C45.8335 21.2765 45.7793 20.1455 45.7793 18.6912V16.2123L45.3673 16.254L44.9553 16.2957L44.8852 18.957C44.8466 20.4207 44.8038 21.6333 44.7901 21.6516C44.7063 21.7635 44.0019 21.6561 43.917 21.5185ZM21.7037 16.1739C21.5721 16.0074 21.7015 15.4763 22.4434 13.1399L23.3427 10.3077V8.26994V6.23219L22.9818 5.9134C22.7269 5.68826 22.3545 4.93043 21.7142 3.3336C21.2155 2.09004 20.8075 1.01122 20.8075 0.93622C20.8075 0.861223 20.9538 0.699234 21.1326 0.576246C21.4404 0.364536 21.4696 0.366143 21.6813 0.606444C21.8042 0.746042 22.1779 1.54887 22.5117 2.3905C22.8456 3.23213 23.1834 3.96473 23.2624 4.0185C23.522 4.19513 26.5942 4.13801 26.7316 3.95401C26.7999 3.86252 27.1348 3.07728 27.476 2.20902C28.1115 0.591311 28.3562 0.290089 28.8251 0.548002C28.9471 0.615115 29.0469 0.788294 29.0469 0.932846C29.0469 1.0774 28.6733 2.13814 28.2167 3.29006C27.5407 4.99539 27.2935 5.47432 26.8857 5.86825L26.3849 6.35206L26.3827 8.32994L26.3804 10.3078L27.2911 13.0854C28.2688 16.0676 28.289 16.2957 27.5753 16.2957C27.2135 16.2957 27.1989 16.2652 26.4455 13.9312C26.0257 12.6308 25.6097 11.4448 25.521 11.2958C25.3929 11.0804 25.2514 11.0333 24.8301 11.0656C24.2171 11.1126 24.304 10.9418 23.1843 14.2998C22.5728 16.1336 22.4921 16.299 22.1909 16.3357C22.0107 16.3577 21.7914 16.2849 21.7036 16.1739H21.7037ZM4.37035 8.71668C3.2074 8.18564 3.62235 6.24937 4.8991 6.24937C5.5076 6.24937 6.10332 6.84001 6.10332 7.44332C6.10332 8.05667 5.78689 8.59513 5.3277 8.76316C4.83901 8.942 4.86674 8.94334 4.37035 8.71668ZM13.4554 8.76326C12.2316 8.25919 12.5863 6.24937 13.8991 6.24937C14.5424 6.24937 15.1033 6.83747 15.1033 7.51199C15.1033 8.16776 14.9114 8.49802 14.4 8.72232C13.9079 8.93816 13.8827 8.93925 13.4554 8.76326ZM35.928 8.81734C35.4901 8.72838 35.0046 8.03208 35.0046 7.49303C35.0046 6.84862 35.5755 6.24937 36.1894 6.24937C36.7112 6.24937 37.3449 6.74446 37.4648 7.24584C37.5927 7.78081 37.2345 8.49219 36.7245 8.71585C36.4802 8.82299 36.2643 8.9025 36.2446 8.89253C36.2249 8.88257 36.0825 8.84873 35.928 8.81734ZM44.8852 8.67379C44.2774 8.35524 44.0576 7.8308 44.2498 7.15761C44.5397 6.14173 45.9011 5.93114 46.4186 6.82211C46.7637 7.41627 46.732 7.90207 46.318 8.36347C45.8656 8.8676 45.4335 8.96117 44.8852 8.67379ZM24.113 3.24359C23.2914 2.51786 23.835 1.05985 24.9272 1.05985C25.5712 1.05985 26.1314 1.6479 26.1314 2.32397C26.1314 2.68392 26.0352 2.91116 25.7609 3.19912C25.2752 3.70894 24.6587 3.72557 24.113 3.24359Z" fill="#31600F" fill-opacity="0.8"/>
</svg>
