<svg width="974.15" height="973.9" version="1.1" viewBox="0 0 974.15 973.9" xmlns="http://www.w3.org/2000/svg">
<g transform="translate(-1554.6 -133.52)">
<path d="m2005.7 1106.5c-97.671-7.7956-186.84-42.149-262.91-101.29-32.086-24.944-66.315-59.695-90.712-92.096-76.465-101.55-109.85-229.1-93.299-356.46 10.715-82.461 42.936-161.41 93.274-228.54 24.705-32.947 64.204-72.446 97.15-97.15 102.09-76.555 229.19-109.81 356.46-93.274 81.405 10.578 160.04 42.397 226.04 91.462 35.033 26.045 73.612 64.372 99.615 98.963 76.578 101.87 109.85 228.97 93.324 356.5-10.246 79.067-41.086 156.55-88.04 221.21-15.852 21.826-28.536 36.504-50.863 58.855-38.116 38.157-67.902 60.227-119.04 88.201-3.575 1.9557-12.575 6.3417-20 9.7465-54.993 25.218-110.79 39.605-170.5 43.962-16.197 1.182-55.206 1.1341-70.5-0.087zm78.722-75.407c179.26-18.625 326.69-152.69 361.77-328.98 10.966-55.107 10.966-107.89 0-163-19.192-96.443-72.625-182.73-151.25-244.24-108.14-84.601-252.85-109.41-383.75-65.797-58.65 19.542-112.14 52.091-156.68 95.333-98.582 95.719-142.73 231.79-119.28 367.7 15.692 90.986 63.656 176.44 133.46 237.78 69.619 61.178 153.98 96.258 247 102.71 16.508 1.1449 50.29 0.4003 68.722-1.5147zm-185.72-129.32v-18.844l15.159-0.65613c8.3375-0.36087 18.89-0.65613 23.451-0.65613 20.628 0 30.016-5.6753 33.846-20.46 1.3499-5.2112 1.5439-20.93 1.5439-125.09 0-129.3 0.1965-124.57-5.4785-132.01-3.6181-4.7435-11.541-9.0573-20.522-11.173-6.1444-1.4473-11.793-1.749-31.25-1.6692l-23.75 0.0975v-18.328c0-18.212 0.014-18.331 2.25-18.762 1.2375-0.23868 50.4-2.0543 109.25-4.0347s109.58-3.8404 112.74-4.1334l5.7379-0.53261 0.2621 159.87 0.262 159.87 2.7276 4.1215c6.0012 9.068 15.781 11.726 47.022 12.783l19.75 0.66778v37.781h-293v-18.844zm119-413.8c-31.495-6.1852-56.211-28.221-66.01-58.854-3.0797-9.6275-3.9203-31.888-1.5804-41.853 3.9612-16.87 10.679-28.915 23-41.237 10.431-10.432 19.691-16.354 32.086-20.519 48.012-16.134 98.908 12.945 109.59 62.61 3.2252 15.002 0.8678 36.308-5.6506 51.07-7.0424 15.948-21.946 31.892-37.092 39.682-14.459 7.4368-20.571 8.9589-37.339 9.2992-7.975 0.16183-15.625 0.0733-17-0.19672z"/>
</g>
</svg>
