<svg width="26" height="25" viewBox="0 0 26 25" fill="none" xmlns="http://www.w3.org/2000/svg">
<g clip-path="url(#clip0_44:613)">
<path d="M11.6912 24.9754C9.18473 24.7753 6.89644 23.8935 4.9443 22.3754C4.12089 21.7351 3.24249 20.8431 2.6164 20.0114C0.654121 17.4047 -0.202619 14.1306 0.222121 10.8614C0.497094 8.74469 1.32396 6.71815 2.61576 4.99499C3.24975 4.14927 4.26339 3.13537 5.10887 2.50124C7.72875 0.53615 10.9904 -0.317473 14.2565 0.10699C16.3456 0.378516 18.3635 1.19528 20.0572 2.45473C20.9563 3.12328 21.9463 4.1071 22.6136 4.99501C24.5788 7.60992 25.4326 10.8724 25.0085 14.146C24.7456 16.1756 23.9542 18.1645 22.7492 19.8243C22.3424 20.3845 22.0169 20.7613 21.4439 21.335C20.4658 22.3145 19.7014 22.881 18.3891 23.5991C18.2973 23.6493 18.0664 23.7618 17.8758 23.8492C16.4646 24.4966 15.0327 24.8659 13.5004 24.9777C13.0847 25.008 12.0837 25.0068 11.6912 24.9755L11.6912 24.9754ZM13.7114 23.0398C18.3117 22.5617 22.0951 19.1204 22.9953 14.5952C23.2767 13.1806 23.2767 11.8257 22.9953 10.4111C22.5028 7.93553 21.1316 5.72062 19.1139 4.14172C16.3387 1.9701 12.6251 1.33328 9.2659 2.45278C7.7608 2.9544 6.38811 3.7899 5.24511 4.89988C2.71525 7.3569 1.58231 10.8497 2.18409 14.3384C2.58679 16.6739 3.81766 18.8674 5.609 20.442C7.3956 22.0123 9.56051 22.9128 11.9476 23.0784C12.3713 23.1078 13.2382 23.0887 13.7112 23.0396L13.7114 23.0398ZM8.94538 19.7203V19.2365L9.3344 19.2197C9.54836 19.2104 9.81916 19.2029 9.93621 19.2029C10.4656 19.2029 10.7065 19.0572 10.8048 18.6777C10.8394 18.5439 10.8444 18.1404 10.8444 15.4667C10.8444 12.1477 10.8494 12.2691 10.7038 12.0782C10.611 11.9564 10.4076 11.8457 10.1772 11.7914C10.0195 11.7542 9.87453 11.7465 9.37521 11.7485L8.76573 11.751V11.2806C8.76573 10.8131 8.76609 10.81 8.82347 10.799C8.85523 10.7928 10.1169 10.7462 11.6271 10.6954C13.1373 10.6446 14.4392 10.5968 14.5203 10.5893L14.6675 10.5756L14.6743 14.6793L14.681 18.783L14.751 18.8888C14.905 19.1216 15.1559 19.1898 15.9577 19.217L16.4645 19.2341V20.2039H8.94541V19.7202L8.94538 19.7203ZM11.9992 9.09841C11.191 8.93964 10.5567 8.37401 10.3052 7.58769C10.2262 7.34056 10.2046 6.76915 10.2647 6.51336C10.3663 6.08032 10.5387 5.77114 10.8549 5.45485C11.1226 5.18707 11.3602 5.03506 11.6783 4.92815C12.9104 4.514 14.2165 5.26043 14.4907 6.53528C14.5734 6.92037 14.5129 7.46727 14.3457 7.8462C14.1649 8.25557 13.7825 8.66484 13.3938 8.8648C13.0227 9.05569 12.8659 9.09476 12.4356 9.1035C12.2309 9.10765 12.0346 9.10538 11.9993 9.09845L11.9992 9.09841Z" fill="#31600F" fill-opacity="0.8"/>
</g>
<defs>
<clipPath id="clip0_44:613">
<rect width="25" height="25" fill="white" transform="translate(0.115234)"/>
</clipPath>
</defs>
</svg>
