<svg width="50" height="47" viewBox="0 0 50 47" fill="none" xmlns="http://www.w3.org/2000/svg">
<g clip-path="url(#clip0_35:326)">
<path d="M0.971336 46.1733C0.684286 45.4225 1.0372 45.3337 4.30695 45.3337H7.54665V23.8392H5.4625C4.31624 23.8392 3.11857 23.7253 2.80128 23.5862C2.09263 23.2757 1.64081 22.3112 1.89474 21.651C2.14088 21.011 23.5556 1.03349 24.3075 0.742647C25.6002 0.242251 26.2685 0.611338 29.6723 3.70575C32.7852 6.53564 33.5017 7.49438 32.5035 7.49438C32.274 7.49438 30.6525 6.18456 28.8999 4.58367C26.8289 2.69179 25.5373 1.67296 25.2096 1.67296C24.887 1.67296 23.8586 2.46304 22.3533 3.86725C7.91904 17.3318 3.21534 21.7386 3.07893 21.9246C2.99022 22.0458 3.02924 22.2742 3.16562 22.4322C3.35324 22.6497 4.61889 22.7196 8.36516 22.7196C12.3572 22.7196 13.3405 22.7794 13.4397 23.0282C13.6833 23.6388 13.05 23.8391 10.8755 23.8391H8.71062V42.6468H18.3878L19.7484 35.7618C21.4628 27.0861 21.7487 23.006 20.6277 23.212C20.2882 23.2743 20.2136 23.7184 20.0897 26.4164C20.0106 28.1391 19.8186 30.0777 19.663 30.7241L19.3803 31.8995H18.1477C16.2537 31.8995 16.2588 31.9182 16.8378 27.0322C17.4987 21.455 17.6489 20.8695 18.6305 20.0404C19.0688 19.6703 19.7136 19.3055 20.0633 19.2297C20.413 19.154 21.0658 19.0116 21.514 18.9131C21.9621 18.8147 22.6318 18.6681 23.0021 18.5874L23.6756 18.4407L22.9719 17.7253C21.9814 16.7184 21.7467 16.1872 21.7471 14.9537C21.748 12.0112 24.7396 10.2844 27.1298 11.8466C29.1466 13.1647 29.2763 16.3719 27.3712 17.8133C26.6296 18.3744 26.8318 18.5292 28.8196 18.9228C30.4995 19.2554 31.2262 19.5772 31.9103 20.2914C32.5966 21.0078 32.7999 21.9177 33.3918 26.9215C33.9852 31.9378 33.9953 31.8995 32.0772 31.8995C31.3887 31.8995 30.8253 31.8743 30.8251 31.8435C30.8249 31.8127 30.6679 30.9311 30.4762 29.8844C30.2846 28.8377 30.1276 26.8908 30.1274 25.558C30.1272 23.3942 30.0845 23.1425 29.7299 23.2081C29.1684 23.3121 28.904 24.714 29.0336 26.8996C29.0932 27.9055 29.7543 31.8601 30.5026 35.6877L31.8631 42.6468H41.5336V23.8391H39.4851C37.4266 23.8391 36.7971 23.6305 37.0373 23.0281C37.1366 22.7793 38.1199 22.7196 42.1118 22.7196C48.1867 22.7196 48.3396 22.6526 46.336 20.8679C45.0074 19.6844 44.7237 19.0724 45.3898 18.8266C45.8261 18.6656 48.2265 20.7579 48.5548 21.5853C48.8414 22.308 48.4239 23.2582 47.6756 23.5861C47.3582 23.7253 46.1082 23.8391 44.898 23.8391H42.6975V45.3336H45.9316C49.1946 45.3336 49.5503 45.4228 49.2782 46.1732C49.1292 46.584 1.12841 46.584 0.970114 46.1732L0.971336 46.1733ZM27.3345 42.4214C27.3345 41.9005 25.6909 32.0586 25.5733 31.8756C25.5026 31.7656 25.3 31.6755 25.123 31.6755C24.9461 31.6755 24.7435 31.7656 24.6727 31.8756C24.5552 32.0585 22.9116 41.9004 22.9116 42.4214C22.9116 42.5568 23.7944 42.6467 25.123 42.6467C26.4517 42.6467 27.3345 42.5568 27.3345 42.4214ZM36.0643 16.6593C34.8709 16.3171 34.7837 16.0096 34.7837 12.143C34.7837 8.67255 34.7964 8.58097 35.3551 8.04361C35.6693 7.74134 36.1407 7.49405 36.4026 7.49405C36.8305 7.49405 36.8788 7.35495 36.8788 6.12109C36.8788 4.32531 37.4421 3.41211 38.8744 2.88594C40.1793 2.40661 41.3408 2.67523 42.3518 3.69021C42.9446 4.28537 43.0452 4.57744 43.1249 5.93415C43.1933 7.09774 43.3013 7.49396 43.55 7.49396C43.7335 7.49396 44.1407 7.74126 44.4549 8.04352C45.0128 8.58008 45.0263 8.67586 45.0263 12.0885C45.0263 14.0177 44.9208 15.7735 44.7908 16.0072C44.6613 16.24 44.1637 16.5351 43.6851 16.663C42.6362 16.9431 37.0448 16.9404 36.0643 16.6592L36.0643 16.6593ZM40.3241 14.3903C40.4777 14.2425 40.6034 13.8945 40.6034 13.6168C40.6034 13.3392 40.8653 12.8602 41.1854 12.5523C42.1248 11.6488 41.8097 10.2137 40.5627 9.71705C38.7295 8.98668 37.3146 11.272 38.747 12.6497C38.9998 12.8929 39.2067 13.3236 39.2067 13.6068C39.2067 14.0871 39.5863 14.6591 39.905 14.6591C39.9819 14.6591 40.1704 14.5382 40.3241 14.3904V14.3903ZM42.0001 6.24546C42.0001 5.16389 41.9091 4.9092 41.3197 4.3423C40.4758 3.53062 39.6975 3.50787 38.759 4.26748C38.108 4.79436 38.0428 4.96762 38.0428 6.17064V7.49414H42.0002L42.0001 6.24546Z" fill="#31600F" fill-opacity="0.8"/>
</g>
<defs>
<clipPath id="clip0_35:326">
<rect width="48.4594" height="45.9243" fill="white" transform="translate(0.888184 0.559647)"/>
</clipPath>
</defs>
</svg>
