<svg width="208.17" height="205.11" version="1.1" viewBox="0 0 208.17 205.11" xmlns="http://www.w3.org/2000/svg">
<g transform="translate(-268.36 -12.204)">
<path d="m268.71 215.93c-1.2331-3.3532 0.28291-3.75 14.329-3.75h13.917v-96h-8.953c-4.9241 0-10.069-0.50837-11.432-1.1297-3.0442-1.387-4.9851-5.6947-3.8943-8.6433 1.0574-2.8584 93.05-92.083 96.28-93.382 5.5532-2.2349 8.4238-0.58646 23.046 13.234 13.372 12.639 16.45 16.921 12.162 16.921-0.98569 0-7.9516-5.85-15.48-13-8.8965-8.4496-14.445-13-15.853-13-1.3856 0-5.8036 3.5287-12.27 9.8003-62.006 60.136-82.212 79.818-82.798 80.649-0.38104 0.54092-0.21344 1.5611 0.37244 2.267 0.80595 0.9711 6.2429 1.2835 22.336 1.2835 17.149 0 21.373 0.26705 21.799 1.3781 1.0466 2.7273-1.6741 3.6219-11.015 3.6219h-9.3v84h41.571l5.8446-30.75c7.3648-38.748 8.5929-56.971 3.7774-56.051-1.4584 0.27844-1.7787 2.2619-2.3111 14.312-0.33998 7.694-1.1648 16.352-1.8329 19.239l-1.2147 5.25h-5.2947c-8.1362 0-8.1146 0.0834-5.6272-21.739 2.8391-24.909 3.4842-27.524 7.7009-31.227 1.8829-1.6532 4.6527-3.2825 6.1551-3.6206 1.5024-0.3381 4.3067-0.97448 6.2317-1.4142s4.8018-1.0943 6.3929-1.4546l2.8929-0.65521-3.0229-3.1951c-4.2549-4.4971-5.2632-6.8695-5.2614-12.379 4e-3 -13.142 12.855-20.854 23.123-13.877 8.6635 5.887 9.2207 20.211 1.0367 26.649-3.1854 2.5057-2.317 3.1973 6.2222 4.9551 7.2162 1.4855 10.338 2.9226 13.277 6.1124 2.948 3.1997 3.8214 7.2635 6.3642 29.612 2.549 22.404 2.5923 22.233-5.6472 22.233-2.9577 0-5.3782-0.1125-5.3789-0.25s-0.67513-4.075-1.4986-8.75-1.4979-13.37-1.4986-19.323c-1e-3 -9.6637-0.18419-10.788-1.7077-10.495-2.412 0.46451-3.5479 6.7255-2.9911 16.487 0.25628 4.4927 3.096 22.155 6.3106 39.25l5.8446 31.081h41.542v-84h-8.8c-8.8427 0-11.547-0.93159-10.515-3.6219 0.42637-1.1111 4.6506-1.3781 21.799-1.3781 26.096 0 26.753-0.29904 18.146-8.2699-5.7074-5.286-6.926-8.0192-4.0647-9.1171 1.8743-0.71924 12.186 8.6256 13.596 12.321 1.2314 3.228-0.56205 7.4718-3.7765 8.9364-1.3637 0.62135-6.7333 1.1297-11.932 1.1297h-9.453v96h13.893c14.017 0 15.545 0.39867 14.376 3.75-0.63993 1.8346-206.84 1.8346-207.52 0zm113.25-16.757c0-2.3263-7.0607-46.283-7.5656-47.1-0.30384-0.49162-1.1743-0.89386-1.9344-0.89386s-1.6306 0.40224-1.9344 0.89386c-0.50491 0.81695-7.5656 44.773-7.5656 47.1 0 0.60471 3.7924 1.0065 9.5 1.0065s9.5-0.4018 9.5-1.0065zm37.501-115.06c-5.1266-1.5285-5.5012-2.9018-5.5012-20.171 0-15.5 0.0549-15.909 2.4546-18.309 1.35-1.35 3.375-2.4545 4.5-2.4545 1.8382 0 2.0454-0.62124 2.0454-6.132 0-8.0204 2.42-12.099 8.5728-14.449 5.6057-2.1408 10.595-0.94107 14.938 3.5921 2.5466 2.6581 2.9789 3.9626 3.3213 10.022 0.29365 5.1969 0.75754 6.9665 1.8262 6.9665 0.78794 0 2.5372 1.1045 3.8872 2.4545 2.3964 2.3964 2.4546 2.8242 2.4546 18.066 0 8.6162-0.45335 16.458-1.0118 17.502-0.55647 1.0398-2.694 2.3577-4.75 2.9287-4.5056 1.2513-28.525 1.239-32.737-0.01669zm18.299-10.134c0.66-0.66 1.2-2.2145 1.2-3.4545s1.125-3.3795 2.5-4.7545c4.0355-4.0355 2.6818-10.445-2.6748-12.663-7.875-3.262-13.953 6.9446-7.7998 13.098 1.086 1.086 1.9746 3.0096 1.9746 4.2746 0 2.145 1.6308 4.7 3 4.7 0.33 0 1.14-0.54 1.8-1.2zm7.2-36.377c0-4.8306-0.39116-5.9681-2.9231-8.5-3.6252-3.6252-6.9683-3.7268-11-0.33418-2.7967 2.3532-3.0767 3.127-3.0767 8.5v5.9111h17z"/>
</g>
</svg>
