<svg width="477.85" height="415.44" version="1.1" viewBox="0 0 477.85 415.44" xmlns="http://www.w3.org/2000/svg">
<g transform="translate(-749.94 -32.56)">
<path d="m861.34 443.25c0.96736-6.5492 6.0194-15.635 11.258-20.246 7.0406-6.1974 10.822-7.0042 32.832-7.0042h19.208l0.63836-4.2569c2.0434-13.626 13.705-25.288 27.332-27.332l4.2569-0.63836v-243.06l-6.3991 0.59756c-9.5606 0.89278-20.708 4.023-38.174 10.72-17.452 6.6912-34.706 11.614-44.178 12.604-3.4365 0.35919-6.2482 0.93856-6.2482 1.2875s14.108 27.847 31.352 61.108l31.352 60.473 5.997 0.5c3.2984 0.275 6.788 1.1573 7.7548 1.9607 2.6599 2.2103 1.629 10.099-2.3847 18.248-15.007 30.469-62.548 48.754-110.07 42.333-33.95-4.5868-61.429-20.727-72.07-42.333-4.0137-8.1492-5.0446-16.038-2.3847-18.248 0.96681-0.80339 4.4516-1.6857 7.744-1.9607l5.9861-0.5 31.322-60.5c17.227-33.275 31.34-60.802 31.362-61.171 0.022-0.3688-1.4225-0.96278-3.21-1.3199s-6.175-1.5805-9.75-2.7184c-16.81-5.3509-23-11.376-23-22.388 0-5.9492 1.9328-10.259 6.3345-14.123 7.3171-6.4245 12.399-6.5558 28.666-0.7408 9.881 3.5322 20.604 4.2996 28.403 2.0326 3.1917-0.92785 12.04-4.5737 19.663-8.1019 31.245-14.461 54.97-19.95 95.232-22.031l13.798-0.71332-4.998-1.692c-22.52-7.6236-29.304-35.874-12.622-52.557 6.3278-6.3278 12.525-8.8356 22.024-8.9119 6.6282-0.05325 8.958 0.38497 13.587 2.5555 7.101 3.3301 12.464 8.6927 15.794 15.794 3.6053 7.688 3.6397 19.206 0.079 26.586-4.1678 8.64-12.814 15.676-21.46 17.464-1.691 0.34971 5.2904 1.1537 16 1.8426 38.924 2.5038 60.285 7.5676 89.584 21.237 8.0211 3.7421 17.224 7.5713 20.45 8.5093 8.3639 2.4314 17.679 1.5101 31.101-3.076 13.111-4.4799 18.373-4.4388 24.089 0.18798 6.1038 4.9402 7.6444 7.7312 8.0566 14.596 0.3074 5.12-0.054 7.0464-2.0128 10.739-2.0033 3.7762-3.5658 5.0938-9.7139 8.1919-4.0297 2.0306-11.09 4.6862-15.691 5.9015-4.6002 1.2152-8.3448 2.4789-8.3214 2.808 0.023 0.3292 14.13 27.824 31.348 61.099l31.306 60.5 6 0.5c3.3 0.275 6.791 1.1573 7.7578 1.9607 2.6599 2.2103 1.629 10.099-2.3847 18.248-15.007 30.469-62.548 48.754-110.07 42.333-33.95-4.5868-61.429-20.727-72.07-42.333-4.0137-8.1492-5.0446-16.038-2.3847-18.248 0.9668-0.80339 4.4565-1.6857 7.7549-1.9607l5.997-0.5 31.352-60.473c17.243-33.26 31.352-60.759 31.352-61.108s-2.8117-0.92829-6.2483-1.2875c-9.4302-0.98565-26.428-5.8412-44.091-12.595-18.149-6.9394-28.3-9.8036-37.911-10.697l-6.75-0.6274v243.06l4.2568 0.63836c13.679 2.0513 25.275 13.614 27.318 27.241l0.6248 4.1664 19.15 0.34365c18.226 0.32705 19.421 0.4707 24.77 2.9756 10.632 4.9792 17.848 14.098 19.477 24.612l0.6584 4.25h-256.48zm28.296-161.5c-1.8771-3.4375-12.583-23.462-23.79-44.5s-20.649-38.25-20.98-38.25-9.7725 17.212-20.98 38.25-21.913 41.062-23.79 44.5l-3.413 6.25h96.367zm288 0c-1.8772-3.4375-12.583-23.462-23.79-44.5s-20.649-38.25-20.98-38.25c-0.3315 0-9.7725 17.212-20.98 38.25s-21.913 41.062-23.79 44.5l-3.413 6.25h96.367z"/>
</g>
</svg>
