<svg width="75.421" height="107.23" version="1.1" viewBox="0 0 75.421 107.23" xmlns="http://www.w3.org/2000/svg">
<g transform="translate(-239.7 -41.441)">
<path d="m274.31 144.91c-11.81-15.942-22.738-33.363-28.428-45.321-5.4759-11.507-7.0353-18.597-5.777-26.266 4.1866-25.513 31.617-39.412 54.58-27.656 11.917 6.1012 19.543 17.832 20.363 31.322 0.25564 4.2076-0.16584 6.8599-1.9578 12.32-2.7375 8.3413-7.3441 17.373-15.828 31.032-6.0904 9.8056-19.082 28.328-19.87 28.328-0.16344 0-1.5506-1.692-3.0826-3.76zm8.3106-48.217c6.2035-1.9462 11.089-7.2044 12.584-13.545 0.69512-2.9469 0.44018-7.1916-0.60392-10.055-2.0464-5.6122-6.9715-10.144-12.601-11.596-2.4257-0.62542-6.749-0.64971-8.9997-0.05056-11.622 3.0938-17.136 15.416-11.716 26.18 2.1066 4.1831 6.8998 8.0559 11.322 9.1477 0.792 0.19554 1.728 0.42514 2.08 0.51022 1.1761 0.28426 6.3811-0.10321 7.9349-0.59068z" stroke-width=".32"/>
</g>
</svg>
