<svg width="17" height="13" viewBox="0 0 17 13" fill="none" xmlns="http://www.w3.org/2000/svg">
<path d="M0.578272 4.72083C0.456397 4.62396 0.275146 4.71458 0.275146 4.86771V11.2583C0.275146 12.0865 0.947021 12.7583 1.77515 12.7583H14.7751C15.6033 12.7583 16.2751 12.0865 16.2751 11.2583V4.87083C16.2751 4.71458 16.097 4.62708 15.972 4.72396C15.272 5.26771 14.3439 5.95833 11.1564 8.27396C10.497 8.75521 9.38452 9.76771 8.27515 9.76146C7.15952 9.77083 6.02515 8.73646 5.39077 8.27396C2.20327 5.95833 1.27827 5.26458 0.578272 4.72083ZM8.27515 8.75833C7.55015 8.77083 6.5064 7.84583 5.9814 7.46458C1.83452 4.45521 1.5189 4.19271 0.562647 3.44271C0.381397 3.30208 0.275146 3.08333 0.275146 2.85208V2.25833C0.275146 1.43021 0.947021 0.758331 1.77515 0.758331H14.7751C15.6033 0.758331 16.2751 1.43021 16.2751 2.25833V2.85208C16.2751 3.08333 16.1689 3.29896 15.9876 3.44271C15.0314 4.18958 14.7158 4.45521 10.5689 7.46458C10.0439 7.84583 9.00015 8.77083 8.27515 8.75833Z" fill="#F1F160"/>
</svg>
