<svg width="226.86" height="226.95" version="1.1" viewBox="0 0 226.86 226.95" xmlns="http://www.w3.org/2000/svg">
<g transform="translate(-343.47 -25.031)">
<path d="m429.91 249.1c-33.382-8.2046-61.88-31.798-76.419-63.266-13.397-28.996-13.358-65.736 0.10203-94.868 11.311-24.48 31.418-44.545 56.04-55.921 28.903-13.354 65.744-13.354 94.647 0 31.771 14.679 55.221 43.204 63.332 77.041 3.6242 15.118 3.6242 37.73 0 52.848-8.1119 33.837-31.561 62.362-63.332 77.041-21.492 9.93-51.326 12.788-74.37 7.1241zm53.713-8.1284c5.5-1.3841 14.8-4.9112 20.667-7.8379 64.311-32.083 78.475-117.41 28-168.68-41.68-42.336-108.13-42.643-150.08-0.69428-41.949 41.949-41.642 108.4 0.69428 150.08 26.936 26.519 63.744 36.433 100.72 27.127zm-42.506-6.6305c-10.09-1.6759-24.394-6.8644-33.274-12.069-9.7205-5.6977-28.951-24.928-34.648-34.648-9.3374-15.93-14.543-38.049-13.074-55.558 1.1595-13.826 4.1422-24.481 10.512-37.555 7.904-16.222 26.101-34.419 42.323-42.323 25.413-12.382 50.546-14.042 76.415-5.046 13.861 4.8205 23.111 10.895 35.585 23.369 17.192 17.192 25.156 33.151 28.311 56.73 2.6121 19.522-2.2162 42.753-12.55 60.383-5.6977 9.7205-24.928 28.951-34.648 34.648-19.025 11.152-43.309 15.664-64.952 12.069zm44.506-5.6138c15.01-4.8992 26.383-11.952 37.99-23.56 17.838-17.838 26.491-37.454 27.673-62.731 0.53588-11.462 0.13463-16.163-2.1626-25.333-7.2237-28.837-25.377-51.361-51.501-63.899-26.934-12.928-55.408-12.584-83.333 1.007-10.565 5.1419-14.558 8.0559-24.067 17.565-9.5094 9.5094-12.423 13.502-17.565 24.067-7.2469 14.89-10.367 27.733-10.367 42.667 0 43.184 29.293 80.618 72 92.009 14.345 3.8264 36.487 3.0531 51.333-1.7929zm-70.887-7.8158c-0.72877-0.95374-2.6578-4.9158-4.2866-8.8047-3.5816-8.5509-2.8411-12.263 2.4464-12.263 3.3537 0 4.1507 0.91895 7.3731 8.5011 1.9872 4.6756 3.3995 9.6256 3.1386 11-0.56902 2.9974-6.728 4.1099-8.6715 1.5663zm52.891-10.032c-2.2297-2.8346-2.6649-4.6621-1.9843-8.3333 1.4198-7.6591 8.7843-20.164 16.708-28.369 6.3388-6.5644 8.0988-7.6667 12.241-7.6667 3.6383 0 5.523 0.87109 7.6012 3.5132 4.3524 5.5332 3.4764 8.404-5.0364 16.505-6.4421 6.1301-8.0892 8.6286-9.4626 14.353-2.3707 9.8822-5.6892 13.629-12.071 13.629-4.0067 0-5.7694-0.80047-7.9958-3.6308zm-43.329-4.3423c-1.0828-3.4115-0.31085-4.6322 9.6125-15.201 8.8196-9.3929 14.034-11.447 15.704-6.1866 1.0828 3.4116 0.31086 4.6322-9.6125 15.201-8.8196 9.3929-14.034 11.447-15.704 6.1866zm70.718 0.16094c-1.4336-4.5168-0.459-5.5596 17.427-18.649 4.5632-3.3394 8.9724-3.0736 10.392 0.62651 1.1848 3.0876-0.29302 4.8548-10.899 13.032-10.133 7.8127-15.52 9.4015-16.92 4.99zm-99.126-12.455c-2.0784-2.0784-2.0455-5.7252 0.0667-7.3764 3.401-2.6587 20.898-8.6813 22.943-7.8968 2.8238 1.0836 4.1169 4.7572 2.5492 7.2424-1.1758 1.864-19.351 9.6307-22.537 9.6307-0.78194 0-2.1417-0.72-3.0217-1.6zm58.753-2.7333c-0.71857-0.91667-2.0405-6.3468-2.9376-12.067-1.2715-8.1072-1.2774-10.826-0.0268-12.333 1.9704-2.3742 5.8153-2.5082 7.6446-0.2664 1.7909 2.1947 4.8671 21.599 3.846 24.259-0.95255 2.4823-6.6849 2.7561-8.5262 0.40724zm-51.945-20.525c-0.72447-1.888 0.39329-5.9644 4.1908-15.284 0.63192-1.5508-0.28323-2.6218-3.3126-3.8766-4.0866-1.6927-4.3068-1.5946-9.2951 4.1428-4.2564 4.8956-5.5036 5.6381-7.4711 4.448-3.8478-2.3275-3.5383-3.7971 2.1646-10.276 4.8319-5.4893 5.2363-6.4576 3.7145-8.8944-0.93923-1.504-2.0134-2.7134-2.387-2.6876-0.3736 0.0257-4.523 0.87095-9.221 1.8782-9.5898 2.0561-12.125 1.6168-12.125-2.1007 0-2.9104 3.3905-4.503 12.492-5.8679 4.3109-0.64646 6.7029-1.7859 7.7136-3.6745 1.5959-2.9819 1.1529-3.4939-6.8715-7.9433-2.6936-1.4935-4.0382-3.1608-3.7512-4.6514 0.68828-3.5739 4.3885-3.5343 12.399 0.13288l7.3152 3.349 2.0181-2.8813c3.659-5.2239 2.5061-8.2658-5.3933-14.23-4.6999-3.5485-7.2553-6.4064-6.9847-7.8115 0.76208-3.9571 4.9261-3.221 12.609 2.2291 7.3045 5.1819 7.623 5.2743 10.688 3.0994 2.5145-1.7844 3.0061-3.0575 2.4101-6.2417-2.3246-12.421-2.349-15.274-0.13769-16.123 3.3229-1.2751 5.7762 1.5838 6.7213 7.8325 1.2509 8.2713 2.35 9.4582 7.8099 8.4339 4.191-0.78623 4.8159-1.4837 6.1789-6.8969 1.6361-6.4975 4.5463-8.7223 7.5198-5.7489 1.5943 1.5943 1.5788 2.8048-0.10795 8.4094-1.7518 5.8209-1.7446 6.8915 0.0649 9.6533 2.4643 3.761 1.918 3.7465 9.13 0.24265 6.5049-3.1603 10.177-2.6367 10.177 1.4514 0 1.9345-1.8392 3.4626-6.6667 5.5394-7.3834 3.1762-7.235 2.9863-5.2423 6.7096 1.2358 2.309 2.5683 2.61 10.066 2.2733 6.267-0.28145 8.9558 0.12064 9.7857 1.4634 2.0459 3.3104-0.0149 5.1864-6.7089 6.107-5.1371 0.70653-6.5668 1.4327-6.5668 3.3357 0 1.3379-0.35663 3.3619-0.79251 4.4977-0.56928 1.4835 0.91892 2.8967 5.2833 5.0171 6.9054 3.3549 8.2809 5.5069 5.3765 8.4113-1.8036 1.8036-2.8304 1.6197-9.61-1.7215-8.1133-3.9984-12.81-4.1771-11.716-0.44565 4.288 14.635 4.9358 19.32 2.947 21.308-3.1713 3.1713-5.5831 0.0768-8.1712-10.484-1.2521-5.1094-2.6774-9.5376-3.1674-9.8404-0.48991-0.30279-2.3589 0.55692-4.1533 1.9104l-3.2626 2.461 2.4739 6.8797c2.2549 6.2708 2.2874 7.0662 0.36678 8.9869-2.7396 2.7396-5.4999 0.62163-7.6397-5.8618-1.0709-3.2449-2.1325-4.4222-3.5106-3.8934-1.0865 0.41694-2.4567 0.75807-3.0449 0.75807-0.58818 0-2.4372 3.45-4.109 7.6667-1.6717 4.2167-3.6149 8.4167-4.3181 9.3333-1.8002 2.3466-4.8805 2.0712-5.877-0.52548zm21.644-29.849c3.8312-2.9558 10.129-6.4058 13.996-7.6667 8.8202-2.8765 10.799-5.618 7.6797-10.637-1.2495-2.0103-4.0505-6.9911-6.2245-11.068-5.5929-10.489-6.7813-11.253-14.499-9.3127-8.2976 2.0856-14.43 6.851-15.463 12.017-0.4507 2.2535-3.583 7.0517-6.9606 10.663-7.1717 7.6671-7.0832 9.4759 0.81288 16.61 7.1876 6.4936 11.627 6.3639 20.659-0.6037zm-17.82-7.5176c0.56522-2.9349 5.767-3.3332 5.767-0.44161 0 1.1-1.4034 2.1987-3.1186 2.4416-2.4184 0.34246-3.013-0.10659-2.6484-2zm16.235-5.1443c-0.97731-2.5468 1.6955-4.7399 4.4762-3.6728 2.5171 0.9659 1.5811 4.9044-1.2972 5.4588-1.2771 0.24595-2.7077-0.55771-3.179-1.7859zm-2.3731-13.393c-2.5981-2.5981-2.6309-3.8004-0.1593-5.8516 2.5241-2.0948 6.0662-1.3384 7.9211 1.6916 1.1813 1.9296 0.95906 2.7955-1.1119 4.3333-3.2708 2.4288-4.0686 2.408-6.6499-0.17333zm97.588 56.008c-4.7179-2.5599-5.7121-6.9013-4.0692-17.769 1.0254-6.7828 0.91617-9.9999-0.47458-13.978-0.99357-2.8422-1.8065-8.1384-1.8065-11.769 0-5.5187 0.6393-7.2409 3.8974-10.499 5.2527-5.2527 14.099-5.5352 18.737-0.59833 2.8865 3.0725 3.0423 4.039 2.2685 14.073-0.58008 7.5223-0.2241 13.39 1.1795 19.442 2.4355 10.502 1.4659 16.965-3.0818 20.543-3.9876 3.1367-11.436 3.3855-16.65 0.55617zm13.211-4.28c3.0393-1.9333 3.4338-8.2973 1.0775-17.382-1.9087-7.359-2.0862-10.458-0.97024-16.936 1.8299-10.621 0.49824-13.982-5.54-13.982-7.2374 0-9.285 3.0216-8.0687 11.907 0.55913 4.0844 1.0744 13.426 1.1452 20.76 0.0707 7.3333 0.614 14.083 1.2073 15 1.1725 1.8116 8.6304 2.235 11.149 0.63289zm-8.3743-7.5344c-1.2131-3.1612 0.50333-6.3538 3.1426-5.8455 1.476 0.28425 2.3374 1.665 2.3374 3.747 0 3.8008-4.2084 5.4124-5.48 2.0985zm0.39668-29.626c-2.054-2.054-0.8632-5.8056 1.8427-5.8056 2.074 0 2.6536 0.71921 2.3333 2.8956-0.44248 3.0071-2.5856 4.5004-4.1761 2.91zm-60.65 31.261c-2.0778-2.0778-2.0451-5.7134 0.0667-7.4216 0.91666-0.74149 6.0665-3.2094 11.444-5.4843 11.165-4.7232 15.384-4.1089 14.636 2.131-0.35088 2.9258-2.0182 4.1194-11.049 7.9103-11.831 4.9662-12.81 5.152-15.097 2.8646zm24.068-22.067c-8.9157-15.133-8.7404-14.595-5.7291-17.606 1.4688-1.4688 3.5772-2.3177 4.6929-1.8896 1.1143 0.42758 5.058 5.7972 8.7638 11.932 5.6462 9.3475 6.5034 11.593 5.2908 13.859-0.8238 1.5393-2.7973 2.704-4.5816 2.704-2.4571 0-4.2802-1.9448-8.4368-9zm23.932-27.267c-2.5649-2.5649-1.9085-5.3235 3.2158-13.516 4.1182-6.5838 5.3254-7.6401 8.3333-7.2916 4.879 0.56523 5.2244 5.0649 0.94884 12.361-5.6916 9.7119-8.9982 11.947-12.498 8.4469zm-21.533-1.2559c-0.90227-0.99591-2.9365-5.0869-4.5205-9.0911-2.2617-5.7173-4.5976-8.6531-10.88-13.675-4.4-3.5169-8.5362-7.8065-9.1915-9.5324-2.8469-7.4979 3.4466-15.214 11.048-13.544 5.5756 1.2246 14.731 9.712 22.083 20.472 7.3532 10.762 9.0054 17.956 5.1948 22.621-3.0172 3.6935-11.364 5.3647-13.733 2.7496zm-41.125-25.478c-0.76118-0.91717-3.0269-7.7945-5.035-15.283-3.0032-11.199-3.3491-13.979-1.9494-15.666 2.0559-2.4772 5.8787-2.6666 7.7432-0.38371 0.74867 0.91667 3.0046 7.8058 5.0133 15.309 2.9804 11.133 3.3431 14.015 1.9721 15.667-2.0372 2.4547-5.857 2.6306-7.7442 0.35666z" stroke-width="1.3333"/>
</g>
</svg>
