<svg width="50" height="30" viewBox="0 0 50 30" fill="none" xmlns="http://www.w3.org/2000/svg">
<g clip-path="url(#clip0_36:329)">
<path d="M21.6335 29.7152C17.9371 29.4025 14.9415 28.5604 13.8757 27.5344C13.075 26.7637 13.0593 25.689 13.8394 25.0586C14.3909 24.6129 16.0676 23.899 17.2439 23.6092C17.7865 23.4755 17.8415 23.5188 17.8412 24.0802C17.841 24.6414 17.7236 24.7338 16.5698 25.0821C15.8707 25.2932 15.0641 25.6686 14.7774 25.9164L14.2559 26.3668L14.7761 26.7857C15.0622 27.0162 15.7956 27.3615 16.4059 27.5532C19.0355 28.379 20.1138 28.4925 25.3385 28.4932C30.8525 28.4941 33.0592 28.2176 35.1742 27.2611C36.8721 26.4932 36.5956 25.8282 34.2787 25.1072C33.3242 24.8101 32.9555 24.5759 32.8058 24.1714C32.696 23.8746 32.6526 23.5841 32.7094 23.5258C32.9165 23.3129 36.0063 24.4198 36.6911 24.9521C40.4396 27.8668 31.8612 30.5804 21.6335 29.7152L21.6335 29.7152ZM18.4934 26.1894C18.4934 24.086 19.7918 21.9784 21.6289 21.0996C22.5875 20.641 23.056 20.5727 25.2299 20.5751C28.1566 20.5783 29.0128 20.8733 30.2773 22.3143C31.2323 23.4026 31.6844 24.4252 31.8799 25.9395L32.0224 27.0429H18.4933L18.4934 26.1894ZM0.893114 25.3123C0.894852 24.5507 1.51526 23.5562 2.33488 23.001C3.22423 22.3986 5.94 22.4063 6.91005 23.014C7.73945 23.5336 8.22384 24.2422 8.41268 25.2124L8.55166 25.9263H0.891602L0.893127 25.3123L0.893114 25.3123ZM41.7446 25.5843C41.7446 24.9688 42.3285 23.8166 42.9291 23.2471C43.4406 22.7621 43.7569 22.6786 45.3406 22.6105C46.9007 22.5434 47.2706 22.6002 47.9078 23.0047C48.677 23.4931 49.3504 24.6382 49.3504 25.4578C49.3504 25.9159 49.2653 25.9264 45.5475 25.9264C42.2766 25.9264 41.7447 25.8786 41.7447 25.5843L41.7446 25.5843ZM9.58321 25.2565C9.58321 24.8596 9.72808 24.81 10.887 24.81C12.046 24.81 12.1909 24.8596 12.1909 25.2565C12.1909 25.6534 12.046 25.7031 10.887 25.7031C9.72808 25.7031 9.58321 25.6534 9.58321 25.2565ZM38.3524 25.3499C38.425 25.1557 38.4843 24.9547 38.4843 24.9034C38.4843 24.852 39.0222 24.81 39.6795 24.81C40.7298 24.81 40.8747 24.8641 40.8747 25.2565C40.8747 25.6543 40.7298 25.7031 39.5476 25.7031C38.4268 25.7031 38.241 25.6482 38.3524 25.3499V25.3499ZM4.15054 22.1907C2.23201 21.5028 2.58985 18.5584 4.592 18.5584C5.43945 18.5584 6.54092 19.6142 6.54092 20.4265C6.54092 21.4832 5.11415 22.5362 4.15054 22.1907V22.1907ZM45.0629 22.1942C44.4923 22.0842 43.7003 21.1275 43.7003 20.5482C43.7003 18.8449 45.7131 17.9269 46.8611 19.1065C48.1618 20.4429 46.9319 22.5545 45.0628 22.1943L45.0629 22.1942ZM24.2773 19.8927C22.9193 19.47 21.9697 18.048 21.9697 16.4375C21.9697 15.2783 22.3182 14.4565 23.1472 13.6606C23.9348 12.9047 25.9113 12.7611 26.8838 13.3892C27.6569 13.8886 28.4889 15.4806 28.4889 16.4605C28.4889 17.4256 27.6134 19.0478 26.8591 19.48C25.9893 19.9786 25.0407 20.1301 24.2773 19.8925L24.2773 19.8927ZM30.3023 15.9813C30.1405 15.548 29.9833 15.6655 32.3555 14.4467C34.2901 13.4528 34.7907 13.3495 34.7907 13.9443C34.7907 14.1647 30.9365 16.3258 30.5434 16.3258C30.4815 16.3258 30.3729 16.1708 30.3021 15.9813H30.3023ZM17.2433 15.0358C15.7657 14.2697 15.3846 13.8528 15.8761 13.5407C16.032 13.4417 18.9353 14.7523 19.3128 15.0921C19.4191 15.1877 19.1023 15.8797 18.9585 15.866C18.8816 15.8587 18.1098 15.4851 17.2433 15.0358L17.2433 15.0358ZM35.5833 12.4744C35.9126 10.6318 37.0332 9.85262 39.3542 9.85262C40.5882 9.85262 41.153 9.95846 41.6796 10.2884C42.4632 10.7793 43.0483 11.7806 43.0483 12.6307V13.2H35.4535L35.5833 12.4744ZM7.62679 12.3891C7.62679 11.5374 8.38954 10.4003 9.23853 9.98643C9.69238 9.76516 10.5443 9.62808 11.4624 9.62859C13.623 9.62979 14.752 10.4395 15.1197 12.251L15.267 12.9767H7.62669L7.62679 12.3891ZM24.794 10.0742C24.794 8.88348 24.8423 8.73464 25.2286 8.73464C25.6149 8.73464 25.6632 8.88349 25.6632 10.0742C25.6632 11.265 25.6149 11.4138 25.2286 11.4138C24.8423 11.4138 24.794 11.265 24.794 10.0742ZM38.4843 9.33879C37.3041 8.72544 37.1618 7.12399 38.2121 6.27524C39.7346 5.04476 41.6731 6.69574 40.9571 8.61308C40.8137 8.99691 39.7828 9.63001 39.3101 9.62449C39.1548 9.62268 38.7832 9.49415 38.4844 9.33886L38.4843 9.33879ZM10.5604 9.15581C9.87368 8.75536 9.58255 8.25906 9.58255 7.48873C9.58255 6.52693 10.1735 5.84649 11.1479 5.68621C11.8485 5.57099 12.0418 5.64536 12.6402 6.26012C13.222 6.85785 13.3062 7.07641 13.1883 7.6823C13.1116 8.07605 12.8798 8.57192 12.6731 8.78427C12.1833 9.28758 11.1101 9.47632 10.5604 9.15584V9.15581ZM21.4012 7.33922C21.7269 5.63085 23.0456 4.71675 25.1852 4.71608C27.2425 4.71557 28.5991 5.65358 28.8513 7.2514L28.9798 8.06484H21.2628L21.4012 7.33922ZM23.9083 3.83993C23.1631 3.07434 23.099 2.32424 23.7103 1.52571C24.7631 0.15056 26.9406 0.817209 26.9604 2.52072C26.9707 3.41386 26.7621 3.80484 26.0825 4.16592C25.1707 4.65038 24.6162 4.56724 23.9084 3.83993H23.9083Z" fill="#31600F" fill-opacity="0.8"/>
</g>
<defs>
<clipPath id="clip0_36:329">
<rect width="48.4594" height="29.0909" fill="white" transform="translate(0.891602 0.784058)"/>
</clipPath>
</defs>
</svg>
