<svg width="50" height="30" viewBox="0 0 50 30" fill="none" xmlns="http://www.w3.org/2000/svg">
<path d="M21.4013 29.6055C17.5874 29.2928 14.4966 28.4507 13.3969 27.4247C12.5708 26.654 12.5545 25.5793 13.3594 24.9489C13.9285 24.5031 15.6585 23.7893 16.8722 23.4995C17.432 23.3658 17.4888 23.4091 17.4885 23.9705C17.4882 24.5317 17.3672 24.6241 16.1767 24.9724C15.4554 25.1835 14.6231 25.5589 14.3272 25.8066L13.7892 26.2571L14.3259 26.676C14.6211 26.9064 15.3778 27.2518 16.0076 27.4434C18.7208 28.2693 19.8333 28.3828 25.2241 28.3835C30.9134 28.3844 33.1903 28.1079 35.3726 27.1514C37.1244 26.3835 36.8391 25.7185 34.4486 24.9975C33.4638 24.7004 33.0833 24.4661 32.9289 24.0617C32.8156 23.7649 32.7708 23.4744 32.8293 23.416C33.0431 23.2032 36.2311 24.31 36.9376 24.8424C40.8053 27.7571 31.9542 30.4707 21.4013 29.6054L21.4013 29.6055ZM18.1614 26.0797C18.1614 23.9763 19.5011 21.8687 21.3966 20.9899C22.3856 20.5313 22.8691 20.463 25.1121 20.4654C28.1318 20.4686 29.0152 20.7636 30.3199 22.2046C31.3053 23.2929 31.7718 24.3155 31.9735 25.8298L32.1205 26.9331H18.1613L18.1614 26.0797ZM0.00156009 25.2026C0.00335381 24.441 0.643489 23.4465 1.48916 22.8913C2.40679 22.2889 5.2089 22.2966 6.20979 22.9043C7.06556 23.4239 7.56535 24.1325 7.7602 25.1026L7.90359 25.8166H0L0.00157378 25.2026L0.00156009 25.2026ZM42.1518 25.4745C42.1518 24.8591 42.7543 23.7069 43.374 23.1374C43.9017 22.6524 44.2281 22.5689 45.8621 22.5008C47.4719 22.4336 47.8535 22.4905 48.511 22.895C49.3046 23.3834 49.9994 24.5285 49.9994 25.3481C49.9994 25.8062 49.9116 25.8167 46.0757 25.8167C42.7008 25.8167 42.1519 25.7688 42.1519 25.4746L42.1518 25.4745ZM8.96793 25.1468C8.96793 24.7499 9.11741 24.7003 10.3132 24.7003C11.509 24.7003 11.6585 24.7499 11.6585 25.1468C11.6585 25.5437 11.509 25.5933 10.3132 25.5933C9.11742 25.5933 8.96793 25.5437 8.96793 25.1468ZM38.6518 25.2402C38.7266 25.0459 38.7879 24.845 38.7879 24.7937C38.7879 24.7423 39.3428 24.7003 40.0211 24.7003C41.1048 24.7003 41.2542 24.7544 41.2542 25.1468C41.2542 25.5446 41.1048 25.5933 39.885 25.5933C38.7285 25.5933 38.5368 25.5385 38.6518 25.2402V25.2402ZM3.36255 22.081C1.38302 21.3931 1.75224 18.4487 3.81804 18.4487C4.69244 18.4487 5.82892 19.5045 5.82892 20.3168C5.82892 21.3735 4.35679 22.4265 3.36255 22.081V22.081ZM45.5756 22.0845C44.9869 21.9745 44.1697 21.0178 44.1697 20.4385C44.1697 18.7352 46.2464 17.8172 47.431 18.9967C48.773 20.3332 47.5041 22.4448 45.5755 22.0846L45.5756 22.0845ZM24.1291 19.783C22.728 19.3602 21.7482 17.9383 21.7482 16.3278C21.7482 15.1686 22.1078 14.3468 22.9632 13.5509C23.7758 12.795 25.8152 12.6514 26.8185 13.2795C27.6162 13.7789 28.4747 15.3709 28.4747 16.3508C28.4747 17.3159 27.5713 18.9381 26.7931 19.3703C25.8956 19.8688 24.9168 20.0204 24.1292 19.7828L24.1291 19.783ZM30.3457 15.8716C30.1788 15.4383 30.0166 15.5558 32.4642 14.337C34.4603 13.343 34.9768 13.2398 34.9768 13.8346C34.9768 14.055 31.0001 16.2161 30.5945 16.2161C30.5306 16.2161 30.4186 16.0611 30.3456 15.8716H30.3457ZM16.8715 14.9261C15.347 14.1599 14.9537 13.7431 15.4609 13.431C15.6217 13.332 18.6174 14.6426 19.0069 14.9823C19.1165 15.078 18.7897 15.77 18.6413 15.7563C18.562 15.749 17.7656 15.3754 16.8715 14.9261L16.8715 14.9261ZM35.7946 12.3647C36.1344 10.5221 37.2907 9.7429 39.6854 9.7429C40.9586 9.7429 41.5414 9.84875 42.0847 10.1787C42.8933 10.6696 43.497 11.6709 43.497 12.521V13.0903H35.6607L35.7946 12.3647ZM6.94932 12.2794C6.94932 11.4277 7.73631 10.2906 8.6123 9.87672C9.08057 9.65545 9.95961 9.51836 10.9069 9.51888C13.1361 9.52008 14.3011 10.3298 14.6805 12.1413L14.8324 12.867H6.94921L6.94932 12.2794ZM24.6623 9.96453C24.6623 8.77377 24.7121 8.62493 25.1108 8.62493C25.5094 8.62493 25.5592 8.77378 25.5592 9.96453C25.5592 11.1553 25.5094 11.3041 25.1108 11.3041C24.7121 11.3041 24.6623 11.1553 24.6623 9.96453ZM38.7879 9.22908C37.5701 8.61573 37.4233 7.01428 38.507 6.16553C40.0779 4.93505 42.0781 6.58603 41.3393 8.50337C41.1914 8.8872 40.1277 9.5203 39.6399 9.51478C39.4796 9.51297 39.0962 9.38444 38.7879 9.22915L38.7879 9.22908ZM9.97622 9.0461C9.26764 8.64565 8.96725 8.14935 8.96725 7.37902C8.96725 6.41722 9.57697 5.73678 10.5824 5.5765C11.3052 5.46128 11.5047 5.53565 12.1221 6.15041C12.7224 6.74814 12.8093 6.9667 12.6876 7.57259C12.6085 7.96634 12.3693 8.46221 12.1561 8.67455C11.6506 9.17787 10.5433 9.36661 9.97622 9.04613V9.0461ZM21.1617 7.2295C21.4977 5.52114 22.8583 4.60704 25.0659 4.60637C27.1886 4.60586 28.5883 5.54387 28.8486 7.14169L28.9812 7.95513H21.0189L21.1617 7.2295ZM23.7484 3.73021C22.9796 2.96463 22.9134 2.21453 23.5442 1.416C24.6305 0.0408497 26.8771 0.707498 26.8975 2.41101C26.9082 3.30415 26.693 3.69513 25.9918 4.05621C25.051 4.54067 24.4788 4.45753 23.7485 3.73021H23.7484Z" fill="#31600F" fill-opacity="0.8"/>
</svg>
