<svg width="223" height="130.52" version="1.1" viewBox="0 0 223 130.52" xmlns="http://www.w3.org/2000/svg">
<g transform="translate(-320.75 -52.256)">
<path d="m416.2 182.05c-17.01-1.4028-30.795-5.1809-35.7-9.7843-3.6843-3.4578-3.7568-8.2795-0.167-11.108 2.5382-1.9999 10.254-5.2027 15.667-6.5031 2.4969-0.59985 2.7499-0.40536 2.7486 2.1132-1e-3 2.5179-0.54105 2.9326-5.8506 4.4955-3.2171 0.94692-6.929 2.6312-8.2486 3.7428l-2.3994 2.0211 2.3937 1.8795c1.3165 1.0338 4.6915 2.5831 7.5 3.4431 12.101 3.7052 17.063 4.2144 41.106 4.2177 25.374 4e-3 35.529-1.2367 45.262-5.5282 7.8132-3.4451 6.5409-6.4285-4.1209-9.6636-4.3924-1.3328-6.0892-2.3839-6.778-4.1987-0.50537-1.3315-0.70516-2.6349-0.444-2.8966 0.95347-0.9551 15.172 4.011 18.323 6.3995 17.25 13.077-22.226 25.252-69.292 21.37zm-14.45-15.819c0-9.4368 5.9749-18.893 14.429-22.836 4.411-2.0575 6.5672-2.3637 16.571-2.3531 13.468 0.0143 17.408 1.3378 23.227 7.8031 4.3948 4.8827 6.4752 9.4709 7.3748 16.265l0.65556 4.9503h-62.258zm-80.993-3.9349c8e-3 -3.417 2.863-7.879 6.6347-10.37 4.0926-2.7028 16.59-2.6683 21.054 0.0582 3.8167 2.3312 6.0458 5.5107 6.9148 9.8632l0.63954 3.2032h-35.25l7e-3 -2.7547zm187.99 1.22c0-2.7614 2.6873-7.9308 5.4511-10.486 2.3535-2.1758 3.8092-2.5504 11.097-2.8562 7.1794-0.3012 8.8817-0.0463 11.814 1.7688 3.5396 2.1913 6.6384 7.3288 6.6384 11.006 0 2.0554-0.39188 2.1025-17.5 2.1025-15.052 0-17.5-0.21469-17.5-1.5347zm-148-1.4704c0-1.7808 0.66667-2.0034 6-2.0034 5.3333 0 6 0.2226 6 2.0034 0 1.7808-0.66666 2.0034-6 2.0034-5.3333 0-6-0.2226-6-2.0034zm132.39 0.41892c0.33385-0.87147 0.60699-1.773 0.60699-2.0034 0-0.2304 2.475-0.41893 5.5-0.41893 4.8333 0 5.5 0.24284 5.5 2.0034 0 1.7847-0.66667 2.0034-6.107 2.0034-5.1579 0-6.0127-0.24624-5.5-1.5845zm-157.39-14.174c-8.8287-3.0863-7.182-16.297 2.0315-16.297 3.8998 0 8.9685 4.7371 8.9685 8.3817 0 4.7409-6.5657 9.4653-11 7.9152zm188.27 0.0156c-2.6256-0.4934-6.2699-4.7859-6.2699-7.3849 0-7.6423 9.262-11.761 14.545-6.4687 5.9857 5.996 0.32613 15.47-8.2755 13.854zm-95.651-10.326c-6.2492-1.8967-10.619-8.2763-10.619-15.502 0-5.2012 1.6036-8.8882 5.4187-12.459 3.6242-3.3917 12.72-4.0358 17.195-1.2178 3.5578 2.2406 7.3865 9.3835 7.3865 13.78 0 4.3297-4.0291 11.608-7.5 13.547-4.0026 2.237-8.3681 2.9171-11.881 1.851zm27.726-17.549c-0.74467-1.9439-1.4681-1.4167 9.4486-6.8852 8.9024-4.4594 11.206-4.9228 11.206-2.254 0 0.98878-17.736 10.685-19.545 10.685-0.28499 0-0.78463-0.6956-1.1103-1.5458zm-60.095-4.2421c-6.7993-3.4374-8.5533-5.3076-6.2914-6.708 0.71736-0.44412 14.078 5.4362 15.815 6.9604 0.48914 0.42927-0.9686 3.5337-1.6305 3.4724-0.35365-0.0328-3.9055-1.7089-7.893-3.7249zm84.397-11.492c1.5156-8.2672 6.6724-11.763 17.353-11.763 5.6785 0 8.2775 0.47489 10.701 1.9554 3.6061 2.2025 6.2986 6.6948 6.2986 10.509v2.554h-34.95zm-128.65-0.38263c0-3.8213 3.51-8.9229 7.4169-10.78 2.0885-0.99277 6.009-1.6078 10.234-1.6055 9.9422 0.0054 15.138 3.6382 16.83 11.766l0.67762 3.2556h-35.159zm79-10.386c0-5.3425 0.22222-6.0103 2-6.0103s2 0.66781 2 6.0103c0 5.3425-0.22222 6.0103-2 6.0103s-2-0.66782-2-6.0103zm63-3.2997c-5.4312-2.7519-6.0861-9.937-1.2528-13.745 7.0064-5.5207 15.927 1.8866 12.632 10.489-0.65972 1.7221-5.4038 4.5626-7.5792 4.5378-0.71481-0.0081-2.4247-0.58478-3.7997-1.2815zm-128.5-0.82096c-3.1603-1.7967-4.5-4.0234-4.5-7.4796 0-4.3152 2.7193-7.3681 7.2036-8.0872 3.2237-0.51696 4.1135-0.18331 6.867 2.5749 2.6772 2.6818 3.0648 3.6624 2.5221 6.3808-0.35271 1.7666-1.4194 3.9914-2.3705 4.9441-2.2543 2.2582-7.1929 3.105-9.7222 1.6671zm49.887-8.1504c1.4987-7.6648 7.5671-11.766 17.413-11.769 9.4673-0.0023 15.71 4.2062 16.871 11.375l0.59124 3.6496h-35.512zm11.537-15.7c-3.429-3.4349-3.7242-6.8003-0.91089-10.383 4.8448-6.1698 14.865-3.1788 14.956 4.4642 0.0477 4.0072-0.91236 5.7614-4.0397 7.3814-4.1961 2.1736-6.7478 1.8006-10.005-1.4626z" stroke-width="1.0009"/>
</g>
</svg>
