<svg width="160" height="67" viewBox="0 0 160 67" fill="none" xmlns="http://www.w3.org/2000/svg">
<path d="M142.027 55.6805C139.486 55.3974 136.878 54.4485 134.775 53.042L133.91 52.464L136.056 52.423L137.084 52.9342C139.384 54.0782 141.682 54.5722 144.27 54.479C146.543 54.3972 148.693 53.8268 150.629 52.7921L151.312 52.4269H152.383C152.972 52.4269 153.436 52.4559 153.414 52.4912C153.314 52.6544 151.769 53.6141 150.94 54.028C149.383 54.8056 148.071 55.237 146.336 55.5416C145.316 55.7208 143.044 55.794 142.027 55.6806L142.027 55.6805Z" fill="#31600F" fill-opacity="0.3"/>
<path d="M155.63 49.5049L154.907 49.427L155.322 48.9086C156.911 46.9231 157.94 44.6076 158.419 41.9467C158.607 40.8961 158.644 38.8785 158.496 37.7097C158.136 34.8782 156.968 32.0908 155.299 30.0815C155.089 29.8287 154.917 29.6076 154.917 29.5902C154.917 29.5728 155.257 29.5444 155.672 29.527C156.293 29.5011 156.444 29.516 156.521 29.611C156.573 29.6745 156.861 30.0931 157.161 30.5412C157.837 31.5494 158.645 33.2128 159.037 34.4045C160.384 38.4952 160.032 43.0781 158.076 46.922C157.729 47.6029 156.53 49.4977 156.409 49.5563C156.378 49.5708 156.028 49.5477 155.63 49.5049L155.63 49.5049Z" fill="#31600F" fill-opacity="0.3"/>
<path d="M130.689 49.148C129.523 47.5909 128.538 45.4748 128.028 43.4311C127.431 41.0359 127.407 38.2457 127.964 35.8354C128.441 33.7669 129.709 31.0509 130.844 29.6627L131.017 29.452L131.64 29.6202C131.983 29.7127 132.276 29.7972 132.291 29.8081C132.305 29.8189 132.184 29.988 132.022 30.1839C130.952 31.4749 129.906 33.5019 129.395 35.2725C128.067 39.8823 128.981 44.8431 131.852 48.6084C132.098 48.9303 132.286 49.2068 132.27 49.2229C132.231 49.2613 131.185 49.534 131.07 49.5357C131.02 49.5364 130.849 49.362 130.689 49.1481L130.689 49.148Z" fill="#31600F" fill-opacity="0.3"/>
<path d="M134.034 26.5039C134.14 26.3322 135.72 25.3516 136.539 24.9503C138.141 24.1644 139.656 23.6905 141.437 23.4186C142.597 23.2416 144.851 23.2417 145.991 23.4188C148.425 23.7968 150.681 24.669 152.679 26.0045L153.482 26.5412L151.325 26.5821L150.525 26.1786C149.024 25.4215 147.765 24.9987 146.18 24.7186C145.045 24.5181 142.801 24.4799 141.672 24.6419C140.085 24.8699 138.609 25.3359 137.044 26.1034L136.076 26.5782H135.032C134.352 26.5782 134.004 26.5523 134.034 26.5038L134.034 26.5039Z" fill="#31600F" fill-opacity="0.3"/>
<g clip-path="url(#clip0_73:910)">
<path d="M142.579 55.729C140.986 55.6181 139.243 55.2284 137.795 54.6591C132.715 52.6629 128.979 48.26 127.858 42.9499C127.449 41.0104 127.412 38.6317 127.762 36.7302C128.206 34.3186 129.227 31.9442 130.641 30.0322C132.967 26.8888 136.359 24.6693 140.118 23.8313C141.438 23.5369 141.986 23.4831 143.664 23.4831C145.344 23.4831 145.889 23.5367 147.216 23.8322C151.717 24.8346 155.666 27.8222 157.861 31.8852C158.863 33.7397 159.454 35.6071 159.721 37.7665C159.83 38.6447 159.832 40.5055 159.726 41.3984C159.321 44.7976 157.994 47.763 155.722 50.351C153.663 52.6948 150.771 54.4644 147.734 55.2375C146.047 55.6668 144.206 55.8424 142.579 55.7291L142.579 55.729ZM145.861 54.998C147.998 54.6685 149.842 54.0162 151.619 52.9611C153.573 51.8011 155.362 50.0861 156.661 48.1281C157.16 47.3752 157.304 47.0102 157.369 46.3288C157.408 45.9239 157.452 45.7249 157.543 45.5459C157.61 45.4139 157.68 45.1933 157.699 45.0558C157.718 44.9172 157.812 44.6634 157.909 44.4864C158.064 44.2039 158.083 44.1302 158.076 43.8456C158.071 43.6688 158.093 43.4499 158.126 43.3593C158.228 43.0776 158.11 42.461 157.862 41.9783L157.655 41.5759L157.718 41.1534C157.779 40.7416 157.759 40.3254 157.672 40.1837C157.637 40.1268 157.591 40.1236 157.428 40.1669C157.232 40.2193 157.226 40.2171 157.126 40.0545C157.066 39.9578 156.983 39.8885 156.927 39.8885C156.716 39.8885 156.363 40.1266 156.131 40.4261C155.909 40.7122 155.886 40.7275 155.684 40.7275C155.532 40.7275 155.424 40.7637 155.302 40.8564C155.209 40.9273 155.036 41.0292 154.918 41.0828L154.704 41.1802L154.4 40.9936C153.737 40.5862 153.579 40.4753 153.578 40.4175C153.577 40.2253 153.467 40.0042 153.336 39.9296C153.256 39.8844 153.147 39.7619 153.093 39.6576C153.026 39.5255 152.943 39.4486 152.821 39.4045C152.684 39.3547 152.619 39.285 152.519 39.0799L152.391 38.8188L152.494 38.3565C152.619 37.7954 152.611 37.5999 152.461 37.5786C152.374 37.5662 152.34 37.5036 152.276 37.2331C152.232 37.0515 152.195 36.8362 152.192 36.7548C152.18 36.399 152.266 35.5589 152.328 35.4371C152.365 35.3638 152.395 35.2416 152.395 35.1657C152.395 35.0683 152.446 34.9838 152.569 34.8794C152.805 34.6793 152.845 34.4398 152.69 34.148C152.556 33.8946 152.578 33.6764 152.765 33.4228C152.849 33.3099 152.888 33.192 152.888 33.0562C152.888 32.8889 152.857 32.8259 152.698 32.6722C152.526 32.5048 152.501 32.4947 152.415 32.5596C152.253 32.6819 152.156 32.6506 152.121 32.4654C152.098 32.3421 152.058 32.2889 151.971 32.2671C151.869 32.2415 151.852 32.2079 151.852 32.0274C151.852 31.8698 151.817 31.7747 151.712 31.6459C151.546 31.4433 151.458 31.2848 151.458 31.1905C151.458 31.0932 151.773 30.9561 151.996 30.9561C152.113 30.9561 152.232 30.9185 152.303 30.8594L152.419 30.7628L152.292 30.5293C152.222 30.4009 152.123 30.2732 152.07 30.2455C152.018 30.2178 151.915 30.1553 151.842 30.1067C151.768 30.0581 151.632 30.0184 151.54 30.0184C151.447 30.0184 151.345 29.9871 151.313 29.9489C151.267 29.8924 151.288 29.8687 151.431 29.8217C151.615 29.7609 151.655 29.6889 151.532 29.6414C151.414 29.5963 151.446 29.5249 151.583 29.5249C151.7 29.5249 151.706 29.513 151.676 29.3502C151.651 29.2192 151.665 29.1515 151.73 29.0797C151.792 29.0114 151.802 28.9659 151.766 28.9213C151.699 28.8391 151.729 28.454 151.81 28.3567C151.862 28.2933 151.857 28.2689 151.779 28.2118C151.688 28.1451 151.688 28.1431 151.789 28.1431C151.846 28.1431 151.902 28.1158 151.913 28.0824C151.928 28.0383 151.971 28.0461 152.07 28.1113C152.205 28.1995 152.206 28.1994 152.177 28.0979C152.161 28.0413 152.136 27.9506 152.12 27.8963C152.088 27.783 152.189 27.7614 152.293 27.8593C152.347 27.9101 152.352 27.8949 152.323 27.7732C152.278 27.5832 152.228 27.5256 151.927 27.3182C151.791 27.2243 151.729 27.162 151.791 27.1797C151.854 27.1981 151.901 27.1906 151.901 27.1622C151.901 27.0848 151.695 26.9586 151.568 26.9586C151.434 26.9586 151.347 26.782 151.416 26.6507C151.473 26.5409 151.356 26.3541 151.179 26.2735C151.002 26.1929 150.984 26.2329 151.107 26.4314C151.233 26.6351 151.237 26.6915 151.128 26.733C151.022 26.7738 150.52 26.472 150.224 26.19C150.018 25.9928 149.731 25.8561 149.731 25.9548C149.731 25.9785 149.852 26.0704 150 26.1589C150.169 26.2599 150.309 26.3903 150.375 26.5094C150.455 26.6501 150.557 26.735 150.774 26.8387C150.935 26.9155 151.118 27.0462 151.182 27.1289C151.246 27.2117 151.389 27.3461 151.5 27.4275C151.611 27.5089 151.694 27.5978 151.685 27.6249C151.675 27.652 151.702 27.7131 151.743 27.7606C151.81 27.8382 151.81 27.847 151.741 27.847C151.698 27.847 151.628 27.8606 151.584 27.8771C151.53 27.8982 151.514 27.8857 151.533 27.836C151.567 27.7484 151.274 27.5365 150.973 27.4304L150.76 27.3552L150.792 27.5024C150.834 27.694 150.763 27.694 150.398 27.5022C149.906 27.2428 149.82 27.15 149.68 26.7262C149.565 26.379 149.535 26.3327 149.365 26.2483C149.254 26.1937 149.122 26.0683 149.047 25.9462C148.976 25.8314 148.845 25.6901 148.757 25.6321C148.594 25.5248 148.547 25.3668 148.657 25.2984C148.745 25.2443 149.534 25.2751 149.696 25.339C149.794 25.3775 149.83 25.4223 149.819 25.4949C149.809 25.5728 149.843 25.6078 149.966 25.6435C150.297 25.7395 150.227 25.5177 149.873 25.3457C148.853 24.8509 147.084 24.3623 145.623 24.1722C143.26 23.8646 140.432 24.1822 138.328 24.9916C137.994 25.1202 137.934 25.1625 137.823 25.3528C137.754 25.4713 137.618 25.6172 137.521 25.6769C137.297 25.8157 137.327 25.8451 137.596 25.7501C137.867 25.6542 137.893 25.656 137.893 25.7716C137.893 25.8277 137.95 25.8945 138.029 25.9324C138.197 26.0128 138.246 26.2184 138.097 26.2184C137.943 26.2184 137.914 26.3227 138.04 26.4248C138.123 26.4918 138.197 26.5083 138.316 26.4859C138.429 26.4648 138.604 26.4966 138.879 26.5882C139.333 26.7395 139.388 26.7254 139.654 26.3915C139.798 26.2102 140.295 25.8412 140.337 25.8837C140.392 25.9387 140.296 26.059 140.135 26.1358C140.032 26.1848 139.931 26.2861 139.882 26.3895C139.805 26.5503 139.805 26.5678 139.882 26.6531C139.975 26.7553 139.989 26.9201 139.917 27.0545C139.831 27.2147 139.384 27.4588 138.999 27.555C138.475 27.686 138.154 27.8716 137.981 28.1431C137.762 28.4884 137.799 28.6635 138.14 28.8933C138.289 28.9938 138.539 29.1242 138.695 29.1831C138.851 29.242 138.978 29.3042 138.977 29.3212C138.976 29.3383 138.91 29.4394 138.829 29.5461C138.663 29.766 138.65 29.8619 138.759 30.0733C138.815 30.1805 138.866 30.2177 138.943 30.2066C139.06 30.1896 139.138 30.0595 139.235 29.7226C139.288 29.5374 139.349 29.4642 139.605 29.2785C139.774 29.1562 139.912 29.0272 139.913 28.992C139.915 28.9567 139.882 28.8634 139.842 28.7846C139.769 28.6437 139.771 28.6388 139.965 28.4827C140.141 28.3413 140.162 28.3006 140.162 28.1086C140.162 27.8405 140.225 27.8109 140.561 27.9224C140.881 28.0286 141.063 28.2014 141.171 28.5009C141.217 28.6298 141.281 28.7348 141.313 28.7343C141.345 28.7337 141.433 28.6449 141.509 28.5369C141.586 28.4289 141.678 28.3405 141.714 28.3405C141.779 28.3405 142.078 28.7474 142.093 28.8548C142.097 28.8841 142.103 29.007 142.106 29.1279L142.111 29.3477L142.474 29.5547C143.022 29.867 143.018 29.8617 142.887 30.2292C142.826 30.3983 142.776 30.5606 142.776 30.5898C142.776 30.6191 142.891 30.6696 143.032 30.702C143.172 30.7344 143.316 30.7854 143.352 30.8152C143.438 30.8867 143.436 31.159 143.348 31.2791C143.28 31.3725 143.275 31.3722 143.082 31.2638C142.944 31.186 142.805 31.1535 142.609 31.1535C142.356 31.1535 142.332 31.1442 142.332 31.0434C142.332 30.9829 142.381 30.8166 142.44 30.6739C142.499 30.5312 142.534 30.4006 142.517 30.3837C142.5 30.3668 142.356 30.4554 142.196 30.5805C141.993 30.7406 141.861 30.808 141.753 30.808C141.412 30.808 141.247 30.9865 141.247 31.3559C141.247 31.4738 141.275 31.5019 141.432 31.5457C141.702 31.6206 141.813 31.6099 141.913 31.499C142.08 31.3148 142.249 31.4083 142.095 31.5991C142.004 31.7109 140.972 32.1098 140.896 32.0626C140.824 32.0185 140.906 31.907 141.078 31.8147C141.171 31.7644 141.247 31.7032 141.247 31.6787C141.247 31.6046 140.94 31.6783 140.594 31.8353C140.337 31.9518 140.23 32.0356 140.091 32.228C139.944 32.4334 139.866 32.4904 139.607 32.5836C139.263 32.7076 139.147 32.7984 138.893 33.1431C138.77 33.3114 138.703 33.3654 138.666 33.3282C138.572 33.2346 138.541 33.2711 138.51 33.51C138.441 34.0301 138.465 33.9972 137.976 34.2355C137.718 34.3607 137.401 34.5646 137.24 34.7086C136.92 34.9941 136.905 35.0552 137.029 35.5704C137.114 35.9223 137.124 36.2557 137.053 36.3882C137.006 36.4763 136.99 36.4782 136.862 36.4116C136.699 36.3274 136.662 36.2191 136.661 35.8279C136.66 35.6709 136.628 35.4655 136.589 35.3714C136.527 35.2233 136.494 35.2002 136.348 35.2002C136.231 35.2002 136.158 35.1684 136.11 35.0972C136.057 35.0165 135.952 34.981 135.624 34.9333C135.361 34.895 135.177 34.8894 135.129 34.9181C135.079 34.9484 134.99 34.9371 134.864 34.8846C134.594 34.7714 134.408 34.786 134.067 34.9473C133.639 35.1499 133.5 35.3431 133.307 36.0048C133.033 36.9422 133.033 36.9425 133.131 37.2087C133.265 37.5718 133.429 37.799 133.586 37.8377C133.663 37.8566 133.799 37.9427 133.888 38.029L134.051 38.186L134.146 38.0626C134.198 37.9947 134.309 37.8116 134.392 37.6557C134.558 37.3482 134.652 37.273 134.874 37.273C135.035 37.273 135.328 37.3639 135.328 37.414C135.328 37.4319 135.284 37.4744 135.23 37.5083C135.175 37.5422 135.131 37.6098 135.131 37.6585C135.131 37.7073 135.051 37.8237 134.954 37.9172C134.8 38.066 134.78 38.1101 134.801 38.2696C134.819 38.4094 134.797 38.4894 134.707 38.6123C134.562 38.8081 134.557 38.8688 134.688 38.8273C134.749 38.8079 134.851 38.835 134.952 38.8978C135.09 38.9828 135.143 38.9911 135.268 38.9475C135.395 38.9031 135.456 38.9146 135.669 39.0226C135.807 39.0926 135.92 39.1716 135.92 39.198C135.92 39.2244 135.859 39.3961 135.785 39.5796C135.584 40.0737 135.598 40.3304 135.846 40.7007C136.076 41.0424 136.218 41.1063 136.428 40.9611C136.61 40.8349 136.851 40.8795 137.082 41.082C137.177 41.1657 137.264 41.2257 137.274 41.2153C137.284 41.2049 137.391 41.0617 137.512 40.8971C137.722 40.6113 137.753 40.5895 138.206 40.4159C138.468 40.3159 138.709 40.2341 138.744 40.2341C138.854 40.2341 139.392 40.5126 139.589 40.6718L139.781 40.8262H140.408C140.977 40.8262 141.051 40.8365 141.199 40.9373C141.293 41.0012 141.387 41.1216 141.42 41.221C141.466 41.3616 141.517 41.4076 141.691 41.4678C141.857 41.525 141.974 41.6243 142.205 41.9059L142.505 42.2701L142.916 42.2385C143.325 42.207 143.327 42.2073 143.712 42.4079C144.14 42.6302 144.144 42.6362 144.3 43.264C144.382 43.5925 144.431 43.6874 144.608 43.8685C144.83 44.0949 144.944 44.1315 145.045 44.0093C145.079 43.9686 145.139 43.9353 145.178 43.9353C145.344 43.9353 145.741 44.155 145.863 44.3142C145.982 44.4712 146.008 44.4825 146.181 44.4533C146.316 44.4304 146.405 44.4446 146.495 44.5036C146.597 44.5705 146.687 44.5794 146.982 44.5517L147.344 44.5178L147.637 44.769C147.899 44.9926 147.956 45.0202 148.16 45.0206C148.373 45.0211 148.394 45.0323 148.444 45.1765C148.474 45.2619 148.498 45.4635 148.498 45.6243C148.498 45.9103 148.492 45.9228 148.233 46.1968C148.087 46.3508 147.91 46.6004 147.839 46.7513C147.746 46.9489 147.666 47.047 147.55 47.1019L147.389 47.1781L147.389 47.5924C147.388 47.994 147.38 48.0243 147.114 48.5744C146.963 48.8865 146.765 49.227 146.674 49.3308C146.527 49.4984 146.49 49.5163 146.345 49.4891C146.211 49.464 146.074 49.5092 145.601 49.7334C145.282 49.8846 144.993 50.0452 144.959 50.0903C144.925 50.1355 144.897 50.2572 144.897 50.3608C144.897 50.5242 144.872 50.5672 144.704 50.6845C144.597 50.7589 144.497 50.8683 144.482 50.9277C144.466 50.9871 144.37 51.0827 144.268 51.1403C144.167 51.1978 144.006 51.3532 143.911 51.4855C143.763 51.6919 143.694 51.7407 143.427 51.8289L143.115 51.9317L142.885 51.8298C142.758 51.7738 142.61 51.6867 142.555 51.6363C142.445 51.5345 142.084 51.373 142.048 51.4092C141.98 51.4767 142.112 51.5795 142.425 51.702C142.744 51.8275 142.778 51.8546 142.824 52.0204C142.852 52.12 142.875 52.2498 142.875 52.3087C142.875 52.4193 142.806 52.4348 142.086 52.4855C141.923 52.4969 141.912 52.509 141.898 52.6886C141.882 52.8736 141.877 52.8788 141.725 52.8532C141.639 52.8387 141.526 52.8102 141.474 52.7899C141.392 52.7573 141.385 52.7698 141.413 52.8967C141.516 53.3556 141.519 53.3381 141.314 53.4178L141.124 53.4916L141.334 53.6002C141.449 53.6599 141.543 53.72 141.543 53.7336C141.543 53.7473 141.488 53.7795 141.421 53.8051C141.346 53.8337 141.309 53.8782 141.325 53.9208C141.342 53.9638 141.309 54.0009 141.24 54.0191L141.128 54.0484L141.244 54.1716C141.307 54.2394 141.501 54.3455 141.673 54.4075C141.846 54.4695 141.987 54.5401 141.987 54.5645C141.987 54.5892 141.794 54.5977 141.55 54.5838C141.085 54.5573 140.806 54.46 140.274 54.1387C139.99 53.9675 139.964 53.9117 139.647 52.7959C139.495 52.2609 139.493 52.2091 139.624 51.7774L139.728 51.4366L139.622 51.0874C139.552 50.8585 139.5 50.4975 139.47 50.0387C139.364 48.4023 139.378 48.4908 139.206 48.3608C139.122 48.2965 138.881 48.1499 138.671 48.035C138.178 47.7649 137.809 47.4311 137.687 47.1455C137.634 47.022 137.528 46.8544 137.451 46.773C137.373 46.6916 137.149 46.3473 136.953 46.0081C136.757 45.6688 136.507 45.2598 136.399 45.0992L136.201 44.8072L136.29 44.5474C136.363 44.3328 136.368 44.2505 136.324 44.0744C136.276 43.8865 136.283 43.8312 136.386 43.6064C136.45 43.4662 136.56 43.3137 136.631 43.2676C136.709 43.2163 136.759 43.1382 136.759 43.0665C136.759 42.9873 136.814 42.913 136.929 42.8377C137.132 42.7046 137.152 42.6432 137.153 42.1476C137.153 41.8525 137.131 41.7297 137.055 41.6047C137.001 41.5158 136.956 41.3981 136.956 41.3431C136.956 41.1844 136.813 41.016 136.693 41.0332C136.634 41.0415 136.532 41.1321 136.466 41.2344L136.346 41.4205L136.195 41.2739C136.098 41.18 135.968 41.1152 135.834 41.0938C135.647 41.064 135.624 41.0459 135.624 40.9261C135.624 40.8168 135.587 40.775 135.424 40.7013C135.202 40.6014 135.163 40.5416 134.936 39.9521C134.787 39.5659 134.767 39.5388 134.499 39.3777C134.345 39.2847 134.149 39.1939 134.065 39.176C133.956 39.1528 133.84 39.0542 133.661 38.8303C133.411 38.5183 133.409 38.5169 133.099 38.4826C132.8 38.4494 132.777 38.4366 132.508 38.1566C132.354 37.9964 132.213 37.8205 132.196 37.766C132.179 37.7114 132.1 37.6331 132.02 37.592C131.936 37.5483 131.876 37.4774 131.876 37.4215C131.876 37.3688 131.809 37.2499 131.728 37.1572C131.562 36.968 131.549 36.8786 131.649 36.5954C131.772 36.2474 131.794 35.7951 131.7 35.5457C131.567 35.189 131.474 34.1444 131.545 33.8061C131.57 33.6897 131.566 33.621 131.535 33.621C131.434 33.621 131.376 34.0151 131.352 34.8548C131.338 35.3298 131.317 35.7684 131.305 35.8295C131.275 35.9736 131.198 35.9736 131.204 35.8295C131.206 35.7684 131.177 35.4919 131.14 35.2151C131.077 34.7543 131.078 34.6927 131.157 34.4868C131.204 34.3631 131.236 34.1788 131.228 34.0772C131.219 33.9756 131.277 33.6317 131.357 33.313C131.485 32.7969 131.494 32.7144 131.438 32.558C131.382 32.4041 131.387 32.3389 131.481 32.0292C131.717 31.2527 132.076 30.676 132.785 29.933C133.298 29.3949 133.317 29.367 133.438 28.9707C133.543 28.6282 133.595 28.5347 133.764 28.3898C134.13 28.0739 134.365 27.8195 134.49 27.6028C134.566 27.4708 134.713 27.3239 134.874 27.2203C135.082 27.0858 135.163 26.9919 135.28 26.7503C135.361 26.5842 135.42 26.4422 135.413 26.4348C135.406 26.4273 135.194 26.5606 134.942 26.731C133.601 27.6391 132.214 28.957 131.25 30.2404C129.212 32.954 128.129 36.1883 128.127 39.5677C128.124 44.6052 130.474 49.2189 134.561 52.199C136.754 53.798 139.397 54.8021 142.16 55.0853C142.924 55.1637 145.122 55.1118 145.861 54.9979L145.861 54.998ZM140.125 38.7694C139.995 38.7169 140.129 38.6541 140.372 38.6541C140.605 38.6541 140.618 38.6598 140.529 38.7266C140.435 38.798 140.246 38.8181 140.125 38.7694H140.125ZM138.374 38.6429C138.078 38.5812 138.071 38.5061 138.362 38.5061C138.603 38.5061 138.626 38.4688 138.503 38.2807C138.459 38.213 138.431 38.1497 138.442 38.1402C138.491 38.0956 139.244 38.367 139.398 38.4852C139.606 38.6435 139.594 38.6788 139.354 38.6126C139.225 38.5771 139.107 38.5826 138.918 38.6331C138.775 38.6711 138.647 38.6999 138.633 38.697C138.62 38.6942 138.503 38.6698 138.374 38.6429L138.374 38.6429ZM137.659 38.0764C137.598 38.0646 137.548 38.0248 137.548 37.9878C137.548 37.9508 137.506 37.9072 137.455 37.8908C137.403 37.8745 137.335 37.7963 137.302 37.7169C137.261 37.618 137.186 37.5544 137.062 37.5144C136.963 37.4823 136.752 37.391 136.593 37.3114C136.362 37.1956 136.267 37.1731 136.116 37.1986C135.941 37.2282 135.93 37.223 135.956 37.1234C135.981 37.0267 136.005 37.0196 136.211 37.0492C136.646 37.1118 137.219 37.3305 137.404 37.5046C137.501 37.5958 137.742 37.7554 137.939 37.8591C138.2 37.9964 138.275 38.0564 138.215 38.0795C138.127 38.1133 137.842 38.1117 137.659 38.0764L137.659 38.0764ZM150.918 29.3824C150.878 29.2871 150.818 29.2282 150.761 29.2282C150.703 29.2282 150.668 29.1933 150.668 29.1348C150.668 29.0834 150.633 29.0276 150.589 29.0108C150.522 28.9851 150.52 28.9678 150.575 28.9015C150.63 28.8348 150.626 28.8121 150.546 28.754C150.495 28.7162 150.419 28.6853 150.378 28.6853C150.337 28.6853 150.236 28.6199 150.153 28.5399C150.07 28.4599 149.914 28.3655 149.805 28.3301C149.627 28.2719 149.607 28.2484 149.593 28.0808C149.575 27.8667 149.635 27.845 149.77 28.0165C149.839 28.1043 149.88 28.1225 149.919 28.083C149.958 28.0436 149.99 28.0656 150.035 28.1639C150.081 28.2646 150.212 28.3531 150.551 28.5118C150.802 28.6288 151.035 28.7696 151.069 28.8247C151.125 28.9147 151.137 28.9168 151.189 28.8457C151.239 28.778 151.256 28.7926 151.307 28.9481C151.34 29.0479 151.392 29.1295 151.424 29.1295C151.455 29.1295 151.392 29.1891 151.284 29.2621C151.176 29.335 151.064 29.4266 151.035 29.4656C150.991 29.5234 150.97 29.5081 150.918 29.3823V29.3824ZM150.013 29.4204C149.956 29.3872 149.935 29.336 149.954 29.2764C149.975 29.2079 149.944 29.1638 149.832 29.1061C149.656 29.0151 149.641 28.9516 149.785 28.9061C149.864 28.8808 149.881 28.8465 149.858 28.7547C149.824 28.6209 149.849 28.6134 150.069 28.6902C150.181 28.7292 150.225 28.7752 150.225 28.8552C150.225 28.9162 150.269 29.0063 150.323 29.0555C150.463 29.1822 150.445 29.3121 150.276 29.3997C150.107 29.4874 150.125 29.486 150.013 29.4204L150.013 29.4204ZM144.256 28.3647C143.89 28.2298 143.642 27.9868 143.441 27.5657C143.276 27.2185 143.284 27.1041 143.492 26.9154C143.587 26.829 143.664 26.7383 143.664 26.7139C143.664 26.6895 143.542 26.565 143.392 26.4371C143.243 26.3093 143.126 26.1799 143.133 26.1495C143.14 26.1192 143.085 26.0155 143.012 25.9191C142.912 25.7876 142.816 25.7278 142.63 25.6801C142.494 25.6451 142.368 25.5939 142.351 25.5662C142.308 25.497 142.428 25.4298 142.595 25.4289C142.689 25.4284 142.786 25.3727 142.897 25.2554C143.043 25.0996 143.085 25.0827 143.325 25.0827C143.473 25.0827 143.723 25.0351 143.892 24.9746C144.166 24.8762 144.218 24.872 144.47 24.9284C144.756 24.9925 144.877 25.0947 145.054 25.4191C145.103 25.5096 145.236 25.621 145.383 25.6958C145.521 25.7657 145.645 25.867 145.663 25.9254C145.681 25.9829 145.786 26.1167 145.895 26.2228L146.094 26.4157L145.855 26.4031C145.663 26.393 145.613 26.4071 145.599 26.4749C145.584 26.5487 145.613 26.5556 145.831 26.5297C146.215 26.4843 146.161 26.6335 145.725 26.8263C145.514 26.9197 145.436 26.9829 145.412 27.0779C145.394 27.1477 145.35 27.2048 145.313 27.2048C145.276 27.2048 145.223 27.2483 145.195 27.3014C145.166 27.3552 145.067 27.4122 144.971 27.4302C144.876 27.448 144.799 27.4697 144.799 27.4785C144.799 27.4873 144.82 27.5492 144.845 27.6162C144.881 27.7105 144.872 27.7555 144.805 27.8162C144.735 27.8791 144.723 27.9526 144.74 28.1912C144.765 28.543 144.753 28.5475 144.256 28.3647L144.256 28.3647ZM141.337 28.0175C140.934 27.8076 140.854 27.5917 141.102 27.383C141.219 27.2848 141.254 27.2125 141.26 27.0629C141.27 26.8281 141.191 26.7238 140.976 26.6833C140.762 26.6431 140.636 26.6867 140.561 26.8271C140.478 26.9815 140.253 27.1077 140.122 27.0733C139.971 27.0339 139.986 26.9857 140.219 26.7593C140.405 26.5782 140.419 26.5496 140.367 26.4362C140.284 26.2532 140.288 26.2457 140.564 26.0951C140.771 25.9828 140.836 25.9674 140.909 26.0132C140.959 26.0443 141.08 26.0697 141.177 26.0697C141.312 26.0697 141.361 26.0931 141.38 26.1651C141.394 26.2176 141.489 26.316 141.592 26.3839C141.722 26.4703 141.788 26.5562 141.811 26.671C141.836 26.7902 141.918 26.8923 142.113 27.0468C142.409 27.2803 142.448 27.4054 142.254 27.4941C142.146 27.5434 142.1 27.5367 141.962 27.4511C141.753 27.3218 141.709 27.3898 141.866 27.6019C142.049 27.8504 142.028 27.9089 141.765 27.888C141.643 27.8783 141.543 27.8768 141.543 27.8848C141.543 27.8927 141.579 27.9539 141.623 28.0208C141.727 28.1802 141.648 28.1793 141.337 28.0175L141.337 28.0175ZM146.718 27.3386C146.475 27.1749 146.495 27.0773 146.767 27.098C146.887 27.1071 147.082 27.0874 147.2 27.0543C147.39 27.0011 147.427 27.0043 147.513 27.0824C147.64 27.1972 147.636 27.2799 147.501 27.3747C147.331 27.494 146.92 27.475 146.718 27.3386L146.718 27.3386ZM138.786 26.3597C138.689 26.2813 138.625 26.2697 138.441 26.2974C138.241 26.3273 138.222 26.3224 138.277 26.2562C138.311 26.2148 138.328 26.1504 138.314 26.113C138.299 26.0727 138.359 25.9998 138.461 25.9336C138.659 25.8053 138.702 25.6465 138.523 25.7034C138.425 25.7343 138.42 25.729 138.478 25.6592C138.542 25.5821 138.912 25.4264 139.19 25.3596L139.328 25.3266L139.252 25.4736C139.143 25.6846 139.153 25.7081 139.373 25.7432C139.482 25.7606 139.57 25.792 139.57 25.8129C139.57 25.8503 139.124 26.2941 138.979 26.4014C138.922 26.4432 138.877 26.4335 138.786 26.3597L138.786 26.3597ZM141.219 25.5311C141.266 25.4792 141.297 25.385 141.288 25.3219C141.275 25.229 141.305 25.1959 141.445 25.1477C141.54 25.115 141.68 25.087 141.756 25.0855C141.835 25.0839 141.882 25.0616 141.864 25.0334C141.844 25.0014 142.039 24.9854 142.416 24.9879C142.736 24.9901 142.976 25 142.949 25.0099C142.922 25.0199 142.807 25.0519 142.694 25.081C142.58 25.1101 142.371 25.2124 142.229 25.3084C141.985 25.4725 141.52 25.6232 141.252 25.6248C141.138 25.6255 141.137 25.6217 141.219 25.5311L141.219 25.5311ZM146.402 24.9645C146.027 24.8237 145.884 24.7467 145.884 24.6846C145.884 24.4984 146.477 24.6568 146.721 24.908C146.927 25.1206 146.853 25.1337 146.402 24.9645ZM153.492 32.7152C153.512 32.6837 153.528 32.6247 153.529 32.584C153.53 32.4558 153.721 32.1892 153.812 32.1883C153.86 32.1878 153.998 32.1205 154.119 32.0388C154.239 31.957 154.39 31.877 154.454 31.861C154.532 31.8414 154.579 31.785 154.598 31.6897C154.614 31.6116 154.652 31.5476 154.683 31.5476C154.801 31.5476 155.108 31.8019 155.132 31.9191C155.146 31.9862 155.169 32.0967 155.183 32.1645C155.197 32.2324 155.236 32.2879 155.27 32.2879C155.305 32.2879 155.37 32.3315 155.415 32.3849C155.492 32.4744 155.512 32.4764 155.668 32.4109C155.825 32.3453 155.848 32.3477 155.97 32.4443C156.089 32.538 156.489 32.6055 156.489 32.5319C156.489 32.5168 156.433 32.4292 156.366 32.3372C156.227 32.15 156.208 31.9591 156.312 31.8168C156.378 31.7263 156.386 31.7258 156.476 31.8074C156.577 31.8989 156.767 31.9187 156.876 31.8493C156.929 31.816 156.931 31.7841 156.886 31.7001C156.854 31.6413 156.842 31.5508 156.859 31.4989C156.899 31.3712 156.384 30.5979 156.244 30.5766C156.181 30.5669 156.144 30.5886 156.144 30.6349C156.144 30.7762 156.026 30.7064 155.68 30.3603C155.488 30.1688 155.324 30.0355 155.314 30.0642C155.305 30.093 155.265 30.1165 155.227 30.1165C155.098 30.1165 155.155 30.2053 155.452 30.4703C155.658 30.6541 155.756 30.7816 155.779 30.8937C155.819 31.0942 155.702 31.1163 155.581 30.9314C155.537 30.8639 155.415 30.7648 155.31 30.7112C155.205 30.6576 155.046 30.5185 154.957 30.4021C154.732 30.1086 154.671 30.0671 154.465 30.0671C154.344 30.0671 154.253 30.0327 154.191 29.9634C154.092 29.8539 153.926 29.7577 153.735 29.6986C153.635 29.6677 153.622 29.678 153.636 29.7787C153.655 29.9086 153.979 30.1086 154.393 30.2448C154.751 30.3628 155.009 30.5171 155.009 30.613C155.009 30.659 155.042 30.7242 155.083 30.758C155.127 30.7946 155.157 30.9024 155.157 31.0245C155.157 31.1373 155.193 31.2804 155.236 31.3424C155.336 31.4845 155.301 31.5215 155.123 31.4621C155.001 31.4213 154.984 31.3907 154.983 31.2115C154.98 30.8895 154.849 30.7631 154.309 30.5592C154.051 30.4617 153.776 30.3311 153.697 30.269L153.554 30.1561L153.529 30.3213C153.508 30.465 153.483 30.4898 153.337 30.5113C153.123 30.5426 153.062 30.6855 153.191 30.851C153.303 30.9951 153.309 31.1457 153.205 31.1859C153.107 31.2235 153.145 31.4753 153.294 31.7661C153.376 31.9286 153.385 31.99 153.342 32.1051C153.312 32.1825 153.301 32.2775 153.316 32.3164C153.334 32.364 153.281 32.413 153.152 32.4664C152.902 32.5709 152.865 32.638 152.997 32.748C153.079 32.8158 153.149 32.8299 153.28 32.8052C153.376 32.7871 153.472 32.7466 153.492 32.7152L153.492 32.7152ZM155.193 29.3313C155.193 29.157 155.158 29.1032 154.83 28.7773C154.592 28.5414 154.466 28.4458 154.466 28.5015C154.466 28.5483 154.433 28.5866 154.392 28.5866C154.291 28.5866 154.299 28.6424 154.43 28.8367C154.511 28.9566 155.124 29.5122 155.187 29.5233C155.19 29.5238 155.193 29.4374 155.193 29.3313L155.193 29.3313Z" fill="#31600F" fill-opacity="0.3"/>
</g>
<g clip-path="url(#clip1_73:910)">
<path d="M66.4422 59.6503H64.9222V66.646H65.876V61.699L66.6907 66.646H67.7239L68.479 61.6291V66.646H69.5124V59.6503H67.9922L67.247 64.6173L66.4422 59.6503Z" fill="#171A1A"/>
<path d="M81.3388 63.4389L81.7859 61.7199V66.6469H82.7694V59.6512H81.5672L80.673 62.5394L80.2756 64.0785V59.6512H79.302V66.6469H80.4246L81.3388 63.4389Z" fill="#171A1A"/>
<path d="M93.4492 59.6503H91.8396V66.646H92.9326V64.0177H93.4492C94.5419 64.0177 95.0786 63.408 95.0786 62.2887V61.3791C95.0786 60.2599 94.5419 59.6503 93.4492 59.6503ZM93.4492 60.6497C93.7969 60.6497 93.9856 60.8097 93.9856 61.3093V62.3586C93.9856 62.8583 93.7969 63.0183 93.4492 63.0183H92.9326V60.6497H93.4492Z" fill="#171A1A"/>
<path d="M14.914 51.6756V50.2445H15.3442C15.7302 50.2445 16.0914 50.2167 16.4278 50.1613C16.7642 50.1058 17.0592 49.9921 17.3129 49.8201C17.5665 49.6482 17.765 49.4013 17.9084 49.0796C18.0518 48.7579 18.1235 48.3308 18.1235 47.7982V34.3022L6.77454 47.116V47.7982C6.77454 48.3308 6.84898 48.7579 6.99788 49.0796C7.14677 49.4013 7.3453 49.6482 7.59346 49.8201C7.84161 49.9921 8.13663 50.1058 8.47854 50.1613C8.82044 50.2167 9.17888 50.2445 9.55387 50.2445H10.0005V51.6756H0.140495V50.2445H0.570638C0.956661 50.2445 1.31786 50.2167 1.65424 50.1613C1.99063 50.1058 2.28567 49.9921 2.53934 49.8201C2.793 49.6482 2.99153 49.4013 3.13491 49.0796C3.27828 48.7579 3.34997 48.3308 3.34997 47.7982V31.0905C3.34997 30.5913 3.27552 30.1891 3.12663 29.884C2.97774 29.579 2.77645 29.3432 2.52279 29.1768C2.26912 29.0104 1.9741 28.9022 1.63771 28.8523C1.30132 28.8024 0.945626 28.7774 0.570638 28.7774H0.140495V27.3463H10.0005V28.7774H9.55387C9.17888 28.7774 8.82044 28.8051 8.47854 28.8606C8.13663 28.9161 7.84161 29.0298 7.59346 29.2017C7.3453 29.3737 7.14677 29.6206 6.99788 29.9423C6.84898 30.264 6.77454 30.6911 6.77454 31.2237V44.7197L18.1235 31.9059V31.2237C18.1235 30.6911 18.0518 30.264 17.9084 29.9423C17.765 29.6206 17.5665 29.3737 17.3129 29.2017C17.0592 29.0298 16.7642 28.9161 16.4278 28.8606C16.0914 28.8051 15.7302 28.7774 15.3442 28.7774H14.914V27.3463H24.7739V28.7774H24.3274C23.9524 28.7774 23.5939 28.8051 23.2521 28.8606C22.91 28.9161 22.615 29.0298 22.3669 29.2017C22.1188 29.3737 21.9202 29.6206 21.7712 29.9423C21.6224 30.264 21.548 30.6911 21.548 31.2237V47.9647C21.548 48.4639 21.6224 48.8661 21.7712 49.1711C21.9202 49.4762 22.1216 49.7064 22.3752 49.8617C22.6288 50.0171 22.9238 50.1197 23.2601 50.1696C23.5967 50.2195 23.9524 50.2445 24.3274 50.2445H24.7739V51.6756H14.914V51.6756Z" fill="#171A1A"/>
<path d="M35.314 50.1779C36.1081 50.1779 36.836 50.0836 37.4979 49.895C38.1596 49.7064 38.7248 49.3958 39.1936 48.9631C39.6623 48.5305 40.0263 47.9647 40.2854 47.2657C40.5447 46.5668 40.6742 45.707 40.6742 44.6864C40.6742 43.9762 40.5502 43.3272 40.302 42.7392C40.0539 42.1512 39.6844 41.652 39.1936 41.2416C38.7027 40.8311 38.0962 40.5121 37.3738 40.2847C36.6514 40.0573 35.8159 39.9436 34.8675 39.9436H31.9888V38.2129H34.8675C35.6175 38.2129 36.315 38.0908 36.9602 37.8468C37.6053 37.6027 38.1679 37.2505 38.6477 36.7901C39.1274 36.3297 39.5051 35.7749 39.781 35.1259C40.0566 34.4769 40.1944 33.7475 40.1944 32.9376C40.1944 32.272 40.1118 31.6785 39.9463 31.157C39.781 30.6356 39.5189 30.1918 39.1605 29.8257C38.802 29.4596 38.336 29.1823 37.7626 28.9937C37.189 28.8051 36.4997 28.7108 35.6945 28.7108C34.7461 28.7108 33.9713 28.8495 33.3703 29.1268C32.7691 29.4042 32.2976 29.7758 31.9557 30.2418C31.6138 30.7077 31.3822 31.2458 31.2609 31.856C31.1397 32.4662 31.079 33.1096 31.079 33.7863C30.6709 33.7863 30.2904 33.753 29.9375 33.6865C29.5845 33.6199 29.2756 33.5006 29.0109 33.3287C28.7463 33.1567 28.5394 32.9293 28.3906 32.6464C28.2416 32.3635 28.1672 32.0057 28.1672 31.573C28.1672 30.9185 28.3272 30.3111 28.647 29.7508C28.9668 29.1906 29.4439 28.708 30.078 28.303C30.7123 27.8981 31.4981 27.5791 32.4355 27.3462C33.3731 27.1132 34.4594 26.9967 35.6945 26.9967C36.8747 26.9967 37.9582 27.1076 38.9455 27.3295C39.9325 27.5514 40.7818 27.8953 41.4931 28.3613C42.2045 28.8272 42.7588 29.418 43.1559 30.1336C43.5529 30.8491 43.7513 31.7006 43.7513 32.688C43.7513 33.5755 43.6079 34.3576 43.3212 35.0343C43.0345 35.7111 42.6457 36.2991 42.1548 36.7983C41.6642 37.2975 41.0878 37.7108 40.4261 38.0381C39.7644 38.3654 39.0531 38.6178 38.292 38.7953V38.9617C38.9206 39.0393 39.5934 39.178 40.3102 39.3777C41.0271 39.5774 41.6918 39.8908 42.3038 40.3179C42.9159 40.745 43.4233 41.3136 43.8258 42.0236C44.2284 42.7336 44.4296 43.6322 44.4296 44.7196C44.4296 46.0398 44.1843 47.1631 43.6934 48.0894C43.2026 49.0158 42.5409 49.7729 41.7081 50.3609C40.8756 50.9489 39.9104 51.3788 38.8131 51.6506C37.7157 51.9224 36.5604 52.0583 35.3471 52.0583C33.9134 52.0583 32.7029 51.9279 31.7159 51.6672C30.7288 51.4065 29.9292 51.0737 29.317 50.6688C28.7049 50.2638 28.2637 49.8118 27.9936 49.3125C27.7234 48.8133 27.5882 48.3196 27.5882 47.8315C27.5882 46.9883 27.8418 46.356 28.3492 45.9344C28.8566 45.5128 29.5514 45.302 30.4337 45.302C30.4337 45.9011 30.5302 46.4919 30.7233 47.0743C30.9162 47.6567 31.2112 48.1782 31.6083 48.6386C32.0053 49.099 32.51 49.4706 33.122 49.7535C33.7342 50.0364 34.4649 50.1779 35.314 50.1779V50.1779Z" fill="#171A1A"/>
<path d="M67.9706 51.6756V50.2445H68.0863C68.4502 50.2445 68.7783 50.2195 69.0707 50.1696C69.3629 50.1197 69.611 50.0198 69.8152 49.8701C70.0191 49.7203 70.1819 49.5039 70.3031 49.2211C70.4245 48.9382 70.4962 48.5637 70.5182 48.0978V29.8924L62.7592 51.6754H60.9229L53.0646 29.9589V47.7982C53.0646 48.3308 53.1198 48.7579 53.2302 49.0796C53.3403 49.4013 53.5031 49.6482 53.7181 49.8201C53.9332 49.9921 54.1924 50.1058 54.4956 50.1613C54.7991 50.2167 55.1382 50.2445 55.5132 50.2445H55.6123V51.6756H47.7872V50.2445H48.2174C48.5924 50.2445 48.948 50.2195 49.2844 50.1696C49.6208 50.1197 49.916 50.017 50.1696 49.8617C50.4232 49.7064 50.6245 49.4762 50.7733 49.1711C50.9223 48.866 50.9968 48.4639 50.9968 47.9647V31.0905C50.9968 30.5913 50.9223 30.1891 50.7733 29.884C50.6245 29.5789 50.4232 29.3432 50.1696 29.1768C49.916 29.0104 49.6208 28.9022 49.2844 28.8523C48.948 28.8024 48.5924 28.7774 48.2174 28.7774H47.7872V27.3463H55.5132L62.5276 46.8328L69.476 27.3463H76.9868V28.7774H76.5567C76.1707 28.7774 75.8095 28.8051 75.4731 28.8606C75.1367 28.9161 74.8416 29.0298 74.5879 29.2017C74.3343 29.3737 74.1357 29.6206 73.9925 29.9423C73.849 30.264 73.7773 30.6911 73.7773 31.2237V47.7983C73.7773 48.3308 73.849 48.7579 73.9925 49.0796C74.1357 49.4013 74.3343 49.6482 74.5879 49.8201C74.8416 49.9921 75.1367 50.1058 75.4731 50.1613C75.8095 50.2168 76.1707 50.2445 76.5567 50.2445H76.9868V51.6756H67.9706V51.6756Z" fill="#171A1A"/>
<path d="M86.2014 49.9782H92.7362C93.2765 49.9782 93.737 49.9033 94.1175 49.7535C94.498 49.6038 94.815 49.4013 95.0687 49.1462C95.3224 48.891 95.5209 48.5942 95.6643 48.2559C95.8076 47.9175 95.9069 47.5597 95.9621 47.1825L96.1936 45.7181H97.9639L97.7322 51.6756H79.5674V50.2445H79.9974C80.3724 50.2445 80.7283 50.2195 81.0646 50.1696C81.401 50.1196 81.696 50.017 81.9496 49.8617C82.2034 49.7064 82.4046 49.4762 82.5535 49.1711C82.7023 48.866 82.7768 48.4639 82.7768 47.9646V31.2236C82.7768 30.6911 82.7051 30.264 82.5618 29.9423C82.4184 29.6205 82.2199 29.3737 81.9661 29.2017C81.7125 29.0298 81.4175 28.916 81.0812 28.8606C80.7448 28.8051 80.3834 28.7774 79.9974 28.7774H79.5674V27.3462H96.6403L96.8059 33.3037H95.0521L94.8868 31.8393C94.8426 31.4621 94.7571 31.1043 94.6304 30.7659C94.5035 30.4275 94.3214 30.1308 94.0844 29.8756C93.8473 29.6204 93.5494 29.418 93.191 29.2682C92.8325 29.1184 92.3998 29.0435 91.8924 29.0435H86.2014V38.1131H94.3739V39.7772H86.2014V49.9783V49.9782Z" fill="#171A1A"/>
<path d="M115.104 51.6756V50.2445H115.551C115.937 50.2445 116.298 50.2167 116.635 50.1613C116.971 50.1058 117.263 49.9921 117.512 49.8201C117.76 49.6482 117.958 49.4013 118.107 49.0796C118.256 48.7579 118.33 48.3308 118.33 47.7982V39.8104H107.312V47.7982C107.312 48.3308 107.387 48.7579 107.536 49.0796C107.685 49.4013 107.883 49.6482 108.131 49.8201C108.379 49.9921 108.675 50.1058 109.016 50.1613C109.358 50.2167 109.717 50.2445 110.092 50.2445H110.538V51.6756H100.678V50.2445H101.109C101.495 50.2445 101.856 50.2167 102.192 50.1613C102.529 50.1058 102.824 49.9921 103.077 49.8201C103.331 49.6482 103.529 49.4013 103.673 49.0796C103.816 48.7579 103.888 48.3308 103.888 47.7982V31.0905C103.888 30.5913 103.813 30.1891 103.665 29.884C103.516 29.579 103.314 29.3432 103.061 29.1768C102.807 29.0104 102.512 28.9022 102.176 28.8523C101.839 28.8024 101.484 28.7774 101.109 28.7774H100.678V27.3463H110.538V28.7774H110.092C109.717 28.7774 109.358 28.8051 109.016 28.8606C108.675 28.9161 108.379 29.0298 108.131 29.2017C107.883 29.3737 107.685 29.6206 107.536 29.9423C107.387 30.264 107.312 30.6911 107.312 31.2237V38.113H118.33V31.2237C118.33 30.6911 118.256 30.264 118.107 29.9423C117.958 29.6206 117.76 29.3737 117.512 29.2017C117.263 29.0298 116.971 28.9161 116.635 28.8606C116.298 28.8051 115.937 28.7774 115.551 28.7774H115.104V27.3463H124.964V28.7774H124.534C124.148 28.7774 123.787 28.8051 123.451 28.8606C123.114 28.9161 122.819 29.0298 122.566 29.2017C122.312 29.3737 122.113 29.6206 121.97 29.9423C121.827 30.264 121.755 30.6911 121.755 31.2237V47.9647C121.755 48.4639 121.829 48.8661 121.978 49.1711C122.127 49.4762 122.328 49.7064 122.582 49.8617C122.836 50.0171 123.131 50.1197 123.467 50.1696C123.804 50.2195 124.159 50.2445 124.534 50.2445H124.964V51.6756H115.104V51.6756Z" fill="#171A1A"/>
<path d="M146.157 51.6756V50.2445H146.587C146.973 50.2445 147.335 50.2167 147.671 50.1613C148.007 50.1058 148.303 49.9921 148.556 49.8201C148.81 49.6482 149.008 49.4013 149.152 49.0796C149.295 48.7579 149.367 48.3308 149.367 47.7982V34.3022L138.018 47.116V47.7982C138.018 48.3308 138.092 48.7579 138.241 49.0796C138.39 49.4013 138.589 49.6482 138.837 49.8201C139.085 49.9921 139.38 50.1058 139.722 50.1613C140.064 50.2167 140.422 50.2445 140.797 50.2445H141.244V51.6756H131.384V50.2445H131.814C132.2 50.2445 132.561 50.2167 132.897 50.1613C133.234 50.1058 133.529 49.9921 133.783 49.8201C134.036 49.6482 134.235 49.4013 134.378 49.0796C134.522 48.7579 134.593 48.3308 134.593 47.7982V31.0905C134.593 30.5913 134.519 30.1891 134.37 29.884C134.221 29.5789 134.02 29.3432 133.766 29.1768C133.512 29.0104 133.217 28.9022 132.881 28.8523C132.545 28.8024 132.189 28.7774 131.814 28.7774H131.384V27.3462H141.244V28.7774H140.797C140.422 28.7774 140.064 28.8051 139.722 28.8606C139.38 28.9161 139.085 29.0298 138.837 29.2017C138.589 29.3737 138.39 29.6206 138.241 29.9423C138.092 30.264 138.018 30.6911 138.018 31.2237V44.7197L149.367 31.9059V31.2237C149.367 30.6911 149.295 30.264 149.152 29.9423C149.008 29.6206 148.81 29.3737 148.556 29.2017C148.303 29.0298 148.007 28.9161 147.671 28.8606C147.335 28.8051 146.973 28.7774 146.587 28.7774H146.157V27.3462H156.017V28.7774H155.571C155.196 28.7774 154.837 28.8051 154.495 28.8606C154.153 28.9161 153.858 29.0298 153.61 29.2017C153.362 29.3737 153.164 29.6206 153.015 29.9423C152.866 30.264 152.791 30.6911 152.791 31.2237V47.9647C152.791 48.4639 152.866 48.8661 153.015 49.1711C153.164 49.4762 153.365 49.7064 153.619 49.8617C153.872 50.0171 154.167 50.1197 154.504 50.1696C154.84 50.2195 155.196 50.2445 155.571 50.2445H156.017V51.6756H146.157V51.6756ZM137.411 24.536C139.413 23.6844 141.51 23.2586 143.701 23.2586C145.892 23.2586 147.988 23.6844 149.99 24.536C151.263 25.0779 152.441 25.7666 153.522 26.6024H151.309C150.733 26.2589 150.132 25.9539 149.505 25.6875C147.659 24.9017 145.724 24.5088 143.701 24.5088C141.677 24.5088 139.743 24.9017 137.896 25.6875C137.269 25.9539 136.668 26.2589 136.092 26.6024H133.879C134.96 25.7667 136.138 25.0779 137.411 24.536ZM158.587 33.1843C159.433 35.1977 159.857 37.3065 159.857 39.5105C159.857 41.7145 159.433 43.8233 158.587 45.8368C158.014 47.1982 157.277 48.4506 156.374 49.5938L156.365 49.5886L156.333 49.5722L156.3 49.5574L156.266 49.5443L156.231 49.5328L156.196 49.523L156.161 49.515L156.125 49.5088L156.089 49.5043L156.053 49.5017L156.017 49.5008H155.574L155.503 49.5006L155.269 49.4947L155.047 49.4819L154.859 49.4646C155.943 48.2398 156.803 46.8682 157.442 45.3498C158.223 43.4919 158.614 41.5457 158.614 39.5105C158.614 37.4755 158.223 35.529 157.442 33.6713C156.806 32.1599 155.951 30.7939 154.874 29.5736L156.057 29.5192L156.093 29.5163L156.129 29.5116L156.165 29.5053L156.2 29.4971L156.235 29.4872L156.269 29.4757L156.303 29.4624L156.335 29.4476L156.368 29.4311L156.374 29.4273C157.277 30.5705 158.014 31.8228 158.587 33.1844V33.1843ZM149.989 54.4848C147.987 55.3364 145.891 55.7623 143.7 55.7623C141.509 55.7623 139.413 55.3364 137.411 54.4848C136.137 53.943 134.96 53.2541 133.878 52.4185H136.092C136.668 52.7619 137.269 53.067 137.895 53.3334C139.742 54.1192 141.677 54.5121 143.7 54.5121C145.723 54.5121 147.658 54.1192 149.505 53.3334C150.131 53.067 150.733 52.7619 151.309 52.4185H153.522C152.44 53.2541 151.263 53.943 149.989 54.4848ZM128.814 45.8366C127.967 43.8231 127.544 41.7143 127.544 39.5103C127.544 37.3063 127.967 35.1975 128.814 33.1841C129.386 31.8227 130.124 30.5704 131.026 29.4272L131.047 29.4386L131.077 29.4529L131.106 29.4658L131.137 29.4774L131.168 29.4876L131.199 29.4965L132.319 29.8142C131.339 30.9728 130.553 32.2584 129.959 33.6712C129.177 35.5291 128.787 37.4754 128.787 39.5104C128.787 41.5454 129.177 43.4918 129.959 45.3497C130.557 46.7727 131.351 48.0668 132.34 49.2319L131.193 49.5259L131.162 49.5351L131.131 49.5455L131.101 49.5571L131.072 49.5702L131.043 49.5845L131.026 49.5937C130.124 48.4505 129.386 47.1982 128.814 45.8367V45.8366Z" fill="black" fill-opacity="0.012027"/>
<path d="M131.419 50.9933V50.3009L132.141 50.2534C133.169 50.1856 133.572 50.0476 134.002 49.6144C134.631 48.9821 134.592 49.6974 134.57 39.3131L134.55 30.1707L134.389 29.8674C134.195 29.5036 133.798 29.1386 133.425 28.982C133.191 28.8837 132.108 28.7344 131.585 28.7284C131.426 28.7266 131.419 28.7012 131.419 28.0599V27.3934H141.217V28.7132L140.572 28.7593C139.509 28.8353 139.032 28.9908 138.635 29.3897C137.981 30.0467 138.018 29.6404 137.993 36.54C137.98 39.8802 137.98 43.0952 137.991 43.6847L138.012 44.7564L149.412 31.8855L149.373 31.1391C149.328 30.2501 149.183 29.7988 148.823 29.4263C148.426 29.0157 148.044 28.8786 147.036 28.7853L146.152 28.7037V27.3932H156.023V28.7125L155.305 28.7618C154.079 28.8459 153.554 29.072 153.138 29.6959C153.028 29.8604 152.902 30.1678 152.859 30.379C152.804 30.6437 152.786 33.5591 152.799 39.7616L152.819 48.7601L153.029 49.1897C153.378 49.9041 153.943 50.1729 155.267 50.2544L156.023 50.3009V51.6866L146.189 51.6485L146.147 50.3012L146.917 50.2538C148.212 50.1742 148.904 49.7894 149.217 48.9743C149.35 48.6292 149.357 48.2712 149.377 41.4323C149.388 37.4835 149.379 34.2709 149.357 34.2931C149.334 34.3154 146.765 37.213 143.647 40.732L137.978 47.1305L137.977 47.5378C137.976 48.1181 138.106 48.8433 138.268 49.1627C138.474 49.5696 138.941 49.9566 139.386 50.0895C139.6 50.1532 140.099 50.2268 140.495 50.2529L141.217 50.3004V51.6853H131.419L131.419 50.9933Z" fill="black" fill-opacity="0.03"/>
<path d="M131.434 51.0007L131.455 50.3157L132.203 50.2619C133.146 50.1941 133.642 50.014 134.058 49.5879C134.613 49.0185 134.584 49.593 134.585 39.3134L134.586 30.1627L134.375 29.8334C134.105 29.4123 133.807 29.1332 133.48 28.996C133.201 28.8788 132.245 28.7265 131.789 28.7265C131.446 28.7265 131.418 28.6686 131.418 27.9428V27.3934H141.216V28.7042L140.495 28.7517C139.54 28.8146 139.106 28.9526 138.683 29.3271C138.25 29.7095 138.158 29.8901 138.056 30.5552C137.957 31.199 137.94 44.7498 138.038 44.7115C138.073 44.6979 140.641 41.8206 143.745 38.3175L149.388 31.948L149.39 31.3407C149.395 30.1165 149.09 29.4508 148.351 29.0725C148.015 28.9002 147.771 28.8435 147.062 28.7731L146.188 28.6863L146.167 28.0397L146.145 27.3932H156.022V28.7263L155.636 28.7278C154.478 28.7322 153.599 29.031 153.227 29.5466C152.76 30.1958 152.781 29.7112 152.781 39.6664V48.728L152.974 49.1143C153.224 49.617 153.339 49.7412 153.739 49.9439C154.162 50.1584 154.418 50.2124 155.283 50.2692L155.985 50.3154L156.007 50.9914L156.028 51.6674L151.145 51.63C148.459 51.6094 146.257 51.5884 146.251 51.5835C146.246 51.5785 146.229 51.2911 146.215 50.9449L146.188 50.3154L146.593 50.296C147.704 50.2428 148.48 50.0039 148.855 49.5997C148.944 49.5035 149.093 49.2586 149.186 49.0554L149.356 48.686L149.376 41.4649L149.396 34.2439L149.217 34.429C149.119 34.5308 146.544 37.4297 143.497 40.8709L137.955 47.1277L137.995 47.8698C138.018 48.2779 138.077 48.7285 138.127 48.8711C138.339 49.4739 138.869 49.9736 139.471 50.1365C139.627 50.1787 140.075 50.2361 140.466 50.2642L141.179 50.3153L141.221 51.6854H131.412L131.434 51.0007Z" fill="black" fill-opacity="0.03"/>
<path d="M131.419 51.5184C131.42 51.4268 131.441 51.1282 131.467 50.8549L131.513 50.3579L131.853 50.3175C133.371 50.1369 133.612 50.0547 134.093 49.5552C134.608 49.0195 134.585 49.5133 134.586 39.2968L134.587 30.1302L134.412 29.854C133.967 29.1488 133.538 28.9052 132.546 28.7931C131.536 28.679 131.516 28.6732 131.466 28.4861C131.441 28.394 131.421 28.1103 131.42 27.8557L131.419 27.3928H141.216V28.021C141.216 28.7429 141.283 28.6879 140.332 28.7562C139.447 28.82 139.028 28.9793 138.591 29.419C138.374 29.6376 138.17 29.9261 138.114 30.0961C138.036 30.3328 138.011 31.834 137.993 37.5648C137.979 42.2622 137.996 44.7284 138.044 44.7117C138.118 44.6858 138.428 44.3384 145.399 36.4789L149.393 31.9745V31.2894C149.393 29.5426 148.81 28.9358 146.94 28.7371C146.583 28.6991 146.281 28.6561 146.269 28.6414C146.256 28.6268 146.226 28.3398 146.201 28.0038L146.157 27.3927H156.023V28.7258H155.504C154.873 28.7258 154.1 28.8942 153.706 29.1173C153.31 29.3416 152.96 29.8247 152.862 30.2816C152.807 30.5426 152.782 33.4541 152.782 39.7372V48.8156L153.009 49.2141C153.415 49.9286 153.887 50.165 155.12 50.2727C155.543 50.3096 155.898 50.3508 155.911 50.3643C155.923 50.3779 155.957 50.6669 155.986 51.0068L156.04 51.6246L151.204 51.5993C147.004 51.5773 146.358 51.5593 146.298 51.4628C146.215 51.3317 146.2 50.3522 146.281 50.3513C146.583 50.348 147.742 50.1777 148.032 50.0939C148.52 49.9532 148.971 49.5547 149.205 49.0577L149.394 48.6561L149.375 41.4509L149.356 34.2457L144.791 39.3919C142.281 42.2223 139.715 45.1147 139.091 45.8197L137.955 47.1015L137.992 47.8935C138.015 48.3641 138.077 48.7981 138.146 48.9631C138.486 49.7775 139.113 50.1539 140.322 50.2698C140.742 50.31 141.095 50.3533 141.106 50.3659C141.118 50.3785 141.152 50.6805 141.181 51.0369L141.234 51.6849H131.419L131.42 51.5183L131.419 51.5184Z" fill="black" fill-opacity="0.03"/>
<path d="M131.445 51.4083C131.47 51.2556 131.491 50.9589 131.491 50.749L131.492 50.3675L131.952 50.3184C133.238 50.1812 133.622 50.0444 134.092 49.5562C134.608 49.0204 134.584 49.517 134.585 39.2715L134.586 30.0787L134.285 29.6704C133.861 29.0947 133.493 28.9135 132.451 28.7675C131.986 28.7023 131.578 28.6209 131.544 28.5867C131.51 28.5525 131.463 28.2701 131.44 27.9591L131.397 27.3938H141.216L141.215 27.9308C141.214 28.2261 141.184 28.5137 141.149 28.5699C141.108 28.6352 140.857 28.693 140.454 28.7299C139.352 28.8309 139.015 28.9568 138.549 29.4428C137.973 30.0424 138.014 29.4567 137.991 37.5288C137.978 42.0195 137.996 44.7286 138.039 44.7129C138.139 44.6761 140.01 42.584 147.322 34.3319L149.41 31.9752L149.375 31.1102C149.335 30.1662 149.245 29.8638 148.878 29.4427C148.521 29.0347 148.02 28.8652 146.649 28.6889C146.254 28.6382 146.25 28.6298 146.205 27.8567L146.179 27.3938H156.022V28.7075L155.267 28.7446C154.045 28.8046 153.352 29.1549 152.989 29.8967L152.818 30.2452L152.798 39.5216C152.779 48.7101 152.78 48.8008 152.928 49.0921C153.324 49.8736 153.806 50.1401 155.073 50.2791C155.494 50.3253 155.859 50.3858 155.884 50.4136C155.909 50.4413 155.95 50.7223 155.975 51.038L156.02 51.612H153.124C149.681 51.612 146.491 51.5379 146.358 51.4548C146.294 51.4154 146.262 51.2256 146.262 50.8933V50.3913L147.075 50.272C147.522 50.2064 148.003 50.1143 148.145 50.0674C148.518 49.9434 148.925 49.5776 149.174 49.1416L149.391 48.7606L149.392 41.5211C149.392 37.5393 149.368 34.2837 149.337 34.2865C149.307 34.2892 148.884 34.743 148.398 35.295C147.912 35.847 145.359 38.7288 142.725 41.6992L137.936 47.0999L137.988 47.9208C138.03 48.5889 138.076 48.8159 138.234 49.1407C138.567 49.8262 139.143 50.1444 140.295 50.279C140.7 50.3264 141.052 50.3874 141.077 50.4147C141.102 50.4419 141.143 50.7392 141.167 51.0752L141.211 51.6862H131.399L131.445 51.4085L131.445 51.4083Z" fill="black" fill-opacity="0.03"/>
<path d="M131.477 51.0748C131.495 50.7387 131.531 50.4441 131.557 50.4199C131.583 50.3958 131.902 50.3376 132.267 50.2905C133.15 50.1765 133.406 50.0976 133.827 49.8102C134.066 49.6472 134.243 49.4482 134.367 49.2012L134.551 48.8344L134.59 30.0393L134.389 29.7713C133.87 29.0787 133.605 28.9371 132.484 28.7534C132.057 28.6835 131.663 28.5903 131.608 28.5464C131.549 28.5001 131.485 28.2403 131.456 27.9295L131.405 27.3925H141.239L141.196 27.9591C141.17 28.3047 141.116 28.5491 141.057 28.5856C141.004 28.6185 140.778 28.6658 140.555 28.6908C139.838 28.7711 139.375 28.8671 139.122 28.9881C138.762 29.1598 138.215 29.7304 138.109 30.0456C138.039 30.2537 138.012 32.019 137.994 37.5206C137.982 41.482 137.997 44.723 138.029 44.723C138.061 44.7229 138.487 44.2813 138.975 43.7416C139.618 43.0325 147.469 34.1964 149.324 32.0955C149.441 31.9627 149.448 31.8584 149.394 31.0847C149.325 30.0919 149.188 29.6985 148.786 29.3443C148.435 29.034 147.884 28.837 147.049 28.7229C146.255 28.6144 146.227 28.5833 146.227 27.8322V27.3926H156.024V28.0207C156.024 28.7459 156.091 28.6928 155.103 28.7524C154.008 28.8186 153.332 29.1867 152.964 29.9166L152.783 30.2761V48.8031L152.938 49.1149C153.329 49.8997 153.815 50.1562 155.214 50.3167C155.927 50.3985 155.894 50.3574 155.976 51.2717L156.009 51.6354L151.652 51.577C149.255 51.5448 147.079 51.4978 146.816 51.4725L146.337 51.4264L146.315 50.9287C146.29 50.3554 146.176 50.4307 147.368 50.2348C147.774 50.1683 148.221 50.0538 148.363 49.9804C148.66 49.8269 149.006 49.471 149.235 49.0846L149.394 48.8167V41.5488C149.394 37.5515 149.368 34.281 149.335 34.281C149.282 34.281 138.341 46.5731 138.033 46.9784C137.841 47.231 137.97 48.5942 138.237 49.1434C138.583 49.8534 139.054 50.1163 140.315 50.3022C140.69 50.3574 141.019 50.4245 141.046 50.4513C141.103 50.5089 141.2 51.6042 141.152 51.6524C141.134 51.6706 138.942 51.6856 136.282 51.6856H131.444L131.477 51.0748Z" fill="black" fill-opacity="0.03"/>
<path d="M131.508 51.0932C131.526 50.7672 131.559 50.4829 131.581 50.4613C131.602 50.4398 131.981 50.36 132.422 50.2842C132.863 50.2083 133.306 50.1127 133.408 50.0716C133.797 49.914 134.219 49.5311 134.401 49.1708L134.586 48.8023V29.9979L134.298 29.6307C133.831 29.0375 133.643 28.9546 132.059 28.6481C131.576 28.5544 131.544 28.5101 131.466 27.8183L131.418 27.3925H141.234L141.181 27.8868C141.1 28.6503 141.18 28.5823 140.185 28.7257C139.881 28.7695 139.513 28.8374 139.367 28.8765C138.985 28.979 138.454 29.4143 138.217 29.8198L138.012 30.1698L137.99 37.4463C137.978 41.7571 137.996 44.7229 138.036 44.7229C138.125 44.7229 139.163 43.5719 144.747 37.282L149.478 31.9519L149.43 31.246C149.366 30.3041 149.225 29.8216 148.909 29.4703C148.563 29.0854 148.169 28.9133 147.219 28.7321C146.779 28.6483 146.388 28.5483 146.35 28.5099C146.312 28.4714 146.263 28.2043 146.243 27.9162L146.206 27.3925H156.023L156.022 27.9295C156.021 28.2248 155.993 28.5101 155.959 28.5635C155.921 28.6241 155.624 28.6866 155.17 28.7298C153.952 28.8457 153.454 29.0975 152.99 29.8325L152.782 30.1618L152.782 39.5347L152.782 48.9077L152.937 49.1669C153.371 49.8951 153.848 50.1521 155.065 50.3154C155.774 50.4103 155.794 50.4199 155.873 50.7091C155.915 50.8589 155.949 51.123 155.949 51.2962L155.949 51.6109L155.158 51.6096C153.364 51.6069 146.722 51.4607 146.563 51.4205C146.422 51.3849 146.382 51.3128 146.344 51.022C146.281 50.55 146.336 50.4387 146.656 50.3838C148.356 50.093 148.565 49.9987 149.117 49.2713L149.393 48.9076L149.393 41.5939C149.393 37.5714 149.366 34.2802 149.334 34.2802C149.267 34.2802 148.453 35.1848 143.602 40.6496C137.485 47.5408 137.901 47.0473 137.903 47.4079C137.906 47.9491 138.044 48.7195 138.206 49.0993C138.502 49.7919 139.037 50.113 140.222 50.3113C140.627 50.3791 140.983 50.4584 141.012 50.4874C141.041 50.5164 141.087 50.7756 141.114 51.0634L141.162 51.5866L139.44 51.6356C138.493 51.6625 136.313 51.6846 134.596 51.6847L131.474 51.6849L131.508 51.0932Z" fill="black" fill-opacity="0.03"/>
<path d="M131.526 51.119C131.555 50.7989 131.601 50.5159 131.627 50.49C131.654 50.4642 131.974 50.389 132.339 50.3228C132.704 50.2567 133.122 50.1692 133.268 50.1284C133.656 50.0202 134.12 49.6547 134.368 49.2604L134.586 48.9157V29.9394L134.219 29.5261C133.794 29.0463 133.537 28.9252 132.491 28.7121C132.083 28.629 131.71 28.5285 131.661 28.4887C131.613 28.449 131.553 28.2609 131.528 28.0707C131.504 27.8806 131.468 27.65 131.45 27.5584L131.415 27.3917H141.234L141.188 27.6232C141.163 27.7505 141.142 27.9607 141.142 28.0904C141.142 28.492 141.026 28.5683 140.221 28.6956C139.104 28.8722 138.616 29.1443 138.183 29.8303L137.974 30.161V37.4416C137.974 41.446 138 44.7222 138.032 44.7222C138.157 44.7222 138.659 44.1666 145.82 36.1024C149.372 32.1025 149.43 32.032 149.452 31.6975C149.487 31.1947 149.33 30.148 149.175 29.8419C148.86 29.2215 148.463 28.9884 147.264 28.7192C146.85 28.6264 146.466 28.5147 146.411 28.4709C146.354 28.4263 146.287 28.1724 146.258 27.8915L146.208 27.3916H156.022L156.022 27.7064C156.02 28.2244 155.939 28.5697 155.81 28.6089C155.745 28.6289 155.399 28.681 155.042 28.7246C153.941 28.8593 153.481 29.0983 153.017 29.7772L152.781 30.1215V48.9462L152.963 49.2361C153.362 49.8719 153.855 50.1382 154.954 50.3136C155.413 50.3868 155.723 50.4736 155.776 50.5439C155.866 50.6625 155.991 51.5179 155.927 51.5815C155.883 51.6263 148.089 51.4819 147.127 51.4184C146.364 51.3681 146.337 51.3442 146.386 50.7515L146.409 50.4632L147.255 50.291C148.406 50.0566 148.587 49.961 149.117 49.3059L149.393 48.965V41.6219C149.393 37.468 149.365 34.2788 149.328 34.2788C149.253 34.2788 148.548 35.0583 144.304 39.8334C137.272 47.7471 137.901 46.9957 137.901 47.4762C137.901 48.0517 138.048 48.7925 138.235 49.1653C138.57 49.8298 139.042 50.1112 140.171 50.3188C140.918 50.456 141.069 50.5479 141.069 50.8648C141.069 50.979 141.089 51.1731 141.113 51.2963C141.153 51.4978 141.137 51.5241 140.947 51.5604C140.832 51.5826 138.653 51.6229 136.105 51.6501L131.473 51.6995L131.526 51.119Z" fill="black" fill-opacity="0.03"/>
<path d="M131.518 51.4019C131.542 51.252 131.563 51.0294 131.564 50.9072C131.565 50.785 131.594 50.6408 131.628 50.5868C131.662 50.5328 132.055 50.4109 132.5 50.316C133.631 50.0753 133.95 49.8888 134.425 49.1924L134.584 48.9587V29.8586L134.16 29.4519C133.701 29.0118 133.489 28.9192 132.319 28.6483C131.57 28.4749 131.629 28.5381 131.502 27.7808L131.437 27.392H136.333C140.768 27.392 141.226 27.403 141.185 27.5091C141.161 27.5736 141.141 27.7735 141.141 27.9535C141.141 28.4253 140.997 28.5339 140.174 28.6846C139.076 28.8858 138.665 29.1186 138.187 29.8123L137.973 30.1219V37.4222C137.973 41.4617 138.001 44.7224 138.036 44.7224C138.169 44.7224 139.52 43.2276 147.139 34.65L149.474 32.0207L149.438 31.243C149.361 29.5535 148.985 29.1172 147.231 28.6803C146.346 28.4599 146.357 28.47 146.268 27.7807L146.218 27.3919H156.021L156.018 27.6326C156.014 27.9106 155.91 28.4906 155.854 28.547C155.833 28.5681 155.522 28.6302 155.163 28.685C154.276 28.8206 154.125 28.8621 153.712 29.0833C153.48 29.2074 153.254 29.4168 153.067 29.6785L152.78 30.0822V48.9919L153.028 49.3438C153.441 49.9278 153.857 50.135 155.063 50.3579C155.705 50.4765 155.786 50.5283 155.839 50.8519C155.863 51.0042 155.9 51.2204 155.921 51.3324L155.959 51.5361L153.872 51.5344C151.419 51.5325 146.908 51.4149 146.634 51.3457C146.408 51.2886 146.323 51.0369 146.418 50.7032C146.482 50.4797 146.507 50.4677 147.256 50.3081C148.42 50.0601 148.594 49.969 149.115 49.3371L149.391 49.0019V41.6408C149.391 37.3271 149.364 34.2798 149.325 34.2798C149.221 34.2798 148.751 34.8021 140.318 44.2938C139.605 45.0967 138.769 46.056 138.46 46.4257L137.899 47.0976L137.901 47.558C137.902 48.0864 138.06 48.9073 138.219 49.217C138.498 49.7588 138.983 50.0583 139.943 50.2817C141.041 50.5369 141.04 50.5363 141.08 51.166L141.101 51.4993L140.292 51.5466C139.847 51.5726 137.681 51.6119 135.478 51.6339L131.473 51.674L131.518 51.4015L131.518 51.4019Z" fill="black" fill-opacity="0.03"/>
<path d="M131.531 51.3687C131.642 50.5304 131.611 50.5865 132.028 50.4691C132.239 50.4098 132.684 50.2892 133.018 50.2011C133.671 50.0284 134.127 49.7099 134.433 49.2121C134.584 48.9656 134.585 48.9339 134.585 39.4039V29.8431L134.209 29.4884C133.721 29.0268 133.486 28.9099 132.617 28.6957C132.22 28.5981 131.84 28.4956 131.772 28.468C131.655 28.4206 131.491 27.8787 131.491 27.5376C131.491 27.396 131.575 27.3931 135.708 27.3936C138.028 27.3938 140.199 27.4154 140.533 27.4416L141.141 27.4892V27.7696C141.141 28.3802 141.019 28.4822 140.036 28.6919C139.053 28.9016 138.644 29.1368 138.22 29.7367L137.973 30.0855V37.4045C137.973 41.9094 138 44.7236 138.042 44.7236C138.189 44.7236 139.109 43.7116 145.751 36.2413L149.507 32.0177L149.453 31.2163C149.34 29.5571 149.04 29.1859 147.439 28.7229C146.994 28.594 146.573 28.4586 146.505 28.4221C146.428 28.381 146.362 28.2215 146.333 28.0041C146.307 27.8107 146.269 27.5941 146.25 27.5229C146.216 27.4004 146.483 27.3932 151.123 27.3932H156.032L155.98 27.8191C155.89 28.5555 155.909 28.5376 155.052 28.6784C154.031 28.8461 153.467 29.1218 153.073 29.6459L152.78 30.0359V49.0288L152.995 49.3424C153.371 49.8916 153.822 50.1181 155.076 50.3863C155.387 50.4528 155.676 50.5487 155.717 50.5996C155.759 50.6504 155.824 50.8866 155.861 51.1245L155.929 51.557L152.605 51.5028C148.34 51.4332 146.61 51.3621 146.501 51.252C146.4 51.1501 146.401 50.6627 146.503 50.5604C146.542 50.5207 146.954 50.3972 147.418 50.2859C148.379 50.0551 148.672 49.8989 149.093 49.3934L149.392 49.035V34.1784L149.162 34.396C148.646 34.8834 139.548 45.1043 138.248 46.6565C137.906 47.0649 137.9 47.0803 137.902 47.5823C137.906 48.255 138.055 48.9304 138.29 49.3334C138.601 49.867 138.887 50.013 140.5 50.4611C140.964 50.5901 141.068 50.7252 141.068 51.1995C141.068 51.4078 141.037 51.4518 140.865 51.4882C140.754 51.5119 139.071 51.5495 137.126 51.5718C135.182 51.5941 133.118 51.6276 132.54 51.6464L131.49 51.6804L131.531 51.3687Z" fill="#171A1A"/>
</g>
<path d="M143.267 16.8562C141.388 14.3288 139.649 11.5669 138.744 9.67107C137.873 7.84678 137.625 6.72275 137.825 5.50692C138.491 1.46215 142.855 -0.741365 146.509 1.1224C148.405 2.08967 149.618 3.94945 149.749 6.08812C149.789 6.75519 149.722 7.17568 149.437 8.04131C149.002 9.36372 148.269 10.7956 146.919 12.9611C145.95 14.5156 143.883 17.4521 143.758 17.4521C143.732 17.4521 143.511 17.1839 143.267 16.856L143.267 16.8562ZM144.589 9.21195C145.576 8.9034 146.354 8.06978 146.592 7.06456C146.702 6.59736 146.662 5.92442 146.496 5.47046C146.17 4.58071 145.386 3.86225 144.491 3.63206C144.105 3.5329 143.417 3.52905 143.059 3.62404C141.21 4.11452 140.332 6.06806 141.195 7.77456C141.53 8.43774 142.292 9.05172 142.996 9.22481C143.122 9.25581 143.271 9.29222 143.327 9.3057C143.514 9.35077 144.342 9.28934 144.589 9.21206L144.589 9.21195Z" fill="#31600F" fill-opacity="0.3"/>
<defs>
<clipPath id="clip0_73:910">
<rect width="32.28" height="32.28" fill="white" transform="translate(127.523 23.4822)"/>
</clipPath>
<clipPath id="clip1_73:910">
<rect width="160" height="43.6364" fill="white" transform="translate(0 23.1345)"/>
</clipPath>
</defs>
</svg>
