<svg width="16" height="17" viewBox="0 0 16 17" fill="none" xmlns="http://www.w3.org/2000/svg">
<path d="M15.5434 11.4717L12.0434 9.97169C11.8939 9.90797 11.7277 9.89455 11.5699 9.93344C11.4121 9.97232 11.2712 10.0614 11.1684 10.1873L9.61844 12.0811C7.18586 10.9341 5.22819 8.97646 4.08125 6.54388L5.975 4.99388C6.10115 4.89128 6.19044 4.75037 6.22934 4.59249C6.26825 4.43461 6.25466 4.26835 6.19063 4.11888L4.69063 0.61888C4.62035 0.457758 4.49605 0.326207 4.33917 0.246911C4.18229 0.167615 4.00266 0.145544 3.83125 0.184505L0.58125 0.934505C0.41599 0.972667 0.268545 1.06572 0.16298 1.19847C0.0574141 1.33122 -3.80691e-05 1.49583 1.89256e-08 1.66544C1.89256e-08 9.68107 6.49687 16.1654 14.5 16.1654C14.6697 16.1656 14.8343 16.1081 14.9672 16.0026C15.1 15.897 15.1931 15.7495 15.2312 15.5842L15.9812 12.3342C16.02 12.162 15.9974 11.9816 15.9175 11.8242C15.8376 11.6668 15.7053 11.5421 15.5434 11.4717Z" fill="#F1F160"/>
</svg>
