<svg width="16" height="16" viewBox="0 0 16 16" fill="none" xmlns="http://www.w3.org/2000/svg">
<path d="M15.5434 11.3072L12.0434 9.8072C11.8939 9.74348 11.7277 9.73006 11.5699 9.76895C11.4121 9.80783 11.2712 9.89693 11.1684 10.0228L9.61844 11.9166C7.18586 10.7696 5.22819 8.81197 4.08125 6.37939L5.975 4.82939C6.10115 4.72679 6.19044 4.58588 6.22934 4.428C6.26825 4.27012 6.25466 4.10386 6.19063 3.95439L4.69063 0.45439C4.62035 0.293268 4.49605 0.161717 4.33917 0.082421C4.18229 0.00312507 4.00266 -0.0189454 3.83125 0.0200151L0.58125 0.770015C0.41599 0.808177 0.268545 0.901227 0.16298 1.03398C0.0574141 1.16673 -3.80691e-05 1.33134 1.89256e-08 1.50095C1.89256e-08 9.51658 6.49687 16.001 14.5 16.001C14.6697 16.0011 14.8343 15.9436 14.9672 15.8381C15.1 15.7325 15.1931 15.585 15.2312 15.4197L15.9812 12.1697C16.02 11.9975 15.9974 11.8171 15.9175 11.6597C15.8376 11.5023 15.7053 11.3776 15.5434 11.3072Z" fill="#31600F" fill-opacity="0.8"/>
</svg>
