<svg width="51" height="51" viewBox="0 0 51 51" fill="none" xmlns="http://www.w3.org/2000/svg">
<path d="M22.0532 50.15C13.9048 49.2191 6.05304 43.4691 2.52825 35.8516C-0.911523 28.4181 -0.428637 19.5988 3.81254 12.3923C5.45247 9.60611 9.53865 5.52608 12.3291 3.88868C20.7298 -1.04114 31.1393 -0.827691 39.0886 4.43729C41.0796 5.75588 44.0346 8.56367 45.4649 10.4963C48.7527 14.9382 50.2511 19.5832 50.2511 25.3323C50.2511 32.5931 47.7776 38.3839 42.5317 43.403C36.9912 48.7043 29.8879 51.0442 22.0524 50.1489L22.0532 50.15ZM29.8632 47.1296C34.8563 46.1306 39.8784 42.9518 43.0009 38.8143C48.1602 31.9777 49.022 23.1002 45.262 15.5198C39.797 4.50273 26.4375 -0.0385108 15.461 5.38995C7.19286 9.47889 2.23124 18.2666 3.09281 27.2956C3.37691 30.2728 3.98672 32.4309 5.30843 35.1364C9.17575 43.0525 17.7478 48.1064 26.4047 47.5739C27.3866 47.5135 28.943 47.3134 29.8635 47.1292L29.8632 47.1296ZM18.9006 36.4394C18.6503 36.1383 18.5943 34.1028 18.5943 25.3071C18.5943 15.5733 18.6298 14.5076 18.9649 14.1732C19.1687 13.9697 19.5818 13.8032 19.8828 13.8032C20.2163 13.8032 23.6712 15.8757 28.7225 19.106C37.1471 24.4932 37.476 24.7557 37.138 25.8191C37.0669 26.0426 33.292 28.6065 28.7495 31.5167C20.2792 36.9432 19.6008 37.2823 18.9006 36.4397L18.9006 36.4394ZM33.0549 25.4546C33.1535 25.3624 30.5679 23.5735 27.3089 21.4792L21.3835 17.6715V32.9968L27.1295 29.3093C30.2897 27.2813 32.9562 25.5466 33.0549 25.4543V25.4546Z" fill="white" fill-opacity="0.8"/>
</svg>
