<svg width="224.07" height="224.41" version="1.1" viewBox="0 0 224.07 224.41" xmlns="http://www.w3.org/2000/svg">
<g transform="translate(-309.23 -3.3944)">
<path d="m406.93 226.97c-36.516-4.178-71.703-29.985-87.499-64.174-15.415-33.363-13.251-72.946 5.7554-105.29 7.3492-12.505 25.661-30.817 38.166-38.166 37.647-22.126 84.296-21.168 119.92 2.4623 8.9226 5.9181 22.165 18.52 28.575 27.194 14.734 19.936 21.449 40.784 21.449 66.587 0 32.588-11.085 58.578-34.594 81.105-24.829 23.793-56.662 34.295-91.776 30.277zm35-13.556c22.376-4.484 44.882-18.751 58.875-37.321 23.121-30.684 26.983-70.528 10.133-104.55-24.491-49.447-84.36-69.829-133.55-45.465-37.053 18.352-59.288 57.793-55.427 98.317 1.2732 13.362 4.006 23.048 9.9291 35.191 17.331 35.529 55.746 58.212 94.541 55.822 4.4-0.27099 11.375-1.169 15.5-1.9957zm-49.128-47.98c-1.1215-1.3513-1.3724-10.487-1.3724-49.964 0-43.687 0.15893-48.47 1.6607-49.971 0.91339-0.91339 2.7645-1.6607 4.1136-1.6607 1.4942 0 16.977 9.3019 39.614 23.8 37.754 24.179 39.228 25.357 37.713 30.13-0.31834 1.003-17.235 12.51-37.592 25.572-37.959 24.355-40.999 25.877-44.137 22.095zm63.431-49.302c0.44207-0.41366-11.145-8.4425-25.75-17.842l-26.554-17.09v68.783l25.75-16.55c14.162-9.1024 26.112-16.888 26.554-17.302z"/>
</g>
</svg>
