<svg width="1306.2" height="1306.2" version="1.1" viewBox="0 0 1306.2 1306.2" xmlns="http://www.w3.org/2000/svg">
<g transform="translate(-1712.7 -44.699)">
<path d="m2331.3 1350.1c-31.162-1.4582-77.186-7.9614-111.33-15.731-153.46-34.92-289.92-125.33-383.41-254.02-87.987-121.12-131.93-272.39-122.58-422 12.741-203.98 117.05-386.72 286.66-502.2 190.93-130 443.52-147.75 651.33-45.781 65.243 32.013 118.24 69.449 169.82 119.95 31.128 30.479 53.988 57.036 76.925 89.362 100.3 141.36 139.81 314.4 111.19 486.98-27.212 164.1-118.02 312.92-252.6 413.99-121.76 91.439-270.73 136.7-426 129.44zm102.67-46.329c168.71-20.463 312-101.62 416.52-235.89 57.429-73.778 99.9-170.7 116.07-264.86 6.9384-40.413 8.0329-54.764 8.0329-105.33s-1.0945-64.921-8.0329-105.33c-23.407-136.33-95.788-264.11-201.26-355.29-94.636-81.812-205.65-130.46-332.4-145.64-28.099-3.3674-105.91-3.3494-134.15 0.03094-121.7 14.566-226.33 59.045-322.12 136.93-17.633 14.337-61.462 57.645-76.211 75.304-79.25 94.891-125.89 203.29-140.72 327.07-3.3493 27.948-3.3493 105.92 0 133.86 14.221 118.66 57.704 223.18 131.09 315.07 19.971 25.008 63.029 68.809 85.844 87.327 102.77 83.409 216.25 128.88 347.33 139.17 17.03 1.3368 92.804-0.3215 110-2.4073zm78-323.76-28-65.388-12.503-2.5222c-6.8767-1.3872-12.655-2.3485-12.842-2.1363s-10.974 25.286-23.972 55.719c-12.998 30.433-24.118 55.852-24.71 56.485-0.5922 0.6335-10.734-13.316-22.538-31l-21.462-32.152h-65.312l32.672-65.333c32.595-65.18 32.682-65.333 36.812-65.333 3.4057 0 3.9763-0.41387 3.2168-2.3333-0.5078-1.2833-2.1625-6.8333-3.6772-12.333-3.6181-13.138-3.9369-42.58-0.6172-56.99 8.9487-38.843 34.153-70.943 69.599-88.642 19.003-9.4884 36.156-13.473 58-13.473 22.15 0 38.959 3.967 58.813 13.88 67.73 33.817 92.222 119.78 52.298 183.55-4.0192 6.42-8.8029 13.247-10.63 15.171l-3.3227 3.4978 27.424 54.836 27.424 54.836-64.673 0.0648-21.256 32.047c-11.691 17.626-21.591 32.248-22 32.492-0.4092 0.245-13.344-28.98-28.744-64.943zm39.333-20.994c5.8753-11.733 10.986-21.333 11.358-21.333s9.7321 4.5359 20.801 10.08c11.069 5.5438 20.309 9.8938 20.534 9.6667 0.2242-0.22718-7.9704-14.355-18.21-31.396l-18.618-30.983-9.5991 4.835c-15.288 7.7003-35.77 13.797-46.353 13.797-2.1521 0-3.9128 0.29681-3.9128 0.6596 0 0.87345 32.543 66.007 32.979 66.007 0.186 0 5.1452-9.6 11.021-21.333zm-115.36-59.3c-17.365-10.164-33.653-23.731-42.266-35.206l-3.3822-4.506-22.607 37.839c-12.434 20.812-22.472 38.025-22.307 38.252 0.1649 0.22717 9.3564-4.1228 20.426-9.6667 11.069-5.5438 20.598-10.08 21.176-10.08 0.5774 0 5.8261 9.6124 11.664 21.361l10.614 21.361 14.509-28.994c13.079-26.136 14.279-29.129 12.174-30.361zm72.26-28.811c28.431-3.9371 53.365-21.822 65.834-47.222 6.8931-14.042 9.2669-23.959 9.2429-38.613-0.024-14.79-2.6491-26.46-8.7183-38.762-10.795-21.882-30.308-38.14-54.595-45.49-11.073-3.3511-35.594-3.3511-46.667 0-30.702 9.2917-54.242 33.808-61.332 63.876-2.5458 10.798-2.5404 30.304 0.012 40.377 8.6076 33.976 37.955 60.928 71.593 65.748 11.845 1.6974 12.976 1.7015 24.63 0.0876zm-447.57-173.22v-282.67h522.67v238.67h-42.667v-196h-436v480h174.67v42.667h-218.67zm88 152.67v-22h173.33v44h-173.33zm0-109.33v-22h173.33v44h-173.33zm0-86.66v-22.007h261.4l-0.7328 43.333-260.67 0.6798zm0-87.34v-21.333h304v42.667h-304z" stroke-width="1.3333"/>
</g>
</svg>
