<svg width="50" height="51" viewBox="0 0 50 51" fill="none" xmlns="http://www.w3.org/2000/svg">
<g clip-path="url(#clip0_40:366)">
<path d="M23.8373 50.6109C22.6812 50.5551 20.9737 50.3062 19.707 50.0088C14.0137 48.6721 8.95112 45.2113 5.48269 40.2851C2.21842 35.6488 0.588158 29.8583 0.935038 24.1314C1.40772 16.3232 5.27753 9.32814 11.57 4.90768C18.6534 -0.0685838 28.0243 -0.748036 35.734 3.15523C38.1544 4.38066 40.1206 5.81367 42.0342 7.7468C43.189 8.9135 44.0371 9.93008 44.8881 11.1675C48.6091 16.5786 50.0749 23.2024 49.0131 29.8086C48.0036 36.0902 44.6347 41.7869 39.6418 45.6557C35.1246 49.1559 29.5979 50.8884 23.8375 50.6105L23.8373 50.6109ZM27.6463 48.8375C33.9053 48.0542 39.2213 44.9476 43.0989 39.8079C45.2295 36.9837 46.8052 33.2736 47.4051 29.6693C47.6625 28.1223 47.7031 27.573 47.7031 25.6374C47.7031 23.7017 47.6625 23.1523 47.4051 21.6054C46.5367 16.3869 43.8514 11.4956 39.9384 8.0053C36.4275 4.87362 32.3089 3.01142 27.6066 2.43034C26.5641 2.30144 23.6774 2.30213 22.6297 2.43153C18.1147 2.9891 14.233 4.69171 10.6792 7.67307C10.025 8.22188 8.399 9.87966 7.85182 10.5556C4.91169 14.188 3.18137 18.3374 2.63119 23.0755C2.50693 24.1454 2.50693 27.1301 2.63119 28.1996C3.15878 32.7418 4.77197 36.7427 7.49455 40.2601C8.23547 41.2174 9.8329 42.8941 10.6793 43.6029C14.492 46.7957 18.7021 48.5363 23.5651 48.9302C24.1969 48.9814 27.008 48.9179 27.646 48.8381L27.6463 48.8375ZM30.54 36.4443L29.5012 33.9413L29.0374 33.8448C28.7823 33.7917 28.5679 33.7549 28.561 33.763C28.554 33.7711 28.1538 34.7309 27.6716 35.8958C27.1894 37.0608 26.7769 38.0338 26.7549 38.058C26.7329 38.0823 26.3567 37.5483 25.9187 36.8714L25.1225 35.6406H22.6995L23.9116 33.1398C25.1208 30.6447 25.1241 30.6389 25.2773 30.6389C25.4036 30.6389 25.4248 30.623 25.3966 30.5496C25.3778 30.5004 25.3164 30.288 25.2602 30.0775C25.126 29.5746 25.1141 28.4475 25.2373 27.8959C25.5693 26.4091 26.5044 25.1803 27.8194 24.5028C28.5244 24.1396 29.1608 23.9871 29.9712 23.9871C30.7929 23.9871 31.4165 24.1389 32.1531 24.5184C34.6658 25.8129 35.5745 29.1035 34.0933 31.5445C33.9442 31.7903 33.7667 32.0516 33.699 32.1252L33.5757 32.2591L34.5931 34.3582L35.6105 36.4573L33.2112 36.4597L32.4226 37.6865C31.9889 38.3612 31.6216 38.9209 31.6064 38.9302C31.5912 38.9396 31.1114 37.8209 30.54 36.4443L30.54 36.4443ZM31.9993 35.6407C32.2172 35.1915 32.4068 34.8241 32.4206 34.8241C32.4344 34.8241 32.7817 34.9977 33.1923 35.2099C33.603 35.4221 33.9458 35.5886 33.9541 35.5799C33.9625 35.5712 33.6584 35.0304 33.2786 34.3781L32.5878 33.1921L32.2317 33.3772C31.6645 33.672 30.9047 33.9053 30.5121 33.9053C30.4322 33.9053 30.3669 33.9167 30.3669 33.9306C30.3669 33.964 31.5742 36.4573 31.5904 36.4573C31.5973 36.4573 31.7813 36.0898 31.9993 35.6407V35.6407ZM27.7195 33.3707C27.0752 32.9816 26.471 32.4623 26.1514 32.0231L26.026 31.8506L25.1872 33.299C24.7259 34.0957 24.3535 34.7546 24.3597 34.7633C24.3658 34.772 24.7068 34.6055 25.1175 34.3932C25.5281 34.181 25.8816 34.0074 25.9031 34.0074C25.9245 34.0074 26.1192 34.3753 26.3358 34.8251L26.7296 35.6427L27.2679 34.5329C27.7531 33.5324 27.7976 33.4179 27.7195 33.3707L27.7195 33.3707ZM30.4003 32.2679C31.455 32.1172 32.3801 31.4325 32.8427 30.4603C33.0984 29.9227 33.1865 29.5431 33.1856 28.9822C33.1847 28.416 33.0873 27.9693 32.8621 27.4984C32.4617 26.6608 31.7377 26.0385 30.8367 25.7571C30.4259 25.6288 29.5162 25.6288 29.1054 25.7571C27.9664 26.1128 27.093 27.0512 26.83 28.2022C26.7355 28.6155 26.7357 29.3622 26.8304 29.7478C27.1498 31.0484 28.2385 32.0801 29.4865 32.2646C29.9259 32.3295 29.9679 32.3297 30.4003 32.2679L30.4003 32.2679ZM13.7957 25.6372V14.8169H33.1864V23.9529H31.6035V16.4502H15.4282V34.8241H21.9083V36.4574H13.7958L13.7957 25.6372ZM17.0604 31.4812V30.6391H23.4909V32.3234H17.0604V31.4812ZM17.0604 27.2962V26.454H23.4909V28.1383H17.0604V27.2962ZM17.0604 23.9789V23.1365H26.7582L26.731 24.7953L17.0603 24.8213L17.0604 23.9789ZM17.0604 20.6356V19.819H28.3387V21.4523H17.0604V20.6356Z" fill="#31600F" fill-opacity="0.8"/>
</g>
<defs>
<clipPath id="clip0_40:366">
<rect width="48.4594" height="50" fill="white" transform="translate(0.887695 0.641541)"/>
</clipPath>
</defs>
</svg>
