<svg width="541" height="447" viewBox="0 0 541 447" fill="none" xmlns="http://www.w3.org/2000/svg">
<path d="M287.522 210.813C290.476 226.571 289.915 242.787 285.878 258.303L180.471 230.882L287.522 210.813Z" fill="#FFAB2D" stroke="white" stroke-width="5"/>
<path d="M249.138 144.674C269.458 160.452 283.64 182.821 289.24 207.931L181.339 231.997L249.138 144.674Z" fill="#62A6BC" stroke="white" stroke-width="5"/>
<mask id="path-3-outside-1_50:371" maskUnits="userSpaceOnUse" x="111.523" y="110.655" width="151.318" height="128.648" fill="black">
<rect fill="white" x="111.523" y="110.655" width="151.318" height="128.648"/>
<path d="M123.818 139.716C143.055 126.166 166.254 119.4 189.76 120.484C213.266 121.568 235.743 130.441 253.652 145.704L184.875 226.401L123.818 139.716Z"/>
</mask>
<path d="M123.818 139.716C143.055 126.166 166.254 119.4 189.76 120.484C213.266 121.568 235.743 130.441 253.652 145.704L184.875 226.401L123.818 139.716Z" fill="#AA4203"/>
<path d="M123.818 139.716C143.055 126.166 166.254 119.4 189.76 120.484C213.266 121.568 235.743 130.441 253.652 145.704L184.875 226.401L123.818 139.716Z" stroke="white" stroke-width="10" mask="url(#path-3-outside-1_50:371)"/>
<path d="M274.486 260.24C269.97 275.638 261.815 289.723 250.709 301.306C239.604 312.888 225.874 321.628 210.679 326.787C195.484 331.946 179.271 333.373 163.409 330.947C147.547 328.521 132.502 322.313 119.544 312.848C106.586 303.383 96.0963 290.939 88.9604 276.566C81.8246 262.193 78.2522 246.315 78.5452 230.271C78.8381 214.227 82.9877 198.489 90.6435 184.387C98.2993 170.284 109.236 158.231 122.531 149.245L178.529 232.096L274.486 260.24Z" fill="#7FCA48"/>
<line x1="136.196" y1="422.127" x2="141.82" y2="310.939" stroke="#171A1A" stroke-opacity="0.25"/>
<path d="M34.4914 439.292C36.4651 439.292 37.9317 438.054 37.9317 436.388C37.9317 435.096 37.1661 434.156 35.8834 433.942V433.863C36.9126 433.549 37.5539 432.704 37.5539 431.556C37.5539 430.114 36.4154 428.831 34.5312 428.831C32.7712 428.831 31.3096 429.915 31.2499 431.516H32.4431C32.4878 430.502 33.4523 429.905 34.5113 429.905C35.6349 429.905 36.3607 430.586 36.3607 431.615C36.3607 432.689 35.5205 433.385 34.3124 433.385H33.4971V434.479H34.3124C35.8586 434.479 36.7187 435.265 36.7187 436.388C36.7187 437.467 35.779 438.198 34.4715 438.198C33.2932 438.198 32.3586 437.591 32.284 436.607H31.0312C31.1057 438.208 32.5177 439.292 34.4914 439.292ZM42.2322 439.331C43.5645 439.331 44.2606 438.615 44.4992 438.118H44.5589V439.152H45.7322V434.121C45.7322 431.695 43.8827 431.417 42.9083 431.417C41.7549 431.417 40.4424 431.814 39.8458 433.206L40.9594 433.604C41.218 433.047 41.8295 432.451 42.9481 432.451C44.0269 432.451 44.5589 433.022 44.5589 434.002V434.042C44.5589 434.608 43.9822 434.559 42.5901 434.738C41.1732 434.922 39.627 435.235 39.627 436.985C39.627 438.476 40.7805 439.331 42.2322 439.331ZM42.4111 438.277C41.4765 438.277 40.8003 437.86 40.8003 437.044C40.8003 436.15 41.6157 435.871 42.5305 435.752C43.0276 435.692 44.36 435.553 44.5589 435.314V436.388C44.5589 437.343 43.8032 438.277 42.4111 438.277ZM47.8737 442.016H49.047V437.979H49.1464C49.4049 438.397 49.9021 439.311 51.3737 439.311C53.2828 439.311 54.6151 437.78 54.6151 435.354C54.6151 432.948 53.2828 431.417 51.3538 431.417C49.8623 431.417 49.4049 432.331 49.1464 432.729H49.0072V431.516H47.8737V442.016ZM49.0271 435.334C49.0271 433.624 49.7828 432.471 51.2146 432.471C52.7061 432.471 53.4419 433.723 53.4419 435.334C53.4419 436.965 52.6862 438.258 51.2146 438.258C49.8026 438.258 49.0271 437.064 49.0271 435.334ZM58.6521 439.331C59.9845 439.331 60.6805 438.615 60.9191 438.118H60.9788V439.152H62.1521V434.121C62.1521 431.695 60.3026 431.417 59.3282 431.417C58.1748 431.417 56.8623 431.814 56.2657 433.206L57.3794 433.604C57.6379 433.047 58.2494 432.451 59.368 432.451C60.4468 432.451 60.9788 433.022 60.9788 434.002V434.042C60.9788 434.608 60.4021 434.559 59.01 434.738C57.5931 434.922 56.047 435.235 56.047 436.985C56.047 438.476 57.2004 439.331 58.6521 439.331ZM58.8311 438.277C57.8964 438.277 57.2203 437.86 57.2203 437.044C57.2203 436.15 58.0356 435.871 58.9504 435.752C59.4475 435.692 60.7799 435.553 60.9788 435.314V436.388C60.9788 437.343 60.2231 438.277 58.8311 438.277ZM67.3959 439.311C69.0862 439.311 70.1998 438.277 70.3987 436.925H69.2254C69.0067 437.76 68.3106 438.258 67.3959 438.258C66.0038 438.258 65.1089 437.104 65.1089 435.334C65.1089 433.604 66.0237 432.471 67.3959 432.471C68.43 432.471 69.0464 433.107 69.2254 433.803H70.3987C70.1998 432.371 68.9868 431.417 67.376 431.417C65.3078 431.417 63.9356 433.047 63.9356 435.374C63.9356 437.661 65.2481 439.311 67.3959 439.311ZM71.5123 432.61H74.0379V439.152H75.2112V432.61H77.7169V431.516H71.5123V432.61ZM81.279 439.331C82.6114 439.331 83.3074 438.615 83.5461 438.118H83.6057V439.152H84.779V434.121C84.779 431.695 82.9296 431.417 81.9552 431.417C80.8018 431.417 79.4893 431.814 78.8927 433.206L80.0063 433.604C80.2648 433.047 80.8763 432.451 81.9949 432.451C83.0738 432.451 83.6057 433.022 83.6057 434.002V434.042C83.6057 434.608 83.029 434.559 81.637 434.738C80.2201 434.922 78.6739 435.235 78.6739 436.985C78.6739 438.476 79.8273 439.331 81.279 439.331ZM81.458 438.277C80.5233 438.277 79.8472 437.86 79.8472 437.044C79.8472 436.15 80.6626 435.871 81.5773 435.752C82.0745 435.692 83.4069 435.553 83.6057 435.314V436.388C83.6057 437.343 82.8501 438.277 81.458 438.277ZM88.0938 431.516H86.9205V439.152H88.0938V435.891H91.7529V439.152H92.9262V431.516H91.7529V434.797H88.0938V431.516ZM96.2423 437.422V431.516H95.069V439.152H96.4411L100.1 433.246V439.152H101.274V431.516H99.9213L96.2423 437.422ZM106.624 439.311C108.175 439.311 109.309 438.536 109.667 437.383L108.533 437.064C108.235 437.86 107.544 438.258 106.624 438.258C105.247 438.258 104.297 437.368 104.243 435.732H109.786V435.235C109.786 432.391 108.096 431.417 106.505 431.417C104.437 431.417 103.065 433.047 103.065 435.394C103.065 437.74 104.417 439.311 106.624 439.311ZM104.243 434.718C104.322 433.53 105.163 432.471 106.505 432.471C107.778 432.471 108.593 433.425 108.593 434.718H104.243ZM119.685 437.561L117.06 431.516H115.508V439.152H116.682V433.201L119.207 439.152H120.162L122.687 433.311V439.152H123.861V431.516H122.349L119.685 437.561ZM130.602 439.152H131.716V431.516H128.574C126.928 431.516 125.929 432.376 125.929 433.783C125.929 434.832 126.456 435.578 127.376 435.891L125.511 439.152H126.784L128.554 436.05H130.602V439.152ZM130.602 434.956H128.435C127.604 434.956 127.102 434.514 127.102 433.783C127.102 433.042 127.659 432.59 128.574 432.59H130.602V434.956ZM138.583 431.516H133.87V439.152H135.043V432.61H138.583V431.516ZM140.296 439.152H141.469V435.931H142.523L145.028 439.152H146.54L143.418 435.195L146.5 431.516H144.989L142.244 434.837H141.469V431.516H140.296V439.152ZM150.603 439.311C152.671 439.311 154.063 437.74 154.063 435.374C154.063 432.988 152.671 431.417 150.603 431.417C148.535 431.417 147.143 432.988 147.143 435.374C147.143 437.74 148.535 439.311 150.603 439.311ZM150.603 438.258C149.032 438.258 148.316 436.905 148.316 435.374C148.316 433.843 149.032 432.471 150.603 432.471C152.174 432.471 152.89 433.843 152.89 435.374C152.89 436.905 152.174 438.258 150.603 438.258ZM155.178 439.152H155.576C157.266 439.152 157.753 437.84 157.863 435.334L157.982 432.61H160.786V439.152H161.959V431.516H156.868L156.729 434.897C156.63 437.462 156.371 438.059 155.456 438.059H155.178V439.152ZM165.285 437.422V431.516H164.112V439.152H165.484L169.143 433.246V439.152H170.316V431.516H168.964L165.285 437.422ZM175.568 439.311C177.258 439.311 178.372 438.277 178.571 436.925H177.397C177.179 437.76 176.483 438.258 175.568 438.258C174.176 438.258 173.281 437.104 173.281 435.334C173.281 433.604 174.196 432.471 175.568 432.471C176.602 432.471 177.218 433.107 177.397 433.803H178.571C178.372 432.371 177.159 431.417 175.548 431.417C173.48 431.417 172.108 433.047 172.108 435.374C172.108 437.661 173.42 439.311 175.568 439.311ZM179.684 432.61H182.21V439.152H183.383V432.61H185.889V431.516H179.684V432.61ZM187.6 439.152H191.2C192.751 439.152 193.685 438.277 193.685 437.104C193.685 435.906 192.776 435.26 191.935 435.135C192.796 434.956 193.407 434.474 193.407 433.544C193.407 432.326 192.363 431.516 190.722 431.516H187.6V439.152ZM188.714 438.079V435.732H191.2C192.005 435.732 192.492 436.214 192.492 437.005C192.492 437.671 192.005 438.079 191.2 438.079H188.714ZM188.714 434.718V432.59H190.722C191.662 432.59 192.234 432.983 192.234 433.624C192.234 434.305 191.662 434.718 190.722 434.718H188.714ZM198.663 439.311C200.214 439.311 201.348 438.536 201.706 437.383L200.572 437.064C200.274 437.86 199.583 438.258 198.663 438.258C197.286 438.258 196.337 437.368 196.282 435.732H201.825V435.235C201.825 432.391 200.135 431.417 198.544 431.417C196.476 431.417 195.104 433.047 195.104 435.394C195.104 437.74 196.456 439.311 198.663 439.311ZM196.282 434.718C196.361 433.53 197.202 432.471 198.544 432.471C199.817 432.471 200.632 433.425 200.632 434.718H196.282ZM204.783 431.516H203.61V439.152H204.783V435.891H208.442V439.152H209.616V431.516H208.442V434.797H204.783V431.516ZM212.932 431.516H211.758V439.152H212.932V435.891H216.591V439.152H217.764V431.516H216.591V434.797H212.932V431.516ZM221.08 434.28V431.516H219.907V439.152H223.109C224.898 439.152 225.873 438.059 225.873 436.686C225.873 435.294 224.898 434.28 223.109 434.28H221.08ZM227.086 439.152H228.259V431.516H227.086V439.152ZM221.08 435.374H223.109C224.038 435.374 224.699 435.941 224.699 436.746C224.699 437.517 224.038 438.059 223.109 438.059H221.08V435.374ZM234.583 437.561L231.958 431.516H230.407V439.152H231.58V433.201L234.106 439.152H235.06L237.586 433.311V439.152H238.759V431.516H237.248L234.583 437.561ZM242.08 437.422V431.516H240.907V439.152H242.279L245.938 433.246V439.152H247.111V431.516H245.759L242.08 437.422ZM253.198 442.016H254.371V437.979H254.471C254.729 438.397 255.226 439.311 256.698 439.311C258.607 439.311 259.939 437.78 259.939 435.354C259.939 432.948 258.607 431.417 256.678 431.417C255.187 431.417 254.729 432.331 254.471 432.729H254.331V431.516H253.198V442.016ZM254.351 435.334C254.351 433.624 255.107 432.471 256.539 432.471C258.03 432.471 258.766 433.723 258.766 435.334C258.766 436.965 258.01 438.258 256.539 438.258C255.127 438.258 254.351 437.064 254.351 435.334ZM263.976 439.331C265.309 439.331 266.005 438.615 266.243 438.118H266.303V439.152H267.476V434.121C267.476 431.695 265.627 431.417 264.652 431.417C263.499 431.417 262.187 431.814 261.59 433.206L262.704 433.604C262.962 433.047 263.574 432.451 264.692 432.451C265.771 432.451 266.303 433.022 266.303 434.002V434.042C266.303 434.608 265.726 434.559 264.334 434.738C262.917 434.922 261.371 435.235 261.371 436.985C261.371 438.476 262.525 439.331 263.976 439.331ZM264.155 438.277C263.221 438.277 262.544 437.86 262.544 437.044C262.544 436.15 263.36 435.871 264.275 435.752C264.772 435.692 266.104 435.553 266.303 435.314V436.388C266.303 437.343 265.547 438.277 264.155 438.277ZM272.72 439.311C274.41 439.311 275.524 438.277 275.723 436.925H274.55C274.331 437.76 273.635 438.258 272.72 438.258C271.328 438.258 270.433 437.104 270.433 435.334C270.433 433.604 271.348 432.471 272.72 432.471C273.754 432.471 274.371 433.107 274.55 433.803H275.723C275.524 432.371 274.311 431.417 272.7 431.417C270.632 431.417 269.26 433.047 269.26 435.374C269.26 437.661 270.572 439.311 272.72 439.311ZM276.837 432.61H279.362V439.152H280.535V432.61H283.041V431.516H276.837V432.61ZM287.558 439.311C289.109 439.311 290.242 438.536 290.6 437.383L289.467 437.064C289.169 437.86 288.478 438.258 287.558 438.258C286.181 438.258 285.231 437.368 285.176 435.732H290.72V435.235C290.72 432.391 289.029 431.417 287.438 431.417C285.37 431.417 283.998 433.047 283.998 435.394C283.998 437.74 285.35 439.311 287.558 439.311ZM285.176 434.718C285.256 433.53 286.096 432.471 287.438 432.471C288.711 432.471 289.527 433.425 289.527 434.718H285.176ZM293.678 431.516H292.505V439.152H293.678V435.891H297.337V439.152H298.51V431.516H297.337V434.797H293.678V431.516ZM301.826 437.422V431.516H300.653V439.152H302.025L305.684 433.246V439.152H306.858V431.516H305.505L301.826 437.422ZM313.6 439.152H314.714V431.516H311.572C309.926 431.516 308.927 432.376 308.927 433.783C308.927 434.832 309.454 435.578 310.374 435.891L308.509 439.152H309.782L311.552 436.05H313.6V439.152ZM313.6 434.956H311.433C310.602 434.956 310.1 434.514 310.1 433.783C310.1 433.042 310.657 432.59 311.572 432.59H313.6V434.956ZM321.044 437.561L318.419 431.516H316.868V439.152H318.041V433.201L320.567 439.152H321.521L324.047 433.311V439.152H325.22V431.516H323.709L321.044 437.561ZM328.541 437.422V431.516H327.368V439.152H328.74L332.399 433.246V439.152H333.572V431.516H332.22L328.541 437.422ZM345.585 434.24H338.585V435.334H345.585V434.24Z" fill="#171A1A"/>
<path d="M354.255 439.292C356.522 439.302 358.069 437.815 358.064 435.742C358.069 433.833 356.736 432.456 354.932 432.456C353.813 432.456 352.824 432.993 352.366 433.892H352.297C352.307 431.909 353.003 430.676 354.33 430.676C355.111 430.676 355.672 431.103 355.836 431.814H357.959C357.755 430.139 356.363 428.831 354.33 428.831C351.814 428.831 350.199 430.87 350.189 434.29C350.184 438.019 352.162 439.282 354.255 439.292ZM354.245 437.601C353.251 437.601 352.515 436.801 352.515 435.807C352.52 434.817 353.271 434.012 354.26 434.012C355.255 434.012 355.981 434.792 355.976 435.802C355.981 436.821 355.24 437.601 354.245 437.601ZM364.02 428.971H361.996L359.476 430.566V432.476L361.807 431.014H361.867V439.152H364.02V428.971ZM372.013 437.243C372.018 438.466 372.798 439.505 374.255 439.505C375.697 439.505 376.502 438.466 376.497 437.243V436.706C376.502 435.473 375.717 434.444 374.255 434.444C372.818 434.444 372.018 435.483 372.013 436.706V437.243ZM366.788 431.417C366.793 432.64 367.573 433.669 369.025 433.669C370.472 433.669 371.277 432.65 371.272 431.417V430.88C371.277 429.647 370.491 428.618 369.025 428.618C367.603 428.618 366.793 429.647 366.788 430.88V431.417ZM367.275 439.152H368.572L375.572 428.971H374.275L367.275 439.152ZM373.459 436.706C373.464 436.219 373.658 435.717 374.255 435.717C374.881 435.717 375.045 436.219 375.04 436.706V437.243C375.045 437.731 374.861 438.223 374.255 438.223C373.648 438.223 373.464 437.716 373.459 437.243V436.706ZM368.244 430.88C368.249 430.407 368.433 429.89 369.025 429.89C369.651 429.89 369.82 430.392 369.815 430.88V431.417C369.82 431.904 369.631 432.396 369.025 432.396C368.438 432.396 368.249 431.904 368.244 431.417V430.88Z" fill="#31600F" fill-opacity="0.8"/>
<line x1="165.952" y1="144.966" x2="106.556" y2="33.1799" stroke="#171A1A" stroke-opacity="0.25"/>
<path d="M30.355 17.799H30.7329C32.98 17.799 33.4324 15.9695 33.5567 12.7678L33.7158 8.71094H37.5141V17.799H38.7471V7.61719H32.5425L32.3635 12.5291C32.2542 15.532 31.926 16.6655 30.6533 16.6655H30.355V17.799ZM44.2531 17.9581C45.8042 17.9581 46.9378 17.1825 47.2957 16.0291L46.1622 15.7109C45.8639 16.5064 45.1729 16.9041 44.2531 16.9041C42.876 16.9041 41.9264 16.0142 41.8717 14.3786H47.415V13.8814C47.415 11.0376 45.7247 10.0632 44.1338 10.0632C42.0656 10.0632 40.6934 11.6939 40.6934 14.0405C40.6934 16.3871 42.0457 17.9581 44.2531 17.9581ZM41.8717 13.3644C41.9513 12.1761 42.7915 11.1172 44.1338 11.1172C45.4065 11.1172 46.2219 12.0717 46.2219 13.3644H41.8717ZM52.3021 17.9581C53.9925 17.9581 55.1061 16.924 55.305 15.5717H54.1317C53.9129 16.407 53.2169 16.9041 52.3021 16.9041C50.9101 16.9041 50.0152 15.7507 50.0152 13.9808C50.0152 12.2507 50.93 11.1172 52.3021 11.1172C53.3362 11.1172 53.9527 11.7536 54.1317 12.4496H55.305C55.1061 11.0178 53.893 10.0632 52.2822 10.0632C50.214 10.0632 48.8419 11.6939 48.8419 14.0206C48.8419 16.3075 50.1544 17.9581 52.3021 17.9581ZM58.1934 10.1626H57.0202V17.799H58.1934V14.5376H61.8525V17.799H63.0258V10.1626H61.8525V13.4439H58.1934V10.1626ZM66.3419 12.9269V10.1626H65.1686V17.799H68.3703C70.1601 17.799 71.1345 16.7053 71.1345 15.3331C71.1345 13.9411 70.1601 12.9269 68.3703 12.9269H66.3419ZM72.3476 17.799H73.5209V10.1626H72.3476V17.799ZM66.3419 14.0206H68.3703C69.3 14.0206 69.9612 14.5874 69.9612 15.3928C69.9612 16.1634 69.3 16.7053 68.3703 16.7053H66.3419V14.0206ZM78.8703 17.9581C80.4214 17.9581 81.555 17.1825 81.9129 16.0291L80.7794 15.7109C80.4811 16.5064 79.79 16.9041 78.8703 16.9041C77.4932 16.9041 76.5436 16.0142 76.4889 14.3786H82.0322V13.8814C82.0322 11.0376 80.3419 10.0632 78.751 10.0632C76.6828 10.0632 75.3106 11.6939 75.3106 14.0405C75.3106 16.3871 76.6629 17.9581 78.8703 17.9581ZM76.4889 13.3644C76.5684 12.1761 77.4086 11.1172 78.751 11.1172C80.0237 11.1172 80.839 12.0717 80.839 13.3644H76.4889ZM87.7545 17.799H88.9278V11.2564H92.5869V17.799H93.7602V10.1626H87.7545V17.799ZM99.0052 17.9581C101.073 17.9581 102.465 16.3871 102.465 14.0206C102.465 11.6342 101.073 10.0632 99.0052 10.0632C96.9371 10.0632 95.545 11.6342 95.545 14.0206C95.545 16.3871 96.9371 17.9581 99.0052 17.9581ZM99.0052 16.9041C97.4342 16.9041 96.7183 15.5519 96.7183 14.0206C96.7183 12.4894 97.4342 11.1172 99.0052 11.1172C100.576 11.1172 101.292 12.4894 101.292 14.0206C101.292 15.5519 100.576 16.9041 99.0052 16.9041ZM103.465 17.799H104.877L107.482 14.5178H108.078V17.799H109.252V14.5178H109.848L112.434 17.799H113.845L110.763 13.9212L113.806 10.1626H112.414L109.868 13.424H109.252V10.1626H108.078V13.424H107.442L104.897 10.1626H103.505L106.567 13.9212L103.465 17.799ZM117.769 17.978C119.102 17.978 119.798 17.2621 120.036 16.7649H120.096V17.799H121.269V12.7678C121.269 10.3416 119.42 10.0632 118.445 10.0632C117.292 10.0632 115.979 10.4609 115.383 11.853L116.497 12.2507C116.755 11.6939 117.367 11.0973 118.485 11.0973C119.564 11.0973 120.096 11.669 120.096 12.6484V12.6882C120.096 13.255 119.519 13.2053 118.127 13.3842C116.71 13.5682 115.164 13.8814 115.164 15.6314C115.164 17.1229 116.318 17.978 117.769 17.978ZM117.948 16.924C117.014 16.924 116.337 16.5064 116.337 15.6911C116.337 14.7962 117.153 14.5178 118.068 14.3984C118.565 14.3388 119.897 14.1996 120.096 13.9609V15.0348C120.096 15.9894 119.34 16.924 117.948 16.924ZM123.411 20.6626H124.584V16.6257H124.684C124.942 17.0433 125.439 17.9581 126.911 17.9581C128.82 17.9581 130.152 16.4269 130.152 14.0007C130.152 11.5945 128.82 10.0632 126.891 10.0632C125.399 10.0632 124.942 10.978 124.684 11.3757H124.544V10.1626H123.411V20.6626ZM124.564 13.9808C124.564 12.2706 125.32 11.1172 126.752 11.1172C128.243 11.1172 128.979 12.37 128.979 13.9808C128.979 15.6115 128.223 16.9041 126.752 16.9041C125.34 16.9041 124.564 15.7109 124.564 13.9808ZM133.115 12.9269V10.1626H131.942V17.799H135.144C136.934 17.799 137.908 16.7053 137.908 15.3331C137.908 13.9411 136.934 12.9269 135.144 12.9269H133.115ZM139.121 17.799H140.294V10.1626H139.121V17.799ZM133.115 14.0206H135.144C136.073 14.0206 136.735 14.5874 136.735 15.3928C136.735 16.1634 136.073 16.7053 135.144 16.7053H133.115V14.0206ZM152.306 12.8871H145.306V13.9808H152.306V12.8871Z" fill="#171A1A"/>
<path d="M157.068 17.799H164.327V16.0391H160.051V15.9695L161.538 14.5128C163.631 12.6037 164.193 11.6492 164.193 10.4908C164.193 8.72586 162.751 7.47799 160.568 7.47799C158.431 7.47799 156.964 8.75569 156.969 10.7543H159.012C159.007 9.77983 159.624 9.18324 160.554 9.18324C161.448 9.18324 162.115 9.74006 162.115 10.6349C162.115 11.4453 161.617 12.0021 160.693 12.8921L157.068 16.2479V17.799ZM170.316 7.61719H168.293L165.772 9.21307V11.1222L168.104 9.66052H168.164V17.799H170.316V7.61719ZM178.31 15.8899C178.315 17.1129 179.095 18.152 180.552 18.152C181.994 18.152 182.799 17.1129 182.794 15.8899V15.353C182.799 14.12 182.013 13.0909 180.552 13.0909C179.115 13.0909 178.315 14.13 178.31 15.353V15.8899ZM173.084 10.0632C173.089 11.2862 173.87 12.3153 175.322 12.3153C176.768 12.3153 177.574 11.2962 177.569 10.0632V9.52628C177.574 8.29333 176.788 7.26421 175.322 7.26421C173.9 7.26421 173.089 8.29333 173.084 9.52628V10.0632ZM173.572 17.799H174.869L181.869 7.61719H180.572L173.572 17.799ZM179.756 15.353C179.761 14.8658 179.955 14.3636 180.552 14.3636C181.178 14.3636 181.342 14.8658 181.337 15.353V15.8899C181.342 16.3771 181.158 16.8693 180.552 16.8693C179.945 16.8693 179.761 16.3622 179.756 15.8899V15.353ZM174.541 9.52628C174.546 9.05398 174.73 8.53694 175.322 8.53694C175.948 8.53694 176.117 9.03907 176.112 9.52628V10.0632C176.117 10.5504 175.928 11.0426 175.322 11.0426C174.735 11.0426 174.546 10.5504 174.541 10.0632V9.52628Z" fill="#31600F" fill-opacity="0.8"/>
<line x1="264.548" y1="191.142" x2="349.069" y2="102.046" stroke="#171A1A" stroke-opacity="0.25"/>
<path d="M159.665 67.3433H160.898V62.7893H166.327V67.3433H167.559V57.1614H166.327V61.6955H160.898V57.1614H159.665V67.3433ZM173.07 67.5024C174.622 67.5024 175.755 66.7268 176.113 65.5734L174.98 65.2552C174.681 66.0506 173.99 66.4484 173.07 66.4484C171.693 66.4484 170.744 65.5585 170.689 63.9228H176.232V63.4256C176.232 60.5819 174.542 59.6075 172.951 59.6075C170.883 59.6075 169.511 61.2381 169.511 63.5847C169.511 65.9313 170.863 67.5024 173.07 67.5024ZM170.689 62.9086C170.769 61.7204 171.609 60.6614 172.951 60.6614C174.224 60.6614 175.039 61.616 175.039 62.9086H170.689ZM183.685 56.8433C183.312 57.1565 182.755 57.1565 181.975 57.1515C181.721 57.1515 181.443 57.1515 181.139 57.1614C178.813 57.2211 177.659 58.991 177.659 62.3916V63.2069C177.659 66.0308 179.031 67.5024 181.08 67.5024C183.123 67.5024 184.48 66.0208 184.48 63.6245C184.48 61.2183 183.103 59.9455 181.318 59.9455C180.269 59.9455 179.29 60.383 178.773 61.3376H178.673C178.833 59.3688 179.568 58.3149 181.159 58.2552C182.571 58.1955 183.585 58.2353 184.281 57.5592L183.685 56.8433ZM181.08 66.4484C179.688 66.4484 178.833 65.3347 178.833 63.6245C178.857 61.9541 179.698 60.9995 181.06 60.9995C182.457 60.9995 183.307 61.9541 183.307 63.6245C183.307 65.3447 182.462 66.4484 181.08 66.4484ZM185.599 67.3433H185.997C187.687 67.3433 188.174 66.0308 188.284 63.5251L188.403 60.8006H191.207V67.3433H192.38V59.7069H187.289L187.15 63.0876C187.051 65.6529 186.792 66.2495 185.877 66.2495H185.599V67.3433ZM196.78 67.5222C198.112 67.5222 198.808 66.8063 199.047 66.3092H199.107V67.3433H200.28V62.312C200.28 59.8859 198.431 59.6075 197.456 59.6075C196.303 59.6075 194.99 60.0052 194.394 61.3972L195.507 61.795C195.766 61.2381 196.377 60.6416 197.496 60.6416C198.575 60.6416 199.107 61.2133 199.107 62.1927V62.2325C199.107 62.7992 198.53 62.7495 197.138 62.9285C195.721 63.1124 194.175 63.4256 194.175 65.1756C194.175 66.6671 195.328 67.5222 196.78 67.5222ZM196.959 66.4683C196.024 66.4683 195.348 66.0506 195.348 65.2353C195.348 64.3404 196.164 64.062 197.078 63.9427C197.575 63.883 198.908 63.7438 199.107 63.5052V64.5791C199.107 65.5336 198.351 66.4683 196.959 66.4683ZM207.135 59.7069H202.422V67.3433H203.595V60.8006H207.135V59.7069ZM211.553 67.5024C213.621 67.5024 215.013 65.9313 215.013 63.5649C215.013 61.1785 213.621 59.6075 211.553 59.6075C209.485 59.6075 208.093 61.1785 208.093 63.5649C208.093 65.9313 209.485 67.5024 211.553 67.5024ZM211.553 66.4484C209.982 66.4484 209.266 65.0961 209.266 63.5649C209.266 62.0336 209.982 60.6614 211.553 60.6614C213.124 60.6614 213.84 62.0336 213.84 63.5649C213.84 65.0961 213.124 66.4484 211.553 66.4484ZM216.804 67.3433H217.978V60.8006H221.637V67.3433H222.81V59.7069H216.804V67.3433ZM224.953 70.2069H226.126V66.17H226.225C226.484 66.5876 226.981 67.5024 228.453 67.5024C230.362 67.5024 231.694 65.9711 231.694 63.545C231.694 61.1387 230.362 59.6075 228.433 59.6075C226.941 59.6075 226.484 60.5222 226.225 60.92H226.086V59.7069H224.953V70.2069ZM226.106 63.5251C226.106 61.8149 226.862 60.6614 228.294 60.6614C229.785 60.6614 230.521 61.9143 230.521 63.5251C230.521 65.1558 229.765 66.4484 228.294 66.4484C226.882 66.4484 226.106 65.2552 226.106 63.5251ZM234.657 65.6131V59.7069H233.484V67.3433H234.856L238.515 61.437V67.3433H239.689V59.7069H238.336L234.657 65.6131ZM246.431 67.3433H247.545V59.7069H244.403C242.757 59.7069 241.758 60.567 241.758 61.9739C241.758 63.0229 242.285 63.7687 243.205 64.0819L241.34 67.3433H242.613L244.383 64.241H246.431V67.3433ZM246.431 63.1472H244.264C243.433 63.1472 242.931 62.7048 242.931 61.9739C242.931 61.2332 243.488 60.7808 244.403 60.7808H246.431V63.1472ZM248.66 60.8006H251.185V67.3433H252.359V60.8006H254.864V59.7069H248.66V60.8006ZM257.749 59.7069H256.576V67.3433H257.749V64.0819H261.408V67.3433H262.581V59.7069H261.408V62.9881H257.749V59.7069ZM265.898 62.4711V59.7069H264.724V67.3433H267.926C269.716 67.3433 270.69 66.2495 270.69 64.8774C270.69 63.4853 269.716 62.4711 267.926 62.4711H265.898ZM271.903 67.3433H273.077V59.7069H271.903V67.3433ZM265.898 63.5649H267.926C268.856 63.5649 269.517 64.1316 269.517 64.937C269.517 65.7076 268.856 66.2495 267.926 66.2495H265.898V63.5649ZM278.426 67.5024C279.977 67.5024 281.111 66.7268 281.469 65.5734L280.335 65.2552C280.037 66.0506 279.346 66.4484 278.426 66.4484C277.049 66.4484 276.099 65.5585 276.045 63.9228H281.588V63.4256C281.588 60.5819 279.898 59.6075 278.307 59.6075C276.238 59.6075 274.866 61.2381 274.866 63.5847C274.866 65.9313 276.219 67.5024 278.426 67.5024ZM276.045 62.9086C276.124 61.7204 276.964 60.6614 278.307 60.6614C279.579 60.6614 280.395 61.616 280.395 62.9086H276.045ZM287.31 67.3433H288.483V64.1217H289.537L292.043 67.3433H293.555L290.432 63.3859L293.515 59.7069H292.003L289.259 63.0279H288.483V59.7069H287.31V67.3433ZM294.154 67.3433H294.551C296.242 67.3433 296.729 66.0308 296.838 63.5251L296.958 60.8006H299.762V67.3433H300.935V59.7069H295.844L295.705 63.0876C295.605 65.6529 295.347 66.2495 294.432 66.2495H294.154V67.3433ZM304.261 65.6131V59.7069H303.088V67.3433H304.46L308.119 61.437V67.3433H309.292V59.7069H307.94L304.261 65.6131ZM315.617 65.7524L312.992 59.7069H311.441V67.3433H312.614V61.3923L315.14 67.3433H316.094L318.62 61.5016V67.3433H319.793V59.7069H318.282L315.617 65.7524ZM324.188 67.5222C325.521 67.5222 326.217 66.8063 326.455 66.3092H326.515V67.3433H327.688V62.312C327.688 59.8859 325.839 59.6075 324.864 59.6075C323.711 59.6075 322.398 60.0052 321.802 61.3972L322.915 61.795C323.174 61.2381 323.786 60.6416 324.904 60.6416C325.983 60.6416 326.515 61.2133 326.515 62.1927V62.2325C326.515 62.7992 325.938 62.7495 324.546 62.9285C323.129 63.1124 321.583 63.4256 321.583 65.1756C321.583 66.6671 322.737 67.5222 324.188 67.5222ZM324.367 66.4683C323.433 66.4683 322.756 66.0506 322.756 65.2353C322.756 64.3404 323.572 64.062 324.487 63.9427C324.984 63.883 326.316 63.7438 326.515 63.5052V64.5791C326.515 65.5336 325.759 66.4683 324.367 66.4683ZM328.791 60.8006H331.316V67.3433H332.49V60.8006H334.995V59.7069H328.791V60.8006ZM337.88 65.6131V59.7069H336.707V67.3433H338.079L341.738 61.437V67.3433H342.911V59.7069H341.559L337.88 65.6131ZM350.947 59.7069H349.773V63.5798C349.206 63.7438 348.625 63.8433 347.924 63.8433C346.969 63.8433 346.233 63.3063 346.233 62.133V59.687H345.06V62.133C345.06 64.0024 346.194 64.937 347.924 64.937C348.645 64.937 349.221 64.8426 349.773 64.6785V67.3433H350.947V59.7069ZM356.301 67.5024C357.852 67.5024 358.986 66.7268 359.344 65.5734L358.21 65.2552C357.912 66.0506 357.221 66.4484 356.301 66.4484C354.924 66.4484 353.974 65.5585 353.92 63.9228H359.463V63.4256C359.463 60.5819 357.773 59.6075 356.182 59.6075C354.113 59.6075 352.741 61.2381 352.741 63.5847C352.741 65.9313 354.094 67.5024 356.301 67.5024ZM353.92 62.9086C353.999 61.7204 354.839 60.6614 356.182 60.6614C357.454 60.6614 358.27 61.616 358.27 62.9086H353.92ZM364.35 67.5024C366.04 67.5024 367.154 66.4683 367.353 65.116H366.18C365.961 65.9512 365.265 66.4484 364.35 66.4484C362.958 66.4484 362.063 65.295 362.063 63.5251C362.063 61.795 362.978 60.6614 364.35 60.6614C365.384 60.6614 366.001 61.2978 366.18 61.9938H367.353C367.154 60.562 365.941 59.6075 364.33 59.6075C362.262 59.6075 360.89 61.2381 360.89 63.5649C360.89 65.8518 362.202 67.5024 364.35 67.5024ZM369.068 67.3433H370.241V64.1217H371.295L373.801 67.3433H375.312L372.19 63.3859L375.273 59.7069H373.761L371.017 63.0279H370.241V59.7069H369.068V67.3433ZM377.761 65.6131V59.7069H376.588V67.3433H377.96L381.619 61.437V67.3433H382.792V59.7069H381.44L377.761 65.6131ZM388.143 67.5024C389.694 67.5024 390.827 66.7268 391.185 65.5734L390.052 65.2552C389.754 66.0506 389.062 66.4484 388.143 66.4484C386.766 66.4484 385.816 65.5585 385.761 63.9228H391.305V63.4256C391.305 60.5819 389.614 59.6075 388.023 59.6075C385.955 59.6075 384.583 61.2381 384.583 63.5847C384.583 65.9313 385.935 67.5024 388.143 67.5024ZM385.761 62.9086C385.841 61.7204 386.681 60.6614 388.023 60.6614C389.296 60.6614 390.112 61.616 390.112 62.9086H385.761ZM397.783 70.2069C398.842 70.2069 399.587 69.6451 400.03 68.4569L403.281 59.7268L401.999 59.7069L399.891 65.7921H399.811L397.703 59.7069H396.43L399.254 67.383L399.036 67.9796C398.608 69.143 398.081 69.2524 397.226 69.0336L396.928 70.0677C397.047 70.1274 397.385 70.2069 397.783 70.2069ZM407.662 67.5024C409.353 67.5024 410.466 66.4683 410.665 65.116H409.492C409.273 65.9512 408.577 66.4484 407.662 66.4484C406.27 66.4484 405.376 65.295 405.376 63.5251C405.376 61.795 406.29 60.6614 407.662 60.6614C408.697 60.6614 409.313 61.2978 409.492 61.9938H410.665C410.466 60.562 409.253 59.6075 407.643 59.6075C405.574 59.6075 404.202 61.2381 404.202 63.5649C404.202 65.8518 405.515 67.5024 407.662 67.5024ZM411.704 67.3433H412.102C413.792 67.3433 414.28 66.0308 414.389 63.5251L414.508 60.8006H417.312V67.3433H418.486V59.7069H413.395L413.256 63.0876C413.156 65.6529 412.898 66.2495 411.983 66.2495H411.704V67.3433ZM423.741 67.5024C425.809 67.5024 427.201 65.9313 427.201 63.5649C427.201 61.1785 425.809 59.6075 423.741 59.6075C421.672 59.6075 420.28 61.1785 420.28 63.5649C420.28 65.9313 421.672 67.5024 423.741 67.5024ZM423.741 66.4484C422.17 66.4484 421.454 65.0961 421.454 63.5649C421.454 62.0336 422.17 60.6614 423.741 60.6614C425.312 60.6614 426.028 62.0336 426.028 63.5649C426.028 65.0961 425.312 66.4484 423.741 66.4484ZM428.992 67.3433H432.591C434.142 67.3433 435.077 66.4683 435.077 65.295C435.077 64.0968 434.167 63.4505 433.327 63.3262C434.187 63.1472 434.799 62.665 434.799 61.7353C434.799 60.5173 433.755 59.7069 432.114 59.7069H428.992V67.3433ZM430.105 66.2694V63.9228H432.591C433.397 63.9228 433.884 64.4051 433.884 65.1955C433.884 65.8617 433.397 66.2694 432.591 66.2694H430.105ZM430.105 62.9086V60.7808H432.114C433.054 60.7808 433.625 61.1735 433.625 61.8149C433.625 62.496 433.054 62.9086 432.114 62.9086H430.105ZM438.026 65.6131V59.7069H436.853V67.3433H438.225L441.884 61.437V67.3433H443.058V59.7069H441.705L438.026 65.6131ZM449.8 67.3433H450.914V59.7069H447.772C446.126 59.7069 445.127 60.567 445.127 61.9739C445.127 63.0229 445.654 63.7687 446.574 64.0819L444.71 67.3433H445.982L447.752 64.241H449.8V67.3433ZM449.8 63.1472H447.633C446.803 63.1472 446.3 62.7048 446.3 61.9739C446.3 61.2332 446.857 60.7808 447.772 60.7808H449.8V63.1472ZM457.423 63.0478C457.423 65.5535 458.099 67.6416 459.312 69.4114H460.346C459.392 68.0989 458.636 65.4143 458.636 63.0478C458.636 60.6813 459.392 57.9967 460.346 56.6842H459.312C458.099 58.4541 457.423 60.5421 457.423 63.0478ZM461.6 65.3944C461.64 66.6472 462.838 67.5024 464.464 67.5024C466.135 67.5024 467.348 66.6075 467.348 65.2154C467.348 64.2609 466.776 63.4853 465.916 63.4256V63.3461C466.642 63.1224 467.189 62.5954 467.189 61.7353C467.189 60.5272 466.154 59.6075 464.544 59.6075C462.953 59.6075 461.819 60.4825 461.779 61.7154H463.012C463.047 61.084 463.708 60.6416 464.603 60.6416C465.493 60.6416 465.995 61.094 465.995 61.7751C465.995 62.4114 465.558 62.8887 464.623 62.8887H463.311V63.9427H464.623C465.558 63.9427 466.154 64.4548 466.154 65.2154C466.154 66.0854 465.384 66.4484 464.444 66.4484C463.525 66.4484 462.908 66.0854 462.853 65.3944H461.6ZM471.243 67.5222C472.575 67.5222 473.271 66.8063 473.51 66.3092H473.57V67.3433H474.743V62.312C474.743 59.8859 472.893 59.6075 471.919 59.6075C470.766 59.6075 469.453 60.0052 468.857 61.3972L469.97 61.795C470.229 61.2381 470.84 60.6416 471.959 60.6416C473.038 60.6416 473.57 61.2133 473.57 62.1927V62.2325C473.57 62.7992 472.993 62.7495 471.601 62.9285C470.184 63.1124 468.638 63.4256 468.638 65.1756C468.638 66.6671 469.791 67.5222 471.243 67.5222ZM471.422 66.4683C470.487 66.4683 469.811 66.0506 469.811 65.2353C469.811 64.3404 470.626 64.062 471.541 63.9427C472.038 63.883 473.371 63.7438 473.57 63.5052V64.5791C473.57 65.5336 472.814 66.4683 471.422 66.4683ZM479.987 67.5024C481.677 67.5024 482.791 66.4683 482.99 65.116H481.816C481.597 65.9512 480.901 66.4484 479.987 66.4484C478.595 66.4484 477.7 65.295 477.7 63.5251C477.7 61.795 478.615 60.6614 479.987 60.6614C481.021 60.6614 481.637 61.2978 481.816 61.9938H482.99C482.791 60.562 481.578 59.6075 479.967 59.6075C477.899 59.6075 476.526 61.2381 476.526 63.5649C476.526 65.8518 477.839 67.5024 479.987 67.5024ZM485.46 70.2069C486.519 70.2069 487.265 69.6451 487.708 68.4569L490.959 59.7268L489.676 59.7069L487.568 65.7921H487.489L485.381 59.7069H484.108L486.932 67.383L486.713 67.9796C486.286 69.143 485.759 69.2524 484.904 69.0336L484.605 70.0677C484.725 70.1274 485.063 70.2069 485.46 70.2069ZM493.386 59.7069H492.034L494.46 63.5251L492.034 67.3433H493.386L495.216 64.3802L497.045 67.3433H498.398L495.932 63.5251L498.398 59.7069H497.045L495.216 62.8291L493.386 59.7069ZM502.319 67.5222C503.651 67.5222 504.347 66.8063 504.586 66.3092H504.646V67.3433H505.819V62.312C505.819 59.8859 503.97 59.6075 502.995 59.6075C501.842 59.6075 500.529 60.0052 499.933 61.3972L501.046 61.795C501.305 61.2381 501.916 60.6416 503.035 60.6416C504.114 60.6416 504.646 61.2133 504.646 62.1927V62.2325C504.646 62.7992 504.069 62.7495 502.677 62.9285C501.26 63.1124 499.714 63.4256 499.714 65.1756C499.714 66.6671 500.867 67.5222 502.319 67.5222ZM502.498 66.4683C501.563 66.4683 500.887 66.0506 500.887 65.2353C500.887 64.3404 501.703 64.062 502.617 63.9427C503.115 63.883 504.447 63.7438 504.646 63.5052V64.5791C504.646 65.5336 503.89 66.4683 502.498 66.4683ZM509.711 65.9512H508.438L508.378 66.508C508.234 67.8553 507.951 69.1977 507.821 69.8291H508.716C508.955 69.1529 509.462 67.6217 509.631 66.4881L509.711 65.9512ZM162.608 91.5024C164.676 91.5024 166.068 89.9313 166.068 87.5649C166.068 85.1785 164.676 83.6075 162.608 83.6075C160.54 83.6075 159.148 85.1785 159.148 87.5649C159.148 89.9313 160.54 91.5024 162.608 91.5024ZM162.608 90.4484C161.037 90.4484 160.321 89.0961 160.321 87.5649C160.321 86.0336 161.037 84.6614 162.608 84.6614C164.179 84.6614 164.895 86.0336 164.895 87.5649C164.895 89.0961 164.179 90.4484 162.608 90.4484ZM173.527 80.8433C173.154 81.1565 172.597 81.1565 171.816 81.1515C171.563 81.1515 171.284 81.1515 170.981 81.1614C168.654 81.2211 167.501 82.991 167.501 86.3916V87.2069C167.501 90.0308 168.873 91.5024 170.922 91.5024C172.965 91.5024 174.322 90.0208 174.322 87.6245C174.322 85.2183 172.945 83.9455 171.16 83.9455C170.111 83.9455 169.132 84.383 168.615 85.3376H168.515C168.674 83.3688 169.41 82.3149 171.001 82.2552C172.413 82.1955 173.427 82.2353 174.123 81.5592L173.527 80.8433ZM170.922 90.4484C169.529 90.4484 168.674 89.3347 168.674 87.6245C168.699 85.9541 169.539 84.9995 170.902 84.9995C172.299 84.9995 173.149 85.9541 173.149 87.6245C173.149 89.3447 172.304 90.4484 170.922 90.4484ZM177.29 89.6131V83.7069H176.117V91.3433H177.489L181.148 85.437V91.3433H182.321V83.7069H180.969L177.29 89.6131ZM185.644 86.4711V83.7069H184.47V91.3433H187.672C189.462 91.3433 190.436 90.2495 190.436 88.8774C190.436 87.4853 189.462 86.4711 187.672 86.4711H185.644ZM185.644 87.5649H187.672C188.602 87.5649 189.263 88.1316 189.263 88.937C189.263 89.7076 188.602 90.2495 187.672 90.2495H185.644V87.5649ZM193.396 83.7069H192.222V91.3433H193.396V88.0819H197.055V91.3433H198.228V83.7069H197.055V86.9881H193.396V83.7069ZM201.544 86.4711V83.7069H200.371V91.3433H203.572C205.362 91.3433 206.337 90.2495 206.337 88.8774C206.337 87.4853 205.362 86.4711 203.572 86.4711H201.544ZM207.55 91.3433H208.723V83.7069H207.55V91.3433ZM201.544 87.5649H203.572C204.502 87.5649 205.163 88.1316 205.163 88.937C205.163 89.7076 204.502 90.2495 203.572 90.2495H201.544V87.5649ZM214.072 91.5024C215.624 91.5024 216.757 90.7268 217.115 89.5734L215.982 89.2552C215.683 90.0506 214.992 90.4484 214.072 90.4484C212.695 90.4484 211.746 89.5585 211.691 87.9228H217.234V87.4256C217.234 84.5819 215.544 83.6075 213.953 83.6075C211.885 83.6075 210.513 85.2381 210.513 87.5847C210.513 89.9313 211.865 91.5024 214.072 91.5024ZM211.691 86.9086C211.771 85.7204 212.611 84.6614 213.953 84.6614C215.226 84.6614 216.041 85.616 216.041 86.9086H211.691ZM226.059 91.5024C228.127 91.5024 229.519 89.9313 229.519 87.5649C229.519 85.1785 228.127 83.6075 226.059 83.6075C223.991 83.6075 222.599 85.1785 222.599 87.5649C222.599 89.9313 223.991 91.5024 226.059 91.5024ZM226.059 90.4484C224.488 90.4484 223.772 89.0961 223.772 87.5649C223.772 86.0336 224.488 84.6614 226.059 84.6614C227.63 84.6614 228.346 86.0336 228.346 87.5649C228.346 89.0961 227.63 90.4484 226.059 90.4484ZM234.412 91.5024C236.103 91.5024 237.216 90.4683 237.415 89.116H236.242C236.023 89.9512 235.327 90.4484 234.412 90.4484C233.02 90.4484 232.126 89.295 232.126 87.5251C232.126 85.795 233.04 84.6614 234.412 84.6614C235.447 84.6614 236.063 85.2978 236.242 85.9938H237.415C237.216 84.562 236.003 83.6075 234.393 83.6075C232.324 83.6075 230.952 85.2381 230.952 87.5649C230.952 89.8518 232.265 91.5024 234.412 91.5024ZM241.378 91.5222C242.71 91.5222 243.406 90.8063 243.645 90.3092H243.704V91.3433H244.878V86.312C244.878 83.8859 243.028 83.6075 242.054 83.6075C240.9 83.6075 239.588 84.0052 238.991 85.3972L240.105 85.795C240.363 85.2381 240.975 84.6416 242.094 84.6416C243.172 84.6416 243.704 85.2133 243.704 86.1927V86.2325C243.704 86.7992 243.128 86.7495 241.736 86.9285C240.319 87.1124 238.773 87.4256 238.773 89.1756C238.773 90.6671 239.926 91.5222 241.378 91.5222ZM241.557 90.4683C240.622 90.4683 239.946 90.0506 239.946 89.2353C239.946 88.3404 240.761 88.062 241.676 87.9427C242.173 87.883 243.506 87.7438 243.704 87.5052V88.5791C243.704 89.5336 242.949 90.4683 241.557 90.4683ZM246.204 93.5308H247.377V91.3433H253.025V93.5308H254.198V90.2495H253.025V83.7069H248.173L247.914 86.7296C247.73 88.8674 247.457 89.6032 246.84 90.2495H246.204V93.5308ZM248.173 90.2495C248.71 89.5435 248.903 88.3255 249.067 86.7296L249.266 84.8006H251.852V90.2495H248.173ZM255.756 91.3433H256.929V88.1217H257.983L260.488 91.3433H262L258.878 87.3859L261.96 83.7069H260.449L257.704 87.0279H256.929V83.7069H255.756V91.3433ZM264.448 89.6131V83.7069H263.275V91.3433H264.647L268.306 85.437V91.3433H269.48V83.7069H268.127L264.448 89.6131ZM273.379 89.9512H272.106L272.046 90.508C271.902 91.8553 271.619 93.1977 271.489 93.8291H272.384C272.623 93.1529 273.13 91.6217 273.299 90.4881L273.379 89.9512ZM284.203 83.7069H279.49V91.3433H280.663V84.8006H284.203V83.7069ZM285.916 94.2069H287.089V90.17H287.188C287.447 90.5876 287.944 91.5024 289.416 91.5024C291.325 91.5024 292.657 89.9711 292.657 87.545C292.657 85.1387 291.325 83.6075 289.396 83.6075C287.904 83.6075 287.447 84.5222 287.188 84.92H287.049V83.7069H285.916V94.2069ZM287.069 87.5251C287.069 85.8149 287.825 84.6614 289.257 84.6614C290.748 84.6614 291.484 85.9143 291.484 87.5251C291.484 89.1558 290.728 90.4484 289.257 90.4484C287.845 90.4484 287.069 89.2552 287.069 87.5251ZM296.694 91.5222C298.026 91.5222 298.722 90.8063 298.961 90.3092H299.021V91.3433H300.194V86.312C300.194 83.8859 298.345 83.6075 297.37 83.6075C296.217 83.6075 294.904 84.0052 294.308 85.3972L295.421 85.795C295.68 85.2381 296.291 84.6416 297.41 84.6416C298.489 84.6416 299.021 85.2133 299.021 86.1927V86.2325C299.021 86.7992 298.444 86.7495 297.052 86.9285C295.635 87.1124 294.089 87.4256 294.089 89.1756C294.089 90.6671 295.242 91.5222 296.694 91.5222ZM296.873 90.4683C295.938 90.4683 295.262 90.0506 295.262 89.2353C295.262 88.3404 296.078 88.062 296.992 87.9427C297.49 87.883 298.822 87.7438 299.021 87.5052V88.5791C299.021 89.5336 298.265 90.4683 296.873 90.4683ZM301.52 93.5308H302.694V91.3433H308.341V93.5308H309.515V90.2495H308.341V83.7069H303.489L303.23 86.7296C303.047 88.8674 302.773 89.6032 302.157 90.2495H301.52V93.5308ZM303.489 90.2495C304.026 89.5435 304.22 88.3255 304.384 86.7296L304.583 84.8006H307.168V90.2495H303.489ZM316.183 89.6131V83.7069H315.009V91.3433H316.382L320.041 85.437V91.3433H321.214V83.7069H319.862L316.183 89.6131ZM330.403 91.5024C332.093 91.5024 333.207 90.4683 333.406 89.116H332.232C332.013 89.9512 331.317 90.4484 330.403 90.4484C329.011 90.4484 328.116 89.295 328.116 87.5251C328.116 85.795 329.031 84.6614 330.403 84.6614C331.437 84.6614 332.053 85.2978 332.232 85.9938H333.406C333.207 84.562 331.994 83.6075 330.383 83.6075C328.315 83.6075 326.942 85.2381 326.942 87.5649C326.942 89.8518 328.255 91.5024 330.403 91.5024ZM334.519 84.8006H337.045V91.3433H338.218V84.8006H340.724V83.7069H334.519V84.8006ZM343.608 89.6131V83.7069H342.435V91.3433H343.807L347.466 85.437V91.3433H348.64V83.7069H347.287L343.608 89.6131ZM351.664 83.7069H350.311L352.738 87.5251L350.311 91.3433H351.664L353.493 88.3802L355.323 91.3433H356.675L354.209 87.5251L356.675 83.7069H355.323L353.493 86.8291L351.664 83.7069ZM359.523 89.6131V83.7069H358.349V91.3433H359.721L363.381 85.437V91.3433H364.554V83.7069H363.202L359.523 89.6131ZM367.876 89.6131V83.7069H366.703V91.3433H368.075L371.734 85.437V91.3433H372.907V83.7069H371.555L367.876 89.6131ZM370.779 81.1614C370.779 81.6785 370.501 82.1359 369.805 82.1359C369.109 82.1359 368.85 81.6785 368.85 81.1614H367.757C367.757 82.2353 368.552 82.991 369.805 82.991C371.078 82.991 371.873 82.2353 371.873 81.1614H370.779ZM376.23 83.7069H375.056V91.3433H376.23V88.0819H379.889V91.3433H381.062V83.7069H379.889V86.9881H376.23V83.7069ZM384.378 86.4711V83.7069H383.205V91.3433H386.406C388.196 91.3433 389.171 90.2495 389.171 88.8774C389.171 87.4853 388.196 86.4711 386.406 86.4711H384.378ZM390.384 91.3433H391.557V83.7069H390.384V91.3433ZM384.378 87.5649H386.406C387.336 87.5649 387.997 88.1316 387.997 88.937C387.997 89.7076 387.336 90.2495 386.406 90.2495H384.378V87.5649ZM396.906 91.5024C398.458 91.5024 399.591 90.7268 399.949 89.5734L398.816 89.2552C398.517 90.0506 397.826 90.4484 396.906 90.4484C395.529 90.4484 394.58 89.5585 394.525 87.9228H400.068V87.4256C400.068 84.5819 398.378 83.6075 396.787 83.6075C394.719 83.6075 393.347 85.2381 393.347 87.5847C393.347 89.9313 394.699 91.5024 396.906 91.5024ZM394.525 86.9086C394.605 85.7204 395.445 84.6614 396.787 84.6614C398.06 84.6614 398.875 85.616 398.875 86.9086H394.525ZM411.458 80.8433C411.085 81.1565 410.529 81.1565 409.748 81.1515C409.494 81.1515 409.216 81.1515 408.913 81.1614C406.586 81.2211 405.433 82.991 405.433 86.3916V87.2069C405.433 90.0308 406.805 91.5024 408.853 91.5024C410.896 91.5024 412.254 90.0208 412.254 87.6245C412.254 85.2183 410.877 83.9455 409.092 83.9455C408.043 83.9455 407.063 84.383 406.546 85.3376H406.447C406.606 83.3688 407.342 82.3149 408.933 82.2552C410.345 82.1955 411.359 82.2353 412.055 81.5592L411.458 80.8433ZM408.853 90.4484C407.461 90.4484 406.606 89.3347 406.606 87.6245C406.631 85.9541 407.471 84.9995 408.833 84.9995C410.23 84.9995 411.08 85.9541 411.08 87.6245C411.08 89.3447 410.235 90.4484 408.853 90.4484ZM417.25 91.5024C418.801 91.5024 419.935 90.7268 420.293 89.5734L419.159 89.2552C418.861 90.0506 418.17 90.4484 417.25 90.4484C415.873 90.4484 414.923 89.5585 414.869 87.9228H420.412V87.4256C420.412 84.5819 418.722 83.6075 417.131 83.6075C415.063 83.6075 413.691 85.2381 413.691 87.5847C413.691 89.9313 415.043 91.5024 417.25 91.5024ZM414.869 86.9086C414.948 85.7204 415.789 84.6614 417.131 84.6614C418.404 84.6614 419.219 85.616 419.219 86.9086H414.869ZM421.382 93.5308H422.555V91.3433H428.203V93.5308H429.376V90.2495H428.203V83.7069H423.35L423.092 86.7296C422.908 88.8674 422.634 89.6032 422.018 90.2495H421.382V93.5308ZM423.35 90.2495C423.887 89.5435 424.081 88.3255 424.245 86.7296L424.444 84.8006H427.029V90.2495H423.35ZM434.036 91.5024C435.726 91.5024 436.839 90.4683 437.038 89.116H435.865C435.646 89.9512 434.95 90.4484 434.036 90.4484C432.643 90.4484 431.749 89.295 431.749 87.5251C431.749 85.795 432.663 84.6614 434.036 84.6614C435.07 84.6614 435.686 85.2978 435.865 85.9938H437.038C436.839 84.562 435.626 83.6075 434.016 83.6075C431.947 83.6075 430.575 85.2381 430.575 87.5649C430.575 89.8518 431.888 91.5024 434.036 91.5024ZM438.152 84.8006H440.678V91.3433H441.851V84.8006H444.357V83.7069H438.152V84.8006ZM446.068 91.3433H449.667C451.219 91.3433 452.153 90.4683 452.153 89.295C452.153 88.0968 451.243 87.4505 450.403 87.3262C451.263 87.1472 451.875 86.665 451.875 85.7353C451.875 84.5173 450.831 83.7069 449.19 83.7069H446.068V91.3433ZM447.182 90.2694V87.9228H449.667C450.473 87.9228 450.96 88.4051 450.96 89.1955C450.96 89.8617 450.473 90.2694 449.667 90.2694H447.182ZM447.182 86.9086V84.7808H449.19C450.13 84.7808 450.702 85.1735 450.702 85.8149C450.702 86.496 450.13 86.9086 449.19 86.9086H447.182ZM455.103 89.6131V83.7069H453.929V91.3433H455.301L458.961 85.437V91.3433H460.134V83.7069H458.782L455.103 89.6131ZM466.877 91.3433H467.99V83.7069H464.848C463.203 83.7069 462.203 84.567 462.203 85.9739C462.203 87.0229 462.73 87.7687 463.65 88.0819L461.786 91.3433H463.058L464.828 88.241H466.877V91.3433ZM466.877 87.1472H464.709C463.879 87.1472 463.377 86.7048 463.377 85.9739C463.377 85.2332 463.933 84.7808 464.848 84.7808H466.877V87.1472ZM472.65 87.0478C472.65 84.5421 471.974 82.4541 470.761 80.6842H469.727C470.681 81.9967 471.437 84.6813 471.437 87.0478C471.437 89.4143 470.681 92.0989 469.727 93.4114H470.761C471.974 91.6416 472.65 89.5535 472.65 87.0478ZM485.08 86.4313H478.08V87.5251H485.08V86.4313Z" fill="#171A1A"/>
<path d="M494.273 81.1614H492.249L489.729 82.7573V84.6664L492.06 83.2048H492.12V91.3433H494.273V81.1614ZM501.122 81.1614H499.099L496.578 82.7573V84.6664L498.91 83.2048H498.969V91.3433H501.122V81.1614ZM509.115 89.4342C509.12 90.6572 509.901 91.6962 511.357 91.6962C512.799 91.6962 513.605 90.6572 513.6 89.4342V88.8972C513.605 87.6643 512.819 86.6352 511.357 86.6352C509.921 86.6352 509.12 87.6742 509.115 88.8972V89.4342ZM503.89 83.6075C503.895 84.8305 504.676 85.8596 506.127 85.8596C507.574 85.8596 508.379 84.8404 508.374 83.6075V83.0705C508.379 81.8376 507.594 80.8085 506.127 80.8085C504.705 80.8085 503.895 81.8376 503.89 83.0705V83.6075ZM504.377 91.3433H505.675L512.675 81.1614H511.377L504.377 91.3433ZM510.562 88.8972C510.567 88.41 510.761 87.9079 511.357 87.9079C511.984 87.9079 512.148 88.41 512.143 88.8972V89.4342C512.148 89.9214 511.964 90.4136 511.357 90.4136C510.751 90.4136 510.567 89.9065 510.562 89.4342V88.8972ZM505.347 83.0705C505.352 82.5982 505.536 82.0812 506.127 82.0812C506.754 82.0812 506.923 82.5833 506.918 83.0705V83.6075C506.923 84.0947 506.734 84.5869 506.127 84.5869C505.541 84.5869 505.352 84.0947 505.347 83.6075V83.0705Z" fill="#31600F" fill-opacity="0.8"/>
<line x1="275.417" y1="238.888" x2="345.616" y2="344.919" stroke="#171A1A" stroke-opacity="0.25"/>
<path d="M159.665 370.379H163.344C165.75 370.379 166.744 369.206 166.744 367.675C166.744 366.064 165.631 365.189 164.696 365.129V365.03C165.571 364.791 166.346 364.214 166.346 362.902C166.346 361.41 165.352 360.197 163.224 360.197H159.665V370.379ZM160.898 369.285V365.746H163.403C164.736 365.746 165.571 366.641 165.571 367.675C165.571 368.569 164.954 369.285 163.344 369.285H160.898ZM160.898 364.672V361.291H163.224C164.577 361.291 165.173 362.007 165.173 362.902C165.173 363.976 164.298 364.672 163.184 364.672H160.898ZM171.713 370.538C173.781 370.538 175.173 368.967 175.173 366.601C175.173 364.214 173.781 362.643 171.713 362.643C169.645 362.643 168.253 364.214 168.253 366.601C168.253 368.967 169.645 370.538 171.713 370.538ZM171.713 369.484C170.142 369.484 169.426 368.132 169.426 366.601C169.426 365.069 170.142 363.697 171.713 363.697C173.284 363.697 174 365.069 174 366.601C174 368.132 173.284 369.484 171.713 369.484ZM176.487 368.43C176.527 369.683 177.725 370.538 179.351 370.538C181.021 370.538 182.234 369.643 182.234 368.251C182.234 367.297 181.663 366.521 180.803 366.462V366.382C181.528 366.158 182.075 365.631 182.075 364.771C182.075 363.563 181.041 362.643 179.43 362.643C177.839 362.643 176.706 363.518 176.666 364.751H177.899C177.934 364.12 178.595 363.677 179.49 363.677C180.38 363.677 180.882 364.13 180.882 364.811C180.882 365.447 180.445 365.925 179.51 365.925H178.197V366.979H179.51C180.445 366.979 181.041 367.491 181.041 368.251C181.041 369.121 180.271 369.484 179.331 369.484C178.411 369.484 177.795 369.121 177.74 368.43H176.487ZM183.067 372.567H184.24V370.379H189.888V372.567H191.061V369.285H189.888V362.743H185.036L184.777 365.766C184.593 367.903 184.32 368.639 183.703 369.285H183.067V372.567ZM185.036 369.285C185.573 368.579 185.767 367.361 185.931 365.766L186.13 363.837H188.715V369.285H185.036ZM195.82 370.538C197.372 370.538 198.505 369.763 198.863 368.609L197.73 368.291C197.431 369.087 196.74 369.484 195.82 369.484C194.443 369.484 193.494 368.594 193.439 366.959H198.982V366.462C198.982 363.618 197.292 362.643 195.701 362.643C193.633 362.643 192.261 364.274 192.261 366.621C192.261 368.967 193.613 370.538 195.82 370.538ZM193.439 365.944C193.519 364.756 194.359 363.697 195.701 363.697C196.974 363.697 197.789 364.652 197.789 365.944H193.439ZM201.941 368.649V362.743H200.767V370.379H202.139L205.798 364.473V370.379H206.972V362.743H205.619L201.941 368.649ZM204.844 360.197C204.844 360.714 204.566 361.172 203.869 361.172C203.173 361.172 202.915 360.714 202.915 360.197H201.821C201.821 361.271 202.617 362.027 203.869 362.027C205.142 362.027 205.938 361.271 205.938 360.197H204.844ZM212.223 370.538C213.913 370.538 215.027 369.504 215.226 368.152H214.053C213.834 368.987 213.138 369.484 212.223 369.484C210.831 369.484 209.936 368.331 209.936 366.561C209.936 364.831 210.851 363.697 212.223 363.697C213.257 363.697 213.874 364.334 214.053 365.03H215.226C215.027 363.598 213.814 362.643 212.203 362.643C210.135 362.643 208.763 364.274 208.763 366.601C208.763 368.888 210.075 370.538 212.223 370.538ZM216.339 363.837H218.865V370.379H220.038V363.837H222.544V362.743H216.339V363.837ZM224.256 370.379H227.855C229.406 370.379 230.341 369.504 230.341 368.331C230.341 367.133 229.431 366.486 228.591 366.362C229.451 366.183 230.062 365.701 230.062 364.771C230.062 363.553 229.018 362.743 227.378 362.743H224.256V370.379ZM225.369 369.305V366.959H227.855C228.66 366.959 229.148 367.441 229.148 368.231C229.148 368.898 228.66 369.305 227.855 369.305H225.369ZM225.369 365.944V363.817H227.378C228.317 363.817 228.889 364.209 228.889 364.851C228.889 365.532 228.317 365.944 227.378 365.944H225.369ZM233.29 368.649V362.743H232.117V370.379H233.489L237.148 364.473V370.379H238.321V362.743H236.969L233.29 368.649ZM243.672 370.538C245.223 370.538 246.357 369.763 246.715 368.609L245.581 368.291C245.283 369.087 244.592 369.484 243.672 369.484C242.295 369.484 241.345 368.594 241.291 366.959H246.834V366.462C246.834 363.618 245.144 362.643 243.553 362.643C241.485 362.643 240.112 364.274 240.112 366.621C240.112 368.967 241.465 370.538 243.672 370.538ZM241.291 365.944C241.37 364.756 242.21 363.697 243.553 363.697C244.825 363.697 245.641 364.652 245.641 365.944H241.291ZM252.556 370.379H256.156C257.707 370.379 258.642 369.504 258.642 368.331C258.642 367.133 257.732 366.486 256.892 366.362C257.752 366.183 258.363 365.701 258.363 364.771C258.363 363.553 257.319 362.743 255.678 362.743H252.556V370.379ZM253.67 369.305V366.959H256.156C256.961 366.959 257.448 367.441 257.448 368.231C257.448 368.898 256.961 369.305 256.156 369.305H253.67ZM253.67 365.944V363.817H255.678C256.618 363.817 257.19 364.209 257.19 364.851C257.19 365.532 256.618 365.944 255.678 365.944H253.67ZM260.418 373.243H261.591V369.206H261.69C261.949 369.623 262.446 370.538 263.918 370.538C265.827 370.538 267.159 369.007 267.159 366.581C267.159 364.175 265.827 362.643 263.898 362.643C262.406 362.643 261.949 363.558 261.69 363.956H261.551V362.743H260.418V373.243ZM261.571 366.561C261.571 364.851 262.327 363.697 263.759 363.697C265.25 363.697 265.986 364.95 265.986 366.561C265.986 368.192 265.23 369.484 263.759 369.484C262.347 369.484 261.571 368.291 261.571 366.561ZM272.151 370.538C273.702 370.538 274.835 369.763 275.193 368.609L274.06 368.291C273.761 369.087 273.07 369.484 272.151 369.484C270.773 369.484 269.824 368.594 269.769 366.959H275.312V366.462C275.312 363.618 273.622 362.643 272.031 362.643C269.963 362.643 268.591 364.274 268.591 366.621C268.591 368.967 269.943 370.538 272.151 370.538ZM269.769 365.944C269.849 364.756 270.689 363.697 272.031 363.697C273.304 363.697 274.119 364.652 274.119 365.944H269.769ZM276.282 372.567H277.455V370.379H283.103V372.567H284.276V369.285H283.103V362.743H278.251L277.992 365.766C277.808 367.903 277.535 368.639 276.918 369.285H276.282V372.567ZM278.251 369.285C278.788 368.579 278.982 367.361 279.146 365.766L279.344 363.837H281.93V369.285H278.251ZM288.936 370.538C291.004 370.538 292.396 368.967 292.396 366.601C292.396 364.214 291.004 362.643 288.936 362.643C286.868 362.643 285.476 364.214 285.476 366.601C285.476 368.967 286.868 370.538 288.936 370.538ZM288.936 369.484C287.365 369.484 286.649 368.132 286.649 366.601C286.649 365.069 287.365 363.697 288.936 363.697C290.507 363.697 291.223 365.069 291.223 366.601C291.223 368.132 290.507 369.484 288.936 369.484ZM295.36 362.743H294.187V370.379H295.36V367.118H299.02V370.379H300.193V362.743H299.02V366.024H295.36V362.743ZM305.438 370.538C307.506 370.538 308.898 368.967 308.898 366.601C308.898 364.214 307.506 362.643 305.438 362.643C303.37 362.643 301.978 364.214 301.978 366.601C301.978 368.967 303.37 370.538 305.438 370.538ZM305.438 369.484C303.867 369.484 303.151 368.132 303.151 366.601C303.151 365.069 303.867 363.697 305.438 363.697C307.009 363.697 307.725 365.069 307.725 366.601C307.725 368.132 307.009 369.484 305.438 369.484ZM313.791 370.538C315.482 370.538 316.595 369.504 316.794 368.152H315.621C315.402 368.987 314.706 369.484 313.791 369.484C312.399 369.484 311.504 368.331 311.504 366.561C311.504 364.831 312.419 363.697 313.791 363.697C314.825 363.697 315.442 364.334 315.621 365.03H316.794C316.595 363.598 315.382 362.643 313.771 362.643C311.703 362.643 310.331 364.274 310.331 366.601C310.331 368.888 311.644 370.538 313.791 370.538ZM319.683 362.743H318.509V370.379H319.683V367.118H323.342V370.379H324.515V362.743H323.342V366.024H319.683V362.743ZM327.831 365.507V362.743H326.658V370.379H329.86C331.649 370.379 332.624 369.285 332.624 367.913C332.624 366.521 331.649 365.507 329.86 365.507H327.831ZM333.837 370.379H335.01V362.743H333.837V370.379ZM327.831 366.601H329.86C330.789 366.601 331.45 367.168 331.45 367.973C331.45 368.743 330.789 369.285 329.86 369.285H327.831V366.601ZM338.033 362.743H336.681L339.107 366.561L336.681 370.379H338.033L339.862 367.416L341.692 370.379H343.044L340.578 366.561L343.044 362.743H341.692L339.862 365.865L338.033 362.743ZM352.832 368.788L350.207 362.743H348.656V370.379H349.829V364.428L352.355 370.379H353.309L355.835 364.538V370.379H357.008V362.743H355.497L352.832 368.788ZM360.329 368.649V362.743H359.156V370.379H360.528L364.187 364.473V370.379H365.36V362.743H364.008L360.329 368.649ZM367.509 370.379H368.683V367.158H369.737L372.242 370.379H373.754L370.632 366.422L373.714 362.743H372.203L369.458 366.064H368.683V362.743H367.509V370.379ZM375.029 373.243H376.202V369.206H376.302C376.56 369.623 377.057 370.538 378.529 370.538C380.438 370.538 381.77 369.007 381.77 366.581C381.77 364.175 380.438 362.643 378.509 362.643C377.018 362.643 376.56 363.558 376.302 363.956H376.162V362.743H375.029V373.243ZM376.182 366.561C376.182 364.851 376.938 363.697 378.37 363.697C379.861 363.697 380.597 364.95 380.597 366.561C380.597 368.192 379.841 369.484 378.37 369.484C376.958 369.484 376.182 368.291 376.182 366.561ZM386.662 370.538C388.731 370.538 390.123 368.967 390.123 366.601C390.123 364.214 388.731 362.643 386.662 362.643C384.594 362.643 383.202 364.214 383.202 366.601C383.202 368.967 384.594 370.538 386.662 370.538ZM386.662 369.484C385.091 369.484 384.376 368.132 384.376 366.601C384.376 365.069 385.091 363.697 386.662 363.697C388.233 363.697 388.949 365.069 388.949 366.601C388.949 368.132 388.233 369.484 386.662 369.484ZM395.016 370.538C397.084 370.538 398.476 368.967 398.476 366.601C398.476 364.214 397.084 362.643 395.016 362.643C392.948 362.643 391.556 364.214 391.556 366.601C391.556 368.967 392.948 370.538 395.016 370.538ZM395.016 369.484C393.445 369.484 392.729 368.132 392.729 366.601C392.729 365.069 393.445 363.697 395.016 363.697C396.587 363.697 397.303 365.069 397.303 366.601C397.303 368.132 396.587 369.484 395.016 369.484ZM400.267 373.243H401.441V369.206H401.54C401.798 369.623 402.296 370.538 403.767 370.538C405.676 370.538 407.009 369.007 407.009 366.581C407.009 364.175 405.676 362.643 403.747 362.643C402.256 362.643 401.798 363.558 401.54 363.956H401.401V362.743H400.267V373.243ZM401.421 366.561C401.421 364.851 402.176 363.697 403.608 363.697C405.1 363.697 405.835 364.95 405.835 366.561C405.835 368.192 405.08 369.484 403.608 369.484C402.196 369.484 401.421 368.291 401.421 366.561ZM413.512 362.743H408.798V370.379H409.972V363.837H413.512V362.743ZM417.075 370.558C418.407 370.558 419.103 369.842 419.342 369.345H419.402V370.379H420.575V365.348C420.575 362.922 418.725 362.643 417.751 362.643C416.598 362.643 415.285 363.041 414.689 364.433L415.802 364.831C416.061 364.274 416.672 363.677 417.791 363.677C418.87 363.677 419.402 364.249 419.402 365.229V365.268C419.402 365.835 418.825 365.785 417.433 365.964C416.016 366.148 414.47 366.462 414.47 368.212C414.47 369.703 415.623 370.558 417.075 370.558ZM417.254 369.504C416.319 369.504 415.643 369.087 415.643 368.271C415.643 367.376 416.458 367.098 417.373 366.979C417.87 366.919 419.203 366.78 419.402 366.541V367.615C419.402 368.569 418.646 369.504 417.254 369.504ZM423.89 362.743H422.716V370.379H423.89V367.118H427.549V370.379H428.722V362.743H427.549V366.024H423.89V362.743ZM432.038 368.649V362.743H430.865V370.379H432.237L435.896 364.473V370.379H437.069V362.743H435.717L432.038 368.649ZM438.741 368.43C438.781 369.683 439.979 370.538 441.605 370.538C443.275 370.538 444.488 369.643 444.488 368.251C444.488 367.297 443.917 366.521 443.056 366.462V366.382C443.782 366.158 444.329 365.631 444.329 364.771C444.329 363.563 443.295 362.643 441.684 362.643C440.093 362.643 438.96 363.518 438.92 364.751H440.153C440.188 364.12 440.849 363.677 441.744 363.677C442.634 363.677 443.136 364.13 443.136 364.811C443.136 365.447 442.699 365.925 441.764 365.925H440.451V366.979H441.764C442.699 366.979 443.295 367.491 443.295 368.251C443.295 369.121 442.525 369.484 441.585 369.484C440.665 369.484 440.049 369.121 439.994 368.43H438.741ZM450.312 368.788L447.688 362.743H446.136V370.379H447.31V364.428L449.835 370.379H450.79L453.315 364.538V370.379H454.489V362.743H452.977L450.312 368.788ZM459.739 370.538C461.807 370.538 463.199 368.967 463.199 366.601C463.199 364.214 461.807 362.643 459.739 362.643C457.67 362.643 456.278 364.214 456.278 366.601C456.278 368.967 457.67 370.538 459.739 370.538ZM459.739 369.484C458.168 369.484 457.452 368.132 457.452 366.601C457.452 365.069 458.168 363.697 459.739 363.697C461.31 363.697 462.026 365.069 462.026 366.601C462.026 368.132 461.31 369.484 459.739 369.484ZM464.99 370.379H468.589C470.14 370.379 471.075 369.504 471.075 368.331C471.075 367.133 470.165 366.486 469.325 366.362C470.185 366.183 470.797 365.701 470.797 364.771C470.797 363.553 469.753 362.743 468.112 362.743H464.99V370.379ZM466.104 369.305V366.959H468.589C469.395 366.959 469.882 367.441 469.882 368.231C469.882 368.898 469.395 369.305 468.589 369.305H466.104ZM466.104 365.944V363.817H468.112C469.052 363.817 469.623 364.209 469.623 364.851C469.623 365.532 469.052 365.944 468.112 365.944H466.104ZM474.601 368.987H473.328L473.269 369.544C473.125 370.891 472.841 372.234 472.712 372.865H473.607C473.846 372.189 474.353 370.658 474.522 369.524L474.601 368.987ZM486.38 359.879C486.007 360.192 485.45 360.192 484.67 360.187C484.416 360.187 484.138 360.187 483.835 360.197C481.508 360.257 480.355 362.027 480.355 365.427V366.243C480.355 369.067 481.727 370.538 483.775 370.538C485.818 370.538 487.176 369.057 487.176 366.66C487.176 364.254 485.798 362.981 484.014 362.981C482.965 362.981 481.985 363.419 481.468 364.373H481.369C481.528 362.405 482.264 361.351 483.855 361.291C485.267 361.231 486.281 361.271 486.977 360.595L486.38 359.879ZM483.775 369.484C482.383 369.484 481.528 368.371 481.528 366.66C481.553 364.99 482.393 364.035 483.755 364.035C485.152 364.035 486.002 364.99 486.002 366.66C486.002 368.381 485.157 369.484 483.775 369.484ZM492.073 370.538C494.141 370.538 495.533 368.967 495.533 366.601C495.533 364.214 494.141 362.643 492.073 362.643C490.004 362.643 488.612 364.214 488.612 366.601C488.612 368.967 490.004 370.538 492.073 370.538ZM492.073 369.484C490.502 369.484 489.786 368.132 489.786 366.601C489.786 365.069 490.502 363.697 492.073 363.697C493.644 363.697 494.36 365.069 494.36 366.601C494.36 368.132 493.644 369.484 492.073 369.484ZM496.648 370.379H497.045C498.736 370.379 499.223 369.067 499.332 366.561L499.452 363.837H502.256V370.379H503.429V362.743H498.338L498.199 366.123C498.099 368.689 497.841 369.285 496.926 369.285H496.648V370.379ZM508.783 370.538C510.335 370.538 511.468 369.763 511.826 368.609L510.692 368.291C510.394 369.087 509.703 369.484 508.783 369.484C507.406 369.484 506.457 368.594 506.402 366.959H511.945V366.462C511.945 363.618 510.255 362.643 508.664 362.643C506.596 362.643 505.224 364.274 505.224 366.621C505.224 368.967 506.576 370.538 508.783 370.538ZM506.402 365.944C506.482 364.756 507.322 363.697 508.664 363.697C509.937 363.697 510.752 364.652 510.752 365.944H506.402ZM513.253 368.43C513.293 369.683 514.491 370.538 516.116 370.538C517.787 370.538 519 369.643 519 368.251C519 367.297 518.428 366.521 517.568 366.462V366.382C518.294 366.158 518.841 365.631 518.841 364.771C518.841 363.563 517.807 362.643 516.196 362.643C514.605 362.643 513.472 363.518 513.432 364.751H514.665C514.7 364.12 515.361 363.677 516.256 363.677C517.146 363.677 517.648 364.13 517.648 364.811C517.648 365.447 517.21 365.925 516.276 365.925H514.963V366.979H516.276C517.21 366.979 517.807 367.491 517.807 368.251C517.807 369.121 517.036 369.484 516.097 369.484C515.177 369.484 514.56 369.121 514.506 368.43H513.253ZM521.821 362.743H520.648V370.379H521.821V367.118H525.48V370.379H526.654V362.743H525.48V366.024H521.821V362.743ZM529.97 368.649V362.743H528.797V370.379H530.169L533.828 364.473V370.379H535.001V362.743H533.649L529.97 368.649ZM538.9 368.987H537.627L537.568 369.544C537.423 370.891 537.14 372.234 537.011 372.865H537.906C538.144 372.189 538.651 370.658 538.82 369.524L538.9 368.987ZM159.506 391.379H160.679V384.837H164.338V391.379H165.511V383.743H159.506V391.379ZM170.756 391.538C172.824 391.538 174.216 389.967 174.216 387.601C174.216 385.214 172.824 383.643 170.756 383.643C168.688 383.643 167.296 385.214 167.296 387.601C167.296 389.967 168.688 391.538 170.756 391.538ZM170.756 390.484C169.185 390.484 168.469 389.132 168.469 387.601C168.469 386.069 169.185 384.697 170.756 384.697C172.327 384.697 173.043 386.069 173.043 387.601C173.043 389.132 172.327 390.484 170.756 390.484ZM176.007 391.379H179.607C181.158 391.379 182.093 390.504 182.093 389.331C182.093 388.133 181.183 387.486 180.343 387.362C181.203 387.183 181.814 386.701 181.814 385.771C181.814 384.553 180.77 383.743 179.13 383.743H176.007V391.379ZM177.121 390.305V387.959H179.607C180.412 387.959 180.9 388.441 180.9 389.231C180.9 389.898 180.412 390.305 179.607 390.305H177.121ZM177.121 386.944V384.817H179.13C180.069 384.817 180.641 385.209 180.641 385.851C180.641 386.532 180.069 386.944 179.13 386.944H177.121ZM183.869 394.243H185.042V390.206H185.142C185.4 390.623 185.897 391.538 187.369 391.538C189.278 391.538 190.61 390.007 190.61 387.581C190.61 385.175 189.278 383.643 187.349 383.643C185.857 383.643 185.4 384.558 185.142 384.956H185.002V383.743H183.869V394.243ZM185.022 387.561C185.022 385.851 185.778 384.697 187.21 384.697C188.701 384.697 189.437 385.95 189.437 387.561C189.437 389.192 188.681 390.484 187.21 390.484C185.798 390.484 185.022 389.291 185.022 387.561ZM195.602 391.538C197.153 391.538 198.286 390.763 198.644 389.609L197.511 389.291C197.213 390.087 196.521 390.484 195.602 390.484C194.225 390.484 193.275 389.594 193.22 387.959H198.764V387.462C198.764 384.618 197.073 383.643 195.482 383.643C193.414 383.643 192.042 385.274 192.042 387.621C192.042 389.967 193.394 391.538 195.602 391.538ZM193.22 386.944C193.3 385.756 194.14 384.697 195.482 384.697C196.755 384.697 197.57 385.652 197.57 386.944H193.22ZM199.866 391.379H201.278L203.883 388.098H204.48V391.379H205.653V388.098H206.25L208.835 391.379H210.247L207.164 387.501L210.207 383.743H208.815L206.27 387.004H205.653V383.743H204.48V387.004H203.843L201.298 383.743H199.906L202.968 387.501L199.866 391.379ZM211.108 393.567H212.281V391.379H217.929V393.567H219.102V390.285H217.929V383.743H213.077L212.818 386.766C212.634 388.903 212.361 389.639 211.744 390.285H211.108V393.567ZM213.077 390.285C213.614 389.579 213.808 388.361 213.972 386.766L214.171 384.837H216.756V390.285H213.077ZM223.862 391.538C225.413 391.538 226.546 390.763 226.904 389.609L225.771 389.291C225.472 390.087 224.781 390.484 223.862 390.484C222.484 390.484 221.535 389.594 221.48 387.959H227.023V387.462C227.023 384.618 225.333 383.643 223.742 383.643C221.674 383.643 220.302 385.274 220.302 387.621C220.302 389.967 221.654 391.538 223.862 391.538ZM221.48 386.944C221.56 385.756 222.4 384.697 223.742 384.697C225.015 384.697 225.83 385.652 225.83 386.944H221.48ZM229.982 383.743H228.808V391.379H229.982V388.118H233.641V391.379H234.814V383.743H233.641V387.024H229.982V383.743ZM238.13 389.649V383.743H236.957V391.379H238.329L241.988 385.473V391.379H243.161V383.743H241.809L238.13 389.649ZM249.904 391.379H251.018V383.743H247.876C246.23 383.743 245.231 384.603 245.231 386.01C245.231 387.059 245.758 387.805 246.677 388.118L244.813 391.379H246.086L247.856 388.277H249.904V391.379ZM249.904 387.183H247.736C246.906 387.183 246.404 386.741 246.404 386.01C246.404 385.269 246.961 384.817 247.876 384.817H249.904V387.183ZM256.632 391.379H258.044L260.649 388.098H261.245V391.379H262.419V388.098H263.015L265.6 391.379H267.012L263.93 387.501L266.973 383.743H265.581L263.035 387.004H262.419V383.743H261.245V387.004H260.609L258.064 383.743H256.672L259.734 387.501L256.632 391.379ZM269.862 389.649V383.743H268.689V391.379H270.061L273.72 385.473V391.379H274.894V383.743H273.541L269.862 389.649ZM277.043 391.379H280.642C282.193 391.379 283.128 390.504 283.128 389.331C283.128 388.133 282.218 387.486 281.378 387.362C282.238 387.183 282.849 386.701 282.849 385.771C282.849 384.553 281.805 383.743 280.165 383.743H277.043V391.379ZM278.156 390.305V387.959H280.642C281.447 387.959 281.935 388.441 281.935 389.231C281.935 389.898 281.447 390.305 280.642 390.305H278.156ZM278.156 386.944V384.817H280.165C281.104 384.817 281.676 385.209 281.676 385.851C281.676 386.532 281.104 386.944 280.165 386.944H278.156ZM288.006 391.538C290.074 391.538 291.466 389.967 291.466 387.601C291.466 385.214 290.074 383.643 288.006 383.643C285.938 383.643 284.546 385.214 284.546 387.601C284.546 389.967 285.938 391.538 288.006 391.538ZM288.006 390.484C286.435 390.484 285.719 389.132 285.719 387.601C285.719 386.069 286.435 384.697 288.006 384.697C289.577 384.697 290.293 386.069 290.293 387.601C290.293 389.132 289.577 390.484 288.006 390.484ZM292.259 384.837H294.785V391.379H295.958V384.837H298.464V383.743H292.259V384.837ZM301.349 383.743H300.175V391.379H301.349V388.118H305.008V391.379H306.181V383.743H305.008V387.024H301.349V383.743ZM309.497 386.507V383.743H308.324V391.379H311.526C313.315 391.379 314.29 390.285 314.29 388.913C314.29 387.521 313.315 386.507 311.526 386.507H309.497ZM315.503 391.379H316.676V383.743H315.503V391.379ZM309.497 387.601H311.526C312.455 387.601 313.116 388.168 313.116 388.973C313.116 389.743 312.455 390.285 311.526 390.285H309.497V387.601ZM323 389.788L320.375 383.743H318.824V391.379H319.997V385.428L322.523 391.379H323.477L326.003 385.538V391.379H327.176V383.743H325.665L323 389.788ZM330.497 389.649V383.743H329.324V391.379H330.696L334.355 385.473V391.379H335.528V383.743H334.176L330.497 389.649ZM342.788 389.649V383.743H341.615V391.379H342.987L346.646 385.473V391.379H347.819V383.743H346.467L342.788 389.649ZM353.906 391.379H355.079V384.837H358.738V391.379H359.912V383.743H353.906V391.379ZM361.015 384.837H363.541V391.379H364.714V384.837H367.22V383.743H361.015V384.837ZM370.105 389.649V383.743H368.931V391.379H370.303L373.963 385.473V391.379H375.136V383.743H373.784L370.105 389.649ZM383.29 383.743H382.117V390.285H378.458V383.743H377.285V391.379H383.191V393.845H384.364V390.285H383.29V383.743ZM388.419 391.558C389.751 391.558 390.447 390.842 390.686 390.345H390.745V391.379H391.919V386.348C391.919 383.922 390.069 383.643 389.095 383.643C387.941 383.643 386.629 384.041 386.032 385.433L387.146 385.831C387.404 385.274 388.016 384.677 389.135 384.677C390.213 384.677 390.745 385.249 390.745 386.229V386.268C390.745 386.835 390.169 386.785 388.777 386.964C387.36 387.148 385.814 387.462 385.814 389.212C385.814 390.703 386.967 391.558 388.419 391.558ZM388.598 390.504C387.663 390.504 386.987 390.087 386.987 389.271C386.987 388.376 387.802 388.098 388.717 387.979C389.214 387.919 390.547 387.78 390.745 387.541V388.615C390.745 389.569 389.99 390.504 388.598 390.504ZM398.236 389.788L395.611 383.743H394.06V391.379H395.233V385.428L397.759 391.379H398.714L401.239 385.538V391.379H402.412V383.743H400.901L398.236 389.788ZM405.733 389.649V383.743H404.56V391.379H405.932L409.591 385.473V391.379H410.765V383.743H409.412L405.733 389.649ZM422.777 386.467H415.777V387.561H422.777V386.467Z" fill="#171A1A"/>
<path d="M427.943 391.379H430.165L434.391 382.982V381.197H427.247V382.957H432.164V383.027L427.943 391.379ZM441.439 389.47C441.444 390.693 442.225 391.732 443.682 391.732C445.123 391.732 445.929 390.693 445.924 389.47V388.933C445.929 387.7 445.143 386.671 443.682 386.671C442.245 386.671 441.444 387.71 441.439 388.933V389.47ZM436.214 383.643C436.219 384.866 437 385.895 438.452 385.895C439.898 385.895 440.704 384.876 440.699 383.643V383.106C440.704 381.873 439.918 380.844 438.452 380.844C437.03 380.844 436.219 381.873 436.214 383.106V383.643ZM436.702 391.379H437.999L444.999 381.197H443.702L436.702 391.379ZM442.886 388.933C442.891 388.446 443.085 387.944 443.682 387.944C444.308 387.944 444.472 388.446 444.467 388.933V389.47C444.472 389.957 444.288 390.449 443.682 390.449C443.075 390.449 442.891 389.942 442.886 389.47V388.933ZM437.671 383.106C437.676 382.634 437.86 382.117 438.452 382.117C439.078 382.117 439.247 382.619 439.242 383.106V383.643C439.247 384.131 439.058 384.623 438.452 384.623C437.865 384.623 437.676 384.131 437.671 383.643V383.106Z" fill="#31600F" fill-opacity="0.8"/>
</svg>
