<svg width="0" height="0" class="hidden">
  <symbol fill="none" xmlns="http://www.w3.org/2000/svg" viewBox="0 0 26 25" id="info-icon">
    <g clip-path="url(#clip0_44:613)">
      <path d="M11.6912 24.9754C9.18473 24.7753 6.89644 23.8935 4.9443 22.3754C4.12089 21.7351 3.24249 20.8431 2.6164 20.0114C0.654121 17.4047 -0.202619 14.1306 0.222121 10.8614C0.497094 8.74469 1.32396 6.71815 2.61576 4.99499C3.24975 4.14927 4.26339 3.13537 5.10887 2.50124C7.72875 0.53615 10.9904 -0.317473 14.2565 0.10699C16.3456 0.378516 18.3635 1.19528 20.0572 2.45473C20.9563 3.12328 21.9463 4.1071 22.6136 4.99501C24.5788 7.60992 25.4326 10.8724 25.0085 14.146C24.7456 16.1756 23.9542 18.1645 22.7492 19.8243C22.3424 20.3845 22.0169 20.7613 21.4439 21.335C20.4658 22.3145 19.7014 22.881 18.3891 23.5991C18.2973 23.6493 18.0664 23.7618 17.8758 23.8492C16.4646 24.4966 15.0327 24.8659 13.5004 24.9777C13.0847 25.008 12.0837 25.0068 11.6912 24.9755L11.6912 24.9754ZM13.7114 23.0398C18.3117 22.5617 22.0951 19.1204 22.9953 14.5952C23.2767 13.1806 23.2767 11.8257 22.9953 10.4111C22.5028 7.93553 21.1316 5.72062 19.1139 4.14172C16.3387 1.9701 12.6251 1.33328 9.2659 2.45278C7.7608 2.9544 6.38811 3.7899 5.24511 4.89988C2.71525 7.3569 1.58231 10.8497 2.18409 14.3384C2.58679 16.6739 3.81766 18.8674 5.609 20.442C7.3956 22.0123 9.56051 22.9128 11.9476 23.0784C12.3713 23.1078 13.2382 23.0887 13.7112 23.0396L13.7114 23.0398ZM8.94538 19.7203V19.2365L9.3344 19.2197C9.54836 19.2104 9.81916 19.2029 9.93621 19.2029C10.4656 19.2029 10.7065 19.0572 10.8048 18.6777C10.8394 18.5439 10.8444 18.1404 10.8444 15.4667C10.8444 12.1477 10.8494 12.2691 10.7038 12.0782C10.611 11.9564 10.4076 11.8457 10.1772 11.7914C10.0195 11.7542 9.87453 11.7465 9.37521 11.7485L8.76573 11.751V11.2806C8.76573 10.8131 8.76609 10.81 8.82347 10.799C8.85523 10.7928 10.1169 10.7462 11.6271 10.6954C13.1373 10.6446 14.4392 10.5968 14.5203 10.5893L14.6675 10.5756L14.6743 14.6793L14.681 18.783L14.751 18.8888C14.905 19.1216 15.1559 19.1898 15.9577 19.217L16.4645 19.2341V20.2039H8.94541V19.7202L8.94538 19.7203ZM11.9992 9.09841C11.191 8.93964 10.5567 8.37401 10.3052 7.58769C10.2262 7.34056 10.2046 6.76915 10.2647 6.51336C10.3663 6.08032 10.5387 5.77114 10.8549 5.45485C11.1226 5.18707 11.3602 5.03506 11.6783 4.92815C12.9104 4.514 14.2165 5.26043 14.4907 6.53528C14.5734 6.92037 14.5129 7.46727 14.3457 7.8462C14.1649 8.25557 13.7825 8.66484 13.3938 8.8648C13.0227 9.05569 12.8659 9.09476 12.4356 9.1035C12.2309 9.10765 12.0346 9.10538 11.9993 9.09845L11.9992 9.09841Z" fill="#31600F" fill-opacity="0.8"></path>
    </g>
    <defs>
      <clipPath id="clip0_44:613">
        <rect width="25" height="25" fill="white" transform="translate(0.115234)"></rect>
      </clipPath>
    </defs>
  </symbol>
  <symbol fill="none" xmlns="http://www.w3.org/2000/svg" viewBox="0 0 25 25" id="icon-close-green">
    <path d="M1.30469 23.6778L0.000976562 22.3736L9.87408 12.5002L0.000976562 2.62668L2.62758 7.62939e-05L12.501 9.87318L22.3745 7.62939e-05L25.0011 2.62668L15.128 12.5002L25.0011 22.3736L22.3745 25.0002L12.501 15.1271L7.57363 20.0546C4.86353 22.7646 2.63764 24.982 2.62721 24.982C2.61689 24.982 2.02176 24.3951 1.30472 23.6779L1.30469 23.6778Z" fill="#31600F"></path>
  </symbol>
  <symbol xmlns="http://www.w3.org/2000/svg" viewBox="0 0 51 51" id="play-icon">
    <path d="M22.0532 50.15C13.9048 49.2191 6.05304 43.4691 2.52825 35.8516C-0.911523 28.4181 -0.428637 19.5988 3.81254 12.3923C5.45247 9.60611 9.53865 5.52608 12.3291 3.88868C20.7298 -1.04114 31.1393 -0.827691 39.0886 4.43729C41.0796 5.75588 44.0346 8.56367 45.4649 10.4963C48.7527 14.9382 50.2511 19.5832 50.2511 25.3323C50.2511 32.5931 47.7776 38.3839 42.5317 43.403C36.9912 48.7043 29.8879 51.0442 22.0524 50.1489L22.0532 50.15ZM29.8632 47.1296C34.8563 46.1306 39.8784 42.9518 43.0009 38.8143C48.1602 31.9777 49.022 23.1002 45.262 15.5198C39.797 4.50273 26.4375 -0.0385108 15.461 5.38995C7.19286 9.47889 2.23124 18.2666 3.09281 27.2956C3.37691 30.2728 3.98672 32.4309 5.30843 35.1364C9.17575 43.0525 17.7478 48.1064 26.4047 47.5739C27.3866 47.5135 28.943 47.3134 29.8635 47.1292L29.8632 47.1296ZM18.9006 36.4394C18.6503 36.1383 18.5943 34.1028 18.5943 25.3071C18.5943 15.5733 18.6298 14.5076 18.9649 14.1732C19.1687 13.9697 19.5818 13.8032 19.8828 13.8032C20.2163 13.8032 23.6712 15.8757 28.7225 19.106C37.1471 24.4932 37.476 24.7557 37.138 25.8191C37.0669 26.0426 33.292 28.6065 28.7495 31.5167C20.2792 36.9432 19.6008 37.2823 18.9006 36.4397L18.9006 36.4394ZM33.0549 25.4546C33.1535 25.3624 30.5679 23.5735 27.3089 21.4792L21.3835 17.6715V32.9968L27.1295 29.3093C30.2897 27.2813 32.9562 25.5466 33.0549 25.4543V25.4546Z" fill="white" fill-opacity="0.8"></path>
  </symbol>
</svg>